<svg width="343" height="464" viewBox="0 0 343 464" fill="none" xmlns="http://www.w3.org/2000/svg">
<path d="M0 0H343V464H0V0Z" fill="#1F201E"/>
<path opacity="0.2" d="M-226.87 194.55C-340.108 200.109 -177.461 245.471 -47.3763 229.68C13.6086 222.276 97.3663 205.668 181.94 218.524C230.854 225.96 418.76 205.668 496.588 205.668C574.416 205.668 473.603 194.55 418.011 194.55C362.42 194.55 350.625 137.75 267.238 170.461C183.85 203.173 257.465 150.001 170.743 119.545C90.856 91.4903 71.8687 149.717 41.8493 163.253C11.8299 176.789 -53.3601 144.52 -84.4093 170.461C-115.458 196.403 -113.632 188.991 -226.87 194.55Z" fill="white"/>
</svg>
