<svg width="1280" height="240" viewBox="0 0 1280 240" fill="none" xmlns="http://www.w3.org/2000/svg">
<path d="M0 0H1280V240H0V0Z" fill="#1F201E"/>
<path opacity="0.2" d="M-269.128 217.149C-457.904 226.51 -186.759 302.901 30.1008 276.308C131.767 263.841 271.397 235.871 412.387 257.522C493.93 270.043 807.183 235.871 936.928 235.871C1066.67 235.871 898.61 217.149 805.935 217.149C713.26 217.149 693.597 121.497 554.585 176.584C415.572 231.67 538.294 142.129 393.721 90.841C260.544 43.596 228.891 141.65 178.846 164.445C128.802 187.239 20.1253 132.898 -31.6359 176.584C-83.3971 220.269 -80.3524 207.788 -269.128 217.149Z" fill="white"/>
</svg>
