<svg width="1440" height="620" viewBox="0 0 1440 620" fill="none" xmlns="http://www.w3.org/2000/svg">
<g clip-path="url(#clip0_123_309)">
<rect width="1440" height="620" fill="#FFF586"/>
<path d="M-453.245 401.379C-642.021 410.623 -370.876 486.06 -154.016 459.799C-52.3498 447.487 87.2803 419.868 228.271 441.247C309.813 453.613 623.066 419.868 752.812 419.868C882.557 419.868 714.493 401.379 621.818 401.379C529.143 401.379 509.481 306.923 370.468 361.321C231.456 415.719 354.177 327.297 209.604 276.65C76.4272 229.996 44.7741 326.824 -5.27045 349.334C-55.315 371.843 -163.991 318.182 -215.753 361.321C-267.514 404.461 -264.469 392.135 -453.245 401.379Z" fill="#FFD400"/>
<path d="M458.075 347.652C458.87 363.05 447.085 376.164 431.755 376.945C416.424 377.725 403.352 365.877 402.557 350.479C401.763 335.082 413.548 321.968 428.878 321.187C444.208 320.406 457.281 332.255 458.075 347.652Z" fill="#423D9B" stroke="black"/>
<path d="M443.549 348.392C443.928 355.733 438.309 361.984 431.002 362.356C423.694 362.728 417.462 357.08 417.083 349.74C416.704 342.399 422.323 336.147 429.631 335.775C436.938 335.403 443.17 341.051 443.549 348.392Z" fill="#211A67" stroke="black"/>
<path d="M238.788 89.5099L238.79 89.5074C250.45 74.4613 276.333 76.371 283.961 96.648L283.961 96.648L314.155 176.878L217.971 157.667L234.138 98.9045C235.147 95.2612 236.731 92.1307 238.788 89.5099Z" fill="#EC72A5" stroke="black"/>
<path d="M243.166 126.362C250.374 143.824 266.165 163.102 299.966 174.049L217.97 157.672L234.136 98.9149C234.136 98.9147 234.136 98.9145 234.136 98.9144C234.953 95.9637 236.147 93.3494 237.665 91.0698C237.633 91.4011 237.601 91.772 237.57 92.1804C237.425 94.1248 237.317 96.9195 237.465 100.332C237.76 107.154 239.077 116.455 243.166 126.362Z" fill="#DC437A" stroke="black"/>
<path d="M70.2637 325.94L172.901 319.644C176.764 320.837 178.928 324.505 179.68 329.498C180.436 334.516 179.732 340.735 177.981 346.673C176.229 352.611 173.446 358.211 170.091 362.006C166.729 365.808 162.894 367.699 158.979 366.534L158.937 366.521L158.894 366.516C137.517 364.062 115.101 353.729 98.0008 343.983C89.4569 339.114 82.2524 334.398 77.1845 330.899C74.6507 329.15 72.6514 327.706 71.2862 326.7C70.8916 326.409 70.5499 326.154 70.2637 325.94Z" fill="#423D9B" stroke="black"/>
<path d="M160.881 360.044C159.891 359.749 159.131 359.034 158.582 357.936C158.028 356.83 157.702 355.357 157.591 353.622C157.368 350.153 158.013 345.762 159.24 341.483C160.502 337.08 162.365 332.848 164.48 329.905C165.538 328.432 166.641 327.309 167.738 326.64C168.826 325.976 169.883 325.773 170.901 326.076L171.042 325.596L170.901 326.076C171.898 326.373 172.662 327.097 173.212 328.209C173.767 329.329 174.091 330.82 174.196 332.576C174.407 336.086 173.739 340.523 172.486 344.829C171.216 349.195 169.359 353.377 167.256 356.279C166.204 357.732 165.109 358.837 164.02 359.495C162.94 360.147 161.892 360.345 160.881 360.044Z" fill="#211A67" stroke="black"/>
<path d="M170.49 309.026L273.127 302.73C276.99 303.923 279.155 307.592 279.906 312.584C280.662 317.602 279.959 323.822 278.207 329.759C276.456 335.697 273.673 341.297 270.318 345.092C266.956 348.894 263.12 350.785 259.205 349.62L259.163 349.607L259.12 349.602C237.744 347.148 215.327 336.815 198.227 327.069C189.683 322.2 182.479 317.484 177.411 313.986C174.877 312.237 172.878 310.792 171.513 309.786C171.118 309.495 170.776 309.24 170.49 309.026Z" fill="#423D9B" stroke="black"/>
<path d="M260.847 343.879C264.728 345.036 270.184 338.156 273.034 328.512C275.884 318.869 275.049 310.114 271.168 308.957C267.287 307.801 261.831 314.681 258.981 324.324C256.131 333.968 256.966 342.723 260.847 343.879Z" fill="#211A67"/>
<path d="M-55.3997 169.331C-56.5427 168.991 -57.7158 168.641 -58.9023 168.221C-70.7487 164.424 -83.9925 158.526 -86.1271 152.097C-90.5249 138.763 -30.076 133.588 -6.17414 134.44C11.6389 135.096 68.0725 150.821 68.2755 168.127C68.4542 183.237 -27.5149 177.634 -55.3997 169.331Z" fill="#EC72A5"/>
<mask id="path-11-inside-1_123_309" fill="white">
<path fill-rule="evenodd" clip-rule="evenodd" d="M514.809 275.87C501.691 194.193 171.12 149.606 108.53 141.883C102.147 141.095 96.5848 137.168 93.6756 131.414L48.6111 42.281C45.0069 35.1522 38.6364 29.8261 30.9972 27.5546L-1.6848 17.837C-7.89669 15.99 -14.1242 20.6795 -14.0909 27.1791L-13.4562 150.809C-13.4063 160.531 -8.44857 169.611 -0.221926 174.75C217.005 310.445 461.697 368.813 529.126 343.495C547.589 336.562 554.258 313.299 543.596 296.662C537.294 286.829 527.107 279.954 514.809 275.87ZM166.736 204.88C174.609 207.042 182.724 202.371 184.879 194.474C187.024 186.61 182.402 178.477 174.53 176.314C166.657 174.152 158.551 178.79 156.405 186.654C154.251 194.551 158.864 202.717 166.736 204.88ZM239.293 207.157C237.139 215.054 229.023 219.724 221.151 217.562C213.278 215.399 208.665 207.233 210.82 199.336C212.965 191.472 221.072 186.834 228.944 188.996C236.817 191.159 241.439 199.292 239.293 207.157ZM275.565 230.243C283.437 232.406 291.553 227.735 293.707 219.838C295.853 211.974 291.231 203.84 283.359 201.678C275.486 199.516 267.38 204.153 265.234 212.018C263.079 219.915 267.692 228.081 275.565 230.243ZM348.122 232.52C345.968 240.417 337.852 245.087 329.98 242.925C322.107 240.763 317.494 232.596 319.649 224.699C321.794 216.835 329.901 212.198 337.773 214.36C345.646 216.522 350.268 224.656 348.122 232.52ZM384.394 255.607C392.266 257.77 400.382 253.099 402.537 245.202C404.682 237.338 400.06 229.204 392.188 227.042C384.315 224.88 376.209 229.517 374.063 237.381C371.908 245.278 376.522 253.445 384.394 255.607Z"/>
</mask>
<path fill-rule="evenodd" clip-rule="evenodd" d="M514.809 275.87C501.691 194.193 171.12 149.606 108.53 141.883C102.147 141.095 96.5848 137.168 93.6756 131.414L48.6111 42.281C45.0069 35.1522 38.6364 29.8261 30.9972 27.5546L-1.6848 17.837C-7.89669 15.99 -14.1242 20.6795 -14.0909 27.1791L-13.4562 150.809C-13.4063 160.531 -8.44857 169.611 -0.221926 174.75C217.005 310.445 461.697 368.813 529.126 343.495C547.589 336.562 554.258 313.299 543.596 296.662C537.294 286.829 527.107 279.954 514.809 275.87ZM166.736 204.88C174.609 207.042 182.724 202.371 184.879 194.474C187.024 186.61 182.402 178.477 174.53 176.314C166.657 174.152 158.551 178.79 156.405 186.654C154.251 194.551 158.864 202.717 166.736 204.88ZM239.293 207.157C237.139 215.054 229.023 219.724 221.151 217.562C213.278 215.399 208.665 207.233 210.82 199.336C212.965 191.472 221.072 186.834 228.944 188.996C236.817 191.159 241.439 199.292 239.293 207.157ZM275.565 230.243C283.437 232.406 291.553 227.735 293.707 219.838C295.853 211.974 291.231 203.84 283.359 201.678C275.486 199.516 267.38 204.153 265.234 212.018C263.079 219.915 267.692 228.081 275.565 230.243ZM348.122 232.52C345.968 240.417 337.852 245.087 329.98 242.925C322.107 240.763 317.494 232.596 319.649 224.699C321.794 216.835 329.901 212.198 337.773 214.36C345.646 216.522 350.268 224.656 348.122 232.52ZM384.394 255.607C392.266 257.77 400.382 253.099 402.537 245.202C404.682 237.338 400.06 229.204 392.188 227.042C384.315 224.88 376.209 229.517 374.063 237.381C371.908 245.278 376.522 253.445 384.394 255.607Z" fill="white"/>
<path d="M108.53 141.883L108.407 142.875L108.53 141.883ZM514.809 275.87L513.822 276.028L513.918 276.628L514.494 276.819L514.809 275.87ZM93.6756 131.414L92.7833 131.865L92.7833 131.865L93.6756 131.414ZM48.6111 42.281L49.5034 41.8298L48.6111 42.281ZM30.9972 27.5546L31.2821 26.596L30.9972 27.5546ZM-1.6848 17.837L-1.96969 18.7956L-1.96969 18.7956L-1.6848 17.837ZM-14.0909 27.1791L-13.091 27.174L-13.091 27.174L-14.0909 27.1791ZM-13.4562 150.809L-12.4563 150.804L-13.4562 150.809ZM-0.221926 174.75L-0.751585 175.598L-0.221926 174.75ZM529.126 343.495L529.477 344.431L529.126 343.495ZM543.596 296.662L542.754 297.202L543.596 296.662ZM184.879 194.474L185.843 194.738L185.843 194.738L184.879 194.474ZM166.736 204.88L167.001 203.915L167.001 203.915L166.736 204.88ZM174.53 176.314L174.795 175.35L174.53 176.314ZM156.405 186.654L157.37 186.917L156.405 186.654ZM221.151 217.562L220.886 218.526L221.151 217.562ZM239.293 207.157L238.328 206.893L239.293 207.157ZM210.82 199.336L211.784 199.599L210.82 199.336ZM228.944 188.996L228.679 189.961L228.944 188.996ZM293.707 219.838L292.743 219.575L293.707 219.838ZM275.565 230.243L275.83 229.279L275.565 230.243ZM283.359 201.678L283.623 200.714L283.359 201.678ZM265.234 212.018L264.269 211.754L265.234 212.018ZM329.98 242.925L329.715 243.89L329.98 242.925ZM348.122 232.52L349.087 232.783L348.122 232.52ZM319.649 224.699L318.684 224.436L319.649 224.699ZM337.773 214.36L337.509 215.324L337.773 214.36ZM402.537 245.202L403.501 245.465L402.537 245.202ZM384.394 255.607L384.659 254.643L384.394 255.607ZM392.188 227.042L391.923 228.006L392.188 227.042ZM374.063 237.381L375.028 237.645L374.063 237.381ZM108.407 142.875C139.692 146.736 237.937 159.808 329.986 182.116C376.017 193.271 420.449 206.725 454.173 222.469C471.036 230.342 485.178 238.768 495.497 247.734C505.823 256.706 512.234 266.142 513.822 276.028L515.796 275.711C514.105 265.178 507.316 255.354 496.808 246.224C486.294 237.088 471.969 228.57 455.018 220.657C421.115 204.829 376.532 191.338 330.457 180.172C238.293 157.836 139.957 144.753 108.652 140.89L108.407 142.875ZM92.7833 131.865C95.842 137.915 101.691 142.047 108.407 142.875L108.652 140.89C102.602 140.144 97.3277 136.421 94.5679 130.963L92.7833 131.865ZM47.7188 42.7323L92.7833 131.865L94.5679 130.963L49.5034 41.8298L47.7188 42.7323ZM30.7123 28.5132C38.0872 30.7061 44.2383 35.8483 47.7188 42.7323L49.5034 41.8298C45.7754 34.4561 39.1856 28.9461 31.2821 26.596L30.7123 28.5132ZM-1.96969 18.7956L30.7123 28.5132L31.2821 26.596L-1.3999 16.8784L-1.96969 18.7956ZM-13.091 27.174C-13.1209 21.3411 -7.53444 17.141 -1.96969 18.7956L-1.3999 16.8784C-8.25895 14.8389 -15.1276 20.0178 -15.0908 27.1842L-13.091 27.174ZM-12.4563 150.804L-13.091 27.174L-15.0908 27.1842L-14.4561 150.815L-12.4563 150.804ZM0.307741 173.901C-7.62126 168.948 -12.4081 160.191 -12.4563 150.804L-14.4561 150.815C-14.4044 160.872 -9.27589 170.273 -0.751585 175.598L0.307741 173.901ZM528.774 342.559C512.152 348.8 484.418 349.927 448.628 345.898C412.883 341.874 369.245 332.725 320.908 318.543C224.234 290.177 108.839 241.697 0.307741 173.901L-0.751585 175.598C107.945 243.497 223.509 292.049 320.345 320.462C368.763 334.668 412.517 343.845 448.405 347.885C484.247 351.92 512.385 350.849 529.477 344.431L528.774 342.559ZM542.754 297.202C553.105 313.353 546.587 335.87 528.774 342.559L529.477 344.431C548.591 337.254 555.411 313.245 544.437 296.122L542.754 297.202ZM514.494 276.819C526.636 280.852 536.607 287.61 542.754 297.202L544.437 296.122C537.981 286.048 527.577 279.057 515.124 274.921L514.494 276.819ZM183.914 194.211C181.904 201.58 174.335 205.93 167.001 203.915L166.472 205.844C174.882 208.154 183.545 203.163 185.843 194.738L183.914 194.211ZM174.265 177.279C181.605 179.295 185.915 186.878 183.914 194.211L185.843 194.738C188.134 186.342 183.2 177.659 174.795 175.35L174.265 177.279ZM157.37 186.917C159.37 179.585 166.927 175.263 174.265 177.279L174.795 175.35C166.388 173.041 157.732 177.994 155.441 186.39L157.37 186.917ZM167.001 203.915C159.666 201.9 155.359 194.287 157.37 186.917L155.441 186.39C153.142 194.814 158.062 203.534 166.472 205.844L167.001 203.915ZM220.886 218.526C229.297 220.836 237.959 215.845 240.258 207.42L238.328 206.893C236.318 214.262 228.749 218.612 221.415 216.597L220.886 218.526ZM209.855 199.072C207.557 207.496 212.476 216.216 220.886 218.526L221.415 216.597C214.08 214.583 209.773 206.969 211.784 199.599L209.855 199.072ZM229.209 188.032C220.802 185.723 212.146 190.676 209.855 199.072L211.784 199.599C213.785 192.267 221.341 187.945 228.679 189.961L229.209 188.032ZM240.258 207.42C242.548 199.024 237.614 190.341 229.209 188.032L228.679 189.961C236.019 191.977 240.329 199.56 238.328 206.893L240.258 207.42ZM292.743 219.575C290.732 226.944 283.164 231.293 275.83 229.279L275.3 231.208C283.711 233.518 292.373 228.527 294.672 220.102L292.743 219.575ZM283.094 202.642C290.433 204.658 294.743 212.242 292.743 219.575L294.672 220.102C296.963 211.706 292.029 203.022 283.623 200.714L283.094 202.642ZM266.199 212.281C268.199 204.949 275.755 200.627 283.094 202.642L283.623 200.714C275.217 198.405 266.56 203.358 264.269 211.754L266.199 212.281ZM275.83 229.279C268.494 227.264 264.188 219.651 266.199 212.281L264.269 211.754C261.971 220.178 266.89 228.898 275.3 231.208L275.83 229.279ZM329.715 243.89C338.126 246.2 346.788 241.208 349.087 232.783L347.158 232.257C345.147 239.626 337.578 243.975 330.244 241.961L329.715 243.89ZM318.684 224.436C316.386 232.86 321.305 241.58 329.715 243.89L330.244 241.961C322.909 239.946 318.603 232.333 320.613 224.963L318.684 224.436ZM338.038 213.396C329.632 211.086 320.975 216.039 318.684 224.436L320.613 224.963C322.614 217.631 330.17 213.309 337.509 215.324L338.038 213.396ZM349.087 232.783C351.377 224.388 346.443 215.704 338.038 213.396L337.509 215.324C344.848 217.34 349.158 224.924 347.158 232.257L349.087 232.783ZM401.572 244.939C399.561 252.308 391.993 256.657 384.659 254.643L384.129 256.572C392.54 258.882 401.203 253.89 403.501 245.465L401.572 244.939ZM391.923 228.006C399.262 230.022 403.573 237.606 401.572 244.939L403.501 245.465C405.792 237.07 400.858 228.386 392.452 226.078L391.923 228.006ZM375.028 237.645C377.028 230.313 384.585 225.991 391.923 228.006L392.452 226.078C384.046 223.769 375.389 228.721 373.098 237.118L375.028 237.645ZM384.659 254.643C377.324 252.628 373.017 245.015 375.028 237.645L373.098 237.118C370.8 245.542 375.72 254.262 384.129 256.572L384.659 254.643Z" fill="black" mask="url(#path-11-inside-1_123_309)"/>
<path d="M528.952 343.113L528.95 343.114C512.213 349.385 484.379 350.48 448.577 346.432C412.797 342.385 369.13 333.211 320.772 319.004C224.055 290.591 108.613 242.061 0.0341602 174.226L0.0338176 174.226C-8.02165 169.202 -12.9573 160.268 -12.9551 150.672L-12.9551 150.67L-13.0079 135.86C185.184 259.933 325.193 302.334 415.712 313.689C461.03 319.375 493.942 317.278 515.537 313.753C526.333 311.991 534.3 309.872 539.573 308.192C542.21 307.351 544.173 306.62 545.479 306.098C546.111 305.846 546.589 305.642 546.916 305.498C551.289 320.466 544.208 337.49 528.952 343.113Z" fill="#FFFDE3" stroke="black"/>
<path d="M490.243 242.924C490.304 242.934 490.353 242.941 490.389 242.947C503.699 253.089 512.173 263.893 514.235 275.402C510.152 275.674 506.25 275.849 502.557 275.934L502.528 275.925L502.45 275.927C473.009 276.526 455.016 271.288 445.476 264.786C440.708 261.536 438.083 257.993 437.153 254.736C436.228 251.495 436.966 248.498 439.005 246.24L439.007 246.237C440.376 244.7 442.601 243.533 445.442 242.684C448.273 241.837 451.663 241.321 455.302 241.047L455.303 241.047C463.031 240.45 471.818 240.926 478.685 241.555C482.116 241.868 485.063 242.22 487.152 242.492C488.196 242.629 489.025 242.745 489.593 242.828C489.877 242.869 490.096 242.902 490.243 242.924Z" fill="#57B3FE" stroke="black"/>
<path d="M311.238 288.164L311.238 288.165C310.842 289.849 309.633 291.542 307.605 293.231C305.581 294.917 302.782 296.564 299.284 298.164C292.289 301.362 282.578 304.334 270.892 307.045C247.528 312.463 216.36 316.814 183.457 319.849C150.557 322.884 115.937 324.601 85.6749 324.757C55.4007 324.913 29.5246 323.505 14.0916 320.303L14.0899 320.303C11.9459 319.866 10.0187 319.392 8.30583 318.882C-3.33426 315.416 -15.1872 310.366 -24.8257 303.986C-34.4738 297.6 -41.8437 289.921 -44.6226 281.219C-44.9625 280.154 -44.7745 279.054 -44.0323 277.885C-43.2813 276.702 -41.9748 275.473 -40.1331 274.212C-36.4524 271.691 -30.7688 269.133 -23.579 266.592C-9.21076 261.515 11.0341 256.553 32.9295 252.092C76.7164 243.171 127.017 236.271 149.903 234.454L149.904 234.454C167.161 233.043 209.793 237.209 247.01 246.436C265.616 251.049 282.822 256.916 294.81 263.957C300.804 267.479 305.459 271.274 308.339 275.321C311.209 279.355 312.311 283.629 311.238 288.164ZM311.724 288.281C304.827 317.588 75.9436 333.649 13.991 320.793L311.724 288.281Z" fill="#EC72A5" stroke="black"/>
<path d="M149.928 234.488L149.929 234.488C153.111 234.228 157.21 234.172 162.009 234.309C160.857 234.589 159.448 234.936 157.807 235.348C152.885 236.582 145.887 238.396 137.585 240.713C120.983 245.347 99.1564 251.995 78.2756 260.053C57.4067 268.106 37.4352 277.584 24.5747 287.89C18.1464 293.041 13.447 298.437 11.3295 304.009C9.32431 309.286 9.64953 314.687 12.9343 320.103C11.2503 319.735 9.71038 319.343 8.31302 318.927C-3.32851 315.461 -15.1829 310.41 -24.8226 304.03C-34.4719 297.643 -41.8428 289.963 -44.622 281.26C-44.962 280.195 -44.7739 279.094 -44.0317 277.925C-43.2805 276.742 -41.9738 275.512 -40.1319 274.251C-36.4508 271.73 -30.7664 269.172 -23.5758 266.631C-9.20572 261.553 11.0416 256.59 32.9398 252.129C76.732 243.206 127.038 236.305 149.928 234.488Z" fill="#DC437A" stroke="black"/>
<path d="M501.003 275.957C472.417 276.359 454.858 271.187 445.475 264.792C440.707 261.542 438.083 258 437.153 254.744C436.227 251.503 436.966 248.506 439.004 246.249L439.007 246.246C440.375 244.709 442.6 243.542 445.44 242.693C448.223 241.861 451.544 241.348 455.111 241.071L501.003 275.957Z" fill="#5094FF" stroke="black"/>
<path d="M40.4036 57.7373C53.8853 74.3684 70.102 107.043 75.1451 127.868C64.349 114.581 52.9274 92.5723 46.6233 76.4972C44.1945 70.4206 41.9866 64.2347 40.4036 57.7373Z" fill="white"/>
<path fill-rule="evenodd" clip-rule="evenodd" d="M326.797 132.774C395.819 111.454 552.255 76.9103 625.828 109.289C710.106 146.379 719.994 189.764 730.177 234.445C731.106 238.52 732.037 242.606 733.027 246.699C738.591 269.692 724.583 373.2 711.264 471.627C701.89 540.896 692.856 607.649 691.225 642.049L653.484 639.093C661.778 629.175 666.787 616.798 667.682 601.584C668.172 593.251 668.997 583.104 669.94 571.496C681.743 426.292 712.131 52.4493 338.646 140.82L305.597 182.471C311.22 157.58 318.201 139.843 326.797 132.774ZM296.026 241.256C282.428 355.599 283.128 527.767 287.317 610.413L307.467 611.991L296.026 241.256Z" fill="#FFD400"/>
<path d="M625.828 109.289L626.029 108.832L625.828 109.289ZM326.797 132.774L326.65 132.296L326.556 132.325L326.48 132.388L326.797 132.774ZM730.177 234.445L730.664 234.334L730.177 234.445ZM733.027 246.699L733.513 246.582L733.027 246.699ZM711.264 471.627L711.759 471.694L711.264 471.627ZM691.225 642.049L691.186 642.547L691.699 642.587L691.724 642.072L691.225 642.049ZM653.484 639.093L653.1 638.772L652.479 639.515L653.445 639.591L653.484 639.093ZM667.682 601.584L667.183 601.555L667.682 601.584ZM669.94 571.496L669.442 571.456L669.94 571.496ZM338.646 140.82L338.531 140.333L338.363 140.373L338.255 140.509L338.646 140.82ZM305.597 182.471L305.11 182.361L305.989 182.782L305.597 182.471ZM296.026 241.256L296.525 241.241L295.53 241.197L296.026 241.256ZM287.317 610.413L286.818 610.438L286.841 610.877L287.278 610.911L287.317 610.413ZM307.467 611.991L307.428 612.489L307.984 612.533L307.967 611.976L307.467 611.991ZM626.029 108.832C607.554 100.701 583.911 96.7842 557.791 95.8014C531.664 94.8184 503.026 96.7699 474.543 100.399C417.576 107.657 361.183 121.63 326.65 132.296L326.945 133.251C361.433 122.598 417.769 108.64 474.669 101.39C503.118 97.7656 531.698 95.8197 557.753 96.8C583.814 97.7806 607.315 101.688 625.626 109.746L626.029 108.832ZM730.664 234.334C725.575 212.002 720.541 189.896 706.202 168.74C691.856 147.575 668.229 127.404 626.029 108.832L625.626 109.746C667.705 128.265 691.162 148.331 705.375 169.301C719.594 190.28 724.596 212.207 729.69 234.556L730.664 234.334ZM733.513 246.582C732.524 242.492 731.593 238.409 730.664 234.334L729.69 234.556C730.618 238.63 731.55 242.72 732.542 246.817L733.513 246.582ZM711.759 471.694C718.418 422.483 725.251 371.992 729.723 330.929C731.959 310.399 733.606 292.218 734.346 277.728C735.084 263.263 734.924 252.411 733.513 246.582L732.542 246.817C733.913 252.483 734.087 263.192 733.348 277.677C732.61 292.139 730.965 310.298 728.73 330.821C724.259 371.868 717.429 422.345 710.768 471.56L711.759 471.694ZM691.724 642.072C693.354 607.701 702.383 540.977 711.759 471.694L710.768 471.56C701.396 540.816 692.358 607.598 690.726 642.025L691.724 642.072ZM653.445 639.591L691.186 642.547L691.264 641.551L653.523 638.594L653.445 639.591ZM653.867 639.413C662.234 629.408 667.28 616.927 668.181 601.614L667.183 601.555C666.294 616.669 661.321 628.942 653.1 638.772L653.867 639.413ZM668.181 601.614C668.67 593.288 669.495 583.147 670.438 571.537L669.442 571.456C668.499 583.062 667.674 593.215 667.183 601.555L668.181 601.614ZM670.438 571.537C676.338 498.959 686.903 369.08 649.244 268.393C630.407 218.03 599.491 174.928 549.859 149.966C500.232 125.007 431.973 118.224 338.531 140.333L338.761 141.306C432.061 119.23 500.061 126.039 549.41 150.859C598.754 175.676 629.531 218.54 648.308 268.743C685.875 369.185 675.346 498.83 669.442 571.456L670.438 571.537ZM338.255 140.509L305.206 182.161L305.989 182.782L339.038 141.13L338.255 140.509ZM326.48 132.388C322.087 136 318.154 142.292 314.621 150.747C311.083 159.213 307.925 169.9 305.11 182.361L306.085 182.581C308.893 170.151 312.036 159.525 315.543 151.132C319.055 142.728 322.911 136.616 327.114 133.16L326.48 132.388ZM295.53 241.197C281.927 355.579 282.628 527.778 286.818 610.438L287.817 610.388C283.627 527.756 282.929 355.619 296.522 241.315L295.53 241.197ZM287.278 610.911L307.428 612.489L307.506 611.493L287.357 609.915L287.278 610.911ZM295.527 241.272L306.968 612.007L307.967 611.976L296.525 241.241L295.527 241.272Z" fill="black"/>
<mask id="path-21-inside-2_123_309" fill="white">
<path fill-rule="evenodd" clip-rule="evenodd" d="M389.752 70.0649C314.349 70.0649 253.223 131.191 253.223 206.593V551.132C253.223 626.534 314.349 687.66 389.752 687.66H614.695C690.097 687.66 751.223 626.534 751.223 551.132V206.594C751.223 131.191 690.097 70.0649 614.695 70.0649H389.752ZM410.326 140.116C353.873 140.116 308.108 185.881 308.108 242.334V520.395C308.108 576.848 353.873 622.612 410.326 622.612H594.121C650.574 622.612 696.338 576.848 696.338 520.395V242.334C696.338 185.881 650.574 140.116 594.121 140.116H410.326Z"/>
</mask>
<path fill-rule="evenodd" clip-rule="evenodd" d="M389.752 70.0649C314.349 70.0649 253.223 131.191 253.223 206.593V551.132C253.223 626.534 314.349 687.66 389.752 687.66H614.695C690.097 687.66 751.223 626.534 751.223 551.132V206.594C751.223 131.191 690.097 70.0649 614.695 70.0649H389.752ZM410.326 140.116C353.873 140.116 308.108 185.881 308.108 242.334V520.395C308.108 576.848 353.873 622.612 410.326 622.612H594.121C650.574 622.612 696.338 576.848 696.338 520.395V242.334C696.338 185.881 650.574 140.116 594.121 140.116H410.326Z" fill="#FFE900"/>
<path d="M254.223 206.593C254.223 131.743 314.901 71.0643 389.752 71.0643V69.0656C313.797 69.0656 252.224 130.639 252.224 206.593H254.223ZM254.223 551.132V206.593H252.224V551.132H254.223ZM389.752 686.661C314.901 686.661 254.223 625.982 254.223 551.132H252.224C252.224 627.086 313.797 688.66 389.752 688.66V686.661ZM614.695 686.661H389.752V688.66H614.695V686.661ZM750.224 551.132C750.224 625.982 689.546 686.661 614.695 686.661V688.66C690.649 688.66 752.223 627.086 752.223 551.132H750.224ZM750.224 206.594V551.132H752.223V206.594H750.224ZM614.695 71.0643C689.546 71.0643 750.224 131.743 750.224 206.594H752.223C752.223 130.639 690.649 69.0656 614.695 69.0656V71.0643ZM389.752 71.0643H614.695V69.0656H389.752V71.0643ZM309.108 242.334C309.108 186.433 354.425 141.115 410.326 141.115V139.117C353.321 139.117 307.109 185.329 307.109 242.334H309.108ZM309.108 520.395V242.334H307.109V520.395H309.108ZM410.326 621.613C354.424 621.613 309.108 576.296 309.108 520.395H307.109C307.109 577.4 353.321 623.612 410.326 623.612V621.613ZM594.121 621.613H410.326V623.612H594.121V621.613ZM695.339 520.395C695.339 576.296 650.022 621.613 594.121 621.613V623.612C651.126 623.612 697.338 577.4 697.338 520.395H695.339ZM695.339 242.334V520.395H697.338V242.334H695.339ZM594.121 141.115C650.022 141.115 695.339 186.432 695.339 242.334H697.338C697.338 185.329 651.126 139.117 594.121 139.117V141.115ZM410.326 141.115H594.121V139.117H410.326V141.115Z" fill="black" mask="url(#path-21-inside-2_123_309)"/>
<mask id="mask0_123_309" style="mask-type:alpha" maskUnits="userSpaceOnUse" x="253" y="70" width="499" height="618">
<mask id="path-23-inside-3_123_309" fill="white">
<path fill-rule="evenodd" clip-rule="evenodd" d="M389.752 70.0649C314.349 70.0649 253.223 131.191 253.223 206.593V551.132C253.223 626.534 314.349 687.66 389.752 687.66H614.695C690.097 687.66 751.223 626.534 751.223 551.132V206.594C751.223 131.191 690.097 70.0649 614.695 70.0649H389.752ZM410.734 139.02C354.28 139.02 308.516 184.784 308.516 241.237V519.298C308.516 575.752 354.28 621.516 410.734 621.516H594.528C650.982 621.516 696.746 575.751 696.746 519.298V241.237C696.746 184.784 650.982 139.02 594.528 139.02H410.734Z"/>
</mask>
<path fill-rule="evenodd" clip-rule="evenodd" d="M389.752 70.0649C314.349 70.0649 253.223 131.191 253.223 206.593V551.132C253.223 626.534 314.349 687.66 389.752 687.66H614.695C690.097 687.66 751.223 626.534 751.223 551.132V206.594C751.223 131.191 690.097 70.0649 614.695 70.0649H389.752ZM410.734 139.02C354.28 139.02 308.516 184.784 308.516 241.237V519.298C308.516 575.752 354.28 621.516 410.734 621.516H594.528C650.982 621.516 696.746 575.751 696.746 519.298V241.237C696.746 184.784 650.982 139.02 594.528 139.02H410.734Z" fill="#FFF08D"/>
<path d="M254.223 206.593C254.223 131.743 314.901 71.0643 389.752 71.0643V69.0656C313.797 69.0656 252.224 130.639 252.224 206.593H254.223ZM254.223 551.132V206.593H252.224V551.132H254.223ZM389.752 686.661C314.901 686.661 254.223 625.982 254.223 551.132H252.224C252.224 627.086 313.797 688.66 389.752 688.66V686.661ZM614.695 686.661H389.752V688.66H614.695V686.661ZM750.224 551.132C750.224 625.982 689.546 686.661 614.695 686.661V688.66C690.649 688.66 752.223 627.086 752.223 551.132H750.224ZM750.224 206.594V551.132H752.223V206.594H750.224ZM614.695 71.0643C689.546 71.0643 750.224 131.743 750.224 206.594H752.223C752.223 130.639 690.649 69.0656 614.695 69.0656V71.0643ZM389.752 71.0643H614.695V69.0656H389.752V71.0643ZM309.515 241.237C309.515 185.336 354.832 140.019 410.734 140.019V138.02C353.728 138.02 307.517 184.232 307.517 241.237H309.515ZM309.515 519.298V241.237H307.517V519.298H309.515ZM410.734 620.517C354.832 620.517 309.515 575.2 309.515 519.298H307.517C307.517 576.303 353.728 622.515 410.734 622.515V620.517ZM594.528 620.517H410.734V622.515H594.528V620.517ZM695.747 519.298C695.747 575.2 650.43 620.517 594.528 620.517V622.515C651.534 622.515 697.745 576.303 697.745 519.298H695.747ZM695.747 241.237V519.298H697.745V241.237H695.747ZM594.528 140.019C650.43 140.019 695.747 185.336 695.747 241.237H697.745C697.745 184.232 651.534 138.02 594.528 138.02V140.019ZM410.734 140.019H594.528V138.02H410.734V140.019Z" fill="black" mask="url(#path-23-inside-3_123_309)"/>
</mask>
<g mask="url(#mask0_123_309)">
<path d="M749.39 317.83C739.26 149.681 752.766 79.45 446.326 49.3513C431.871 47.9315 648.647 -1.6384 753.843 -26.4185C773.887 132.865 757.394 450.704 749.39 317.83Z" fill="#FFF08D" stroke="black" stroke-width="0.999345"/>
<path d="M251.268 97.62C290.996 455.177 186.525 696.492 541.139 683.249C555.831 682.7 576.716 805.46 504.354 877.477C-184.263 859.516 236.381 -36.3598 251.268 97.62Z" fill="#FFF08D" stroke="black" stroke-width="0.999345"/>
</g>
<rect x="255.222" y="72.0636" width="494.003" height="613.598" rx="134.53" stroke="#1F201E" stroke-width="3.99738"/>
<path d="M307.609 349.556V434.5" stroke="black" stroke-width="0.999345"/>
<path d="M1269 172.564C1275 169.301 1284.84 166.354 1281.09 150.604C1286.2 161.104 1289.32 165.304 1300 166.354C1289.32 170.554 1288.44 176.292 1287.6 185.604C1284.23 173.858 1275.7 171.549 1269 172.564Z" fill="white" stroke="black"/>
<path d="M780 264.673C787.165 260.758 798.911 257.222 794.434 238.322C800.525 250.922 804.256 255.962 817 257.222C804.256 262.262 803.204 269.147 802.2 280.322C798.184 266.226 788.001 263.456 780 264.673Z" fill="white" stroke="black"/>
<path d="M542.201 260.76C550.315 261.667 561.962 265.517 569.148 247.472C566.901 261.285 567.061 267.554 576.773 275.902C563.444 272.712 558.631 277.745 551.392 286.318C556.197 272.471 549.451 264.357 542.201 260.76Z" fill="white" stroke="black"/>
<path d="M1562.76 95.5156C1658.19 100.133 1521.11 137.816 1411.49 124.698C1360.09 118.548 1289.5 104.751 1218.23 115.431C1177 121.607 1018.65 104.751 953.055 104.751C887.465 104.751 972.426 95.5156 1019.28 95.5156C1066.13 95.5156 1076.07 48.3325 1146.34 75.5056C1216.62 102.679 1154.58 58.5097 1227.66 33.2105C1294.99 9.90552 1310.99 58.2737 1336.29 69.5177C1361.59 80.7617 1416.53 53.9563 1442.7 75.5056C1468.86 97.0548 1467.32 90.8979 1562.76 95.5156Z" fill="#FFFAC4"/>
</g>
<path d="M846.312 219V174.2H856.68V210.552H879.144V219H846.312ZM904.341 219.768C897.984 219.768 893.013 217.997 889.429 214.456C885.845 210.915 884.053 205.859 884.053 199.288V174.2H894.421V198.904C894.421 203.171 895.296 206.243 897.045 208.12C898.794 209.997 901.248 210.936 904.405 210.936C907.562 210.936 910.016 209.997 911.765 208.12C913.514 206.243 914.389 203.171 914.389 198.904V174.2H924.629V199.288C924.629 205.859 922.837 210.915 919.253 214.456C915.669 217.997 910.698 219.768 904.341 219.768ZM956.315 219.768C952.859 219.768 949.637 219.213 946.651 218.104C943.707 216.952 941.147 215.331 938.97 213.24C936.795 211.149 935.088 208.696 933.851 205.88C932.656 203.064 932.059 199.971 932.059 196.6C932.059 193.229 932.656 190.136 933.851 187.32C935.088 184.504 936.795 182.051 938.97 179.96C941.189 177.869 943.771 176.269 946.715 175.16C949.659 174.008 952.88 173.432 956.379 173.432C960.261 173.432 963.76 174.115 966.875 175.48C970.032 176.803 972.677 178.765 974.811 181.368L968.155 187.512C966.619 185.763 964.912 184.461 963.035 183.608C961.157 182.712 959.109 182.264 956.891 182.264C954.8 182.264 952.88 182.605 951.131 183.288C949.381 183.971 947.867 184.952 946.587 186.232C945.307 187.512 944.304 189.027 943.579 190.776C942.896 192.525 942.555 194.467 942.555 196.6C942.555 198.733 942.896 200.675 943.579 202.424C944.304 204.173 945.307 205.688 946.587 206.968C947.867 208.248 949.381 209.229 951.131 209.912C952.88 210.595 954.8 210.936 956.891 210.936C959.109 210.936 961.157 210.509 963.035 209.656C964.912 208.76 966.619 207.416 968.155 205.624L974.811 211.768C972.677 214.371 970.032 216.355 966.875 217.72C963.76 219.085 960.24 219.768 956.315 219.768ZM991.092 208.76L990.516 196.792L1011.96 174.2H1023.48L1004.15 195L998.388 201.144L991.092 208.76ZM981.812 219V174.2H992.116V219H981.812ZM1012.47 219L996.532 199.48L1003.32 192.12L1024.56 219H1012.47ZM1037.01 219V200.696L1039.38 206.968L1019.67 174.2H1030.67L1045.78 199.352H1039.44L1054.61 174.2H1064.79L1045.07 206.968L1047.38 200.696V219H1037.01ZM1096.53 219V182.648H1082.19V174.2H1121.23V182.648H1106.9V219H1096.53ZM1126.81 219V174.2H1146.2C1150.21 174.2 1153.67 174.861 1156.57 176.184C1159.47 177.464 1161.71 179.32 1163.29 181.752C1164.87 184.184 1165.66 187.085 1165.66 190.456C1165.66 193.784 1164.87 196.664 1163.29 199.096C1161.71 201.485 1159.47 203.32 1156.57 204.6C1153.67 205.88 1150.21 206.52 1146.2 206.52H1132.57L1137.18 201.976V219H1126.81ZM1155.29 219L1144.09 202.744H1155.16L1166.49 219H1155.29ZM1137.18 203.128L1132.57 198.264H1145.63C1148.83 198.264 1151.22 197.581 1152.8 196.216C1154.37 194.808 1155.16 192.888 1155.16 190.456C1155.16 187.981 1154.37 186.061 1152.8 184.696C1151.22 183.331 1148.83 182.648 1145.63 182.648H1132.57L1137.18 177.72V203.128ZM1173.87 219V174.2H1184.24V219H1173.87ZM1194.87 219V174.2H1214.27C1218.28 174.2 1221.73 174.861 1224.63 176.184C1227.54 177.464 1229.78 179.32 1231.35 181.752C1232.93 184.184 1233.72 187.085 1233.72 190.456C1233.72 193.784 1232.93 196.664 1231.35 199.096C1229.78 201.528 1227.54 203.405 1224.63 204.728C1221.73 206.008 1218.28 206.648 1214.27 206.648H1200.63L1205.24 201.976V219H1194.87ZM1205.24 203.128L1200.63 198.2H1213.69C1216.89 198.2 1219.28 197.517 1220.86 196.152C1222.44 194.787 1223.23 192.888 1223.23 190.456C1223.23 187.981 1222.44 186.061 1220.86 184.696C1219.28 183.331 1216.89 182.648 1213.69 182.648H1200.63L1205.24 177.72V203.128Z" fill="#1F201E"/>
<path d="M840.976 363L848.584 346.2H850.96L858.592 363H856.072L849.28 347.544H850.24L843.448 363H840.976ZM844.216 358.8L844.864 356.88H854.32L855.016 358.8H844.216ZM860.762 363V345.192H863.066V363H860.762ZM867.465 363V345.192H869.769V363H867.465ZM879.616 363.144C878.336 363.144 877.2 362.864 876.208 362.304C875.216 361.744 874.432 360.976 873.856 360C873.28 359.008 872.992 357.888 872.992 356.64C872.992 355.376 873.28 354.256 873.856 353.28C874.432 352.304 875.216 351.544 876.208 351C877.2 350.44 878.336 350.16 879.616 350.16C880.88 350.16 882.008 350.44 883 351C884.008 351.544 884.792 352.304 885.352 353.28C885.928 354.24 886.216 355.36 886.216 356.64C886.216 357.904 885.928 359.024 885.352 360C884.792 360.976 884.008 361.744 883 362.304C882.008 362.864 880.88 363.144 879.616 363.144ZM879.616 361.128C880.432 361.128 881.16 360.944 881.8 360.576C882.456 360.208 882.968 359.688 883.336 359.016C883.704 358.328 883.888 357.536 883.888 356.64C883.888 355.728 883.704 354.944 883.336 354.288C882.968 353.616 882.456 353.096 881.8 352.728C881.16 352.36 880.432 352.176 879.616 352.176C878.8 352.176 878.072 352.36 877.432 352.728C876.792 353.096 876.28 353.616 875.896 354.288C875.512 354.944 875.32 355.728 875.32 356.64C875.32 357.536 875.512 358.328 875.896 359.016C876.28 359.688 876.792 360.208 877.432 360.576C878.072 360.944 878.8 361.128 879.616 361.128ZM891.739 363L887.011 350.28H889.195L893.395 361.8H892.363L896.731 350.28H898.675L902.947 361.8H901.939L906.235 350.28H908.299L903.547 363H901.339L897.331 352.488H898.003L893.947 363H891.739ZM917.634 367.8C917.026 367.8 916.434 367.696 915.858 367.488C915.282 367.296 914.786 367.008 914.37 366.624L915.354 364.896C915.674 365.2 916.026 365.432 916.41 365.592C916.794 365.752 917.202 365.832 917.634 365.832C918.194 365.832 918.658 365.688 919.026 365.4C919.394 365.112 919.738 364.6 920.058 363.864L920.85 362.112L921.09 361.824L926.082 350.28H928.338L922.17 364.272C921.802 365.168 921.386 365.872 920.922 366.384C920.474 366.896 919.978 367.256 919.434 367.464C918.89 367.688 918.29 367.8 917.634 367.8ZM920.658 363.408L914.85 350.28H917.25L922.194 361.608L920.658 363.408ZM935.585 363.144C934.305 363.144 933.169 362.864 932.177 362.304C931.185 361.744 930.401 360.976 929.825 360C929.249 359.008 928.961 357.888 928.961 356.64C928.961 355.376 929.249 354.256 929.825 353.28C930.401 352.304 931.185 351.544 932.177 351C933.169 350.44 934.305 350.16 935.585 350.16C936.849 350.16 937.977 350.44 938.969 351C939.977 351.544 940.761 352.304 941.321 353.28C941.897 354.24 942.185 355.36 942.185 356.64C942.185 357.904 941.897 359.024 941.321 360C940.761 360.976 939.977 361.744 938.969 362.304C937.977 362.864 936.849 363.144 935.585 363.144ZM935.585 361.128C936.401 361.128 937.129 360.944 937.769 360.576C938.425 360.208 938.937 359.688 939.305 359.016C939.673 358.328 939.857 357.536 939.857 356.64C939.857 355.728 939.673 354.944 939.305 354.288C938.937 353.616 938.425 353.096 937.769 352.728C937.129 352.36 936.401 352.176 935.585 352.176C934.769 352.176 934.041 352.36 933.401 352.728C932.761 353.096 932.249 353.616 931.865 354.288C931.481 354.944 931.289 355.728 931.289 356.64C931.289 357.536 931.481 358.328 931.865 359.016C932.249 359.688 932.761 360.208 933.401 360.576C934.041 360.944 934.769 361.128 935.585 361.128ZM950.724 363.144C949.636 363.144 948.676 362.944 947.844 362.544C947.028 362.144 946.388 361.536 945.924 360.72C945.476 359.888 945.252 358.848 945.252 357.6V350.28H947.556V357.336C947.556 358.584 947.852 359.52 948.444 360.144C949.052 360.768 949.9 361.08 950.988 361.08C951.788 361.08 952.484 360.92 953.076 360.6C953.668 360.264 954.124 359.784 954.444 359.16C954.764 358.52 954.924 357.752 954.924 356.856V350.28H957.228V363H955.044V359.568L955.404 360.48C954.988 361.328 954.364 361.984 953.532 362.448C952.7 362.912 951.764 363.144 950.724 363.144ZM961.614 363V350.28H963.822V353.736L963.606 352.872C963.958 351.992 964.55 351.32 965.382 350.856C966.214 350.392 967.238 350.16 968.454 350.16V352.392C968.358 352.376 968.262 352.368 968.166 352.368C968.086 352.368 968.006 352.368 967.926 352.368C966.694 352.368 965.718 352.736 964.998 353.472C964.278 354.208 963.918 355.272 963.918 356.664V363H961.614ZM1058 363.144C1056.72 363.144 1055.73 362.8 1055.02 362.112C1054.32 361.424 1053.97 360.44 1053.97 359.16V347.496H1056.27V359.064C1056.27 359.752 1056.44 360.28 1056.77 360.648C1057.13 361.016 1057.62 361.2 1058.26 361.2C1058.98 361.2 1059.58 361 1060.06 360.6L1060.78 362.256C1060.43 362.56 1060.01 362.784 1059.51 362.928C1059.03 363.072 1058.53 363.144 1058 363.144ZM1051.81 352.176V350.28H1059.92V352.176H1051.81ZM1068.59 363.144C1067.31 363.144 1066.18 362.864 1065.18 362.304C1064.19 361.744 1063.41 360.976 1062.83 360C1062.26 359.008 1061.97 357.888 1061.97 356.64C1061.97 355.376 1062.26 354.256 1062.83 353.28C1063.41 352.304 1064.19 351.544 1065.18 351C1066.18 350.44 1067.31 350.16 1068.59 350.16C1069.86 350.16 1070.98 350.44 1071.98 351C1072.98 351.544 1073.77 352.304 1074.33 353.28C1074.9 354.24 1075.19 355.36 1075.19 356.64C1075.19 357.904 1074.9 359.024 1074.33 360C1073.77 360.976 1072.98 361.744 1071.98 362.304C1070.98 362.864 1069.86 363.144 1068.59 363.144ZM1068.59 361.128C1069.41 361.128 1070.14 360.944 1070.78 360.576C1071.43 360.208 1071.94 359.688 1072.31 359.016C1072.68 358.328 1072.86 357.536 1072.86 356.64C1072.86 355.728 1072.68 354.944 1072.31 354.288C1071.94 353.616 1071.43 353.096 1070.78 352.728C1070.14 352.36 1069.41 352.176 1068.59 352.176C1067.78 352.176 1067.05 352.36 1066.41 352.728C1065.77 353.096 1065.26 353.616 1064.87 354.288C1064.49 354.944 1064.3 355.728 1064.3 356.64C1064.3 357.536 1064.49 358.328 1064.87 359.016C1065.26 359.688 1065.77 360.208 1066.41 360.576C1067.05 360.944 1067.78 361.128 1068.59 361.128ZM1090.39 367.8C1089.22 367.8 1088.09 367.632 1086.98 367.296C1085.9 366.976 1085.01 366.512 1084.32 365.904L1085.42 364.128C1086.02 364.64 1086.74 365.04 1087.61 365.328C1088.47 365.632 1089.38 365.784 1090.32 365.784C1091.82 365.784 1092.93 365.432 1093.63 364.728C1094.34 364.024 1094.69 362.952 1094.69 361.512V358.824L1094.93 356.304L1094.81 353.76V350.28H1096.99V361.272C1096.99 363.512 1096.43 365.16 1095.31 366.216C1094.19 367.272 1092.55 367.8 1090.39 367.8ZM1090.1 362.472C1088.87 362.472 1087.77 362.216 1086.79 361.704C1085.83 361.176 1085.06 360.448 1084.49 359.52C1083.93 358.592 1083.65 357.52 1083.65 356.304C1083.65 355.072 1083.93 354 1084.49 353.088C1085.06 352.16 1085.83 351.44 1086.79 350.928C1087.77 350.416 1088.87 350.16 1090.1 350.16C1091.19 350.16 1092.18 350.384 1093.08 350.832C1093.98 351.264 1094.69 351.936 1095.22 352.848C1095.76 353.76 1096.03 354.912 1096.03 356.304C1096.03 357.68 1095.76 358.824 1095.22 359.736C1094.69 360.648 1093.98 361.336 1093.08 361.8C1092.18 362.248 1091.19 362.472 1090.1 362.472ZM1090.37 360.456C1091.22 360.456 1091.97 360.28 1092.62 359.928C1093.28 359.576 1093.79 359.088 1094.16 358.464C1094.54 357.84 1094.74 357.12 1094.74 356.304C1094.74 355.488 1094.54 354.768 1094.16 354.144C1093.79 353.52 1093.28 353.04 1092.62 352.704C1091.97 352.352 1091.22 352.176 1090.37 352.176C1089.52 352.176 1088.76 352.352 1088.09 352.704C1087.43 353.04 1086.91 353.52 1086.53 354.144C1086.16 354.768 1085.98 355.488 1085.98 356.304C1085.98 357.12 1086.16 357.84 1086.53 358.464C1086.91 359.088 1087.43 359.576 1088.09 359.928C1088.76 360.28 1089.52 360.456 1090.37 360.456ZM1106.75 363.144C1105.66 363.144 1104.7 362.944 1103.87 362.544C1103.05 362.144 1102.41 361.536 1101.95 360.72C1101.5 359.888 1101.27 358.848 1101.27 357.6V350.28H1103.58V357.336C1103.58 358.584 1103.87 359.52 1104.47 360.144C1105.07 360.768 1105.92 361.08 1107.01 361.08C1107.81 361.08 1108.51 360.92 1109.1 360.6C1109.69 360.264 1110.15 359.784 1110.47 359.16C1110.79 358.52 1110.95 357.752 1110.95 356.856V350.28H1113.25V363H1111.07V359.568L1111.43 360.48C1111.01 361.328 1110.39 361.984 1109.55 362.448C1108.72 362.912 1107.79 363.144 1106.75 363.144ZM1117.64 363V350.28H1119.94V363H1117.64ZM1118.79 347.832C1118.34 347.832 1117.97 347.688 1117.66 347.4C1117.37 347.112 1117.23 346.76 1117.23 346.344C1117.23 345.912 1117.37 345.552 1117.66 345.264C1117.97 344.976 1118.34 344.832 1118.79 344.832C1119.24 344.832 1119.61 344.976 1119.89 345.264C1120.2 345.536 1120.35 345.88 1120.35 346.296C1120.35 346.728 1120.21 347.096 1119.92 347.4C1119.63 347.688 1119.25 347.832 1118.79 347.832ZM1129.6 363.144C1128.36 363.144 1127.26 362.872 1126.28 362.328C1125.32 361.784 1124.56 361.024 1124 360.048C1123.44 359.072 1123.16 357.936 1123.16 356.64C1123.16 355.344 1123.44 354.216 1124 353.256C1124.56 352.28 1125.32 351.52 1126.28 350.976C1127.26 350.432 1128.36 350.16 1129.6 350.16C1130.67 350.16 1131.64 350.4 1132.5 350.88C1133.36 351.36 1134.05 352.08 1134.56 353.04C1135.09 354 1135.36 355.2 1135.36 356.64C1135.36 358.08 1135.1 359.28 1134.59 360.24C1134.09 361.2 1133.41 361.928 1132.55 362.424C1131.68 362.904 1130.7 363.144 1129.6 363.144ZM1129.79 361.128C1130.59 361.128 1131.31 360.944 1131.95 360.576C1132.6 360.208 1133.12 359.688 1133.48 359.016C1133.87 358.328 1134.06 357.536 1134.06 356.64C1134.06 355.728 1133.87 354.944 1133.48 354.288C1133.12 353.616 1132.6 353.096 1131.95 352.728C1131.31 352.36 1130.59 352.176 1129.79 352.176C1128.97 352.176 1128.24 352.36 1127.6 352.728C1126.96 353.096 1126.45 353.616 1126.07 354.288C1125.68 354.944 1125.49 355.728 1125.49 356.64C1125.49 357.536 1125.68 358.328 1126.07 359.016C1126.45 359.688 1126.96 360.208 1127.6 360.576C1128.24 360.944 1128.97 361.128 1129.79 361.128ZM1134.13 363V359.568L1134.28 356.616L1134.04 353.664V345.192H1136.34V363H1134.13ZM1146.36 363.144C1145 363.144 1143.8 362.864 1142.76 362.304C1141.74 361.744 1140.94 360.976 1140.36 360C1139.8 359.024 1139.52 357.904 1139.52 356.64C1139.52 355.376 1139.8 354.256 1140.34 353.28C1140.9 352.304 1141.66 351.544 1142.62 351C1143.6 350.44 1144.69 350.16 1145.91 350.16C1147.14 350.16 1148.23 350.432 1149.17 350.976C1150.12 351.52 1150.85 352.288 1151.38 353.28C1151.92 354.256 1152.2 355.4 1152.2 356.712C1152.2 356.808 1152.19 356.92 1152.17 357.048C1152.17 357.176 1152.16 357.296 1152.15 357.408H1141.32V355.752H1150.95L1150.01 356.328C1150.03 355.512 1149.86 354.784 1149.51 354.144C1149.16 353.504 1148.67 353.008 1148.04 352.656C1147.44 352.288 1146.72 352.104 1145.91 352.104C1145.11 352.104 1144.4 352.288 1143.77 352.656C1143.15 353.008 1142.66 353.512 1142.31 354.168C1141.96 354.808 1141.78 355.544 1141.78 356.376V356.76C1141.78 357.608 1141.97 358.368 1142.36 359.04C1142.76 359.696 1143.31 360.208 1144.01 360.576C1144.72 360.944 1145.52 361.128 1146.44 361.128C1147.19 361.128 1147.87 361 1148.48 360.744C1149.1 360.488 1149.64 360.104 1150.11 359.592L1151.38 361.08C1150.8 361.752 1150.08 362.264 1149.22 362.616C1148.37 362.968 1147.42 363.144 1146.36 363.144ZM1162.39 367.8C1161.78 367.8 1161.19 367.696 1160.62 367.488C1160.04 367.296 1159.54 367.008 1159.13 366.624L1160.11 364.896C1160.43 365.2 1160.78 365.432 1161.17 365.592C1161.55 365.752 1161.96 365.832 1162.39 365.832C1162.95 365.832 1163.42 365.688 1163.78 365.4C1164.15 365.112 1164.5 364.6 1164.82 363.864L1165.61 362.112L1165.85 361.824L1170.84 350.28H1173.1L1166.93 364.272C1166.56 365.168 1166.14 365.872 1165.68 366.384C1165.23 366.896 1164.74 367.256 1164.19 367.464C1163.65 367.688 1163.05 367.8 1162.39 367.8ZM1165.42 363.408L1159.61 350.28H1162.01L1166.95 361.608L1165.42 363.408ZM1180.34 363.144C1179.06 363.144 1177.93 362.864 1176.93 362.304C1175.94 361.744 1175.16 360.976 1174.58 360C1174.01 359.008 1173.72 357.888 1173.72 356.64C1173.72 355.376 1174.01 354.256 1174.58 353.28C1175.16 352.304 1175.94 351.544 1176.93 351C1177.93 350.44 1179.06 350.16 1180.34 350.16C1181.61 350.16 1182.73 350.44 1183.73 351C1184.73 351.544 1185.52 352.304 1186.08 353.28C1186.65 354.24 1186.94 355.36 1186.94 356.64C1186.94 357.904 1186.65 359.024 1186.08 360C1185.52 360.976 1184.73 361.744 1183.73 362.304C1182.73 362.864 1181.61 363.144 1180.34 363.144ZM1180.34 361.128C1181.16 361.128 1181.89 360.944 1182.53 360.576C1183.18 360.208 1183.69 359.688 1184.06 359.016C1184.43 358.328 1184.61 357.536 1184.61 356.64C1184.61 355.728 1184.43 354.944 1184.06 354.288C1183.69 353.616 1183.18 353.096 1182.53 352.728C1181.89 352.36 1181.16 352.176 1180.34 352.176C1179.53 352.176 1178.8 352.36 1178.16 352.728C1177.52 353.096 1177.01 353.616 1176.62 354.288C1176.24 354.944 1176.05 355.728 1176.05 356.64C1176.05 357.536 1176.24 358.328 1176.62 359.016C1177.01 359.688 1177.52 360.208 1178.16 360.576C1178.8 360.944 1179.53 361.128 1180.34 361.128ZM1195.48 363.144C1194.39 363.144 1193.43 362.944 1192.6 362.544C1191.79 362.144 1191.15 361.536 1190.68 360.72C1190.23 359.888 1190.01 358.848 1190.01 357.6V350.28H1192.31V357.336C1192.31 358.584 1192.61 359.52 1193.2 360.144C1193.81 360.768 1194.66 361.08 1195.75 361.08C1196.55 361.08 1197.24 360.92 1197.83 360.6C1198.43 360.264 1198.88 359.784 1199.2 359.16C1199.52 358.52 1199.68 357.752 1199.68 356.856V350.28H1201.99V363H1199.8V359.568L1200.16 360.48C1199.75 361.328 1199.12 361.984 1198.29 362.448C1197.46 362.912 1196.52 363.144 1195.48 363.144ZM1218.26 363.144C1216.98 363.144 1215.85 362.864 1214.86 362.304C1213.86 361.744 1213.08 360.976 1212.5 360C1211.93 359.008 1211.64 357.888 1211.64 356.64C1211.64 355.376 1211.93 354.256 1212.5 353.28C1213.08 352.304 1213.86 351.544 1214.86 351C1215.85 350.44 1216.98 350.16 1218.26 350.16C1219.53 350.16 1220.66 350.44 1221.65 351C1222.66 351.544 1223.44 352.304 1224 353.28C1224.58 354.24 1224.86 355.36 1224.86 356.64C1224.86 357.904 1224.58 359.024 1224 360C1223.44 360.976 1222.66 361.744 1221.65 362.304C1220.66 362.864 1219.53 363.144 1218.26 363.144ZM1218.26 361.128C1219.08 361.128 1219.81 360.944 1220.45 360.576C1221.1 360.208 1221.62 359.688 1221.98 359.016C1222.35 358.328 1222.54 357.536 1222.54 356.64C1222.54 355.728 1222.35 354.944 1221.98 354.288C1221.62 353.616 1221.1 353.096 1220.45 352.728C1219.81 352.36 1219.08 352.176 1218.26 352.176C1217.45 352.176 1216.72 352.36 1216.08 352.728C1215.44 353.096 1214.93 353.616 1214.54 354.288C1214.16 354.944 1213.97 355.728 1213.97 356.64C1213.97 357.536 1214.16 358.328 1214.54 359.016C1214.93 359.688 1215.44 360.208 1216.08 360.576C1216.72 360.944 1217.45 361.128 1218.26 361.128ZM1234.84 350.16C1235.88 350.16 1236.8 350.36 1237.58 350.76C1238.38 351.16 1239 351.768 1239.45 352.584C1239.9 353.4 1240.12 354.432 1240.12 355.68V363H1237.82V355.944C1237.82 354.712 1237.52 353.784 1236.91 353.16C1236.32 352.536 1235.48 352.224 1234.39 352.224C1233.57 352.224 1232.86 352.384 1232.25 352.704C1231.64 353.024 1231.17 353.496 1230.84 354.12C1230.52 354.744 1230.36 355.52 1230.36 356.448V363H1228.05V350.28H1230.26V353.712L1229.9 352.8C1230.32 351.968 1230.96 351.32 1231.82 350.856C1232.68 350.392 1233.69 350.16 1234.84 350.16ZM1258.73 363V360.312L1258.61 359.808V355.224C1258.61 354.248 1258.32 353.496 1257.74 352.968C1257.18 352.424 1256.34 352.152 1255.2 352.152C1254.45 352.152 1253.71 352.28 1252.99 352.536C1252.27 352.776 1251.66 353.104 1251.17 353.52L1250.21 351.792C1250.86 351.264 1251.65 350.864 1252.56 350.592C1253.49 350.304 1254.46 350.16 1255.46 350.16C1257.21 350.16 1258.55 350.584 1259.5 351.432C1260.44 352.28 1260.91 353.576 1260.91 355.32V363H1258.73ZM1254.55 363.144C1253.61 363.144 1252.78 362.984 1252.06 362.664C1251.35 362.344 1250.81 361.904 1250.42 361.344C1250.04 360.768 1249.85 360.12 1249.85 359.4C1249.85 358.712 1250.01 358.088 1250.33 357.528C1250.66 356.968 1251.2 356.52 1251.94 356.184C1252.69 355.848 1253.7 355.68 1254.96 355.68H1258.99V357.336H1255.06C1253.9 357.336 1253.13 357.528 1252.73 357.912C1252.33 358.296 1252.13 358.76 1252.13 359.304C1252.13 359.928 1252.38 360.432 1252.87 360.816C1253.37 361.184 1254.06 361.368 1254.94 361.368C1255.8 361.368 1256.55 361.176 1257.19 360.792C1257.85 360.408 1258.32 359.848 1258.61 359.112L1259.06 360.696C1258.76 361.448 1258.22 362.048 1257.46 362.496C1256.69 362.928 1255.72 363.144 1254.55 363.144ZM1278.37 363.144C1277.31 363.144 1276.34 362.904 1275.46 362.424C1274.6 361.928 1273.9 361.2 1273.37 360.24C1272.86 359.28 1272.61 358.08 1272.61 356.64C1272.61 355.2 1272.85 354 1273.35 353.04C1273.86 352.08 1274.55 351.36 1275.41 350.88C1276.29 350.4 1277.28 350.16 1278.37 350.16C1279.61 350.16 1280.72 350.432 1281.68 350.976C1282.64 351.52 1283.4 352.28 1283.96 353.256C1284.52 354.216 1284.8 355.344 1284.8 356.64C1284.8 357.936 1284.52 359.072 1283.96 360.048C1283.4 361.024 1282.64 361.784 1281.68 362.328C1280.72 362.872 1279.61 363.144 1278.37 363.144ZM1271.62 367.656V350.28H1273.83V353.712L1273.69 356.664L1273.93 359.616V367.656H1271.62ZM1278.17 361.128C1278.99 361.128 1279.72 360.944 1280.36 360.576C1281.01 360.208 1281.53 359.688 1281.89 359.016C1282.28 358.328 1282.47 357.536 1282.47 356.64C1282.47 355.728 1282.28 354.944 1281.89 354.288C1281.53 353.616 1281.01 353.096 1280.36 352.728C1279.72 352.36 1278.99 352.176 1278.17 352.176C1277.37 352.176 1276.65 352.36 1275.99 352.728C1275.35 353.096 1274.84 353.616 1274.45 354.288C1274.09 354.944 1273.9 355.728 1273.9 356.64C1273.9 357.536 1274.09 358.328 1274.45 359.016C1274.84 359.688 1275.35 360.208 1275.99 360.576C1276.65 360.944 1277.37 361.128 1278.17 361.128ZM1295.76 363V360.312L1295.64 359.808V355.224C1295.64 354.248 1295.35 353.496 1294.78 352.968C1294.22 352.424 1293.37 352.152 1292.23 352.152C1291.48 352.152 1290.74 352.28 1290.02 352.536C1289.3 352.776 1288.7 353.104 1288.2 353.52L1287.24 351.792C1287.9 351.264 1288.68 350.864 1289.59 350.592C1290.52 350.304 1291.49 350.16 1292.5 350.16C1294.24 350.16 1295.58 350.584 1296.53 351.432C1297.47 352.28 1297.94 353.576 1297.94 355.32V363H1295.76ZM1291.58 363.144C1290.64 363.144 1289.81 362.984 1289.09 362.664C1288.38 362.344 1287.84 361.904 1287.46 361.344C1287.07 360.768 1286.88 360.12 1286.88 359.4C1286.88 358.712 1287.04 358.088 1287.36 357.528C1287.7 356.968 1288.23 356.52 1288.97 356.184C1289.72 355.848 1290.73 355.68 1291.99 355.68H1296.02V357.336H1292.09C1290.94 357.336 1290.16 357.528 1289.76 357.912C1289.36 358.296 1289.16 358.76 1289.16 359.304C1289.16 359.928 1289.41 360.432 1289.9 360.816C1290.4 361.184 1291.09 361.368 1291.97 361.368C1292.83 361.368 1293.58 361.176 1294.22 360.792C1294.88 360.408 1295.35 359.848 1295.64 359.112L1296.1 360.696C1295.79 361.448 1295.26 362.048 1294.49 362.496C1293.72 362.928 1292.75 363.144 1291.58 363.144ZM1306.58 363.144C1305.3 363.144 1304.3 362.8 1303.6 362.112C1302.9 361.424 1302.54 360.44 1302.54 359.16V347.496H1304.85V359.064C1304.85 359.752 1305.02 360.28 1305.35 360.648C1305.7 361.016 1306.2 361.2 1306.84 361.2C1307.56 361.2 1308.16 361 1308.64 360.6L1309.36 362.256C1309.01 362.56 1308.58 362.784 1308.09 362.928C1307.61 363.072 1307.1 363.144 1306.58 363.144ZM1300.38 352.176V350.28H1308.5V352.176H1300.38ZM1318.94 350.16C1319.98 350.16 1320.89 350.36 1321.67 350.76C1322.47 351.16 1323.1 351.768 1323.54 352.584C1323.99 353.4 1324.22 354.432 1324.22 355.68V363H1321.91V355.944C1321.91 354.712 1321.61 353.784 1321 353.16C1320.41 352.536 1319.57 352.224 1318.48 352.224C1317.66 352.224 1316.95 352.384 1316.34 352.704C1315.74 353.024 1315.26 353.496 1314.93 354.12C1314.61 354.744 1314.45 355.52 1314.45 356.448V363H1312.14V345.192H1314.45V353.712L1313.99 352.8C1314.41 351.968 1315.05 351.32 1315.91 350.856C1316.78 350.392 1317.78 350.16 1318.94 350.16ZM843.52 399V385.152C843.52 383.904 843.88 382.912 844.6 382.176C845.336 381.424 846.376 381.048 847.72 381.048C848.216 381.048 848.688 381.112 849.136 381.24C849.6 381.352 849.992 381.536 850.312 381.792L849.616 383.544C849.376 383.352 849.104 383.208 848.8 383.112C848.496 383 848.176 382.944 847.84 382.944C847.168 382.944 846.656 383.136 846.304 383.52C845.952 383.888 845.776 384.44 845.776 385.176V386.88L845.824 387.936V399H843.52ZM841.36 388.176V386.28H849.472V388.176H841.36ZM851.656 399V386.28H853.96V399H851.656ZM852.808 383.832C852.36 383.832 851.984 383.688 851.68 383.4C851.392 383.112 851.248 382.76 851.248 382.344C851.248 381.912 851.392 381.552 851.68 381.264C851.984 380.976 852.36 380.832 852.808 380.832C853.256 380.832 853.624 380.976 853.912 381.264C854.216 381.536 854.368 381.88 854.368 382.296C854.368 382.728 854.224 383.096 853.936 383.4C853.648 383.688 853.272 383.832 852.808 383.832ZM858.348 399V381.192H860.652V399H858.348ZM865.051 399V381.192H867.355V399H865.051ZM877.418 399.144C876.058 399.144 874.858 398.864 873.818 398.304C872.794 397.744 871.994 396.976 871.418 396C870.858 395.024 870.578 393.904 870.578 392.64C870.578 391.376 870.85 390.256 871.394 389.28C871.954 388.304 872.714 387.544 873.674 387C874.65 386.44 875.746 386.16 876.962 386.16C878.194 386.16 879.282 386.432 880.226 386.976C881.17 387.52 881.906 388.288 882.434 389.28C882.978 390.256 883.25 391.4 883.25 392.712C883.25 392.808 883.242 392.92 883.226 393.048C883.226 393.176 883.218 393.296 883.202 393.408H872.378V391.752H882.002L881.066 392.328C881.082 391.512 880.914 390.784 880.562 390.144C880.21 389.504 879.722 389.008 879.098 388.656C878.49 388.288 877.778 388.104 876.962 388.104C876.162 388.104 875.45 388.288 874.826 388.656C874.202 389.008 873.714 389.512 873.362 390.168C873.01 390.808 872.834 391.544 872.834 392.376V392.76C872.834 393.608 873.026 394.368 873.41 395.04C873.81 395.696 874.362 396.208 875.066 396.576C875.77 396.944 876.578 397.128 877.49 397.128C878.242 397.128 878.922 397 879.53 396.744C880.154 396.488 880.698 396.104 881.162 395.592L882.434 397.08C881.858 397.752 881.138 398.264 880.274 398.616C879.426 398.968 878.474 399.144 877.418 399.144ZM891.706 399.144C890.474 399.144 889.37 398.872 888.394 398.328C887.434 397.784 886.674 397.024 886.114 396.048C885.554 395.072 885.274 393.936 885.274 392.64C885.274 391.344 885.554 390.216 886.114 389.256C886.674 388.28 887.434 387.52 888.394 386.976C889.37 386.432 890.474 386.16 891.706 386.16C892.778 386.16 893.746 386.4 894.61 386.88C895.474 387.36 896.162 388.08 896.674 389.04C897.202 390 897.466 391.2 897.466 392.64C897.466 394.08 897.21 395.28 896.698 396.24C896.202 397.2 895.522 397.928 894.658 398.424C893.794 398.904 892.81 399.144 891.706 399.144ZM891.898 397.128C892.698 397.128 893.418 396.944 894.058 396.576C894.714 396.208 895.226 395.688 895.594 395.016C895.978 394.328 896.17 393.536 896.17 392.64C896.17 391.728 895.978 390.944 895.594 390.288C895.226 389.616 894.714 389.096 894.058 388.728C893.418 388.36 892.698 388.176 891.898 388.176C891.082 388.176 890.354 388.36 889.714 388.728C889.074 389.096 888.562 389.616 888.178 390.288C887.794 390.944 887.602 391.728 887.602 392.64C887.602 393.536 887.794 394.328 888.178 395.016C888.562 395.688 889.074 396.208 889.714 396.576C890.354 396.944 891.082 397.128 891.898 397.128ZM896.242 399V395.568L896.386 392.616L896.146 389.664V381.192H898.45V399H896.242ZM911.942 399L907.214 386.28H909.398L913.598 397.8H912.566L916.934 386.28H918.878L923.15 397.8H922.142L926.438 386.28H928.502L923.75 399H921.542L917.534 388.488H918.206L914.15 399H911.942ZM930.84 399V386.28H933.144V399H930.84ZM931.992 383.832C931.544 383.832 931.168 383.688 930.864 383.4C930.576 383.112 930.432 382.76 930.432 382.344C930.432 381.912 930.576 381.552 930.864 381.264C931.168 380.976 931.544 380.832 931.992 380.832C932.44 380.832 932.808 380.976 933.096 381.264C933.4 381.536 933.552 381.88 933.552 382.296C933.552 382.728 933.408 383.096 933.12 383.4C932.832 383.688 932.456 383.832 931.992 383.832ZM941.911 399.144C940.631 399.144 939.639 398.8 938.935 398.112C938.231 397.424 937.879 396.44 937.879 395.16V383.496H940.183V395.064C940.183 395.752 940.351 396.28 940.687 396.648C941.039 397.016 941.535 397.2 942.175 397.2C942.895 397.2 943.495 397 943.975 396.6L944.695 398.256C944.343 398.56 943.919 398.784 943.423 398.928C942.943 399.072 942.439 399.144 941.911 399.144ZM935.719 388.176V386.28H943.831V388.176H935.719ZM954.273 386.16C955.313 386.16 956.225 386.36 957.009 386.76C957.809 387.16 958.433 387.768 958.881 388.584C959.329 389.4 959.553 390.432 959.553 391.68V399H957.249V391.944C957.249 390.712 956.945 389.784 956.337 389.16C955.745 388.536 954.905 388.224 953.817 388.224C953.001 388.224 952.289 388.384 951.681 388.704C951.073 389.024 950.601 389.496 950.265 390.12C949.945 390.744 949.785 391.52 949.785 392.448V399H947.481V381.192H949.785V389.712L949.329 388.8C949.745 387.968 950.385 387.32 951.249 386.856C952.113 386.392 953.121 386.16 954.273 386.16ZM1055.06 402.504L1056.12 398.064L1056.31 399.096C1055.94 399.096 1055.63 398.976 1055.37 398.736C1055.13 398.496 1055.01 398.184 1055.01 397.8C1055.01 397.416 1055.13 397.104 1055.37 396.864C1055.63 396.624 1055.93 396.504 1056.29 396.504C1056.65 396.504 1056.95 396.632 1057.17 396.888C1057.41 397.144 1057.53 397.448 1057.53 397.8C1057.53 397.928 1057.53 398.056 1057.51 398.184C1057.49 398.312 1057.46 398.456 1057.41 398.616C1057.37 398.776 1057.3 398.968 1057.22 399.192L1056.21 402.504H1055.06ZM1115.67 402.504L1116.73 398.064L1116.92 399.096C1116.55 399.096 1116.24 398.976 1115.98 398.736C1115.74 398.496 1115.62 398.184 1115.62 397.8C1115.62 397.416 1115.74 397.104 1115.98 396.864C1116.24 396.624 1116.54 396.504 1116.9 396.504C1117.26 396.504 1117.56 396.632 1117.78 396.888C1118.02 397.144 1118.14 397.448 1118.14 397.8C1118.14 397.928 1118.14 398.056 1118.12 398.184C1118.1 398.312 1118.07 398.456 1118.02 398.616C1117.98 398.776 1117.91 398.968 1117.83 399.192L1116.82 402.504H1115.67ZM1136.29 399V396.312L1136.17 395.808V391.224C1136.17 390.248 1135.88 389.496 1135.31 388.968C1134.75 388.424 1133.9 388.152 1132.76 388.152C1132.01 388.152 1131.27 388.28 1130.55 388.536C1129.83 388.776 1129.23 389.104 1128.73 389.52L1127.77 387.792C1128.43 387.264 1129.21 386.864 1130.12 386.592C1131.05 386.304 1132.02 386.16 1133.03 386.16C1134.77 386.16 1136.11 386.584 1137.06 387.432C1138 388.28 1138.47 389.576 1138.47 391.32V399H1136.29ZM1132.11 399.144C1131.17 399.144 1130.34 398.984 1129.62 398.664C1128.91 398.344 1128.37 397.904 1127.99 397.344C1127.6 396.768 1127.41 396.12 1127.41 395.4C1127.41 394.712 1127.57 394.088 1127.89 393.528C1128.23 392.968 1128.76 392.52 1129.5 392.184C1130.25 391.848 1131.26 391.68 1132.52 391.68H1136.55V393.336H1132.62C1131.47 393.336 1130.69 393.528 1130.29 393.912C1129.89 394.296 1129.69 394.76 1129.69 395.304C1129.69 395.928 1129.94 396.432 1130.43 396.816C1130.93 397.184 1131.62 397.368 1132.5 397.368C1133.36 397.368 1134.11 397.176 1134.75 396.792C1135.41 396.408 1135.88 395.848 1136.17 395.112L1136.63 396.696C1136.32 397.448 1135.79 398.048 1135.02 398.496C1134.25 398.928 1133.28 399.144 1132.11 399.144ZM1149.53 386.16C1150.57 386.16 1151.48 386.36 1152.27 386.76C1153.07 387.16 1153.69 387.768 1154.14 388.584C1154.59 389.4 1154.81 390.432 1154.81 391.68V399H1152.51V391.944C1152.51 390.712 1152.2 389.784 1151.59 389.16C1151 388.536 1150.16 388.224 1149.07 388.224C1148.26 388.224 1147.55 388.384 1146.94 388.704C1146.33 389.024 1145.86 389.496 1145.52 390.12C1145.2 390.744 1145.04 391.52 1145.04 392.448V399H1142.74V386.28H1144.95V389.712L1144.59 388.8C1145 387.968 1145.64 387.32 1146.51 386.856C1147.37 386.392 1148.38 386.16 1149.53 386.16ZM1164.33 399.144C1163.1 399.144 1161.99 398.872 1161.02 398.328C1160.06 397.784 1159.3 397.024 1158.74 396.048C1158.18 395.072 1157.9 393.936 1157.9 392.64C1157.9 391.344 1158.18 390.216 1158.74 389.256C1159.3 388.28 1160.06 387.52 1161.02 386.976C1161.99 386.432 1163.1 386.16 1164.33 386.16C1165.4 386.16 1166.37 386.4 1167.23 386.88C1168.1 387.36 1168.79 388.08 1169.3 389.04C1169.83 390 1170.09 391.2 1170.09 392.64C1170.09 394.08 1169.83 395.28 1169.32 396.24C1168.83 397.2 1168.15 397.928 1167.28 398.424C1166.42 398.904 1165.43 399.144 1164.33 399.144ZM1164.52 397.128C1165.32 397.128 1166.04 396.944 1166.68 396.576C1167.34 396.208 1167.85 395.688 1168.22 395.016C1168.6 394.328 1168.79 393.536 1168.79 392.64C1168.79 391.728 1168.6 390.944 1168.22 390.288C1167.85 389.616 1167.34 389.096 1166.68 388.728C1166.04 388.36 1165.32 388.176 1164.52 388.176C1163.71 388.176 1162.98 388.36 1162.34 388.728C1161.7 389.096 1161.19 389.616 1160.8 390.288C1160.42 390.944 1160.23 391.728 1160.23 392.64C1160.23 393.536 1160.42 394.328 1160.8 395.016C1161.19 395.688 1161.7 396.208 1162.34 396.576C1162.98 396.944 1163.71 397.128 1164.52 397.128ZM1168.87 399V395.568L1169.01 392.616L1168.77 389.664V381.192H1171.07V399H1168.87Z" fill="#1F201E"/>
<path d="M978.062 363V346.2H981.95V359.832H990.374V363H978.062ZM999.823 363.288C997.439 363.288 995.575 362.624 994.231 361.296C992.887 359.968 992.215 358.072 992.215 355.608V346.2H996.103V355.464C996.103 357.064 996.431 358.216 997.087 358.92C997.743 359.624 998.663 359.976 999.847 359.976C1001.03 359.976 1001.95 359.624 1002.61 358.92C1003.26 358.216 1003.59 357.064 1003.59 355.464V346.2H1007.43V355.608C1007.43 358.072 1006.76 359.968 1005.42 361.296C1004.07 362.624 1002.21 363.288 999.823 363.288ZM1019.31 363.288C1018.02 363.288 1016.81 363.08 1015.69 362.664C1014.59 362.232 1013.63 361.624 1012.81 360.84C1011.99 360.056 1011.35 359.136 1010.89 358.08C1010.44 357.024 1010.22 355.864 1010.22 354.6C1010.22 353.336 1010.44 352.176 1010.89 351.12C1011.35 350.064 1011.99 349.144 1012.81 348.36C1013.64 347.576 1014.61 346.976 1015.71 346.56C1016.82 346.128 1018.03 345.912 1019.34 345.912C1020.79 345.912 1022.11 346.168 1023.27 346.68C1024.46 347.176 1025.45 347.912 1026.25 348.888L1023.75 351.192C1023.18 350.536 1022.54 350.048 1021.83 349.728C1021.13 349.392 1020.36 349.224 1019.53 349.224C1018.75 349.224 1018.03 349.352 1017.37 349.608C1016.71 349.864 1016.15 350.232 1015.67 350.712C1015.19 351.192 1014.81 351.76 1014.54 352.416C1014.28 353.072 1014.15 353.8 1014.15 354.6C1014.15 355.4 1014.28 356.128 1014.54 356.784C1014.81 357.44 1015.19 358.008 1015.67 358.488C1016.15 358.968 1016.71 359.336 1017.37 359.592C1018.03 359.848 1018.75 359.976 1019.53 359.976C1020.36 359.976 1021.13 359.816 1021.83 359.496C1022.54 359.16 1023.18 358.656 1023.75 357.984L1026.25 360.288C1025.45 361.264 1024.46 362.008 1023.27 362.52C1022.11 363.032 1020.79 363.288 1019.31 363.288ZM1032.35 359.16L1032.14 354.672L1040.18 346.2H1044.5L1037.25 354L1035.09 356.304L1032.35 359.16ZM1028.87 363V346.2H1032.74V363H1028.87ZM1040.37 363L1034.39 355.68L1036.94 352.92L1044.91 363H1040.37ZM970.422 399V382.2H977.694C979.198 382.2 980.494 382.448 981.582 382.944C982.67 383.424 983.51 384.12 984.102 385.032C984.694 385.944 984.99 387.032 984.99 388.296C984.99 389.544 984.694 390.624 984.102 391.536C983.51 392.448 982.67 393.152 981.582 393.648C980.494 394.128 979.198 394.368 977.694 394.368H972.582L974.31 392.616V399H970.422ZM974.31 393.048L972.582 391.2H977.478C978.678 391.2 979.574 390.944 980.166 390.432C980.758 389.92 981.054 389.208 981.054 388.296C981.054 387.368 980.758 386.648 980.166 386.136C979.574 385.624 978.678 385.368 977.478 385.368H972.582L974.31 383.52V393.048ZM991.341 388.968H999.429V391.992H991.341V388.968ZM991.629 395.88H1000.77V399H987.765V382.2H1000.46V385.32H991.629V395.88ZM1001.66 399L1009.15 382.2H1012.99L1020.5 399H1016.42L1010.28 384.168H1011.81L1005.64 399H1001.66ZM1005.4 395.4L1006.44 392.448H1015.08L1016.13 395.4H1005.4ZM1030.05 399.288C1028.75 399.288 1027.54 399.08 1026.42 398.664C1025.32 398.232 1024.36 397.624 1023.54 396.84C1022.73 396.056 1022.09 395.136 1021.62 394.08C1021.18 393.024 1020.95 391.864 1020.95 390.6C1020.95 389.336 1021.18 388.176 1021.62 387.12C1022.09 386.064 1022.73 385.144 1023.54 384.36C1024.38 383.576 1025.34 382.976 1026.45 382.56C1027.55 382.128 1028.76 381.912 1030.07 381.912C1031.53 381.912 1032.84 382.168 1034.01 382.68C1035.19 383.176 1036.18 383.912 1036.98 384.888L1034.49 387.192C1033.91 386.536 1033.27 386.048 1032.57 385.728C1031.86 385.392 1031.1 385.224 1030.26 385.224C1029.48 385.224 1028.76 385.352 1028.1 385.608C1027.45 385.864 1026.88 386.232 1026.4 386.712C1025.92 387.192 1025.54 387.76 1025.27 388.416C1025.02 389.072 1024.89 389.8 1024.89 390.6C1024.89 391.4 1025.02 392.128 1025.27 392.784C1025.54 393.44 1025.92 394.008 1026.4 394.488C1026.88 394.968 1027.45 395.336 1028.1 395.592C1028.76 395.848 1029.48 395.976 1030.26 395.976C1031.1 395.976 1031.86 395.816 1032.57 395.496C1033.27 395.16 1033.91 394.656 1034.49 393.984L1036.98 396.288C1036.18 397.264 1035.19 398.008 1034.01 398.52C1032.84 399.032 1031.52 399.288 1030.05 399.288ZM1043.19 388.968H1051.27V391.992H1043.19V388.968ZM1043.47 395.88H1052.62V399H1039.61V382.2H1052.31V385.32H1043.47V395.88ZM1070.69 399.288C1069.55 399.288 1068.51 399.08 1067.55 398.664C1066.6 398.232 1065.83 397.624 1065.22 396.84L1067.38 394.248C1067.84 394.856 1068.33 395.32 1068.84 395.64C1069.35 395.944 1069.91 396.096 1070.5 396.096C1072.08 396.096 1072.87 395.168 1072.87 393.312V385.32H1066.97V382.2H1076.74V393.096C1076.74 395.176 1076.23 396.728 1075.2 397.752C1074.18 398.776 1072.67 399.288 1070.69 399.288ZM1088.74 399.288C1087.41 399.288 1086.18 399.072 1085.04 398.64C1083.92 398.208 1082.95 397.6 1082.11 396.816C1081.3 396.032 1080.66 395.112 1080.19 394.056C1079.75 393 1079.52 391.848 1079.52 390.6C1079.52 389.352 1079.75 388.2 1080.19 387.144C1080.66 386.088 1081.31 385.168 1082.14 384.384C1082.97 383.6 1083.95 382.992 1085.07 382.56C1086.19 382.128 1087.4 381.912 1088.71 381.912C1090.04 381.912 1091.26 382.128 1092.36 382.56C1093.48 382.992 1094.45 383.6 1095.27 384.384C1096.1 385.168 1096.75 386.088 1097.21 387.144C1097.67 388.184 1097.91 389.336 1097.91 390.6C1097.91 391.848 1097.67 393.008 1097.21 394.08C1096.75 395.136 1096.1 396.056 1095.27 396.84C1094.45 397.608 1093.48 398.208 1092.36 398.64C1091.26 399.072 1090.05 399.288 1088.74 399.288ZM1088.71 395.976C1089.47 395.976 1090.15 395.848 1090.78 395.592C1091.42 395.336 1091.98 394.968 1092.46 394.488C1092.94 394.008 1093.31 393.44 1093.56 392.784C1093.83 392.128 1093.97 391.4 1093.97 390.6C1093.97 389.8 1093.83 389.072 1093.56 388.416C1093.31 387.76 1092.94 387.192 1092.46 386.712C1091.99 386.232 1091.44 385.864 1090.8 385.608C1090.16 385.352 1089.47 385.224 1088.71 385.224C1087.96 385.224 1087.27 385.352 1086.63 385.608C1086 385.864 1085.45 386.232 1084.97 386.712C1084.49 387.192 1084.11 387.76 1083.84 388.416C1083.59 389.072 1083.46 389.8 1083.46 390.6C1083.46 391.384 1083.59 392.112 1083.84 392.784C1084.11 393.44 1084.48 394.008 1084.95 394.488C1085.43 394.968 1085.99 395.336 1086.63 395.592C1087.27 395.848 1087.96 395.976 1088.71 395.976ZM1104.28 399V392.136L1105.17 394.488L1097.77 382.2H1101.9L1107.57 391.632H1105.19L1110.88 382.2H1114.69L1107.3 394.488L1108.17 392.136V399H1104.28ZM1186.73 399L1179.48 382.2H1183.68L1190.02 397.08H1187.54L1193.98 382.2H1197.84L1190.57 399H1186.73ZM1199.24 399V382.2H1203.13V399H1199.24ZM1210.6 399V385.368H1205.22V382.2H1219.86V385.368H1214.49V399H1210.6ZM1218.9 399L1226.39 382.2H1230.23L1237.74 399H1233.66L1227.52 384.168H1229.05L1222.89 399H1218.9ZM1222.65 395.4L1223.68 392.448H1232.32L1233.37 395.4H1222.65ZM1239.48 399V382.2H1243.37V395.832H1251.8V399H1239.48ZM1253.97 399V382.2H1257.86V399H1253.97ZM1265.32 399V385.368H1259.95V382.2H1274.59V385.368H1269.21V399H1265.32ZM1280.53 399V392.136L1281.42 394.488L1274.02 382.2H1278.15L1283.82 391.632H1281.44L1287.13 382.2H1290.94L1283.55 394.488L1284.42 392.136V399H1280.53ZM1293.04 393.168L1292.29 382.2H1296.76L1296.01 393.168H1293.04ZM1294.53 399.192C1293.85 399.192 1293.3 398.976 1292.87 398.544C1292.44 398.112 1292.22 397.6 1292.22 397.008C1292.22 396.4 1292.44 395.896 1292.87 395.496C1293.3 395.08 1293.85 394.872 1294.53 394.872C1295.21 394.872 1295.77 395.08 1296.18 395.496C1296.61 395.896 1296.83 396.4 1296.83 397.008C1296.83 397.6 1296.61 398.112 1296.18 398.544C1295.77 398.976 1295.21 399.192 1294.53 399.192Z" fill="#DC437A"/>
<path d="M855.912 274.36H877.416V282.68H855.912V274.36ZM856.68 299H846.312V254.2H880.168V262.52H856.68V299ZM908.51 299.768C904.968 299.768 901.683 299.192 898.654 298.04C895.667 296.888 893.064 295.267 890.845 293.176C888.67 291.085 886.963 288.632 885.726 285.816C884.531 283 883.934 279.928 883.934 276.6C883.934 273.272 884.531 270.2 885.726 267.384C886.963 264.568 888.691 262.115 890.91 260.024C893.128 257.933 895.731 256.312 898.718 255.16C901.704 254.008 904.947 253.432 908.446 253.432C911.987 253.432 915.229 254.008 918.174 255.16C921.16 256.312 923.742 257.933 925.918 260.024C928.136 262.115 929.864 264.568 931.102 267.384C932.339 270.157 932.958 273.229 932.958 276.6C932.958 279.928 932.339 283.021 931.102 285.88C929.864 288.696 928.136 291.149 925.918 293.24C923.742 295.288 921.16 296.888 918.174 298.04C915.229 299.192 912.008 299.768 908.51 299.768ZM908.446 290.936C910.451 290.936 912.286 290.595 913.95 289.912C915.656 289.229 917.15 288.248 918.43 286.968C919.71 285.688 920.691 284.173 921.374 282.424C922.099 280.675 922.462 278.733 922.462 276.6C922.462 274.467 922.099 272.525 921.374 270.776C920.691 269.027 919.71 267.512 918.43 266.232C917.192 264.952 915.72 263.971 914.014 263.288C912.307 262.605 910.451 262.264 908.446 262.264C906.44 262.264 904.584 262.605 902.878 263.288C901.214 263.971 899.742 264.952 898.462 266.232C897.182 267.512 896.179 269.027 895.454 270.776C894.771 272.525 894.43 274.467 894.43 276.6C894.43 278.691 894.771 280.632 895.454 282.424C896.179 284.173 897.16 285.688 898.398 286.968C899.678 288.248 901.171 289.229 902.878 289.912C904.584 290.595 906.44 290.936 908.446 290.936ZM940.75 299V254.2H960.142C964.152 254.2 967.608 254.861 970.51 256.184C973.411 257.464 975.651 259.32 977.23 261.752C978.808 264.184 979.598 267.085 979.598 270.456C979.598 273.784 978.808 276.664 977.23 279.096C975.651 281.485 973.411 283.32 970.51 284.6C967.608 285.88 964.152 286.52 960.142 286.52H946.51L951.118 281.976V299H940.75ZM969.229 299L958.03 282.744H969.102L980.43 299H969.229ZM951.118 283.128L946.51 278.264H959.566C962.766 278.264 965.155 277.581 966.734 276.216C968.312 274.808 969.102 272.888 969.102 270.456C969.102 267.981 968.312 266.061 966.734 264.696C965.155 263.331 962.766 262.648 959.566 262.648H946.51L951.118 257.72V283.128ZM1017.07 299V280.696L1019.44 286.968L999.729 254.2H1010.74L1025.84 279.352H1019.51L1034.67 254.2H1044.85L1025.14 286.968L1027.44 280.696V299H1017.07ZM1069.01 299.768C1065.47 299.768 1062.18 299.192 1059.15 298.04C1056.17 296.888 1053.56 295.267 1051.35 293.176C1049.17 291.085 1047.46 288.632 1046.23 285.816C1045.03 283 1044.43 279.928 1044.43 276.6C1044.43 273.272 1045.03 270.2 1046.23 267.384C1047.46 264.568 1049.19 262.115 1051.41 260.024C1053.63 257.933 1056.23 256.312 1059.22 255.16C1062.2 254.008 1065.45 253.432 1068.95 253.432C1072.49 253.432 1075.73 254.008 1078.67 255.16C1081.66 256.312 1084.24 257.933 1086.42 260.024C1088.64 262.115 1090.36 264.568 1091.6 267.384C1092.84 270.157 1093.46 273.229 1093.46 276.6C1093.46 279.928 1092.84 283.021 1091.6 285.88C1090.36 288.696 1088.64 291.149 1086.42 293.24C1084.24 295.288 1081.66 296.888 1078.67 298.04C1075.73 299.192 1072.51 299.768 1069.01 299.768ZM1068.95 290.936C1070.95 290.936 1072.79 290.595 1074.45 289.912C1076.16 289.229 1077.65 288.248 1078.93 286.968C1080.21 285.688 1081.19 284.173 1081.87 282.424C1082.6 280.675 1082.96 278.733 1082.96 276.6C1082.96 274.467 1082.6 272.525 1081.87 270.776C1081.19 269.027 1080.21 267.512 1078.93 266.232C1077.69 264.952 1076.22 263.971 1074.51 263.288C1072.81 262.605 1070.95 262.264 1068.95 262.264C1066.94 262.264 1065.08 262.605 1063.38 263.288C1061.71 263.971 1060.24 264.952 1058.96 266.232C1057.68 267.512 1056.68 269.027 1055.95 270.776C1055.27 272.525 1054.93 274.467 1054.93 276.6C1054.93 278.691 1055.27 280.632 1055.95 282.424C1056.68 284.173 1057.66 285.688 1058.9 286.968C1060.18 288.248 1061.67 289.229 1063.38 289.912C1065.08 290.595 1066.94 290.936 1068.95 290.936ZM1121.15 299.768C1114.8 299.768 1109.83 297.997 1106.24 294.456C1102.66 290.915 1100.87 285.859 1100.87 279.288V254.2H1111.23V278.904C1111.23 283.171 1112.11 286.243 1113.86 288.12C1115.61 289.997 1118.06 290.936 1121.22 290.936C1124.37 290.936 1126.83 289.997 1128.58 288.12C1130.33 286.243 1131.2 283.171 1131.2 278.904V254.2H1141.44V279.288C1141.44 285.859 1139.65 290.915 1136.07 294.456C1132.48 297.997 1127.51 299.768 1121.15 299.768Z" fill="#1F201E"/>
<defs>
<clipPath id="clip0_123_309">
<rect width="1440" height="620" fill="white"/>
</clipPath>
</defs>
</svg>
