<svg width="375" height="300" viewBox="0 0 375 300" fill="none" xmlns="http://www.w3.org/2000/svg">
<g clip-path="url(#clip0_391_642)">
<rect width="375" height="300" fill="#FFF586"/>
<path d="M-190.488 168.69C-269.826 172.575 -155.87 204.28 -64.7292 193.243C-22.0013 188.068 36.6819 176.461 95.9369 185.446C130.207 190.643 261.86 176.461 316.389 176.461C370.918 176.461 300.285 168.69 261.336 168.69C222.387 168.69 214.123 128.993 155.699 151.855C97.2754 174.717 148.852 137.555 88.0917 116.27C32.1206 96.6618 18.8176 137.357 -2.21498 146.817C-23.2475 156.277 -68.9216 133.724 -90.6757 151.855C-112.43 169.985 -111.15 164.805 -190.488 168.69Z" fill="#FFD400"/>
<path d="M192.518 146.11C192.852 152.581 187.899 158.093 181.456 158.421C175.013 158.749 169.519 153.769 169.185 147.298C168.851 140.827 173.804 135.315 180.247 134.987C186.69 134.659 192.184 139.639 192.518 146.11Z" fill="#423D9B" stroke="black" stroke-width="0.420276"/>
<path d="M186.413 146.421C186.572 149.506 184.211 152.133 181.14 152.29C178.069 152.446 175.449 150.073 175.29 146.987C175.131 143.902 177.492 141.275 180.564 141.118C183.635 140.962 186.254 143.336 186.413 146.421Z" fill="#211A67" stroke="black" stroke-width="0.420276"/>
<path d="M100.357 37.6189L100.358 37.6178C105.258 31.2943 116.136 32.0969 119.342 40.6188L119.342 40.6189L132.032 74.3377L91.6081 66.2637L98.4028 41.5672C98.4028 41.5671 98.4028 41.567 98.4028 41.567C98.8267 40.0359 99.4925 38.7203 100.357 37.6189Z" fill="#EC72A5" stroke="black" stroke-width="0.420276"/>
<path d="M99.8849 38.2745C99.8715 38.4137 99.858 38.5696 99.8452 38.7413C99.7843 39.5584 99.739 40.733 99.801 42.167C99.9251 45.0345 100.479 48.9432 102.197 53.107C105.226 60.446 111.863 68.5478 126.069 73.1488L91.6077 66.2658L98.4018 41.5716C98.4018 41.5715 98.4018 41.5715 98.4019 41.5714C98.7451 40.3313 99.2472 39.2326 99.8849 38.2745Z" fill="#DC437A" stroke="black" stroke-width="0.420276"/>
<path d="M29.5302 136.985L72.6661 134.339C74.2896 134.84 75.1993 136.382 75.5153 138.48C75.8328 140.589 75.5373 143.203 74.8012 145.699C74.0651 148.194 72.8954 150.548 71.4854 152.142C70.0725 153.74 68.4605 154.535 66.8151 154.045L66.7975 154.04L66.7792 154.038C57.7953 153.007 48.3741 148.664 41.1874 144.568C37.5966 142.521 34.5688 140.539 32.4388 139.069C31.3739 138.334 30.5337 137.727 29.9599 137.304C29.7941 137.182 29.6505 137.075 29.5302 136.985Z" fill="#423D9B" stroke="black" stroke-width="0.420276"/>
<path d="M67.6147 151.318C67.1985 151.194 66.8793 150.893 66.6484 150.432C66.4156 149.967 66.2784 149.348 66.2317 148.619C66.1383 147.161 66.4095 145.315 66.925 143.517C67.4554 141.667 68.2383 139.888 69.1272 138.651C69.572 138.032 70.0353 137.56 70.4963 137.279C70.9538 137 71.3978 136.914 71.8257 137.042C72.2449 137.167 72.5659 137.471 72.7971 137.938C73.0303 138.409 73.1663 139.036 73.2107 139.774C73.2993 141.249 73.0187 143.114 72.4921 144.923C71.9582 146.758 71.1776 148.516 70.2938 149.736C69.8516 150.346 69.3915 150.811 68.934 151.087C68.4801 151.361 68.0395 151.444 67.6147 151.318L67.5552 151.52L67.6147 151.318Z" fill="#211A67" stroke="black" stroke-width="0.420276"/>
<path d="M71.6529 129.876L114.789 127.23C116.412 127.732 117.322 129.274 117.638 131.372C117.956 133.481 117.66 136.095 116.924 138.59C116.188 141.086 115.018 143.439 113.608 145.034C112.195 146.632 110.583 147.427 108.938 146.937L108.92 146.932L108.902 146.93C99.918 145.898 90.4967 141.556 83.3101 137.46C79.7193 135.413 76.6914 133.431 74.5615 131.961C73.4966 131.226 72.6563 130.619 72.0826 130.196C71.9167 130.073 71.7732 129.966 71.6529 129.876Z" fill="#423D9B" stroke="black" stroke-width="0.420276"/>
<path d="M109.628 144.524C111.259 145.01 113.552 142.119 114.75 138.066C115.948 134.013 115.597 130.333 113.966 129.847C112.335 129.361 110.041 132.253 108.844 136.306C107.646 140.359 107.997 144.038 109.628 144.524Z" fill="#211A67"/>
<path d="M-23.2832 71.1657C-23.7636 71.0227 -24.2566 70.8759 -24.7553 70.6991C-29.7341 69.1033 -35.3001 66.6248 -36.1972 63.9228C-38.0455 58.3187 -12.6403 56.1439 -2.59489 56.5021C4.8915 56.7774 28.6092 63.3864 28.6946 70.6599C28.7696 77.0101 -11.5639 74.6552 -23.2832 71.1657Z" fill="#EC72A5"/>
<mask id="path-11-inside-1_391_642" fill="white">
<path fill-rule="evenodd" clip-rule="evenodd" d="M216.362 115.941C210.849 81.6148 71.9177 62.8758 45.6125 59.6299C42.9299 59.2989 40.5924 57.6483 39.3697 55.23L20.4302 17.7696C18.9154 14.7735 16.238 12.5351 13.0274 11.5805L-0.708023 7.49636C-3.31874 6.72009 -5.93602 8.69098 -5.922 11.4226L-5.65525 63.3816C-5.63428 67.4674 -3.55068 71.2833 -0.0932137 73.4431C91.2023 130.473 194.041 155.003 222.379 144.363C230.139 141.449 232.942 131.672 228.461 124.68C225.812 120.548 221.53 117.658 216.362 115.941ZM70.0754 86.1059C73.384 87.0147 76.7947 85.0518 77.7002 81.7329C78.602 78.4278 76.6594 75.0094 73.3508 74.1006C70.0423 73.1918 66.6353 75.1409 65.7335 78.446C64.828 81.7649 66.7668 85.1971 70.0754 86.1059ZM100.569 87.0629C99.6637 90.3818 96.253 92.3447 92.9444 91.4359C89.6358 90.5272 87.697 87.0949 88.6025 83.776C89.5042 80.4709 92.9112 78.5218 96.2198 79.4306C99.5284 80.3394 101.471 83.7578 100.569 87.0629ZM115.814 96.7658C119.122 97.6745 122.533 95.7117 123.438 92.3928C124.34 89.0876 122.398 85.6692 119.089 84.7604C115.78 83.8517 112.373 85.8008 111.472 89.1059C110.566 92.4248 112.505 95.857 115.814 96.7658ZM146.308 97.7226C145.402 101.042 141.991 103.004 138.683 102.096C135.374 101.187 133.435 97.7546 134.341 94.4357C135.243 91.1306 138.65 89.1815 141.958 90.0903C145.267 90.9991 147.209 94.4175 146.308 97.7226ZM161.552 107.426C164.86 108.334 168.271 106.372 169.177 103.053C170.078 99.7475 168.136 96.3291 164.827 95.4203C161.519 94.5115 158.112 96.4606 157.21 99.7657C156.304 103.085 158.243 106.517 161.552 107.426Z"/>
</mask>
<path fill-rule="evenodd" clip-rule="evenodd" d="M216.362 115.941C210.849 81.6148 71.9177 62.8758 45.6125 59.6299C42.9299 59.2989 40.5924 57.6483 39.3697 55.23L20.4302 17.7696C18.9154 14.7735 16.238 12.5351 13.0274 11.5805L-0.708023 7.49636C-3.31874 6.72009 -5.93602 8.69098 -5.922 11.4226L-5.65525 63.3816C-5.63428 67.4674 -3.55068 71.2833 -0.0932137 73.4431C91.2023 130.473 194.041 155.003 222.379 144.363C230.139 141.449 232.942 131.672 228.461 124.68C225.812 120.548 221.53 117.658 216.362 115.941ZM70.0754 86.1059C73.384 87.0147 76.7947 85.0518 77.7002 81.7329C78.602 78.4278 76.6594 75.0094 73.3508 74.1006C70.0423 73.1918 66.6353 75.1409 65.7335 78.446C64.828 81.7649 66.7668 85.1971 70.0754 86.1059ZM100.569 87.0629C99.6637 90.3818 96.253 92.3447 92.9444 91.4359C89.6358 90.5272 87.697 87.0949 88.6025 83.776C89.5042 80.4709 92.9112 78.5218 96.2198 79.4306C99.5284 80.3394 101.471 83.7578 100.569 87.0629ZM115.814 96.7658C119.122 97.6745 122.533 95.7117 123.438 92.3928C124.34 89.0876 122.398 85.6692 119.089 84.7604C115.78 83.8517 112.373 85.8008 111.472 89.1059C110.566 92.4248 112.505 95.857 115.814 96.7658ZM146.308 97.7226C145.402 101.042 141.991 103.004 138.683 102.096C135.374 101.187 133.435 97.7546 134.341 94.4357C135.243 91.1306 138.65 89.1815 141.958 90.0903C145.267 90.9991 147.209 94.4175 146.308 97.7226ZM161.552 107.426C164.86 108.334 168.271 106.372 169.177 103.053C170.078 99.7475 168.136 96.3291 164.827 95.4203C161.519 94.5115 158.112 96.4606 157.21 99.7657C156.304 103.085 158.243 106.517 161.552 107.426Z" fill="white"/>
<path d="M45.6125 59.6299L45.664 59.2127L45.6125 59.6299ZM216.362 115.941L215.947 116.008L215.988 116.26L216.23 116.34L216.362 115.941ZM39.3697 55.23L38.9947 55.4196L39.3697 55.23ZM20.4302 17.7696L20.8052 17.58L20.4302 17.7696ZM13.0274 11.5805L13.1472 11.1776L13.0274 11.5805ZM-0.708023 7.49636L-0.827755 7.89924L-0.827755 7.89924L-0.708023 7.49636ZM-5.922 11.4226L-5.50176 11.4205L-5.50176 11.4205L-5.922 11.4226ZM-5.65525 63.3816L-5.23502 63.3794L-5.65525 63.3816ZM-0.0932137 73.4431L0.129391 73.0866L0.129388 73.0866L-0.0932137 73.4431ZM222.379 144.363L222.527 144.756L222.379 144.363ZM228.461 124.68L228.814 124.453L228.461 124.68ZM77.7002 81.7329L77.2948 81.6222L77.2948 81.6222L77.7002 81.7329ZM70.0754 86.1059L69.9641 86.5112L70.0754 86.1059ZM65.7335 78.446L66.1389 78.5567L66.1389 78.5567L65.7335 78.446ZM92.9444 91.4359L92.8331 91.8412L92.9444 91.4359ZM100.569 87.0629L100.164 86.9522L100.569 87.0629ZM88.6025 83.776L89.0079 83.8867L89.0079 83.8867L88.6025 83.776ZM96.2198 79.4306L96.1086 79.8359L96.2198 79.4306ZM123.438 92.3928L123.033 92.2821L123.033 92.2821L123.438 92.3928ZM115.814 96.7658L115.702 97.1711L115.814 96.7658ZM119.089 84.7604L119.2 84.3551L119.089 84.7604ZM111.472 89.1059L111.066 88.9952L111.066 88.9952L111.472 89.1059ZM138.683 102.096L138.572 102.501L138.683 102.096ZM146.308 97.7226L146.713 97.8333L146.713 97.8333L146.308 97.7226ZM134.341 94.4357L133.936 94.3251L133.936 94.3251L134.341 94.4357ZM141.958 90.0903L142.07 89.685L142.07 89.685L141.958 90.0903ZM169.177 103.053L169.582 103.163L169.582 103.163L169.177 103.053ZM161.552 107.426L161.663 107.02L161.552 107.426ZM164.827 95.4203L164.716 95.8256L164.827 95.4203ZM157.21 99.7657L157.615 99.8764L157.615 99.8764L157.21 99.7657ZM45.5611 60.047C58.7094 61.6695 99.9993 67.1634 138.685 76.5389C158.031 81.2272 176.705 86.8814 190.878 93.4985C197.965 96.8073 203.909 100.348 208.246 104.117C212.585 107.887 215.28 111.853 215.947 116.008L216.777 115.875C216.066 111.448 213.213 107.319 208.797 103.482C204.378 99.6426 198.357 96.0626 191.234 92.7368C176.985 86.0845 158.248 80.4148 138.883 75.7219C100.149 66.3348 58.8208 60.8362 45.664 59.2127L45.5611 60.047ZM38.9947 55.4196C40.2802 57.9622 42.7385 59.6987 45.5611 60.047L45.664 59.2127C43.1212 58.899 40.9046 57.3344 39.7447 55.0403L38.9947 55.4196ZM20.0551 17.9592L38.9947 55.4196L39.7447 55.0403L20.8052 17.58L20.0551 17.9592ZM12.9077 11.9833C16.0072 12.9049 18.5924 15.0661 20.0551 17.9592L20.8052 17.58C19.2384 14.481 16.4688 12.1652 13.1472 11.1776L12.9077 11.9833ZM-0.827755 7.89924L12.9077 11.9833L13.1472 11.1776L-0.58829 7.09348L-0.827755 7.89924ZM-5.50176 11.4205C-5.51435 8.96906 -3.16649 7.20384 -0.827755 7.89924L-0.588289 7.09348C-3.47098 6.23634 -6.3577 8.4129 -6.34224 11.4248L-5.50176 11.4205ZM-5.23502 63.3794L-5.50176 11.4205L-6.34224 11.4248L-6.07549 63.3837L-5.23502 63.3794ZM0.129388 73.0866C-3.20299 71.0049 -5.21476 67.3244 -5.23502 63.3794L-6.07549 63.3837C-6.05379 67.6104 -3.89839 71.5616 -0.315819 73.7995L0.129388 73.0866ZM222.231 143.969C215.245 146.592 203.59 147.066 188.548 145.373C173.525 143.681 155.185 139.837 134.87 133.876C94.2403 121.955 45.7424 101.58 0.129391 73.0866L-0.315819 73.7995C45.3667 102.336 93.9357 122.741 134.634 134.682C154.982 140.653 173.371 144.51 188.454 146.208C203.518 147.904 215.343 147.453 222.527 144.756L222.231 143.969ZM228.107 124.907C232.457 131.695 229.718 141.158 222.231 143.969L222.527 144.756C230.56 141.74 233.426 131.649 228.814 124.453L228.107 124.907ZM216.23 116.34C221.333 118.035 225.523 120.876 228.107 124.907L228.814 124.453C226.101 120.219 221.728 117.281 216.495 115.543L216.23 116.34ZM77.2948 81.6222C76.4499 84.7192 73.2689 86.5472 70.1866 85.7006L69.9641 86.5112C73.499 87.4821 77.1396 85.3844 78.1057 81.8436L77.2948 81.6222ZM73.2396 74.5059C76.3242 75.3531 78.1357 78.5404 77.2948 81.6222L78.1057 81.8436C79.0683 78.3152 76.9947 74.6656 73.4621 73.6953L73.2396 74.5059ZM66.1389 78.5567C66.9796 75.4753 70.1555 73.6588 73.2396 74.5059L73.4621 73.6953C69.929 72.7249 66.2909 74.8065 65.3281 78.3354L66.1389 78.5567ZM70.1866 85.7006C67.1038 84.8539 65.2938 81.6542 66.1389 78.5567L65.3281 78.3354C64.3621 81.8757 66.4297 85.5404 69.9641 86.5112L70.1866 85.7006ZM92.8331 91.8412C96.368 92.8121 100.009 90.7144 100.975 87.1736L100.164 86.9522C99.3189 90.0492 96.1379 91.8772 93.0556 91.0306L92.8331 91.8412ZM88.1971 83.6654C87.2311 87.2057 89.2987 90.8704 92.8331 91.8412L93.0556 91.0306C89.9728 90.1839 88.1628 86.9842 89.0079 83.8867L88.1971 83.6654ZM96.3311 79.0253C92.798 78.0549 89.1599 80.1365 88.1971 83.6654L89.0079 83.8867C89.8486 80.8053 93.0245 78.9888 96.1086 79.8359L96.3311 79.0253ZM100.975 87.1736C101.937 83.6452 99.8637 79.9956 96.3311 79.0253L96.1086 79.8359C99.1932 80.6831 101.005 83.8704 100.164 86.9522L100.975 87.1736ZM123.033 92.2821C122.188 95.3791 119.007 97.2071 115.925 96.3605L115.702 97.1711C119.237 98.142 122.878 96.0443 123.844 92.5034L123.033 92.2821ZM118.978 85.1657C122.062 86.013 123.874 89.2002 123.033 92.2821L123.844 92.5034C124.806 88.975 122.733 85.3254 119.2 84.3551L118.978 85.1657ZM111.877 89.2165C112.718 86.1352 115.894 84.3186 118.978 85.1657L119.2 84.3551C115.667 83.3847 112.029 85.4663 111.066 88.9952L111.877 89.2165ZM115.925 96.3605C112.842 95.5137 111.032 92.314 111.877 89.2165L111.066 88.9952C110.1 92.5356 112.168 96.2003 115.702 97.1711L115.925 96.3605ZM138.572 102.501C142.106 103.472 145.747 101.374 146.713 97.8333L145.902 97.6119C145.057 100.709 141.876 102.537 138.794 101.69L138.572 102.501ZM133.936 94.3251C132.97 97.8654 135.037 101.53 138.572 102.501L138.794 101.69C135.711 100.844 133.901 97.6439 134.746 94.5464L133.936 94.3251ZM142.07 89.685C138.537 88.7146 134.898 90.7962 133.936 94.3251L134.746 94.5464C135.587 91.465 138.763 89.6485 141.847 90.4956L142.07 89.685ZM146.713 97.8333C147.676 94.3049 145.602 90.6553 142.07 89.685L141.847 90.4956C144.932 91.3429 146.743 94.5301 145.902 97.6119L146.713 97.8333ZM168.771 102.942C167.926 106.039 164.745 107.867 161.663 107.02L161.441 107.831C164.975 108.802 168.616 106.704 169.582 103.163L168.771 102.942ZM164.716 95.8256C167.801 96.6728 169.612 99.8601 168.771 102.942L169.582 103.163C170.545 99.6349 168.471 95.9853 164.939 95.015L164.716 95.8256ZM157.615 99.8764C158.456 96.795 161.632 94.9785 164.716 95.8256L164.939 95.015C161.405 94.0446 157.767 96.1262 156.805 99.6551L157.615 99.8764ZM161.663 107.02C158.58 106.174 156.77 102.974 157.615 99.8764L156.805 99.6551C155.839 103.195 157.906 106.86 161.441 107.831L161.663 107.02Z" fill="black" mask="url(#path-11-inside-1_391_642)"/>
<path d="M222.306 144.202L222.305 144.203C215.271 146.838 203.573 147.299 188.526 145.597C173.489 143.897 155.136 140.041 134.813 134.07C94.1651 122.128 45.6475 101.733 0.0142555 73.223L0.014111 73.2229C-3.37141 71.1116 -5.44573 67.3567 -5.4448 63.324L-5.4448 63.3232L-5.467 57.0989C77.8282 109.244 136.671 127.064 174.714 131.836C193.76 134.226 207.592 133.344 216.668 131.863C221.205 131.123 224.554 130.232 226.77 129.526C227.878 129.172 228.703 128.865 229.252 128.646C229.517 128.54 229.718 128.454 229.856 128.394C231.694 134.684 228.717 141.839 222.306 144.202Z" fill="#FFFDE3" stroke="black" stroke-width="0.420276"/>
<path d="M206.038 102.095L206.099 102.105C211.693 106.367 215.254 110.908 216.121 115.745C214.405 115.859 212.765 115.933 211.213 115.968L211.2 115.965L211.168 115.965C198.794 116.217 191.233 114.016 187.223 111.283C185.219 109.917 184.116 108.428 183.725 107.06C183.336 105.697 183.647 104.438 184.503 103.489L184.504 103.488C185.079 102.842 186.015 102.351 187.209 101.994C188.399 101.638 189.823 101.421 191.353 101.306L191.353 101.306C194.601 101.055 198.294 101.256 201.18 101.52C202.622 101.651 203.861 101.799 204.738 101.914C205.177 101.971 205.526 102.02 205.764 102.055C205.884 102.072 205.976 102.086 206.038 102.095Z" fill="#57B3FE" stroke="black" stroke-width="0.420276"/>
<path d="M130.806 121.109L130.806 121.109L-18.9537 118.254L-18.7539 118.19C-18.7539 118.19 -18.7539 118.19 -18.7539 118.19C-18.8967 117.742 -18.8177 117.28 -18.5058 116.788C-18.1901 116.291 -17.641 115.775 -16.867 115.245C-15.3201 114.185 -12.9314 113.11 -9.90976 112.042C-3.8711 109.908 4.63731 107.823 13.8395 105.948C32.242 102.199 53.3821 99.2989 63.0008 98.5353L63.0013 98.5353C70.254 97.9424 88.1709 99.6932 103.812 103.571C111.632 105.51 118.863 107.976 123.901 110.935C126.421 112.415 128.377 114.01 129.588 115.711C130.794 117.406 131.257 119.202 130.806 121.109Z" fill="#EC72A5" stroke="black" stroke-width="0.420276"/>
<path d="M63.0117 98.5498L63.0112 98.5499C53.3913 99.3135 32.2487 102.214 13.8439 105.964C4.64056 107.839 -3.8689 109.924 -9.9083 112.059C-12.9304 113.127 -15.3194 114.202 -16.8664 115.261C-17.6405 115.791 -18.1897 116.308 -18.5054 116.805C-18.8174 117.297 -18.8964 117.759 -18.7535 118.207C-18.7535 118.207 -18.7535 118.207 -18.7535 118.207L-18.9533 118.271C-16.575 125.719 -6.37922 131.317 3.43431 134.239C4.08246 134.432 4.80148 134.613 5.59182 134.78L63.0117 98.5498ZM63.0117 98.5498C64.349 98.4405 66.0716 98.4171 68.0884 98.4747C67.6047 98.5924 67.0121 98.7383 66.3228 98.9111C64.2539 99.43 61.3129 100.192 57.8238 101.166C50.8461 103.113 41.6731 105.908 32.8974 109.294C24.1267 112.679 15.7332 116.662 10.3282 120.993C7.62655 123.158 5.65149 125.426 4.76157 127.768C3.91884 129.986 4.05552 132.256 5.43602 134.532L63.0117 98.5498Z" fill="#DC437A" stroke="black" stroke-width="0.420276"/>
<path d="M210.56 115.978C198.546 116.147 191.166 113.973 187.223 111.286C185.219 109.92 184.116 108.431 183.725 107.063C183.336 105.701 183.646 104.441 184.503 103.493L184.504 103.491C185.079 102.845 186.014 102.355 187.208 101.998C188.377 101.648 189.773 101.433 191.273 101.316L210.56 115.978Z" fill="#5094FF" stroke="black" stroke-width="0.420276"/>
<path d="M16.9806 24.2656C22.6466 31.2553 29.4621 44.9878 31.5817 53.7401C27.0443 48.1559 22.244 38.906 19.5946 32.15C18.5738 29.5961 17.6459 26.9963 16.9806 24.2656Z" fill="white"/>
<path fill-rule="evenodd" clip-rule="evenodd" d="M137.271 55.6253C166.299 46.6594 232.088 32.1318 263.029 45.7488C298.473 61.3472 302.631 79.5928 306.914 98.3832C307.304 100.097 307.696 101.815 308.112 103.537C310.452 113.206 304.561 156.737 298.959 198.131C295.017 227.262 291.218 255.335 290.532 269.802L274.66 268.559C278.148 264.388 280.255 259.183 280.631 252.785C280.837 249.28 281.184 245.013 281.581 240.131C286.545 179.065 299.324 21.8449 142.255 59.0091L128.356 76.5259C130.72 66.058 133.656 58.5983 137.271 55.6253ZM124.331 101.248C118.612 149.335 118.906 221.74 120.668 256.497L129.142 257.161L124.331 101.248Z" fill="#FFD400"/>
<path d="M263.029 45.7488L262.945 45.9411L263.029 45.7488ZM137.271 55.6253L137.209 55.4245L137.17 55.4367L137.138 55.463L137.271 55.6253ZM306.914 98.3832L306.709 98.4299L306.914 98.3832ZM308.112 103.537L307.908 103.586L308.112 103.537ZM298.959 198.131L299.168 198.159L298.959 198.131ZM290.532 269.802L290.516 270.011L290.732 270.028L290.742 269.812L290.532 269.802ZM274.66 268.559L274.499 268.424L274.238 268.736L274.644 268.768L274.66 268.559ZM280.631 252.785L280.421 252.772L280.631 252.785ZM281.581 240.131L281.372 240.114L281.581 240.131ZM142.255 59.0091L142.206 58.8047L142.135 58.8214L142.09 58.8785L142.255 59.0091ZM128.356 76.5259L128.151 76.4796L128.52 76.6565L128.356 76.5259ZM124.331 101.248L124.541 101.241L124.122 101.223L124.331 101.248ZM120.668 256.497L120.458 256.508L120.468 256.692L120.652 256.707L120.668 256.497ZM129.142 257.161L129.126 257.371L129.359 257.389L129.352 257.155L129.142 257.161ZM263.114 45.5565C255.344 42.1371 245.401 40.4898 234.416 40.0765C223.429 39.6631 211.385 40.4838 199.406 42.01C175.449 45.0623 151.732 50.9387 137.209 55.4245L137.333 55.8261C151.838 51.346 175.53 45.4756 199.459 42.4269C211.424 40.9026 223.443 40.0842 234.4 40.4965C245.36 40.9089 255.244 42.552 262.945 45.9411L263.114 45.5565ZM307.118 98.3365C304.978 88.945 302.861 79.6483 296.831 70.7511C290.798 61.8499 280.861 53.3669 263.114 45.5565L262.945 45.9411C280.641 53.7292 290.506 62.1682 296.483 70.9869C302.463 79.8098 304.567 89.031 306.709 98.4299L307.118 98.3365ZM308.317 103.487C307.9 101.768 307.509 100.051 307.118 98.3365L306.709 98.4299C307.099 100.144 307.491 101.863 307.908 103.586L308.317 103.487ZM299.168 198.159C301.968 177.463 304.842 156.229 306.723 138.96C307.663 130.326 308.356 122.68 308.667 116.586C308.977 110.503 308.91 105.939 308.317 103.487L307.908 103.586C308.485 105.969 308.558 110.473 308.247 116.565C307.937 122.646 307.245 130.283 306.305 138.915C304.425 156.177 301.552 177.405 298.751 198.102L299.168 198.159ZM290.742 269.812C291.428 255.357 295.225 227.296 299.168 198.159L298.751 198.102C294.81 227.228 291.009 255.313 290.322 269.792L290.742 269.812ZM274.644 268.768L290.516 270.011L290.549 269.592L274.677 268.349L274.644 268.768ZM274.821 268.693C278.34 264.486 280.462 259.237 280.841 252.797L280.421 252.772C280.047 259.128 277.956 264.29 274.499 268.424L274.821 268.693ZM280.841 252.797C281.047 249.295 281.394 245.031 281.79 240.148L281.372 240.114C280.975 244.995 280.628 249.265 280.421 252.772L280.841 252.797ZM281.79 240.148C284.271 209.625 288.715 155.005 272.877 112.66C264.955 91.48 251.953 73.3534 231.081 62.8557C210.21 52.3589 181.504 49.5065 142.206 58.8047L142.303 59.2136C181.541 49.9296 210.138 52.7932 230.892 63.2311C251.644 73.668 264.587 91.6948 272.483 112.807C288.282 155.049 283.854 209.571 281.372 240.114L281.79 240.148ZM142.09 58.8785L128.191 76.3953L128.52 76.6565L142.419 59.1398L142.09 58.8785ZM137.138 55.463C135.291 56.9822 133.637 59.6284 132.151 63.184C130.663 66.7444 129.335 71.2392 128.151 76.4796L128.561 76.5722C129.742 71.3447 131.064 66.8756 132.538 63.346C134.016 59.8115 135.637 57.2414 137.405 55.7876L137.138 55.463ZM124.122 101.223C118.401 149.326 118.696 221.745 120.458 256.508L120.878 256.487C119.116 221.736 118.823 149.343 124.539 101.272L124.122 101.223ZM120.652 256.707L129.126 257.371L129.159 256.952L120.685 256.288L120.652 256.707ZM124.121 101.254L128.932 257.168L129.352 257.155L124.541 101.241L124.121 101.254Z" fill="black"/>
<mask id="path-21-inside-2_391_642" fill="white">
<path fill-rule="evenodd" clip-rule="evenodd" d="M163.747 29.2532C132.036 29.2532 106.33 54.9598 106.33 86.6705V231.567C106.33 263.277 132.037 288.984 163.747 288.984H258.347C290.058 288.984 315.765 263.277 315.765 231.567V86.6705C315.765 54.9598 290.058 29.2532 258.347 29.2532H163.747ZM172.4 58.7133C148.658 58.7133 129.412 77.9597 129.412 101.701V218.64C129.412 242.382 148.658 261.628 172.4 261.628H249.695C273.436 261.628 292.683 242.382 292.683 218.64V101.701C292.683 77.9597 273.436 58.7133 249.695 58.7133H172.4Z"/>
</mask>
<path fill-rule="evenodd" clip-rule="evenodd" d="M163.747 29.2532C132.036 29.2532 106.33 54.9598 106.33 86.6705V231.567C106.33 263.277 132.037 288.984 163.747 288.984H258.347C290.058 288.984 315.765 263.277 315.765 231.567V86.6705C315.765 54.9598 290.058 29.2532 258.347 29.2532H163.747ZM172.4 58.7133C148.658 58.7133 129.412 77.9597 129.412 101.701V218.64C129.412 242.382 148.658 261.628 172.4 261.628H249.695C273.436 261.628 292.683 242.382 292.683 218.64V101.701C292.683 77.9597 273.436 58.7133 249.695 58.7133H172.4Z" fill="#FFE900"/>
<path d="M106.75 86.6705C106.75 55.1919 132.269 29.6735 163.747 29.6735V28.8329C131.804 28.8329 105.91 54.7276 105.91 86.6705H106.75ZM106.75 231.567V86.6705H105.91V231.567H106.75ZM163.747 288.564C132.269 288.564 106.75 263.045 106.75 231.567H105.91C105.91 263.509 131.804 289.404 163.747 289.404V288.564ZM258.347 288.564H163.747V289.404H258.347V288.564ZM315.344 231.567C315.344 263.045 289.826 288.564 258.347 288.564V289.404C290.29 289.404 316.185 263.51 316.185 231.567H315.344ZM315.344 86.6705V231.567H316.185V86.6705H315.344ZM258.347 29.6735C289.826 29.6735 315.344 55.1919 315.344 86.6705H316.185C316.185 54.7277 290.29 28.8329 258.347 28.8329V29.6735ZM163.747 29.6735H258.347V28.8329H163.747V29.6735ZM129.832 101.701C129.832 78.1918 148.89 59.1336 172.4 59.1336V58.2931C148.426 58.2931 128.991 77.7276 128.991 101.701H129.832ZM129.832 218.64V101.701H128.991V218.64H129.832ZM172.4 261.208C148.89 261.208 129.832 242.15 129.832 218.64H128.991C128.991 242.614 148.426 262.048 172.4 262.048V261.208ZM249.695 261.208H172.4V262.048H249.695V261.208ZM292.262 218.64C292.262 242.15 273.204 261.208 249.695 261.208V262.048C273.668 262.048 293.103 242.614 293.103 218.64H292.262ZM292.262 101.701V218.64H293.103V101.701H292.262ZM249.695 59.1336C273.204 59.1336 292.262 78.1918 292.262 101.701H293.103C293.103 77.7275 273.668 58.2931 249.695 58.2931V59.1336ZM172.4 59.1336H249.695V58.2931H172.4V59.1336Z" fill="black" mask="url(#path-21-inside-2_391_642)"/>
<mask id="mask0_391_642" style="mask-type:alpha" maskUnits="userSpaceOnUse" x="106" y="29" width="210" height="260">
<mask id="path-23-inside-3_391_642" fill="white">
<path fill-rule="evenodd" clip-rule="evenodd" d="M163.747 29.2532C132.036 29.2532 106.33 54.9598 106.33 86.6705V231.567C106.33 263.277 132.037 288.984 163.747 288.984H258.347C290.058 288.984 315.765 263.277 315.765 231.567V86.6705C315.765 54.9598 290.058 29.2532 258.347 29.2532H163.747ZM172.571 58.2522C148.829 58.2522 129.583 77.4986 129.583 101.24V218.179C129.583 241.921 148.829 261.167 172.571 261.167H249.866C273.608 261.167 292.854 241.921 292.854 218.179V101.24C292.854 77.4986 273.608 58.2522 249.866 58.2522H172.571Z"/>
</mask>
<path fill-rule="evenodd" clip-rule="evenodd" d="M163.747 29.2532C132.036 29.2532 106.33 54.9598 106.33 86.6705V231.567C106.33 263.277 132.037 288.984 163.747 288.984H258.347C290.058 288.984 315.765 263.277 315.765 231.567V86.6705C315.765 54.9598 290.058 29.2532 258.347 29.2532H163.747ZM172.571 58.2522C148.829 58.2522 129.583 77.4986 129.583 101.24V218.179C129.583 241.921 148.829 261.167 172.571 261.167H249.866C273.608 261.167 292.854 241.921 292.854 218.179V101.24C292.854 77.4986 273.608 58.2522 249.866 58.2522H172.571Z" fill="#FFF08D"/>
<path d="M106.75 86.6705C106.75 55.1919 132.269 29.6735 163.747 29.6735V28.8329C131.804 28.8329 105.91 54.7276 105.91 86.6705H106.75ZM106.75 231.567V86.6705H105.91V231.567H106.75ZM163.747 288.564C132.269 288.564 106.75 263.045 106.75 231.567H105.91C105.91 263.509 131.804 289.404 163.747 289.404V288.564ZM258.347 288.564H163.747V289.404H258.347V288.564ZM315.344 231.567C315.344 263.045 289.826 288.564 258.347 288.564V289.404C290.29 289.404 316.185 263.51 316.185 231.567H315.344ZM315.344 86.6705V231.567H316.185V86.6705H315.344ZM258.347 29.6735C289.826 29.6735 315.344 55.1919 315.344 86.6705H316.185C316.185 54.7277 290.29 28.8329 258.347 28.8329V29.6735ZM163.747 29.6735H258.347V28.8329H163.747V29.6735ZM130.003 101.24C130.003 77.7307 149.062 58.6725 172.571 58.6725V57.832C148.597 57.832 129.163 77.2665 129.163 101.24H130.003ZM130.003 218.179V101.24H129.163V218.179H130.003ZM172.571 260.747C149.062 260.747 130.003 241.689 130.003 218.179H129.163C129.163 242.153 148.597 261.587 172.571 261.587V260.747ZM249.866 260.747H172.571V261.587H249.866V260.747ZM292.434 218.179C292.434 241.688 273.376 260.747 249.866 260.747V261.587C273.84 261.587 293.274 242.153 293.274 218.179H292.434ZM292.434 101.24V218.179H293.274V101.24H292.434ZM249.866 58.6725C273.376 58.6725 292.434 77.7307 292.434 101.24H293.274C293.274 77.2665 273.84 57.832 249.866 57.832V58.6725ZM172.571 58.6725H249.866V57.832H172.571V58.6725Z" fill="black" mask="url(#path-23-inside-3_391_642)"/>
</mask>
<g mask="url(#mask0_391_642)">
<path d="M314.993 133.451C310.733 62.7357 316.413 33.1999 187.539 20.5419C181.46 19.9448 272.626 -0.901943 316.866 -11.3232C325.296 55.6637 318.36 189.331 314.993 133.451Z" fill="#FFF08D" stroke="black" stroke-width="0.420276"/>
<path d="M105.507 40.8414C122.215 191.213 78.2796 292.698 227.413 287.129C233.592 286.898 242.375 338.525 211.943 368.812C-77.6558 361.258 99.2468 -15.504 105.507 40.8414Z" fill="#FFF08D" stroke="black" stroke-width="0.420276"/>
</g>
<rect x="107.17" y="30.0937" width="207.754" height="258.05" rx="56.5768" stroke="#1F201E" stroke-width="1.68111"/>
<path d="M129.202 146.793V182.517" stroke="black" stroke-width="0.420276"/>
<path d="M227.874 109.591C231.284 109.973 236.179 111.59 239.199 104.007C238.255 109.812 238.323 112.446 242.404 115.955C236.802 114.614 234.779 116.73 231.737 120.333C233.756 114.513 230.921 111.103 227.874 109.591Z" fill="white" stroke="black" stroke-width="0.420276"/>
<path d="M426.591 40.1431C466.699 42.0838 409.091 57.9208 363.016 52.4076C341.416 49.8229 311.749 44.0245 281.794 48.5129C264.469 51.1088 197.915 44.0245 170.349 44.0245C142.782 44.0245 178.49 40.1431 198.18 40.1431C217.87 40.1431 222.047 20.3131 251.582 31.7334C281.117 43.1536 255.044 24.5904 285.76 13.9577C314.055 4.16319 320.78 24.4912 331.413 29.2168C342.046 33.9424 365.135 22.6767 376.133 31.7334C387.13 40.79 386.483 38.2024 426.591 40.1431Z" fill="#FFFAC4"/>
</g>
<defs>
<clipPath id="clip0_391_642">
<rect width="375" height="300" fill="white"/>
</clipPath>
</defs>
</svg>
