<svg width="180" height="180" viewBox="0 0 180 180" fill="none" xmlns="http://www.w3.org/2000/svg">
<path d="M64.875 40.4882H68.2735V47.5284H64.875V40.4882Z" fill="#1F201E"/>
<path d="M104.766 40.4882H108.164V47.5284H104.766V40.4882Z" fill="#1F201E"/>
<path d="M34.1074 67.9201H139.896V75.7744H34.1074V67.9201Z" fill="#1F201E"/>
<path d="M34.1074 104.151H139.896V112.08H34.1074V104.151Z" fill="#1F201E"/>
<path d="M66.5742 130.773C65.6356 130.773 64.875 131.533 64.875 132.472V139.512C64.875 140.451 65.6356 141.211 66.5742 141.211C67.5129 141.211 68.2735 140.451 68.2735 139.512V132.472C68.2735 131.533 67.5127 130.773 66.5742 130.773Z" fill="#1F201E"/>
<path d="M106.465 130.773C105.526 130.773 104.766 131.533 104.766 132.472V139.512C104.766 140.451 105.526 141.211 106.465 141.211C107.404 141.211 108.164 140.451 108.164 139.512V132.472C108.164 131.533 107.404 130.773 106.465 130.773Z" fill="#1F201E"/>
<path d="M144.465 114.27V130.283C144.465 132.155 142.949 133.671 141.077 133.671H32.8878C31.0162 133.671 29.5 132.155 29.5 130.283V114.27C29.5 112.398 31.0162 110.882 32.8878 110.882H141.077C142.949 110.882 144.465 112.398 144.465 114.27Z" fill="#FFE900" stroke="#1F201E"/>
<path d="M139.574 115.489C139.574 113.582 138.619 111.895 137.161 110.882H141.077C142.949 110.882 144.465 112.398 144.465 114.27V130.283C144.465 132.155 142.949 133.671 141.077 133.671H32.8878C31.0162 133.671 29.5 132.155 29.5 130.283V129.007H133.968C137.06 129.007 139.574 126.493 139.574 123.4V115.489Z" fill="#FFD400" stroke="#1F201E"/>
<path d="M144.483 49.6416V65.6551C144.483 67.5268 142.966 69.043 141.095 69.043H32.9054C31.0337 69.043 29.5176 67.5268 29.5176 65.6551V49.6416C29.5176 47.7699 31.0337 46.2538 32.9054 46.2538H141.095C142.966 46.2538 144.483 47.77 144.483 49.6416Z" fill="#FFE900" stroke="#1F201E"/>
<path d="M139.592 50.8605C139.592 48.954 138.636 47.2671 137.178 46.2538H141.095C142.966 46.2538 144.483 47.77 144.483 49.6416V65.6551C144.483 67.5268 142.966 69.043 141.095 69.043H32.9054C31.0337 69.043 29.5176 67.5268 29.5176 65.6551V64.3789H133.985C137.077 64.3789 139.592 61.8645 139.592 58.7721V50.8605Z" fill="#FFD400" stroke="#1F201E"/>
<path d="M144.5 77.9629V101.962C144.5 103.833 142.984 105.349 141.112 105.349H32.923C31.0513 105.349 29.5352 103.833 29.5352 101.962V77.9629C29.5352 76.0912 31.0513 74.5751 32.923 74.5751H141.112C142.984 74.5751 144.5 76.0912 144.5 77.9629Z" fill="#FFE900" stroke="#1F201E"/>
<path d="M139.609 79.1818C139.609 77.2753 138.654 75.5884 137.196 74.5751H141.112C142.984 74.5751 144.5 76.0912 144.5 77.9629V101.962C144.5 103.833 142.984 105.349 141.112 105.349H32.923C31.0513 105.349 29.5352 103.833 29.5352 101.962V100.685H134.003C137.095 100.685 139.609 98.171 139.609 95.0786V79.1818Z" fill="#FFD400" stroke="#1F201E"/>
<path d="M61.9766 142.907C61.9766 140.375 64.0396 138.313 66.5754 138.313C69.1111 138.313 71.1742 140.375 71.1742 142.907C71.1742 145.439 69.1114 147.5 66.5754 147.5C64.0394 147.5 61.9766 145.439 61.9766 142.907Z" fill="#62BDF2" stroke="#1F201E"/>
<path d="M101.865 142.907C101.865 140.375 103.928 138.313 106.464 138.313C109 138.313 111.063 140.375 111.063 142.907C111.063 145.439 109 147.5 106.464 147.5C103.928 147.5 101.865 145.439 101.865 142.907Z" fill="#62BDF2" stroke="#1F201E"/>
<path d="M46.8086 126.376C45.8699 126.376 45.1094 127.137 45.1094 128.075V146.301C45.1094 147.24 45.8699 148.001 46.8086 148.001C47.7473 148.001 48.5078 147.24 48.5078 146.301V128.075C48.5078 127.137 47.7473 126.376 46.8086 126.376Z" fill="#1F201E"/>
<path d="M126.23 126.376C125.292 126.376 124.531 127.137 124.531 128.075V146.301C124.531 147.24 125.292 148.001 126.23 148.001C127.169 148.001 127.93 147.24 127.93 146.301V128.075C127.93 127.137 127.169 126.376 126.23 126.376Z" fill="#1F201E"/>
<path d="M86.5293 126.376C85.5907 126.376 84.8301 127.137 84.8301 128.075V146.301C84.8301 147.24 85.5907 148.001 86.5293 148.001C87.468 148.001 88.2285 147.24 88.2285 146.301V128.075C88.2285 127.137 87.468 126.376 86.5293 126.376Z" fill="#1F201E"/>
<path d="M42.2109 124.681C42.2109 122.149 44.274 120.087 46.8098 120.087C49.3455 120.087 51.4083 122.149 51.4083 124.681C51.4083 127.213 49.3455 129.274 46.8098 129.274C44.274 129.274 42.2109 127.213 42.2109 124.681Z" fill="#EC72A5" stroke="#1F201E"/>
<path d="M121.633 124.681C121.633 122.149 123.696 120.087 126.231 120.087C128.767 120.087 130.83 122.149 130.83 124.681C130.83 127.213 128.767 129.274 126.231 129.274C123.696 129.274 121.633 127.213 121.633 124.681Z" fill="#EC72A5" stroke="#1F201E"/>
<path d="M81.9297 124.681C81.9297 122.149 83.9927 120.087 86.5285 120.087C89.0645 120.087 91.1273 122.149 91.1273 124.681C91.1273 127.213 89.0642 129.274 86.5285 129.274C83.9927 129.274 81.9297 127.213 81.9297 124.681Z" fill="#EC72A5" stroke="#1F201E"/>
<path d="M46.8086 32C45.8699 32 45.1094 32.7608 45.1094 33.6992V51.9251C45.1094 52.8636 45.8699 53.6244 46.8086 53.6244C47.7473 53.6244 48.5078 52.8636 48.5078 51.9251V33.6992C48.5078 32.7608 47.7473 32 46.8086 32Z" fill="#1F201E"/>
<path d="M126.23 32C125.292 32 124.531 32.7608 124.531 33.6992V51.9251C124.531 52.8636 125.292 53.6244 126.23 53.6244C127.169 53.6244 127.93 52.8636 127.93 51.9251V33.6992C127.93 32.7608 127.169 32 126.23 32Z" fill="#1F201E"/>
<path d="M86.5293 32C85.5907 32 84.8301 32.7608 84.8301 33.6992V51.9251C84.8301 52.8636 85.5907 53.6244 86.5293 53.6244C87.468 53.6244 88.2285 52.8636 88.2285 51.9251V33.6992C88.2285 32.7608 87.468 32 86.5293 32Z" fill="#1F201E"/>
<path d="M42.2109 55.3197C42.2109 52.7876 44.274 50.7259 46.8098 50.7259C49.3455 50.7259 51.4083 52.7876 51.4083 55.3197C51.4083 57.8518 49.3455 59.9133 46.8098 59.9133C44.274 59.9133 42.2109 57.8518 42.2109 55.3197Z" fill="#EC72A5" stroke="#1F201E"/>
<path d="M121.633 55.3197C121.633 52.7876 123.696 50.7259 126.231 50.7259C128.767 50.7259 130.83 52.7876 130.83 55.3197C130.83 57.8518 128.767 59.9133 126.231 59.9133C123.696 59.9133 121.633 57.8518 121.633 55.3197Z" fill="#EC72A5" stroke="#1F201E"/>
<path d="M81.9297 55.3197C81.9297 52.7876 83.9928 50.7259 86.5285 50.7259C89.0645 50.7259 91.1273 52.7876 91.1273 55.3197C91.1273 57.8518 89.0643 59.9133 86.5285 59.9133C83.9927 59.9133 81.9297 57.8518 81.9297 55.3197Z" fill="#EC72A5" stroke="#1F201E"/>
<path d="M41.5996 90.0023C41.5996 87.4702 43.6626 85.4087 46.1984 85.4087C48.7344 85.4087 50.797 87.4702 50.797 90.0023C50.797 92.5344 48.7341 94.5961 46.1984 94.5961C43.6627 94.5961 41.5996 92.5344 41.5996 90.0023Z" fill="#FFFBCC" stroke="#1F201E"/>
<path d="M65.4359 89.9624C65.4359 92.4989 63.3774 94.556 60.8371 94.556C58.2968 94.556 56.2383 92.4989 56.2383 89.9624C56.2383 87.4259 58.2968 85.3688 60.8371 85.3688C63.3774 85.3688 65.4359 87.4259 65.4359 89.9624Z" fill="#FFFBCC" stroke="#1F201E"/>
<path d="M70.9609 89.9624C70.9609 87.4304 73.024 85.3688 75.5598 85.3688C78.0955 85.3688 80.1583 87.4303 80.1583 89.9624C80.1583 92.4945 78.0955 94.556 75.5598 94.556C73.024 94.556 70.9609 92.4945 70.9609 89.9624Z" fill="#FFFBCC" stroke="#1F201E"/>
<path d="M129.059 86.5681C129.059 85.9057 129.595 85.3688 130.258 85.3688C130.92 85.3688 131.457 85.9056 131.457 86.5681V93.357C131.457 94.0194 130.92 94.5563 130.258 94.5563C129.595 94.5563 129.059 94.0194 129.059 93.357V86.5681Z" fill="#FFFBCC" stroke="#1F201E"/>
<path d="M121.133 86.5681C121.133 85.9057 121.67 85.3688 122.332 85.3688C122.994 85.3688 123.531 85.9056 123.531 86.5681V93.357C123.531 94.0194 122.995 94.5563 122.332 94.5563C121.67 94.5563 121.133 94.0194 121.133 93.357V86.5681Z" fill="#FFFBCC" stroke="#1F201E"/>
<path d="M113.205 86.5681C113.205 85.9057 113.742 85.3688 114.404 85.3688C115.067 85.3688 115.604 85.9056 115.604 86.5681V93.357C115.604 94.0194 115.067 94.5563 114.404 94.5563C113.742 94.5563 113.205 94.0194 113.205 93.357V86.5681Z" fill="#FFFBCC" stroke="#1F201E"/>
<path d="M61.9766 37.0936C61.9766 34.5615 64.0396 32.5 66.5754 32.5C69.1112 32.5 71.1742 34.5615 71.1742 37.0936C71.1742 39.6257 69.1111 41.6874 66.5754 41.6874C64.0396 41.6874 61.9766 39.6257 61.9766 37.0936Z" fill="#62BDF2" stroke="#1F201E"/>
<path d="M101.865 37.0936C101.865 34.5615 103.928 32.5 106.464 32.5C109 32.5 111.063 34.5615 111.063 37.0936C111.063 39.6257 109 41.6874 106.464 41.6874C103.928 41.6874 101.865 39.6257 101.865 37.0936Z" fill="#62BDF2" stroke="#1F201E"/>
</svg>
