<svg width="80" height="80" viewBox="0 0 80 80" fill="none" xmlns="http://www.w3.org/2000/svg">
<path d="M57.1974 64.0161L56.7221 63.5407C56.036 62.8546 56.036 61.7421 56.722 61.056C56.722 61.056 56.722 61.056 56.722 61.056L63.0048 54.7732L65.9648 57.7332L59.682 64.0161C58.9959 64.7022 57.8835 64.7022 57.1974 64.0161Z" fill="#EC72A5" stroke="black"/>
<path d="M52.1837 53.9133L51.7084 53.438C51.0223 52.7519 51.0223 51.6395 51.7084 50.9532L57.9911 44.6705L60.9512 47.6305L54.6684 53.9133C53.9823 54.5995 52.8699 54.5995 52.1837 53.9133Z" fill="#EC72A5" stroke="black"/>
<path d="M29.6988 69.0228L29.6988 69.0228C29.9035 69.5659 29.7714 70.1785 29.361 70.5889L27.8334 72.1165C27.7085 72.2414 27.5013 72.2241 27.3989 72.0804L27.3989 72.0804L20.1632 61.928L22.9377 57.1951L25.601 58.1499L29.6988 69.0228Z" fill="#DC437A" stroke="black"/>
<path d="M71.8052 66.1903L71.8051 66.1904L69.9367 68.0588C69.3033 68.6922 68.2395 68.5432 67.8047 67.7601L67.8047 67.76L50.2935 36.2287L54.5336 26.247L62.8519 29.229L72.1564 64.8967C72.2772 65.3597 72.1435 65.852 71.8052 66.1903Z" fill="#FFD400" stroke="black"/>
<path d="M72.1565 64.8966L72.1565 64.8967C72.2774 65.3596 72.1437 65.852 71.8053 66.1903L71.8052 66.1904L69.9368 68.0587C69.3033 68.6923 68.2396 68.5432 67.8047 67.76L66.5588 65.5167L68.2524 63.8231C68.2524 63.823 68.2525 63.823 68.2525 63.823C68.8419 63.2337 69.0746 62.3761 68.8643 61.5698L68.3805 61.696L68.8643 61.5698L60.1775 28.2702L62.852 29.229L72.1565 64.8966Z" fill="#FFEA84" stroke="black"/>
<path d="M16.4591 23.2779L16.1134 23.6236L16.4591 23.2779L15.9838 22.8026C15.2977 22.1165 15.2977 21.0041 15.9838 20.318L22.2666 14.0352L25.2267 16.9952L18.9439 23.278C18.9439 23.278 18.9439 23.278 18.9439 23.2781C18.2578 23.964 17.1452 23.964 16.4591 23.2779Z" fill="#EC72A5" stroke="black"/>
<path d="M26.5619 28.2915L26.0866 27.8162L25.7331 28.1698L26.0866 27.8162C25.4005 27.1301 25.4005 26.0177 26.0866 25.3316L32.3694 19.0488L35.3295 22.0089L29.0467 28.2916C29.0467 28.2916 29.0467 28.2916 29.0467 28.2917C28.3604 28.9777 27.248 28.9776 26.5619 28.2915Z" fill="#EC72A5" stroke="black"/>
<path d="M10.9772 50.3011L10.9772 50.3011L21.8501 54.3989L22.8049 57.0622L18.072 59.8367L7.91964 52.601L7.91961 52.601C7.77589 52.4986 7.75858 52.2914 7.88349 52.1665L9.41108 50.6389C9.8215 50.2285 10.4341 50.0963 10.9772 50.3011Z" fill="#DC437A" stroke="black"/>
<path d="M13.8095 8.19478L13.8096 8.19472C14.1479 7.85635 14.6402 7.7227 15.1032 7.84347C15.1032 7.84347 15.1033 7.84347 15.1033 7.84347L50.7709 17.148L53.7528 25.4663L43.771 29.7064L12.2397 12.1952L12.2397 12.1952C11.4566 11.7604 11.3075 10.6966 11.941 10.0632C11.941 10.0632 11.941 10.0632 11.941 10.0632L13.8095 8.19478Z" fill="#FFD400" stroke="black"/>
<path d="M70.9522 9.04766L70.9522 9.04769C71.0154 9.11087 71.1336 9.27937 71.268 9.58555C71.3976 9.88099 71.5288 10.274 71.6349 10.7556C71.847 11.7179 71.9547 13.0161 71.7601 14.5637C71.3718 17.6511 69.7771 21.7529 65.3648 26.1651C62.1229 29.407 50.7355 40.1793 39.5515 49.5278C33.9576 54.2036 28.4296 58.5105 24.0036 61.341C21.7869 62.7586 19.872 63.7893 18.3774 64.3165C17.6291 64.5805 17.0153 64.7076 16.5379 64.7088C16.0647 64.71 15.773 64.5891 15.5919 64.4079C15.4108 64.2268 15.2898 63.9351 15.291 63.462C15.2922 62.9845 15.4193 62.3708 15.6833 61.6224C16.2105 60.1278 17.2411 58.2129 18.6588 55.9963C21.4893 51.5702 25.7961 46.0422 30.472 40.4483C39.8204 29.2643 50.5927 17.877 53.8346 14.6352L53.481 14.2816L53.8346 14.6352C58.2371 10.2327 62.339 8.63764 65.4292 8.247C66.9782 8.05119 68.2784 8.15719 69.2424 8.36785C69.7248 8.47328 70.1185 8.60392 70.4143 8.73308C70.7211 8.86699 70.8894 8.98488 70.9522 9.04766Z" fill="#FFFBCC" stroke="black"/>
<path d="M65.2236 19.6249V19.6249C65.2235 19.8937 65.4414 20.1118 65.7104 20.1119H65.7104H65.7104H65.7104H65.7104H65.7104H65.7104H65.7104H65.7104H65.7104H65.7104H65.7104H65.7104H65.7104H65.7104H65.7104H65.7104H65.7104H65.7104H65.7105H65.7105H65.7105H65.7105H65.7105H65.7105H65.7105H65.7105H65.7105H65.7105H65.7105H65.7105H65.7105H65.7105H65.7105H65.7105H65.7105H65.7105H65.7105C65.9793 20.1119 66.1974 19.8941 66.1975 19.6251L65.2236 19.6249ZM65.2236 19.6249C65.224 18.5358 65.0771 17.6515 64.8984 17.0013C64.8092 16.6766 64.7112 16.4072 64.6178 16.1979C64.5311 16.0034 64.4311 15.8211 64.324 15.7033L64.3074 15.6851M65.2236 19.6249L64.3074 15.6851M64.3074 15.6851L64.2891 15.6686M64.3074 15.6851L64.2891 15.6686M64.2891 15.6686C64.1725 15.5632 63.991 15.4652 63.7992 15.3805M64.2891 15.6686L63.7992 15.3805M63.7992 15.3805C63.5918 15.289 63.3242 15.1925 63.0011 15.1045M63.7992 15.3805L63.0011 15.1045M63.0011 15.1045C62.3558 14.9285 61.4771 14.7829 60.3948 14.7822L63.0011 15.1045ZM60.375 14.7821C60.1093 14.7786 59.8949 14.5621 59.8948 14.2954C59.8946 14.0266 60.1125 13.8085 60.3813 13.8083L60.3815 13.8083L60.3873 13.8083C61.5881 13.8083 62.6197 13.9756 63.4193 14.2148C64.234 14.4585 64.7614 14.7626 64.9995 15.0007C65.2392 15.2404 65.545 15.7702 65.7897 16.5869C66.03 17.3887 66.198 18.4225 66.1975 19.6251L60.375 14.7821ZM60.4077 14.7826L60.4048 14.7825C60.4061 14.7826 60.4071 14.7826 60.4077 14.7826Z" fill="#FFD400" stroke="black"/>
<path d="M57.9218 23.1787L57.9219 23.1788C58.0169 23.2738 58.1406 23.3213 58.2661 23.3213C58.3912 23.3213 58.5151 23.2739 58.6104 23.1787C58.8007 22.9884 58.8006 22.6802 58.6104 22.49L58.6104 22.49L57.51 21.3894L57.5099 21.3894C57.3199 21.1993 57.0117 21.1992 56.8214 21.3894C56.8214 21.3894 56.8214 21.3894 56.8213 21.3894M57.9218 23.1787L56.8213 21.3894M57.9218 23.1787L56.8214 22.0781L56.8213 22.0781C56.6312 21.888 56.6311 21.5798 56.8213 21.3894M57.9218 23.1787L56.8213 21.3894" fill="#FFD400" stroke="black"/>
<path d="M52.0315 26.8679L52.0316 26.8679L53.132 27.9684L52.7785 28.3219L53.132 27.9684C53.2272 28.0635 53.351 28.111 53.4763 28.111C53.6016 28.111 53.7254 28.0636 53.8207 27.9684C53.8207 27.9683 53.8208 27.9683 53.8208 27.9683M52.0315 26.8679L54.1743 26.9262C54.5598 27.3115 54.5598 27.9364 54.1743 28.3219L53.8208 27.9683M52.0315 26.8679C51.8414 26.6778 51.8413 26.3695 52.0316 26.1793C52.2217 25.9892 52.53 25.9891 52.7203 26.1793C52.7203 26.1793 52.7203 26.1793 52.7203 26.1793L53.8207 27.2797L53.8208 27.2798C54.0109 27.4698 54.011 27.778 53.8208 27.9683M52.0315 26.8679L53.8208 27.9683" fill="#FFD400" stroke="black"/>
<path d="M48.3427 32.7581L48.3425 32.7579L47.242 31.6575C47.242 31.6575 47.242 31.6575 47.242 31.6575C47.0518 31.4673 47.0518 31.159 47.242 30.9688C47.4322 30.7787 47.7405 30.7786 47.9307 30.9688L47.9307 30.9689L49.0312 32.0693C49.0312 32.0693 49.0312 32.0693 49.0312 32.0693C49.2214 32.2595 49.2214 32.5677 49.0312 32.7579C48.936 32.8531 48.8123 32.9006 48.6868 32.9006C48.5614 32.9006 48.4377 32.8531 48.3427 32.7581Z" fill="#FFD400" stroke="black"/>
<path d="M42.4522 36.4471L42.4523 36.4472L43.5528 37.5478C43.6479 37.6429 43.7718 37.6904 43.8971 37.6904C44.0224 37.6904 44.1462 37.643 44.2415 37.5478C44.2415 37.5477 44.2416 37.5477 44.2416 37.5476M42.4522 36.4471L44.595 36.5055C44.9805 36.8909 44.9805 37.5158 44.595 37.9013L44.2416 37.5476M42.4522 36.4471C42.2621 36.2571 42.262 35.9488 42.4523 35.7585C42.6423 35.5685 42.9506 35.5684 43.1409 35.7585L43.4944 35.405L43.141 35.7586M42.4522 36.4471L43.141 35.7586M44.2416 37.5476C44.4318 37.3574 44.4316 37.0492 44.2415 36.8592L44.2415 36.8591L43.141 35.7586M44.2416 37.5476L43.141 35.7586" fill="#FFD400" stroke="black"/>
<path d="M38.7631 42.3375L38.7632 42.3376C38.8582 42.4326 38.9819 42.4801 39.1074 42.4801C39.2325 42.4801 39.3564 42.4326 39.452 42.3372L39.8053 42.691M38.7631 42.3375L37.6627 40.5482M38.7631 42.3375L37.6627 41.2369L37.6627 41.2369C37.4725 41.0467 37.4724 40.7386 37.6627 40.5482M38.7631 42.3375L37.6627 40.5482M39.8053 42.691L39.4517 42.3375C39.642 42.1472 39.6419 41.839 39.4518 41.6488L39.4517 41.6488L38.3513 40.5482L38.3513 40.5482C38.1612 40.358 37.853 40.3579 37.6627 40.5482C37.6627 40.5482 37.6627 40.5482 37.6627 40.5482M39.8053 42.691C40.1907 42.3055 40.1908 41.6807 39.8053 41.2952L38.7049 40.1947C38.3195 39.8092 37.6946 39.8092 37.3091 40.1947C36.9237 40.5802 36.9236 41.2049 37.3091 41.5904L38.4095 42.691C38.6022 42.8837 38.8548 42.9801 39.1074 42.9801C39.3599 42.9801 39.6124 42.8836 39.8053 42.691Z" fill="#FFD400" stroke="black"/>
<path d="M32.8729 46.0267L32.8728 46.0266C32.6827 45.8366 32.6826 45.5283 32.8729 45.338C33.063 45.148 33.3713 45.1479 33.5616 45.338C33.5616 45.3381 33.5616 45.3381 33.5616 45.3381L34.662 46.4385L34.6621 46.4385C34.8522 46.6286 34.8523 46.9367 34.6621 47.127C34.5668 47.2223 34.4429 47.2698 34.3176 47.2698C34.1923 47.2698 34.0685 47.2223 33.9733 47.1271L33.6198 47.4807L33.9733 47.1271L32.8729 46.0267Z" fill="#FFD400" stroke="black"/>
</svg>
