<svg width="180" height="180" viewBox="0 0 180 180" fill="none" xmlns="http://www.w3.org/2000/svg">
<path d="M93.6516 87.7663C101.784 88.7905 107.888 95.6936 107.888 103.887C107.888 108.414 106.044 112.511 103.095 115.481C100.309 118.246 96.5398 120.049 92.3406 120.254C92.0743 120.274 91.7875 120.274 91.5008 120.274C73.393 120.274 58.7266 105.608 58.7266 87.5C58.7266 69.6791 72.9424 55.1765 90.6609 54.7463C81.9962 55.1765 75.1137 62.3459 75.1137 71.1129C75.1137 75.2097 76.6295 78.9788 79.1899 81.867C81.7299 84.7347 85.2737 86.7217 89.3499 87.2338L93.6516 87.7663Z" fill="#FFE900"/>
<path d="M91.5004 54.7258C109.608 54.7258 124.275 69.3923 124.275 87.5C124.275 105.321 110.059 119.824 92.3402 120.254C96.5394 120.049 100.308 118.246 103.094 115.481C106.044 112.511 107.887 108.414 107.887 103.887C107.887 95.6936 101.783 88.7905 93.6512 87.7663L89.3496 87.2337C85.2733 86.7216 81.7296 84.7347 79.1896 81.867C76.6291 78.9787 75.1133 75.2097 75.1133 71.1129C75.1133 62.3458 81.9959 55.1765 90.6605 54.7463C90.9268 54.7258 91.2136 54.7258 91.5004 54.7258Z" fill="white"/>
<path d="M95.5968 112.081C97.8594 112.081 99.6935 110.247 99.6935 107.984C99.6935 105.721 97.8594 103.887 95.5968 103.887C93.3342 103.887 91.5 105.721 91.5 107.984C91.5 110.247 93.3342 112.081 95.5968 112.081Z" fill="#E6E9ED"/>
<path d="M91.5011 71.1129C93.7637 71.1129 95.5978 69.2787 95.5978 67.0161C95.5978 64.7536 93.7637 62.9194 91.5011 62.9194C89.2385 62.9194 87.4043 64.7536 87.4043 67.0161C87.4043 69.2787 89.2385 71.1129 91.5011 71.1129Z" fill="#969FAA"/>
<path d="M91 54.5938C99.7694 54.5938 106.906 61.9445 106.906 71.0469C106.906 80.1492 99.7694 87.5 91 87.5C81.6476 87.5 74.0938 95.3297 74.0938 104.953C74.0938 114.577 81.6476 122.406 91 122.406C110.002 122.406 125.406 107.002 125.406 88C125.406 68.9979 110.002 53.5938 91 53.5938V54.0938V54.5938Z" fill="#FFFBCC" stroke="#1F201E"/>
<path d="M74.2391 104.75C74.2391 111.684 78.0813 117.703 83.6925 120.623C68.686 117.132 57.5 103.628 57.5 87.5C57.5 68.7205 72.6657 53.5 91.3696 53.5C100.261 53.5 107.5 60.9819 107.5 70.25C107.5 79.5181 100.261 87 91.3696 87C81.8916 87 74.2391 94.9644 74.2391 104.75Z" fill="#FFE900" stroke="#1F201E"/>
<path d="M95.9688 70.5C95.9688 73.2442 93.7442 75.4688 91 75.4688C88.2558 75.4688 86.0312 73.2442 86.0312 70.5C86.0312 67.7558 88.2558 65.5312 91 65.5312C93.7442 65.5312 95.9688 67.7558 95.9688 70.5Z" fill="#2E425B" stroke="#1F201E"/>
<path d="M95.9688 105.5C95.9688 108.244 93.7442 110.469 91 110.469C88.2558 110.469 86.0312 108.244 86.0312 105.5C86.0312 102.756 88.2558 100.531 91 100.531C93.7442 100.531 95.9688 102.756 95.9688 105.5Z" fill="#EDF5FF" stroke="#1F201E"/>
<path d="M81.2578 40.3871H101.742V44.4839H81.2578V40.3871Z" fill="#1F201E"/>
<path d="M81.2578 32.1936H101.742V36.2904H81.2578V32.1936Z" fill="#1F201E"/>
<path d="M81.2578 24H101.742V28.0968H81.2578V24Z" fill="#1F201E"/>
<path d="M81.2578 130.516H89.4514V134.613H81.2578V130.516Z" fill="#1F201E"/>
<path d="M93.5469 130.516H101.74V134.613H93.5469V130.516Z" fill="#1F201E"/>
<path d="M81.2578 138.71H89.4514V142.806H81.2578V138.71Z" fill="#1F201E"/>
<path d="M93.5469 138.71H101.74V142.806H93.5469V138.71Z" fill="#1F201E"/>
<path d="M81.2578 146.903H89.4514V151H81.2578V146.903Z" fill="#1F201E"/>
<path d="M93.5469 146.903H101.74V151H93.5469V146.903Z" fill="#1F201E"/>
<path d="M44.3867 77.2581H48.4835V97.7419H44.3867V77.2581Z" fill="#1F201E"/>
<path d="M36.1934 77.2581H40.2901V85.4516H36.1934V77.2581Z" fill="#1F201E"/>
<path d="M36.1934 89.5484H40.2901V97.7419H36.1934V89.5484Z" fill="#1F201E"/>
<path d="M28 77.2581H32.0968V97.7419H28V77.2581Z" fill="#1F201E"/>
<path d="M50.9336 113.562L53.83 110.666L68.3121 125.148L65.4157 128.044L50.9336 113.562Z" fill="#1F201E"/>
<path d="M45.1348 119.365L48.0316 116.469L53.8253 122.262L50.9285 125.159L45.1348 119.365Z" fill="#1F201E"/>
<path d="M53.8223 128.055L56.7191 125.159L62.5128 130.952L59.616 133.849L53.8223 128.055Z" fill="#1F201E"/>
<path d="M39.3457 125.15L42.2426 122.253L48.0363 128.047L45.1394 130.943L39.3457 125.15Z" fill="#1F201E"/>
<path d="M48.043 133.825L50.9398 130.928L56.7335 136.722L53.8367 139.618L48.043 133.825Z" fill="#1F201E"/>
<path d="M120.459 44.0612L123.355 41.1647L137.838 55.6468L134.941 58.5433L120.459 44.0612Z" fill="#1F201E"/>
<path d="M123.352 58.5381L126.248 55.6412L132.042 61.4349L129.145 64.3318L123.352 58.5381Z" fill="#1F201E"/>
<path d="M114.664 49.8467L117.561 46.9499L123.355 52.7436L120.458 55.6405L114.664 49.8467Z" fill="#1F201E"/>
<path d="M126.25 38.2631L129.146 35.3667L143.629 49.8488L140.732 52.7452L126.25 38.2631Z" fill="#1F201E"/>
<path d="M45.1465 55.6332L59.6286 41.1511L62.525 44.0476L48.0429 58.5297L45.1465 55.6332Z" fill="#1F201E"/>
<path d="M48.043 41.1495L53.8367 35.3558L56.7335 38.2527L50.9398 44.0464L48.043 41.1495Z" fill="#1F201E"/>
<path d="M39.3516 49.84L45.1453 44.0463L48.0421 46.9432L42.2484 52.7369L39.3516 49.84Z" fill="#1F201E"/>
<path d="M50.9375 61.4281L65.4196 46.946L68.316 49.8424L53.8339 64.3245L50.9375 61.4281Z" fill="#1F201E"/>
<path d="M120.447 130.94L126.241 125.146L129.138 128.043L123.344 133.837L120.447 130.94Z" fill="#1F201E"/>
<path d="M129.139 122.265L134.932 116.471L137.829 119.368L132.036 125.162L129.139 122.265Z" fill="#1F201E"/>
<path d="M114.654 125.159L120.448 119.365L123.345 122.262L117.551 128.056L114.654 125.159Z" fill="#1F201E"/>
<path d="M123.348 116.491L129.141 110.697L132.038 113.594L126.245 119.388L123.348 116.491Z" fill="#1F201E"/>
<path d="M126.238 136.745L140.72 122.263L143.617 125.16L129.135 139.642L126.238 136.745Z" fill="#1F201E"/>
<path d="M150.902 77.2581H154.999V85.4516H150.902V77.2581Z" fill="#1F201E"/>
<path d="M150.902 89.5484H154.999V97.7419H150.902V89.5484Z" fill="#1F201E"/>
<path d="M134.516 77.2581H138.612V85.4516H134.516V77.2581Z" fill="#1F201E"/>
<path d="M134.516 89.5483H138.612V97.7419H134.516V89.5483Z" fill="#1F201E"/>
<path d="M142.709 77.2581H146.806V97.7419H142.709V77.2581Z" fill="#1F201E"/>
<path d="M136.984 129.523L142.063 134.61L137.611 139.064L136.969 138.417L136.969 138.417L136.966 138.415L134.382 135.843L134.381 135.842L132.523 133.984L136.984 129.523Z" fill="#FFD400" stroke="#1F201E"/>
<path d="M148.032 135.283L165.482 152.732L165.482 152.732C166.731 153.978 167.505 155.706 167.5 157.606V157.607C167.5 159.512 166.731 161.238 165.482 162.489C164.237 163.732 162.513 164.5 160.608 164.5C158.703 164.5 156.981 163.733 155.733 162.485C155.732 162.485 155.732 162.485 155.732 162.485L138.283 145.034L148.032 135.283Z" fill="#EC72A5" stroke="#1F201E"/>
<path d="M145.854 137.649L147.3 136.2L164.827 153.392C165.951 154.517 166.569 156.013 166.568 157.606C166.568 159.203 165.948 160.702 164.827 161.829C164.622 162.026 164.36 162.125 164.101 162.125C163.837 162.125 163.577 162.026 163.373 161.826C162.977 161.424 162.977 160.781 163.373 160.382C164.116 159.642 164.522 158.651 164.522 157.603C164.524 156.56 164.116 155.576 163.379 154.84L145.854 137.649Z" fill="#F299BD"/>
<path d="M147.324 134.574L137.575 144.326L137.144 143.893L137.144 143.893L137.141 143.89C136.766 143.521 136.531 142.995 136.531 142.422C136.531 141.839 136.766 141.32 137.142 140.947L137.142 140.947L137.144 140.946L143.943 134.143L143.943 134.143L143.945 134.141C144.319 133.764 144.837 133.533 145.421 133.533C145.999 133.533 146.516 133.764 146.896 134.146L146.897 134.146L147.324 134.574Z" fill="#DC437A" stroke="#1F201E"/>
<mask id="path-49-inside-1_1692_7737" fill="white">
<path fill-rule="evenodd" clip-rule="evenodd" d="M111.428 75.0005C92.9665 75.0005 78 89.9689 78 108.427C78 126.89 92.9665 141.856 111.428 141.861C129.89 141.856 144.858 126.89 144.858 108.427C144.858 89.9697 129.892 75.0005 111.428 75.0005ZM141.238 108.427C141.238 124.893 127.888 138.239 111.429 138.239C94.9666 138.239 81.6182 124.893 81.6182 108.427C81.6182 91.9687 94.9666 78.6202 111.429 78.6198C127.888 78.6198 141.238 91.9692 141.238 108.427Z"/>
</mask>
<path fill-rule="evenodd" clip-rule="evenodd" d="M111.428 75.0005C92.9665 75.0005 78 89.9689 78 108.427C78 126.89 92.9665 141.856 111.428 141.861C129.89 141.856 144.858 126.89 144.858 108.427C144.858 89.9697 129.892 75.0005 111.428 75.0005ZM141.238 108.427C141.238 124.893 127.888 138.239 111.429 138.239C94.9666 138.239 81.6182 124.893 81.6182 108.427C81.6182 91.9687 94.9666 78.6202 111.429 78.6198C127.888 78.6198 141.238 91.9692 141.238 108.427Z" fill="#FFD400"/>
<path d="M111.428 141.861L111.428 142.861H111.429L111.428 141.861ZM111.429 78.6198V77.6198H111.429L111.429 78.6198ZM79 108.427C79 90.5211 93.5188 76.0005 111.428 76.0005V74.0005C92.4143 74.0005 77 89.4166 77 108.427H79ZM111.429 140.861C93.5188 140.856 79 126.338 79 108.427H77C77 127.442 92.4142 142.856 111.428 142.861L111.429 140.861ZM143.858 108.427C143.858 126.338 129.338 140.856 111.428 140.861L111.429 142.861C130.442 142.856 145.858 127.443 145.858 108.427H143.858ZM111.428 76.0005C129.34 76.0005 143.858 90.522 143.858 108.427H145.858C145.858 89.4175 130.444 74.0005 111.428 74.0005V76.0005ZM111.429 139.239C128.44 139.239 142.238 125.446 142.238 108.427H140.238C140.238 124.341 127.336 137.239 111.429 137.239V139.239ZM80.6182 108.427C80.6182 125.446 94.4144 139.239 111.429 139.239V137.239C95.5189 137.239 82.6182 124.341 82.6182 108.427H80.6182ZM111.429 77.6198C94.4144 77.6202 80.6182 91.4163 80.6182 108.427H82.6182C82.6182 92.521 95.5188 79.6202 111.429 79.6198L111.429 77.6198ZM142.238 108.427C142.238 91.4169 128.44 77.6198 111.429 77.6198V79.6198C127.336 79.6198 140.238 92.5216 140.238 108.427H142.238Z" fill="#1F201E" mask="url(#path-49-inside-1_1692_7737)"/>
<path opacity="0.5" d="M111.428 135.853C126.571 135.853 138.851 123.578 138.851 108.427C138.851 93.2876 126.571 81.0049 111.428 81.0049C96.2857 81.0049 84.0039 93.2876 84.0039 108.427C84.0039 123.577 96.2826 135.853 111.428 135.853Z" fill="#CEE2F2"/>
<mask id="path-52-inside-2_1692_7737" fill="white">
<path fill-rule="evenodd" clip-rule="evenodd" d="M141.237 108.427C141.237 124.893 127.887 138.239 111.428 138.239C94.9657 138.239 81.6172 124.893 81.6172 108.427C81.6172 91.9687 94.9657 78.6202 111.428 78.6199C127.887 78.6199 141.237 91.9692 141.237 108.427ZM138.85 108.427C138.85 123.577 126.57 135.853 111.427 135.853C96.2815 135.853 84.0028 123.577 84.0028 108.427C84.0028 93.2876 96.2846 81.0049 111.427 81.0049C126.57 81.0049 138.85 93.2876 138.85 108.427Z"/>
</mask>
<path fill-rule="evenodd" clip-rule="evenodd" d="M141.237 108.427C141.237 124.893 127.887 138.239 111.428 138.239C94.9657 138.239 81.6172 124.893 81.6172 108.427C81.6172 91.9687 94.9657 78.6202 111.428 78.6199C127.887 78.6199 141.237 91.9692 141.237 108.427ZM138.85 108.427C138.85 123.577 126.57 135.853 111.427 135.853C96.2815 135.853 84.0028 123.577 84.0028 108.427C84.0028 93.2876 96.2846 81.0049 111.427 81.0049C126.57 81.0049 138.85 93.2876 138.85 108.427Z" fill="#FFF08D"/>
<path d="M111.428 78.6199V77.6199H111.428L111.428 78.6199ZM111.428 139.239C128.439 139.239 142.237 125.446 142.237 108.427H140.237C140.237 124.341 127.335 137.239 111.428 137.239V139.239ZM80.6172 108.427C80.6172 125.446 94.4134 139.239 111.428 139.239V137.239C95.5179 137.239 82.6172 124.341 82.6172 108.427H80.6172ZM111.428 77.6199C94.4135 77.6202 80.6172 91.4163 80.6172 108.427H82.6172C82.6172 92.5211 95.5179 79.6202 111.428 79.6199L111.428 77.6199ZM142.237 108.427C142.237 91.4169 128.439 77.6199 111.428 77.6199V79.6199C127.335 79.6199 140.237 92.5216 140.237 108.427H142.237ZM111.427 136.853C127.122 136.853 139.85 124.13 139.85 108.427H137.85C137.85 123.025 126.018 134.853 111.427 134.853V136.853ZM83.0028 108.427C83.0028 124.129 95.7292 136.853 111.427 136.853V134.853C96.8337 134.853 85.0028 123.024 85.0028 108.427H83.0028ZM111.427 80.0049C95.7324 80.0049 83.0028 92.7353 83.0028 108.427H85.0028C85.0028 93.8399 96.8369 82.0049 111.427 82.0049V80.0049ZM139.85 108.427C139.85 92.7353 127.122 80.0049 111.427 80.0049V82.0049C126.017 82.0049 137.85 93.8398 137.85 108.427H139.85Z" fill="#1F201E" mask="url(#path-52-inside-2_1692_7737)"/>
<path opacity="0.4" d="M112.15 85.5071C111.683 84.8142 110.88 84.3804 109.996 84.4306C106.211 84.6606 102.633 85.7267 99.3643 87.6248C98.2133 88.298 97.8184 89.7816 98.4891 90.9381C99.1595 92.0801 100.645 92.4865 101.793 91.807C104.4 90.3026 107.255 89.448 110.28 89.2636C111.61 89.1943 112.632 88.0477 112.55 86.7193C112.535 86.2589 112.38 85.845 112.15 85.5071Z" fill="white"/>
<path opacity="0.4" d="M96.6235 93.4577C96.4948 93.2647 96.3269 93.0856 96.1429 92.933C95.1047 92.0838 93.5824 92.249 92.7431 93.2863C90.2727 96.3193 88.5725 99.9581 87.8219 103.831C86.9341 108.43 87.3985 113.139 89.1621 117.454C89.6761 118.698 91.0907 119.282 92.3247 118.774C93.5622 118.273 94.1518 116.863 93.645 115.619C92.2388 112.178 91.8739 108.42 92.5881 104.749C93.1722 101.658 94.5303 98.7552 96.5008 96.3347C97.186 95.492 97.2041 94.3095 96.6235 93.4577Z" fill="white"/>
</svg>
