<svg width="80" height="80" viewBox="0 0 80 80" fill="none" xmlns="http://www.w3.org/2000/svg">
<g clip-path="url(#clip0_208_1279)">
<path d="M70.9299 50.9069L70.9302 50.9042C71.2613 47.7495 73.8454 45.2704 77.0404 45.0966V39.4138C77.0404 36.5407 74.7115 34.2117 71.8384 34.2117H7.74226C4.86835 34.2117 2.53857 36.5415 2.53857 39.4154V44.8474C2.53857 44.9963 2.6491 45.1278 2.80885 45.1503L70.9299 50.9069ZM70.9299 50.9069C70.9079 51.1281 70.8948 51.3555 70.8948 51.5883C70.8948 55.0557 73.6112 57.8908 77.0313 58.0817L77.0318 58.0817M70.9299 50.9069L77.0318 58.0817M77.0318 58.0817C77.0346 58.0819 77.0376 58.082 77.0406 58.0822M77.0318 58.0817L77.0406 58.0822M77.0406 58.0822V64.7054C77.0406 67.5793 74.7108 69.9091 71.8369 69.9091H7.74242C4.86852 69.9091 2.53874 67.5793 2.53874 64.7054V58.3289C2.53874 58.179 2.64979 58.0485 2.80656 58.0266C3.12954 57.9815 3.44523 57.9126 3.75211 57.8212M77.0406 58.0822L3.75211 57.8212M3.75211 57.8212C3.75205 57.8212 3.75198 57.8212 3.75191 57.8212L3.60935 57.342L3.75211 57.8212ZM3.75211 57.8212C6.4399 57.0216 8.39997 54.536 8.39997 51.5885C8.39997 49.9906 7.82359 48.5274 6.86753 47.3972C6.85661 47.383 6.84196 47.3654 6.82356 47.3465C5.82076 46.1811 4.40844 45.375 2.80897 45.1503L3.75211 57.8212Z" fill="#EC72A5" stroke="black"/>
<path d="M77.0406 39.4135V45.0946C77.033 45.0949 77.0259 45.0953 77.0192 45.0957C73.948 45.2725 71.4469 47.5809 70.9747 50.5664L12.4446 67.4142L12.5829 67.8947L12.4446 67.4142C9.68195 68.2096 6.80025 66.6143 6.00476 63.8528L4.22173 57.6615C6.66519 56.7254 8.39997 54.3613 8.39997 51.5884C8.39997 49.9904 7.82359 48.5272 6.86752 47.397C6.85661 47.3829 6.84196 47.3652 6.82355 47.3464C5.82073 46.1809 4.40836 45.3748 2.80885 45.1502C2.6491 45.1276 2.53857 44.9961 2.53857 44.8473V39.4153C2.53857 36.5414 4.86835 34.2116 7.74226 34.2116H71.8384C74.7115 34.2116 77.0406 36.5406 77.0406 39.4135Z" fill="#DC437A" stroke="black"/>
<path d="M14.1393 62.3296L14.1394 62.3296L55.0652 50.5499L57.4195 49.8724L75.7346 44.6006C78.4962 43.8051 80.09 40.9229 79.296 38.1611L77.4686 31.812L77.949 31.6737L77.4685 31.8119C77.466 31.8031 77.4555 31.7949 77.4423 31.7982L77.3232 31.3125L77.4427 31.7981C77.3994 31.8087 77.3566 31.8187 77.3199 31.8263M14.1393 62.3296L73.3971 19.5005C70.4549 20.7883 68.8485 24.0861 69.7615 27.2553C70.7084 30.5427 74.0229 32.5071 77.3199 31.8263M14.1393 62.3296C11.3781 63.1249 8.49578 61.5299 7.70025 58.7681C7.70024 58.768 7.70023 58.768 7.70023 58.768L5.96898 52.7534L5.48849 52.8917L5.96898 52.7534C5.90821 52.5423 6.01012 52.3218 6.20209 52.2327L6.20221 52.2326M14.1393 62.3296L6.20221 52.2326M77.3199 31.8263L77.2191 31.3365L77.3202 31.8262C77.3201 31.8262 77.32 31.8262 77.3199 31.8263ZM6.20221 52.2326C9.05824 50.9055 10.6025 47.6621 9.70355 44.5414L6.20221 52.2326ZM4.26581 28.0252L4.26566 28.0252C1.50446 28.819 -0.089582 31.7025 0.704321 34.4644L4.26581 28.0252ZM4.26581 28.0252L45.1916 16.2456L47.5459 15.568L47.4076 15.0875M4.26581 28.0252L47.4076 15.0875M47.4076 15.0875L47.5459 15.568L65.861 10.2962L65.8611 10.2961M47.4076 15.0875L65.8611 10.2961M65.8611 10.2961C68.6226 9.50075 71.5048 11.0944 72.3002 13.8561L73.8685 19.3045C73.8718 19.3158 73.8653 19.3263 73.8563 19.3294L74.0176 19.8026M65.8611 10.2961L74.0176 19.8026M74.0176 19.8026L73.8563 19.3294C73.6982 19.3833 73.5186 19.4473 73.3972 19.5005L74.0176 19.8026ZM9.70349 44.5412C8.80669 41.423 5.77877 39.4963 2.65622 39.8874C2.42933 39.9159 2.23512 39.7827 2.17926 39.5891C2.17925 39.5891 2.17923 39.589 2.17922 39.589L0.704362 34.4645L9.70349 44.5412Z" fill="#FFFBCC" stroke="black"/>
<path d="M5.96897 52.7539L5.48847 52.8922L5.96896 52.7539C5.90819 52.5428 6.0101 52.3223 6.20208 52.2332L6.2022 52.2331C9.0585 50.9058 10.6024 47.6623 9.70416 44.541L9.70415 44.541C8.8064 41.4221 5.77864 39.4964 2.65634 39.8866C2.42922 39.915 2.23508 39.7816 2.17941 39.5882L2.17941 39.5882L0.704463 34.4637C-0.0903446 31.7023 1.50389 28.8194 4.2653 28.0246L4.13068 27.5568L4.2653 28.0246L45.8879 16.0441L55.7619 50.349L14.1392 62.3293C11.3778 63.1241 8.49487 61.5299 7.70007 58.7684L5.96897 52.7539Z" fill="#FFD400" stroke="black"/>
<path d="M34.3177 39.996L31.753 49.9467L32.2324 50.0702L31.753 49.9467C31.7523 49.9495 31.7501 49.9518 31.7473 49.9526L31.7473 49.9526L29.0034 50.7423L29.0033 50.7424C29.001 50.743 29 50.743 28.9999 50.743L28.9998 50.743C28.9996 50.743 28.998 50.7425 28.9958 50.7408C28.9937 50.7392 28.9929 50.7377 28.9928 50.7374L28.9928 50.7374C28.9928 50.7373 28.9926 50.7363 28.9927 50.7339L28.9927 50.7339L29.5372 41.2252L34.3177 39.996Z" fill="white" stroke="black"/>
<path d="M25.6211 28.6423L33.0833 35.7068L28.3808 37.2072L22.8646 29.4429L22.8646 29.4428C22.8632 29.4409 22.8629 29.4399 22.8628 29.4399L22.8628 29.4399L22.8628 29.4398C22.8628 29.4395 22.8627 29.4378 22.8636 29.4353C22.8645 29.4328 22.8656 29.4315 22.8658 29.4313L22.866 29.4312C22.866 29.4311 22.8669 29.4306 22.8692 29.4299L25.6129 28.6402C25.6129 28.6402 25.6129 28.6402 25.613 28.6402C25.613 28.6402 25.613 28.6402 25.613 28.6402C25.6159 28.6394 25.6189 28.6401 25.6211 28.6422C25.6211 28.6422 25.6211 28.6423 25.6211 28.6423Z" fill="white" stroke="black"/>
<path d="M16.5364 41.4124L16.683 41.4504L16.8261 41.4007L16.6621 40.9284C16.8261 41.4007 16.8262 41.4007 16.8263 41.4007L16.8269 41.4005L16.8294 41.3996L16.8394 41.3961L16.879 41.3824L17.0336 41.3287L17.6224 41.1244C18.1308 40.9481 18.8595 40.6956 19.7409 40.3905C21.5035 39.7804 23.8765 38.9603 26.318 38.1206C31.2118 36.4374 36.3514 34.6852 37.4322 34.3741C38.3376 34.1135 39.354 34.4329 40.2103 34.8894C40.6277 35.1119 40.9828 35.3541 41.2338 35.5412C41.2832 35.5779 41.3283 35.6125 41.3689 35.6441C41.3514 35.6925 41.3315 35.7458 41.3092 35.8032C41.1961 36.095 41.024 36.489 40.7888 36.8993C40.3062 37.7412 39.6152 38.5521 38.7098 38.8126C37.629 39.1237 32.3442 40.372 27.3045 41.548C24.7901 42.1347 22.3443 42.7016 20.527 43.1219C19.6183 43.3321 18.8669 43.5056 18.3425 43.6265L17.7352 43.7666L17.5757 43.8033L17.5349 43.8127L17.5246 43.8151L17.522 43.8157L17.5214 43.8158C17.5212 43.8158 17.5212 43.8159 17.6333 44.3031L17.5212 43.8159L17.4957 43.8217L17.4711 43.8302L15.5838 44.4776C15.5838 44.4777 15.5838 44.4777 15.5838 44.4777C15.58 44.4789 15.5758 44.4774 15.5736 44.4738C15.5736 44.4738 15.5736 44.4738 15.5736 44.4738L13.3021 40.5875C13.3009 40.5855 13.3002 40.584 13.2998 40.583C13.3002 40.5819 13.301 40.5802 13.3026 40.5782C13.3041 40.5761 13.3055 40.5749 13.3065 40.5741C13.3076 40.5743 13.3092 40.5746 13.3114 40.5751C13.3115 40.5751 13.3115 40.5752 13.3115 40.5752L16.5364 41.4124Z" fill="white" stroke="black"/>
<path d="M56.9387 50.0105L55.5459 50.4113L55.2106 49.2447L55.2104 49.244C55.0993 48.8597 55.3216 48.4583 55.7052 48.3484L55.7052 48.3484L55.7067 48.348C56.0893 48.2371 56.4921 48.4594 56.602 48.8429L56.6023 48.8438L56.9387 50.0105Z" fill="#DC437A" stroke="black"/>
<path d="M54.9761 43.1928L54.9763 43.1934C55.0873 43.5777 54.8651 43.9792 54.4814 44.0891L54.4799 44.0895C54.4113 44.1094 54.3438 44.1187 54.2795 44.1187C53.9639 44.1187 53.6751 43.9111 53.5847 43.5948L53.5844 43.5938L52.685 40.4712C52.685 40.4712 52.685 40.4711 52.685 40.4711C52.5748 40.086 52.7977 39.6843 53.1812 39.5745L53.1827 39.5741C53.5643 39.4635 53.9667 39.6845 54.0782 40.0699C54.0783 40.07 54.0783 40.0701 54.0783 40.0701L54.9761 43.1928ZM50.1608 31.6969L50.1606 31.6962C50.0499 31.313 50.2708 30.9121 50.656 30.8004C51.0411 30.6904 51.4416 30.9119 51.5526 31.2963L52.4519 34.4184C52.4519 34.4185 52.4519 34.4186 52.4519 34.4187C52.5621 34.8037 52.3391 35.2053 51.9557 35.3152L51.9542 35.3156C51.8855 35.3355 51.8181 35.3448 51.7538 35.3448C51.4406 35.3448 51.1507 35.1378 51.0587 34.8199C51.0587 34.8198 51.0587 34.8197 51.0586 34.8196L50.1608 31.6969ZM49.2297 26.5709C48.9145 26.5709 48.6248 26.3635 48.533 26.0459C48.5329 26.0458 48.5329 26.0457 48.5329 26.0457L47.6351 22.9245L47.6349 22.924C47.524 22.5401 47.7457 22.1379 48.1305 22.0265C48.5138 21.9167 48.9168 22.1396 49.0266 22.5229L49.0268 22.5237L49.9261 25.6445C49.9262 25.6446 49.9262 25.6448 49.9263 25.6449C50.0362 26.0295 49.8137 26.432 49.4288 26.5432L49.4284 26.5433C49.364 26.562 49.2968 26.5709 49.2297 26.5709Z" fill="#DC437A" stroke="black"/>
<path d="M46.9046 17.7693L46.9042 17.7694C46.8401 17.788 46.773 17.797 46.7038 17.797C46.388 17.797 46.0991 17.589 46.009 17.2744L46.0087 17.2736L45.6723 16.1069L47.0651 15.706L47.4004 16.8727L47.4006 16.8734C47.5114 17.2568 47.2902 17.6579 46.9046 17.7693Z" fill="#DC437A" stroke="black"/>
</g>
<defs>
<clipPath id="clip0_208_1279">
<rect width="80" height="80" fill="white"/>
</clipPath>
</defs>
</svg>
