<svg width="80" height="80" viewBox="0 0 80 80" fill="none" xmlns="http://www.w3.org/2000/svg">
<path d="M40.4331 51.3845L40 50.6345L39.567 51.3845L25.9127 75.0344L25.9127 75.0345C25.8169 75.2004 25.5722 75.1792 25.5068 74.9981L21.8308 64.806L21.6876 64.409L21.2722 64.4835L10.6075 66.3961C10.4184 66.43 10.2773 66.229 10.3733 66.0628C10.3733 66.0628 10.3733 66.0628 10.3733 66.0627L25.7029 39.5111L42.2218 45.1089L42.4952 45.2015L42.7122 45.0111L52.5079 36.4117L69.6268 66.063C69.7228 66.2292 69.5817 66.4302 69.3926 66.3964L58.7277 64.4837L58.3122 64.4092L58.169 64.8062L54.493 74.9985C54.4278 75.1793 54.1833 75.2008 54.0874 75.0347L54.0874 75.0347L40.4331 51.3845Z" fill="#FFE900" stroke="black"/>
<path d="M65.8098 35.4592C66.9617 37.1103 67.1202 39.3102 66.4758 41.2936C65.8313 43.2771 64.41 44.9636 62.5075 45.6222C60.5584 46.297 59.2931 48.0388 59.2531 50.1012L59.2531 50.1013C59.2145 52.1142 58.0497 53.9872 56.3625 55.2131C54.6752 56.439 52.534 56.968 50.6077 56.3826C48.6341 55.7827 46.5866 56.4482 45.3425 58.0934C44.1282 59.6991 42.0849 60.5297 39.9993 60.5297C37.9137 60.5297 35.8704 59.699 34.6561 58.0932C33.4121 56.4479 31.3644 55.7829 29.3909 56.3826L29.5363 56.861L29.3909 56.3826C27.4647 56.968 25.3234 56.439 23.6362 55.2131C21.949 53.9872 20.7842 52.1143 20.7457 50.1013C20.7065 48.039 19.4405 46.2971 17.4915 45.6225C15.5891 44.9638 14.1677 43.2772 13.5233 41.2937C12.8788 39.3102 13.0374 37.1102 14.1894 35.4592L13.7794 35.1731L14.1894 35.4592C15.3697 33.7677 15.3693 31.6147 14.1892 29.9231L13.7791 30.2092L14.1892 29.9231C13.0373 28.272 12.8788 26.072 13.5233 24.0885C14.1678 22.105 15.5891 20.4184 17.4916 19.7598C19.4408 19.0851 20.7062 17.343 20.7457 15.2808C20.7843 13.2679 21.9492 11.3949 23.6365 10.1691C25.3238 8.94324 27.4651 8.41428 29.3913 8.99968L29.3913 8.99968C31.3649 9.5994 33.4124 8.93387 34.6565 7.28871C35.871 5.68294 37.9143 4.85235 39.9999 4.85237C42.0855 4.8524 44.1287 5.68305 45.3429 7.28889C46.5868 8.93419 48.6346 9.59914 50.6081 8.99945L50.4627 8.52105L50.6081 8.99945C52.5344 8.41405 54.6757 8.94307 56.363 10.1689C58.0502 11.3948 59.2149 13.2678 59.2533 15.2808C59.2928 17.343 60.5585 19.0849 62.5075 19.7596C64.4099 20.4184 65.8313 22.105 66.4757 24.0885C67.1202 26.072 66.9616 28.272 65.8096 29.9231C64.6294 31.6146 64.6296 33.7678 65.8098 35.4592ZM65.8098 35.4592L66.2199 35.1731L65.8098 35.4592C65.8098 35.4592 65.8098 35.4592 65.8098 35.4592Z" fill="#EC72A5" stroke="black"/>
<path d="M57.3505 29.8801C58.9054 39.4719 52.3902 48.5081 42.7984 50.063C33.2066 51.6179 24.1704 45.1027 22.6155 35.5109C21.0606 25.9191 27.5758 16.8829 37.1676 15.328C46.7594 13.7731 55.7956 20.2883 57.3505 29.8801Z" fill="#EFF4F7" stroke="black"/>
<path fill-rule="evenodd" clip-rule="evenodd" d="M49.7787 26.4423C50.5597 27.2233 50.5597 28.4897 49.7787 29.2707L39.0948 39.9546C38.7197 40.3297 38.211 40.5404 37.6805 40.5404C37.1501 40.5404 36.6414 40.3297 36.2663 39.9546L30.2215 33.9098C29.4405 33.1287 29.4405 31.8624 30.2215 31.0814C31.0026 30.3003 32.2689 30.3003 33.05 31.0814L37.6805 35.712L46.9502 26.4423C47.7313 25.6612 48.9976 25.6612 49.7787 26.4423Z" fill="#FFD400" stroke="black" stroke-linecap="round" stroke-linejoin="round"/>
</svg>
