<svg width="56" height="56" viewBox="0 0 56 56" fill="none" xmlns="http://www.w3.org/2000/svg">
<path d="M29.2717 50.9001L29.2717 50.9002C29.1239 51.1205 28.9342 51.2871 28.7222 51.4V4.43624C37.9451 4.81485 45.306 12.4115 45.306 21.7274C45.306 25.2923 44.2283 28.6032 42.3825 31.3557L29.2717 50.9001Z" fill="#DC437A" stroke="black" stroke-width="1.44444"/>
<path d="M28.7583 50.9779L28.7583 50.9779C28.5201 51.4514 28.2078 51.5784 27.9998 51.5784C27.5122 51.5784 27.0318 51.3528 26.7282 50.9001L26.1284 51.3025C26.7281 50.9001 26.7281 50.9001 26.728 50.8999L26.7276 50.8993L26.7258 50.8966L26.7186 50.886L26.6905 50.8441L26.5809 50.6806L26.1648 50.0603L24.6796 47.8463L20.1728 41.1279L15.6662 34.4095L14.3722 32.4802H14.3725L13.6279 31.3703L13.6211 31.3602L13.6209 31.36L13.6203 31.359L13.62 31.3586L13.6181 31.3556C11.7716 28.6032 10.6939 25.2924 10.6939 21.7274C10.6939 12.1696 18.4421 4.42147 27.9998 4.42147C31.4553 4.42147 34.6387 6.28727 36.983 9.41292C39.3274 12.5388 40.7988 16.8902 40.7988 21.7274C40.7988 25.3326 39.9808 28.671 38.5914 31.4335L28.7583 50.9779Z" fill="#EC72A5" stroke="black" stroke-width="1.44444"/>
<path d="M36.2918 21.7274C36.2918 26.3068 32.5794 30.0192 27.9999 30.0192C23.4205 30.0192 19.7081 26.3068 19.7081 21.7274C19.7081 17.1479 23.4205 13.4355 27.9999 13.4355C32.5794 13.4355 36.2918 17.1479 36.2918 21.7274Z" fill="white" stroke="black" stroke-width="1.44444"/>
<path d="M31.785 21.7274C31.785 23.8177 30.0905 25.5122 28.0002 25.5122C25.9099 25.5122 24.2154 23.8177 24.2154 21.7274C24.2154 19.6371 25.9099 17.9426 28.0002 17.9426C30.0905 17.9426 31.785 19.6371 31.785 21.7274Z" fill="#57B3FE" stroke="black" stroke-width="1.44444"/>
</svg>
