<svg width="180" height="180" viewBox="0 0 180 180" fill="none" xmlns="http://www.w3.org/2000/svg">
<path d="M140.282 152.21L140.046 152.06L139.794 152.183C135.92 154.081 131.568 155.148 126.986 155.148H33.6836C33.1077 155.148 32.6406 154.681 32.6406 154.105V138.675C32.6406 138.099 33.1077 137.632 33.6836 137.632H44.3754H45.3223L44.7884 136.85C40.9301 131.199 37.7485 124.777 37.7485 119.015C37.7485 111.225 42.3762 104.518 49.0328 101.483L49.4799 101.279L49.2838 100.829C48.0437 97.9787 47.3401 94.8447 47.308 91.5444C47.1847 78.8226 56.9226 68.3086 69.329 67.1839L70.2374 67.1015L69.6793 66.38C67.2183 63.1982 64.7644 59.572 62.9277 55.8435C61.0886 52.1104 59.8845 48.3076 59.8845 44.7637C59.8845 34.1246 68.5092 25.4999 79.1483 25.4999C85.766 25.4999 91.603 28.8373 95.0719 33.9223L95.2208 34.1405H95.485H115.267C129.112 34.1405 140.625 45.1462 140.838 58.972C140.894 62.6038 140.175 66.0628 138.841 69.2007L138.65 69.6502L139.095 69.8517C145.774 72.8776 150.421 79.5963 150.421 87.4033C150.421 92.5088 147.923 98.1372 144.66 103.296L144.416 103.681L144.777 103.959C151.621 109.242 156.011 117.551 155.921 126.864C155.879 131.24 154.837 135.37 153.017 139.052L152.893 139.302L153.041 139.539C153.926 140.955 154.439 142.627 154.439 144.42C154.439 148.728 151.486 152.346 147.492 153.359L147.115 153.455V153.844V160.391C147.115 161.001 146.592 161.489 145.968 161.429C145.45 161.38 145.029 160.902 145.029 160.325V154.116V153.65L144.564 153.617C142.996 153.507 141.537 153.006 140.282 152.21ZM112.029 85.1526L112.094 84.5947H111.532H71.6853C68.0697 84.5947 64.965 87.4014 64.8271 91.0468C64.6824 94.8647 67.7461 98.0165 71.5329 98.0165H113.926H114.702L114.381 97.3098C112.858 93.9553 111.894 90.5752 111.894 87.4039C111.894 86.6437 111.942 85.8935 112.029 85.1526ZM88.699 66.2738L88.078 67.0791H89.0949H115.437C119.595 67.0791 123.162 63.8515 123.32 59.6645C123.485 55.2776 119.965 51.6567 115.614 51.6567H97.4853H97.1329L97.0144 51.9886C95.2297 56.9874 91.9805 62.0178 88.699 66.2738ZM76.5515 115.532H75.9702L76.0572 116.107C76.2007 117.056 76.2759 118.027 76.2759 119.016C76.2759 124.778 73.094 131.199 69.236 136.85L68.7021 137.632H69.6489H127.147C133.316 137.632 138.511 132.585 138.405 126.391C138.344 122.758 136.518 119.55 133.756 117.581L133.407 117.332L133.108 117.639C133.017 117.733 132.928 117.823 132.842 117.911L132.841 117.911C131.915 118.853 130.399 118.853 129.473 117.911L129.117 118.262L129.473 117.911C129.118 117.551 128.724 117.144 128.3 116.698L127.748 116.117L127.469 116.869C126.424 119.687 124.042 121.855 121.095 122.603L120.718 122.698V123.087V129.634C120.718 130.211 120.251 130.677 119.675 130.677C119.098 130.677 118.632 130.211 118.632 129.634V123.359V122.893L118.167 122.86C114.141 122.578 110.826 119.714 109.874 115.911L109.779 115.532H109.389H76.5515Z" fill="#1F201E" stroke="#1F201E"/>
<path d="M32.6406 143.147C32.6982 143.178 32.7614 143.214 32.8279 143.255C33.0881 143.415 33.4384 143.671 33.6846 144.024C33.9432 144.394 34.0981 144.894 33.8843 145.461C33.7056 145.934 33.2945 146.382 32.6406 146.818V153.759H126.987C142.721 153.759 155.769 141.192 155.92 125.474C156.075 109.595 143.2 96.6289 127.357 96.6289H71.5326C67.7446 96.6289 64.6806 93.4753 64.8271 89.6574C64.8271 89.6573 64.8271 89.6572 64.8271 89.657L65.3268 89.6762C65.4533 86.3156 68.3201 83.7049 71.6838 83.7049H115.612C129.884 83.7049 141.478 72.0278 141.339 57.7245C141.201 43.5631 129.449 32.2532 115.285 32.2532L32.6406 143.147ZM32.6406 143.147V136.243H127.147C133.314 136.243 138.508 131.197 138.405 125.002L138.405 125.002C138.301 118.996 133.386 114.145 127.357 114.145H71.8473C58.5012 114.145 47.435 103.485 47.308 90.156L47.308 90.1558C47.175 76.6894 58.0933 65.6893 71.5326 65.6893H115.436C119.596 65.6893 123.162 62.4623 123.32 58.2742L123.32 58.274C123.485 53.8881 119.964 50.2688 115.612 50.2688H88.6534V32.7532L32.6406 143.147Z" fill="#FFE900" stroke="#1F201E"/>
<path d="M32.1406 145.001H127.357C138.297 145.001 147.165 136.133 147.165 125.193C147.165 114.254 138.296 105.386 127.357 105.386H71.5329C62.9898 105.386 56.064 98.4601 56.064 89.9166C56.064 81.3735 62.9895 74.4478 71.5329 74.4478H115.614C124.71 74.4478 132.083 67.0743 132.083 57.9788C132.083 48.8833 124.71 41.5098 115.614 41.5098H88.154" stroke="#1F201E" stroke-miterlimit="10"/>
<path d="M32.1406 154.259H126.986C142.989 154.259 156.266 141.481 156.421 125.48C156.578 109.322 143.48 96.1274 127.357 96.1274H71.5329C68.0285 96.1274 65.1928 93.2099 65.3268 89.6766C65.4539 86.3157 68.3223 83.7056 71.6853 83.7056H115.614C129.884 83.7056 141.478 72.0266 141.34 57.7248C141.202 43.5616 129.45 32.252 115.286 32.252H95.5479" stroke="#1F201E" stroke-miterlimit="10" stroke-linecap="round" stroke-linejoin="round"/>
<path d="M105.207 50.7675H115.614C119.683 50.7675 122.975 54.154 122.82 58.2564C122.673 62.1589 119.342 65.1899 115.437 65.1899H71.5329C57.8174 65.1899 46.6744 76.4146 46.8078 90.1603C46.9398 103.773 58.2353 114.643 71.8486 114.643H127.357C133.114 114.643 137.808 119.277 137.905 125.011C138.006 130.913 133.049 135.743 127.147 135.743H32.1406" stroke="#1F201E" stroke-miterlimit="10" stroke-linecap="round" stroke-linejoin="round"/>
<path d="M98.9102 43.3748C98.9102 55.0542 86.2366 69.1004 81.1871 74.2332C80.0651 75.3738 78.228 75.3738 77.1059 74.2332C72.0564 69.1004 59.3828 55.0542 59.3828 43.3748C59.3828 32.4596 68.2314 23.611 79.1467 23.611C90.0619 23.611 98.9102 32.4599 98.9102 43.3748Z" fill="#EC72A5"/>
<path d="M76.1183 41.2449C76.1183 43.8481 74.9283 45.389 72.7574 45.389C70.5867 45.389 69.3965 43.8481 69.3965 41.2449C69.3965 38.6416 70.5864 35.9614 72.7574 35.9614C74.9283 35.9617 76.1183 38.6416 76.1183 41.2449Z" stroke="#E4E9F2" stroke-miterlimit="10" stroke-linecap="round" stroke-linejoin="round"/>
<path d="M72.7578 45.7469V55.379" stroke="#E4E9F2" stroke-miterlimit="10" stroke-linecap="round" stroke-linejoin="round"/>
<path d="M80.6133 35.9617V40.1058C80.6133 42.7091 82.08 44.2499 84.7552 44.2499C87.4304 44.2499 88.8972 42.7091 88.8972 40.1058V35.9617" stroke="#E4E9F2" stroke-miterlimit="10" stroke-linecap="round" stroke-linejoin="round"/>
<path d="M84.7539 44.6076V55.3791" stroke="#E4E9F2" stroke-miterlimit="10" stroke-linecap="round" stroke-linejoin="round"/>
<path d="M84.7539 35.9617V44.2496" stroke="#E4E9F2" stroke-miterlimit="10" stroke-linecap="round" stroke-linejoin="round"/>
<path d="M98.9102 43.3748C98.9102 55.0542 86.2366 69.1004 81.1871 74.2332C80.065 75.3738 78.228 75.3738 77.1059 74.2332C72.0564 69.1004 59.3828 55.0542 59.3828 43.3748C59.3828 32.4596 68.2314 23.611 79.1467 23.611C90.0619 23.611 98.9102 32.4599 98.9102 43.3748Z" stroke="#1F201E" stroke-miterlimit="10" stroke-linecap="round" stroke-linejoin="round"/>
<path d="M150.42 86.0147C150.42 91.6974 147.326 98.0231 143.538 103.619C139.762 109.196 135.355 113.967 132.84 116.522C131.914 117.464 130.398 117.464 129.472 116.522C126.958 113.967 122.55 109.196 118.775 103.619C114.987 98.0231 111.893 91.6974 111.893 86.0147C111.893 75.3756 120.517 66.7509 131.156 66.7509C141.796 66.7509 150.42 75.3756 150.42 86.0147Z" fill="#EC72A5" stroke="#1F201E"/>
<path d="M144.717 86.1169C144.717 93.6056 138.646 99.6764 131.157 99.6764C123.668 99.6764 117.598 93.6056 117.598 86.1169C117.598 78.6282 123.668 72.5574 131.157 72.5574C138.646 72.5574 144.717 78.6282 144.717 86.1169Z" fill="white" stroke="#1F201E"/>
<path d="M35.1209 87.0268V80.4794C39.3308 79.4113 42.4457 75.5974 42.4457 71.0553C42.4457 65.6854 38.0927 61.3324 32.7229 61.3324C27.353 61.3324 23 65.6854 23 71.0553C23 76.1933 26.9864 80.3979 32.035 80.7513V87.0268C32.035 87.8791 32.7256 88.5698 33.578 88.5698C34.4303 88.5698 35.1209 87.8791 35.1209 87.0268Z" fill="#1F201E"/>
<path d="M32.7229 78.4457C38.0926 78.4457 42.4457 74.0926 42.4457 68.7229C42.4457 63.3531 38.0926 59 32.7229 59C27.3531 59 23 63.3531 23 68.7229C23 74.0926 27.3531 78.4457 32.7229 78.4457Z" fill="#62BDF2"/>
<path d="M32.7229 78.4457C38.0926 78.4457 42.4457 74.0926 42.4457 68.7229C42.4457 63.3531 38.0926 59 32.7229 59C27.3531 59 23 63.3531 23 68.7229C23 74.0926 27.3531 78.4457 32.7229 78.4457Z" stroke="#1F201E" stroke-miterlimit="10" stroke-linecap="round" stroke-linejoin="round"/>
<path d="M29.7891 69.0491L33.5789 73.0864" stroke="#1F201E" stroke-miterlimit="10" stroke-linecap="round" stroke-linejoin="round"/>
<path d="M33.5781 67.2817V84.6941" stroke="#1F201E" stroke-miterlimit="10" stroke-linecap="round" stroke-linejoin="round"/>
<path d="M145.215 152.754C150.585 152.754 154.938 148.401 154.938 143.031C154.938 137.661 150.585 133.308 145.215 133.308C139.845 133.308 135.492 137.661 135.492 143.031C135.492 148.401 139.845 152.754 145.215 152.754Z" fill="#62BDF2"/>
<path d="M145.215 152.754C150.585 152.754 154.938 148.401 154.938 143.031C154.938 137.661 150.585 133.308 145.215 133.308C139.845 133.308 135.492 137.661 135.492 143.031C135.492 148.401 139.845 152.754 145.215 152.754Z" stroke="#1F201E" stroke-miterlimit="10" stroke-linecap="round" stroke-linejoin="round"/>
<path d="M142.281 143.357L146.071 147.395" stroke="#1F201E" stroke-miterlimit="10" stroke-linecap="round" stroke-linejoin="round"/>
<path d="M146.07 141.59V159.002" stroke="#1F201E" stroke-miterlimit="10" stroke-linecap="round" stroke-linejoin="round"/>
<path d="M118.819 121.997C124.188 121.997 128.541 117.644 128.541 112.274C128.541 106.904 124.188 102.551 118.819 102.551C113.449 102.551 109.096 106.904 109.096 112.274C109.096 117.644 113.449 121.997 118.819 121.997Z" fill="#62BDF2"/>
<path d="M118.819 121.997C124.188 121.997 128.541 117.644 128.541 112.274C128.541 106.904 124.188 102.551 118.819 102.551C113.449 102.551 109.096 106.904 109.096 112.274C109.096 117.644 113.449 121.997 118.819 121.997Z" stroke="#1F201E" stroke-miterlimit="10" stroke-linecap="round" stroke-linejoin="round"/>
<path d="M115.883 112.6L119.673 116.638" stroke="#1F201E" stroke-miterlimit="10" stroke-linecap="round" stroke-linejoin="round"/>
<path d="M119.672 110.833V128.245" stroke="#1F201E" stroke-miterlimit="10" stroke-linecap="round" stroke-linejoin="round"/>
<path d="M76.2755 117.626C76.2755 123.309 73.1811 129.635 69.3934 135.23C65.6178 140.808 61.2104 145.578 58.6959 148.134C57.7698 149.076 56.2538 149.076 55.3276 148.134C52.8132 145.578 48.4057 140.808 44.6301 135.23C40.8424 129.635 37.748 123.309 37.748 117.626C37.748 106.987 46.3728 98.3625 57.0119 98.3625C67.651 98.3625 76.2755 106.988 76.2755 117.626Z" fill="#EC72A5" stroke="#1F201E"/>
<path d="M70.5722 117.729C70.5722 125.218 64.5014 131.288 57.0126 131.288C49.5239 131.288 43.4531 125.218 43.4531 117.729C43.4531 110.24 49.5239 104.169 57.0126 104.169C64.5014 104.169 70.5722 110.24 70.5722 117.729Z" fill="white" stroke="#1F201E"/>
<mask id="path-30-inside-1_1692_6991" fill="white">
<path d="M66.9391 114.457L66.6592 114.351C65.5072 113.913 64.2367 113.904 63.0789 114.326L51.112 118.681L48.2309 116.857C48.1251 116.79 47.9939 116.776 47.8764 116.819L46.7858 117.216C46.5408 117.305 46.4429 117.6 46.5858 117.817L48.9034 121.355C49.4372 122.171 50.4621 122.511 51.3777 122.178L57.02 120.124C57.2545 120.039 57.5005 120.218 57.4912 120.468L57.2875 125.882C57.2767 126.169 57.56 126.376 57.83 126.278L59.5001 125.67C59.6143 125.628 59.7038 125.537 59.7439 125.422L62.1898 118.381C62.2244 118.281 62.3022 118.202 62.4015 118.166L66.0186 116.849C66.6117 116.633 67.1073 116.215 67.4193 115.67C67.476 115.571 67.5048 115.458 67.5048 115.343V115.277C67.5048 114.912 67.2798 114.586 66.9391 114.457Z"/>
</mask>
<path d="M66.9391 114.457L66.6592 114.351C65.5072 113.913 64.2367 113.904 63.0789 114.326L51.112 118.681L48.2309 116.857C48.1251 116.79 47.9939 116.776 47.8764 116.819L46.7858 117.216C46.5408 117.305 46.4429 117.6 46.5858 117.817L48.9034 121.355C49.4372 122.171 50.4621 122.511 51.3777 122.178L57.02 120.124C57.2545 120.039 57.5005 120.218 57.4912 120.468L57.2875 125.882C57.2767 126.169 57.56 126.376 57.83 126.278L59.5001 125.67C59.6143 125.628 59.7038 125.537 59.7439 125.422L62.1898 118.381C62.2244 118.281 62.3022 118.202 62.4015 118.166L66.0186 116.849C66.6117 116.633 67.1073 116.215 67.4193 115.67C67.476 115.571 67.5048 115.458 67.5048 115.343V115.277C67.5048 114.912 67.2798 114.586 66.9391 114.457Z" fill="#FFE900"/>
<path d="M66.9391 114.457L67.2939 113.522L67.2937 113.522L66.9391 114.457ZM66.6592 114.351L66.3043 115.286L66.3046 115.286L66.6592 114.351ZM63.0789 114.326L63.4209 115.266L63.421 115.266L63.0789 114.326ZM51.112 118.681L50.577 119.526L50.9922 119.789L51.454 119.621L51.112 118.681ZM48.2309 116.857L48.7659 116.013L48.7656 116.012L48.2309 116.857ZM47.8764 116.819L48.2183 117.759L48.2191 117.759L47.8764 116.819ZM46.7858 117.216L46.4438 116.276L46.4438 116.276L46.7858 117.216ZM46.5858 117.817L47.4223 117.269L47.422 117.269L46.5858 117.817ZM48.9034 121.355L49.74 120.808L49.7399 120.808L48.9034 121.355ZM51.3777 122.178L51.0356 121.238L51.0356 121.238L51.3777 122.178ZM57.02 120.124L56.6786 119.184L56.678 119.184L57.02 120.124ZM57.4912 120.468L58.4905 120.505L58.4905 120.505L57.4912 120.468ZM57.2875 125.882L58.2868 125.92L58.2868 125.92L57.2875 125.882ZM57.83 126.278L58.1716 127.217L58.1721 127.217L57.83 126.278ZM59.5001 125.67L59.8422 126.609L59.8429 126.609L59.5001 125.67ZM59.7439 125.422L60.688 125.752L60.6886 125.751L59.7439 125.422ZM62.1898 118.381L63.1345 118.709L63.1347 118.708L62.1898 118.381ZM62.4015 118.166L62.7431 119.106L62.7436 119.106L62.4015 118.166ZM66.0186 116.849L66.3606 117.789L66.3608 117.789L66.0186 116.849ZM67.4193 115.67L68.287 116.167L68.2875 116.166L67.4193 115.67ZM67.5048 115.277H66.5048H67.5048ZM67.2937 113.522L67.0138 113.416L66.3046 115.286L66.5845 115.392L67.2937 113.522ZM67.0141 113.416C65.638 112.893 64.1202 112.883 62.7368 113.386L63.421 115.266C64.3533 114.926 65.3764 114.933 66.3043 115.286L67.0141 113.416ZM62.7369 113.386L50.77 117.742L51.454 119.621L63.4209 115.266L62.7369 113.386ZM51.6469 117.837L48.7659 116.013L47.696 117.702L50.577 119.526L51.6469 117.837ZM48.7656 116.012C48.3983 115.78 47.9431 115.73 47.5336 115.88L48.2191 117.759C48.0448 117.822 47.8519 117.801 47.6963 117.702L48.7656 116.012ZM47.5344 115.879L46.4438 116.276L47.1277 118.156L48.2183 117.759L47.5344 115.879ZM46.4438 116.276C45.5932 116.586 45.2527 117.608 45.7496 118.366L47.422 117.269C47.6332 117.591 47.4883 118.024 47.1278 118.156L46.4438 116.276ZM45.7493 118.365L48.0668 121.903L49.7399 120.808L47.4223 117.269L45.7493 118.365ZM48.0668 121.903C48.8551 123.107 50.3681 123.61 51.7197 123.118L51.0356 121.238C50.556 121.413 50.0194 121.234 49.74 120.808L48.0668 121.903ZM51.7197 123.118L57.362 121.064L56.678 119.184L51.0356 121.238L51.7197 123.118ZM57.3613 121.064C56.9287 121.221 56.4748 120.89 56.4919 120.431L58.4905 120.505C58.5261 119.547 57.5803 118.857 56.6786 119.184L57.3613 121.064ZM56.4919 120.43L56.2882 125.845L58.2868 125.92L58.4905 120.505L56.4919 120.43ZM56.2882 125.845C56.2507 126.841 57.2348 127.558 58.1716 127.217L57.4885 125.338C57.8852 125.193 58.3027 125.497 58.2868 125.92L56.2882 125.845ZM58.1721 127.217L59.8422 126.609L59.1581 124.73L57.488 125.338L58.1721 127.217ZM59.8429 126.609C60.2388 126.465 60.549 126.15 60.688 125.752L58.7999 125.093C58.8587 124.924 58.9898 124.791 59.1574 124.73L59.8429 126.609ZM60.6886 125.751L63.1345 118.709L61.2452 118.053L58.7993 125.094L60.6886 125.751ZM63.1347 118.708C63.0706 118.893 62.9268 119.039 62.7431 119.106L62.06 117.226C61.6776 117.365 61.3782 117.669 61.245 118.053L63.1347 118.708ZM62.7436 119.106L66.3606 117.789L65.6765 115.91L62.0595 117.226L62.7436 119.106ZM66.3608 117.789C67.1763 117.492 67.8579 116.916 68.287 116.167L66.5515 115.173C66.3567 115.513 66.047 115.775 65.6763 115.91L66.3608 117.789ZM68.2875 116.166C68.4344 115.909 68.5048 115.624 68.5048 115.343H66.5048C66.5048 115.291 66.5177 115.232 66.551 115.174L68.2875 116.166ZM68.5048 115.343V115.277H66.5048V115.343H68.5048ZM68.5048 115.277C68.5048 114.497 68.0234 113.799 67.2939 113.522L66.5843 115.392C66.5361 115.374 66.5048 115.327 66.5048 115.277H68.5048Z" fill="#1F201E" mask="url(#path-30-inside-1_1692_6991)"/>
<path d="M53.6721 112.439L57.4575 114.699L54.6557 115.719L52.1783 112.983L53.6721 112.439ZM52.0446 113.031L52.0447 113.031L52.0446 113.031ZM57.63 114.802C57.6299 114.802 57.6298 114.802 57.6298 114.802L57.6299 114.802L57.63 114.802Z" fill="#FFE900" stroke="#1F201E"/>
</svg>
