<svg width="80" height="80" viewBox="0 0 80 80" fill="none" xmlns="http://www.w3.org/2000/svg">
<g clip-path="url(#clip0_208_1673)">
<path d="M12.4254 46.3883L12.4227 46.3894C11.7381 46.6763 10.9481 46.52 10.4148 45.9888C10.4147 45.9887 10.4146 45.9887 10.4145 45.9886L1.0402 36.6161C1.04019 36.616 1.04018 36.616 1.04016 36.616C0.319938 35.8958 0.319945 34.7292 1.04019 34.009C1.04019 34.009 1.04019 34.009 1.0402 34.009L10.4137 24.636C10.414 24.6358 10.4142 24.6355 10.4145 24.6353C10.9471 24.1075 11.735 23.9478 12.4236 24.2347L12.4254 24.2355C13.1136 24.5192 13.5625 25.1923 13.5625 25.9381V30.625V31.125H14.0625H25.9375C36.0001 31.125 44.1875 39.3124 44.1875 49.375V77.6562C44.1875 78.6758 43.3633 79.5 42.3437 79.5H37.6562C36.6371 79.5 35.8125 78.6758 35.8125 77.6562V49.375C35.8125 43.9286 31.3845 39.5 25.9375 39.5H14.0625H13.5625V40V44.6857C13.5625 45.4315 13.1136 46.1046 12.4254 46.3883Z" fill="#FFD400" stroke="black"/>
<path d="M44.6874 13.5625H44.1874V14.0625V27.6007C42.6862 28.2904 41.3024 29.1579 39.9999 30.1203C38.6974 29.1579 37.3136 28.2904 35.8124 27.6007V14.0625V13.5625H35.3124H30.6255C29.8797 13.5625 29.2066 13.1137 28.9229 12.4254L28.9223 12.424C28.6359 11.7352 28.7939 10.9433 29.322 10.4152L29.322 10.4152L38.6964 1.04023C38.6964 1.04022 38.6964 1.04022 38.6964 1.04022C39.0566 0.679949 39.5278 0.500031 39.9999 0.500031C40.4725 0.500031 40.9431 0.679901 41.3034 1.04022C41.3034 1.04022 41.3035 1.04022 41.3035 1.04023L50.6778 10.4152L50.6778 10.4152C51.2059 10.9433 51.3639 11.7352 51.0775 12.424L51.0769 12.4254C50.7932 13.1137 50.1201 13.5625 49.3743 13.5625H44.6874Z" stroke="black"/>
<path d="M67.5745 24.2355L67.5762 24.2347C68.2648 23.9478 69.0527 24.1075 69.5854 24.6353C69.5856 24.6355 69.5859 24.6358 69.5861 24.636L78.9596 34.009C79.6799 34.7292 79.6799 35.8957 78.9597 36.616C78.9597 36.616 78.9597 36.616 78.9596 36.6161L69.5853 45.9886C69.5851 45.9887 69.585 45.9889 69.5848 45.989C69.0515 46.5201 68.2622 46.6763 67.577 46.3894L67.5745 46.3883C66.8862 46.1046 66.4374 45.4315 66.4374 44.6857V40V39.5H65.9374H54.0624C51.929 39.5 49.979 40.2057 48.3743 41.3572C47.4107 38.6641 45.9972 36.2028 44.1901 34.0519C47.0404 32.2068 50.4244 31.125 54.0624 31.125H65.9374H66.4374V30.625V25.9381C66.4374 25.1923 66.8862 24.5192 67.5745 24.2355Z" fill="#EC72A5" stroke="black"/>
</g>
<defs>
<clipPath id="clip0_208_1673">
<rect width="80" height="80" fill="white"/>
</clipPath>
</defs>
</svg>
