<svg width="80" height="80" viewBox="0 0 80 80" fill="none" xmlns="http://www.w3.org/2000/svg">
<circle cx="39.9997" cy="52.7262" r="24.0341" stroke="black"/>
<mask id="path-2-inside-1_208_1678" fill="white">
<path fill-rule="evenodd" clip-rule="evenodd" d="M47.7413 36.8302C48.658 38.3886 54.3694 38.656 58.5274 36.6433C54.0292 31.4657 47.3967 28.1921 39.9996 28.1921C31.4758 28.1921 23.9672 32.5389 19.5697 39.1368C21.3478 42.3265 21.6707 44.9287 21.9154 46.9003C22.1064 48.4391 22.2497 49.5938 22.9999 50.3439C23.2826 50.6266 23.6012 50.9021 23.912 51.1708L23.912 51.1708C25.6397 52.6648 27.1238 53.9481 20.8363 55.0834C18.8001 55.451 17.0453 55.3844 15.5769 55.0801C16.6372 66.2194 25.1458 75.1871 36.0664 76.9468C35.4617 74.4024 35.4318 71.5331 37.3757 70.062C39.9018 68.1504 39.879 67.5132 39.8259 66.0264C39.7994 65.283 39.7652 64.3272 40.0383 62.8935C40.7441 59.1881 43.3501 62.3992 45.5644 65.1276C45.9204 65.5662 46.2663 65.9924 46.5925 66.3753C48.9478 69.1403 54.0682 66.3753 56.3211 64.7368C57.9276 63.5684 58.2845 64.6912 58.654 68.6623C61.7132 65.0847 63.7612 60.6165 64.3553 55.7004C57.2355 53.8886 47.7413 51.0923 47.7413 49.543C47.7413 48.268 48.3997 47.4457 49.1294 46.5341C49.7297 45.7843 50.3784 44.974 50.7486 43.8017C51.1238 42.6137 49.6112 42.5411 47.6239 42.4458C45.2666 42.3327 42.2415 42.1876 40.9065 40.1109C38.4459 36.2835 46.3743 34.5064 47.7413 36.8302ZM30.5144 61.255C28.3639 58.8996 28.0569 55.1105 29.6953 53.2672C30.4561 52.4113 31.4818 52.1294 32.7314 51.786C34.1732 51.3899 35.913 50.9117 37.8879 49.3757C41.5746 46.5083 43.8275 53.5744 41.4722 55.1105C40.646 55.6493 39.6561 55.9865 38.6482 56.3299C36.7826 56.9654 34.8554 57.6218 33.7916 59.6164C32.4808 62.0742 31.0607 61.7329 30.5144 61.255Z"/>
</mask>
<path fill-rule="evenodd" clip-rule="evenodd" d="M47.7413 36.8302C48.658 38.3886 54.3694 38.656 58.5274 36.6433C54.0292 31.4657 47.3967 28.1921 39.9996 28.1921C31.4758 28.1921 23.9672 32.5389 19.5697 39.1368C21.3478 42.3265 21.6707 44.9287 21.9154 46.9003C22.1064 48.4391 22.2497 49.5938 22.9999 50.3439C23.2826 50.6266 23.6012 50.9021 23.912 51.1708L23.912 51.1708C25.6397 52.6648 27.1238 53.9481 20.8363 55.0834C18.8001 55.451 17.0453 55.3844 15.5769 55.0801C16.6372 66.2194 25.1458 75.1871 36.0664 76.9468C35.4617 74.4024 35.4318 71.5331 37.3757 70.062C39.9018 68.1504 39.879 67.5132 39.8259 66.0264C39.7994 65.283 39.7652 64.3272 40.0383 62.8935C40.7441 59.1881 43.3501 62.3992 45.5644 65.1276C45.9204 65.5662 46.2663 65.9924 46.5925 66.3753C48.9478 69.1403 54.0682 66.3753 56.3211 64.7368C57.9276 63.5684 58.2845 64.6912 58.654 68.6623C61.7132 65.0847 63.7612 60.6165 64.3553 55.7004C57.2355 53.8886 47.7413 51.0923 47.7413 49.543C47.7413 48.268 48.3997 47.4457 49.1294 46.5341C49.7297 45.7843 50.3784 44.974 50.7486 43.8017C51.1238 42.6137 49.6112 42.5411 47.6239 42.4458C45.2666 42.3327 42.2415 42.1876 40.9065 40.1109C38.4459 36.2835 46.3743 34.5064 47.7413 36.8302ZM30.5144 61.255C28.3639 58.8996 28.0569 55.1105 29.6953 53.2672C30.4561 52.4113 31.4818 52.1294 32.7314 51.786C34.1732 51.3899 35.913 50.9117 37.8879 49.3757C41.5746 46.5083 43.8275 53.5744 41.4722 55.1105C40.646 55.6493 39.6561 55.9865 38.6482 56.3299C36.7826 56.9654 34.8554 57.6218 33.7916 59.6164C32.4808 62.0742 31.0607 61.7329 30.5144 61.255Z" fill="#FFD400"/>
<path d="M58.5274 36.6433L58.9631 37.5433L60.1394 36.9739L59.2823 35.9874L58.5274 36.6433ZM47.7413 36.8302L48.6033 36.3232V36.3232L47.7413 36.8302ZM19.5697 39.1368L18.7376 38.5822L18.3989 39.0903L18.6963 39.6237L19.5697 39.1368ZM21.9154 46.9003L22.9078 46.7772L21.9154 46.9003ZM22.9999 50.3439L22.2928 51.051L22.9999 50.3439ZM23.912 51.1708L23.2579 51.9272L23.2723 51.9397L23.2873 51.9517L23.912 51.1708ZM23.912 51.1708L24.5661 50.4144L24.5516 50.4019L24.5367 50.3899L23.912 51.1708ZM20.8363 55.0834L21.014 56.0674L20.8363 55.0834ZM15.5769 55.0801L15.7799 54.1009L14.453 53.8259L14.5814 55.1748L15.5769 55.0801ZM36.0664 76.9468L35.9073 77.9341L37.3855 78.1723L37.0393 76.7156L36.0664 76.9468ZM37.3757 70.062L36.7723 69.2646H36.7723L37.3757 70.062ZM39.8259 66.0264L38.8265 66.0621L39.8259 66.0264ZM40.0383 62.8935L39.056 62.7064L40.0383 62.8935ZM45.5644 65.1276L46.3409 64.4975L45.5644 65.1276ZM46.5925 66.3753L45.8312 67.0238V67.0238L46.5925 66.3753ZM56.3211 64.7368L56.9093 65.5455L56.3211 64.7368ZM58.654 68.6623L57.6583 68.755L57.8774 71.1092L59.4141 69.3122L58.654 68.6623ZM64.3553 55.7004L65.3481 55.8204L65.4535 54.948L64.6019 54.7313L64.3553 55.7004ZM49.1294 46.5341L48.3488 45.9092L49.1294 46.5341ZM50.7486 43.8017L49.795 43.5006V43.5006L50.7486 43.8017ZM47.6239 42.4458L47.6718 41.447L47.6239 42.4458ZM40.9065 40.1109L40.0653 40.6517V40.6517L40.9065 40.1109ZM29.6953 53.2672L30.4428 53.9315L29.6953 53.2672ZM30.5144 61.255L29.7759 61.9292L29.8137 61.9706L29.856 62.0076L30.5144 61.255ZM32.7314 51.786L32.4665 50.8218L32.7314 51.786ZM37.8879 49.3757L37.274 48.5864L37.8879 49.3757ZM41.4722 55.1105L42.0184 55.9481H42.0184L41.4722 55.1105ZM38.6482 56.3299L38.3257 55.3833L38.6482 56.3299ZM33.7916 59.6164L34.674 60.087L33.7916 59.6164ZM58.0917 35.7432C56.1735 36.6717 53.8618 37.0854 51.9238 37.0759C50.9563 37.0712 50.1242 36.9611 49.5087 36.7815C48.8391 36.5862 48.6308 36.37 48.6033 36.3232L46.8794 37.3373C47.3102 38.0697 48.1596 38.4713 48.9486 38.7015C49.7918 38.9475 50.8192 39.0706 51.914 39.0759C54.1004 39.0866 56.7234 38.6275 58.9631 37.5433L58.0917 35.7432ZM39.9996 29.1921C47.095 29.1921 53.4562 32.3309 57.7725 37.2991L59.2823 35.9874C54.6023 30.6006 47.6984 27.1921 39.9996 27.1921V29.1921ZM20.4018 39.6914C24.6218 33.36 31.8242 29.1921 39.9996 29.1921V27.1921C31.1274 27.1921 23.3127 31.7179 18.7376 38.5822L20.4018 39.6914ZM22.9078 46.7772C22.6597 44.7782 22.3193 42.0155 20.4432 38.6499L18.6963 39.6237C20.3763 42.6375 20.6817 45.0792 20.9231 47.0235L22.9078 46.7772ZM23.707 49.6368C23.5 49.4298 23.3414 49.1367 23.2141 48.6599C23.0821 48.1653 23.0059 47.567 22.9078 46.7772L20.9231 47.0235C21.016 47.7725 21.1069 48.5208 21.2818 49.1758C21.4614 49.8485 21.7496 50.5078 22.2928 51.051L23.707 49.6368ZM24.566 50.4144C24.2498 50.1409 23.9595 49.8893 23.707 49.6368L22.2928 51.051C22.6057 51.3639 22.9526 51.6633 23.2579 51.9272L24.566 50.4144ZM24.5367 50.3899L24.5367 50.3899L23.2873 51.9517L23.2873 51.9517L24.5367 50.3899ZM21.014 56.0674C22.61 55.7793 23.7816 55.4707 24.6015 55.1244C25.3649 54.8019 26.0971 54.3345 26.336 53.5545C26.5912 52.7213 26.147 52.0226 25.8195 51.6209C25.4688 51.1908 24.9764 50.7692 24.5661 50.4144L23.2579 51.9272C23.7114 52.3194 24.0524 52.6185 24.2694 52.8847C24.5096 53.1793 24.3674 53.1525 24.4237 52.9687C24.4637 52.8382 24.4959 52.9979 23.8233 53.282C23.207 53.5423 22.2063 53.8198 20.6586 54.0993L21.014 56.0674ZM15.3739 56.0593C16.9716 56.3904 18.8557 56.4571 21.014 56.0674L20.6586 54.0993C18.7445 54.4449 17.119 54.3785 15.7799 54.1009L15.3739 56.0593ZM36.2255 75.9595C25.7514 74.2718 17.5893 65.6685 16.5724 54.9853L14.5814 55.1748C15.6851 66.7703 24.5402 76.1024 35.9073 77.9341L36.2255 75.9595ZM36.7723 69.2646C35.5247 70.2087 34.9569 71.5759 34.7738 72.9718C34.5923 74.3561 34.7757 75.8408 35.0935 77.178L37.0393 76.7156C36.7524 75.5084 36.6186 74.2862 36.7568 73.2319C36.8936 72.1894 37.2828 71.3864 37.9792 70.8594L36.7723 69.2646ZM38.8265 66.0621C38.8543 66.8397 38.8451 67.1073 38.6806 67.4239C38.4891 67.7926 38.0268 68.3152 36.7723 69.2646L37.9792 70.8594C39.2507 69.8972 40.0401 69.1454 40.4554 68.3459C40.8978 67.4943 40.8506 66.6999 40.8253 65.9907L38.8265 66.0621ZM39.056 62.7064C38.7619 64.2503 38.7991 65.2942 38.8265 66.0621L40.8253 65.9907C40.7996 65.2718 40.7685 64.4041 41.0206 63.0806L39.056 62.7064ZM46.3409 64.4975C45.791 63.8198 45.1957 63.086 44.6078 62.4357C44.0285 61.795 43.4062 61.1781 42.7921 60.7669C42.2299 60.3905 41.3522 59.9734 40.4634 60.3903C39.6136 60.789 39.241 61.7349 39.056 62.7064L41.0206 63.0806C41.1885 62.1993 41.4064 62.1571 41.3128 62.201C41.1804 62.2631 41.2249 62.1245 41.6793 62.4288C42.0817 62.6982 42.5701 63.1641 43.1243 63.777C43.6699 64.3805 44.2307 65.0711 44.788 65.7578L46.3409 64.4975ZM47.3537 65.7269C47.0367 65.3547 46.6987 64.9383 46.3409 64.4975L44.788 65.7578C45.1422 66.1942 45.4958 66.6301 45.8312 67.0238L47.3537 65.7269ZM55.7329 63.9281C54.6588 64.7093 52.9191 65.7421 51.2109 66.2487C49.4494 66.771 48.1261 66.6336 47.3537 65.7269L45.8312 67.0238C47.4142 68.8821 49.8288 68.7446 51.7795 68.1661C53.7835 67.5718 55.7305 66.4028 56.9093 65.5455L55.7329 63.9281ZM59.6497 68.5696C59.5569 67.5726 59.4625 66.7259 59.3452 66.0406C59.2315 65.3766 59.0816 64.7668 58.834 64.302C58.5663 63.7996 58.0847 63.3075 57.3228 63.2989C56.7125 63.292 56.1611 63.6167 55.7329 63.9281L56.9093 65.5455C57.2844 65.2728 57.38 65.2997 57.3001 65.2988C57.0684 65.2961 57.0004 65.1139 57.0689 65.2425C57.1575 65.4088 57.2665 65.7512 57.3739 66.3781C57.4776 66.9836 57.5663 67.7665 57.6583 68.755L59.6497 68.5696ZM63.3625 55.5804C62.7928 60.2946 60.8292 64.5798 57.894 68.0124L59.4141 69.3122C62.5973 65.5895 64.7296 60.9383 65.3481 55.8204L63.3625 55.5804ZM46.7413 49.543C46.7413 50.2219 47.2235 50.6963 47.5224 50.9458C47.8806 51.2447 48.3562 51.5279 48.8834 51.7956C49.9475 52.3358 51.409 52.905 53.054 53.4692C56.3552 54.6013 60.5389 55.7611 64.1087 56.6695L64.6019 54.7313C61.0519 53.8279 56.9286 52.6836 53.7028 51.5773C52.0843 51.0223 50.7272 50.4887 49.7887 50.0122C49.3146 49.7715 48.9928 49.568 48.804 49.4103C48.5559 49.2033 48.7413 49.2514 48.7413 49.543H46.7413ZM48.3488 45.9092C47.6411 46.7931 46.7413 47.8725 46.7413 49.543H48.7413C48.7413 48.6636 49.1583 48.0982 49.9101 47.1591L48.3488 45.9092ZM49.795 43.5006C49.4874 44.4748 48.9529 45.1545 48.3488 45.9092L49.9101 47.1591C50.5065 46.414 51.2694 45.4733 51.7022 44.1029L49.795 43.5006ZM47.576 43.4447C48.628 43.4951 49.3484 43.5374 49.7778 43.6697C49.9863 43.7339 49.9423 43.7682 49.873 43.6671C49.7673 43.5127 49.8281 43.3957 49.795 43.5006L51.7022 44.1029C51.8566 43.6138 51.8691 43.0422 51.5232 42.537C51.2137 42.0852 50.7377 41.8726 50.3666 41.7583C49.6367 41.5335 48.6071 41.4918 47.6718 41.447L47.576 43.4447ZM40.0653 40.6517C40.9255 41.9898 42.2949 42.6427 43.6352 42.9838C44.9679 43.3231 46.4167 43.3891 47.576 43.4447L47.6718 41.447C46.4738 41.3895 45.2315 41.3264 44.1285 41.0456C43.0331 40.7668 42.2225 40.3088 41.7477 39.5702L40.0653 40.6517ZM48.6033 36.3232C48.0202 35.3321 46.8668 34.9429 45.8619 34.8304C44.8062 34.7123 43.6153 34.8578 42.5645 35.2178C41.5345 35.5707 40.4868 36.1836 39.8966 37.1261C39.591 37.6141 39.4138 38.1848 39.4384 38.8148C39.4628 39.4386 39.6822 40.0557 40.0653 40.6517L41.7477 39.5702C41.5156 39.2093 41.4446 38.9336 41.4369 38.7367C41.4294 38.546 41.4786 38.3681 41.5917 38.1875C41.8388 37.793 42.3973 37.3892 43.2127 37.1099C44.0072 36.8377 44.901 36.7354 45.6395 36.818C46.4287 36.9064 46.7789 37.1664 46.8794 37.3373L48.6033 36.3232ZM28.9479 52.6028C27.8875 53.7959 27.5307 55.5135 27.6886 57.1642C27.8481 58.8323 28.5417 60.5774 29.7759 61.9292L31.2529 60.5807C30.3367 59.5772 29.8015 58.25 29.6795 56.9739C29.5558 55.6804 29.8647 54.5819 30.4428 53.9315L28.9479 52.6028ZM32.4665 50.8218C31.275 51.1492 29.9386 51.4882 28.9479 52.6028L30.4428 53.9315C30.9735 53.3344 31.6886 53.1097 32.9964 52.7503L32.4665 50.8218ZM37.274 48.5864C35.4632 49.9947 33.8858 50.4318 32.4665 50.8218L32.9964 52.7503C34.4606 52.3479 36.3628 51.8288 38.5019 50.1651L37.274 48.5864ZM42.0184 55.9481C42.9761 55.3236 43.3475 54.2261 43.4214 53.2378C43.4972 52.2257 43.2858 51.1202 42.8557 50.1769C42.4326 49.2491 41.7294 48.336 40.7129 47.9204C39.6178 47.4728 38.4121 47.7012 37.274 48.5864L38.5019 50.1651C39.2071 49.6165 39.6654 49.6529 39.9561 49.7717C40.3253 49.9226 40.7294 50.3344 41.0359 51.0067C41.3354 51.6635 41.4761 52.4334 41.427 53.0885C41.3762 53.7676 41.1459 54.1294 40.9259 54.2729L42.0184 55.9481ZM38.9706 57.2765C39.9521 56.9421 41.068 56.568 42.0184 55.9481L40.9259 54.2729C40.224 54.7307 39.36 55.031 38.3257 55.3833L38.9706 57.2765ZM34.674 60.087C35.5258 58.4898 37.0506 57.9305 38.9706 57.2765L38.3257 55.3833C36.5145 56.0003 34.185 56.7538 32.9093 59.1459L34.674 60.087ZM29.856 62.0076C30.343 62.4337 31.1741 62.7652 32.1325 62.5005C33.0841 62.2377 33.9483 61.4478 34.674 60.087L32.9093 59.1459C32.3242 60.2429 31.8229 60.5111 31.6001 60.5727C31.3842 60.6323 31.2321 60.5541 31.1729 60.5023L29.856 62.0076Z" fill="black" mask="url(#path-2-inside-1_208_1678)"/>
<path d="M22.9673 8.48082L22.9673 8.48082C32.357 -0.908729 47.638 -0.902495 57.0321 8.49144L56.6785 8.845L57.0321 8.49145C57.799 9.25833 57.7991 10.5011 57.0324 11.2681C56.6492 11.6519 56.1453 11.8437 55.6437 11.8437C55.142 11.8437 54.6383 11.6519 54.255 11.2685C46.392 3.40583 33.6021 3.40127 25.7445 11.2576C25.7444 11.2577 25.7443 11.2577 25.7443 11.2578M22.9673 8.48082L23.3209 10.9042C23.8926 11.4759 24.8196 11.4759 25.3907 10.9042L25.7443 11.2578M22.9673 8.48082C22.2003 9.24783 22.2004 10.4906 22.9673 11.2577L22.9673 11.2578C23.7341 12.0246 24.9777 12.0249 25.7443 11.2578M22.9673 8.48082L25.7443 11.2578" fill="#FFD400" stroke="black"/>
<path d="M45.0606 19.554L45.0606 19.554C45.8275 20.3211 45.8276 21.5639 45.0606 22.3309C44.6775 22.7145 44.1737 22.9062 43.6722 22.9062C43.1708 22.9062 42.6668 22.7145 42.2836 22.3307C41.0231 21.0713 38.9743 21.0702 37.7164 22.3279C37.7163 22.328 37.7163 22.328 37.7162 22.3281M45.0606 19.554L37.7162 22.3281M45.0606 19.554C42.2695 16.7624 37.7288 16.7605 34.9392 19.5511L45.0606 19.554ZM37.7162 22.3281C36.9498 23.0951 35.7054 23.0951 34.9391 22.3279M37.7162 22.3281L34.9391 22.3279M34.9391 22.3279C34.1723 21.5609 34.1723 20.3181 34.9392 19.5512L34.9391 22.3279Z" fill="#DC437A" stroke="black"/>
<path d="M50.1579 13.8676L50.1579 13.8676C44.5564 8.26495 35.4423 8.26164 29.8419 13.8611L29.8418 13.8611C29.0749 14.6281 29.0749 15.8709 29.8416 16.6379C30.6082 17.4053 31.8517 17.4049 32.6187 16.6381L32.6188 16.6381C36.6865 12.5704 43.3092 12.5733 47.3811 16.6445C47.7643 17.0284 48.2681 17.2198 48.7695 17.2198C49.2712 17.2198 49.7746 17.0279 50.1578 16.6445C50.9249 15.8775 50.9248 14.6347 50.1579 13.8676Z" fill="#EC72A5" stroke="black"/>
</svg>
