<svg width="200" height="196" viewBox="0 0 200 196" fill="none" xmlns="http://www.w3.org/2000/svg">
<path d="M128.884 164.648V164.638L128.884 164.627L132.939 67.7459L51.54 68.1197V140.106C51.54 144.929 52.8271 149.667 55.2635 153.831C55.2635 153.831 55.2635 153.831 55.2635 153.831L59.6984 161.406C59.6985 161.406 59.6987 161.407 59.6988 161.407C60.1305 162.14 60.3567 162.976 60.3567 163.829V191.78C60.3567 193.726 61.934 195.303 63.8796 195.303H125.361C127.306 195.303 128.884 193.726 128.884 191.78V164.648Z" fill="#EC72A5" stroke="#1F201E"/>
<path d="M129.061 160.4L131.304 106.805H98.7313C89.0435 106.805 81.0821 114.582 81.0143 124.26V124.26C81.014 124.326 81.0136 124.391 81.0136 124.455H80.7077C81.0136 124.455 81.0136 124.455 81.0136 124.455V124.456V124.458V124.467V124.504L81.0136 124.646L81.0136 125.185L81.0136 127.112L81.0138 132.963L81.0141 138.828L81.0142 140.772L81.0143 141.322L81.0143 141.471L81.0143 141.51L81.0143 141.523C81.0143 141.523 81.0143 141.523 81.0143 141.523C81.0883 151.99 89.7 160.4 100.177 160.4H129.061Z" fill="#DC437A" stroke="#1F201E"/>
<path d="M117.683 88.3912L117.942 88.126L118.271 88.2969C120.802 89.611 123.671 90.3582 126.714 90.3582C128.561 90.3582 130.343 90.0817 132.025 89.5727L132.938 67.7459L51.5393 68.1197V97.8147C54.1171 99.1934 57.0577 99.9777 60.1798 99.9777C65.1372 99.9777 69.6391 98.0036 72.9516 94.8028L73.2166 94.5467L73.5397 94.724C76.1595 96.1621 79.1641 96.9816 82.3584 96.9816C87.3291 96.9816 91.8423 94.9961 95.1567 91.7786L95.4213 91.5218L95.7448 91.6986C98.3582 93.1272 101.353 93.9406 104.536 93.9406C109.683 93.9406 114.34 91.8128 117.683 88.3912Z" fill="#DC437A" stroke="#1F201E"/>
<path d="M119.227 42.5442L119.227 42.5445C117.312 44.4597 116.127 47.1077 116.127 50.0324V71.9687C116.127 77.8174 120.866 82.5559 126.714 82.5559C132.563 82.5559 137.302 77.8174 137.302 71.9687V50.0324C137.302 44.1834 132.563 39.4413 126.714 39.4413C123.79 39.4413 121.142 40.6254 119.227 42.5442Z" fill="#EC72A5" stroke="#1F201E"/>
<path d="M97.0491 46.1266L97.0488 46.1269C95.1337 48.0421 93.9495 50.6901 93.9495 53.6147V75.5511C93.9495 81.3998 98.6879 86.1383 104.537 86.1383C110.385 86.1383 115.124 81.3998 115.124 75.5511V53.6147C115.124 47.7658 110.385 43.0237 104.537 43.0237C101.612 43.0237 98.9641 44.2078 97.0491 46.1266Z" fill="#EC72A5" stroke="#1F201E"/>
<path d="M129.994 50.0324V71.9687C129.994 76.3844 127.525 80.2189 123.894 82.1741C124.791 82.4224 125.737 82.5559 126.714 82.5559C132.563 82.5559 137.301 77.8174 137.301 71.9687V50.0324C137.301 44.1834 132.563 39.4413 126.714 39.4413C125.736 39.4413 124.788 39.5742 123.889 39.8223C127.52 41.7786 129.994 45.6161 129.994 50.0324Z" fill="#DC437A" stroke="#1F201E"/>
<path d="M107.816 53.6147V75.5511C107.816 79.9668 105.347 83.8012 101.716 85.7564C102.614 86.0048 103.559 86.1383 104.537 86.1383C110.385 86.1383 115.124 81.3998 115.124 75.5511V53.6147C115.124 47.7658 110.385 43.0237 104.537 43.0237C103.559 43.0237 102.611 43.1564 101.712 43.4044C105.343 45.361 107.816 49.1986 107.816 53.6147Z" fill="#DC437A" stroke="#1F201E"/>
<path d="M128.883 164.648V164.638L128.884 164.627L129.836 141.873L112.343 161.69L112.314 195.303H125.36C127.306 195.303 128.883 193.726 128.883 191.78V164.648Z" fill="#DC437A" stroke="#1F201E"/>
<path d="M100.728 101.828L101.267 102.118L100.876 102.588L93.5107 111.455L93.5106 111.455C90.476 115.107 88.8159 119.706 88.8159 124.454V141.304C88.8159 153.92 99.0437 164.148 111.661 164.148H128.884V163.95V163.761L129.009 163.619L159.844 128.688C159.844 128.688 159.844 128.688 159.844 128.688C168.629 118.735 170.592 104.489 164.828 92.5336L165.278 92.3165L164.828 92.5336L156.409 75.0719L156.409 75.0718C152.324 66.5937 141.99 63.2347 133.697 67.6841L98.5864 86.5345C97.308 87.2214 96.2653 88.2239 95.5346 89.4209C94.8039 90.618 94.3888 92.0025 94.3594 93.454C94.3008 96.4612 95.9311 99.2483 98.5825 100.673L98.5828 100.673L100.728 101.828Z" fill="#EC72A5" stroke="#1F201E"/>
<path d="M92.6103 87.6359L93.0371 87.8964C94.0479 86.2406 95.4868 84.8788 97.1996 83.9579C98.8174 83.1091 100.442 82.2473 102.071 81.3831C114.169 74.965 126.516 68.4147 138.262 66.0477C145.464 64.5965 153.049 68.1 156.409 75.0719L156.409 75.072L164.828 92.5337L165.278 92.3165L164.828 92.5337C170.592 104.489 168.628 118.735 159.843 128.688C159.843 128.688 159.843 128.688 159.843 128.688L129.008 163.619L128.883 163.761V163.95V164.148H112.341L112.341 163.897C112.343 162.474 112.863 161.101 113.804 160.035L143.023 126.935L143.023 126.935C152.074 116.68 154.097 102.002 148.158 89.6842L139.739 72.2226C139.739 72.2225 139.739 72.2225 139.739 72.2225C139.672 72.0832 139.621 71.9743 139.58 71.8856C139.523 71.7646 139.484 71.6814 139.446 71.6109C139.383 71.4932 139.307 71.3811 139.159 71.1601C139.134 71.122 139.106 71.0807 139.076 71.0356L139.076 71.0355C138.361 69.9673 136.96 69.5822 135.809 70.193L135.809 70.1931C132.331 72.039 123.262 76.5442 115.053 80.5923C110.95 82.6154 107.066 84.5228 104.207 85.9245C102.777 86.6254 101.604 87.1998 100.788 87.5989L99.8454 88.0602L99.5987 88.1808L99.5356 88.2116L99.5197 88.2194L99.5157 88.2214L99.5147 88.2219C99.5145 88.222 99.5144 88.222 99.7339 88.6713L99.5144 88.222L99.5057 88.2263L99.4972 88.2308C98.5431 88.7436 97.7408 89.5019 97.1778 90.4246C96.615 91.3463 96.306 92.4077 96.2843 93.4909V93.4911C96.2393 95.786 97.4701 97.8891 99.495 98.9773L92.6103 87.6359ZM92.6103 87.6359L93.0371 87.8964C92.0277 89.5496 91.4734 91.4508 91.4335 93.3949C91.3527 97.5218 93.5601 101.296 97.1965 103.25L97.1967 103.251L101.799 105.727C101.799 105.727 101.799 105.727 101.799 105.727C105.967 107.967 110.573 109.091 115.183 109.091C119.5 109.091 123.819 108.105 127.785 106.128C127.785 106.128 127.785 106.128 127.785 106.128L138.322 100.873C139.539 100.267 140.1 98.8175 139.553 97.6325C138.976 96.3846 137.488 95.868 136.267 96.4771L125.62 101.787L125.62 101.787C118.829 105.172 110.783 105.047 104.097 101.454L104.097 101.454L99.4953 98.9774L92.6103 87.6359Z" fill="#DC437A" stroke="#1F201E"/>
<path d="M74.8714 49.1676L74.871 49.1679C72.9559 51.0831 71.7717 53.7311 71.7717 56.6558V78.5921C71.7717 84.4408 76.5102 89.1793 82.3589 89.1793C88.2076 89.1793 92.946 84.4408 92.946 78.5921V56.6558C92.946 50.8068 88.2074 46.0647 82.3589 46.0647C79.4342 46.0647 76.7864 47.2489 74.8714 49.1676Z" fill="#EC72A5" stroke="#1F201E"/>
<path d="M49.5935 60.3696V81.5882C49.5935 87.4331 54.3321 92.1753 60.1807 92.1753C66.0295 92.1753 70.7717 87.4329 70.7717 81.5882V60.3696C70.7717 54.5209 66.0294 49.7786 60.1807 49.7786C57.2563 49.7786 54.6121 50.9625 52.6928 52.8818C50.7777 54.7969 49.5935 57.4449 49.5935 60.3696Z" fill="#EC72A5" stroke="#1F201E"/>
<path d="M85.6381 56.6558V78.5921C85.6381 83.0079 83.1649 86.8429 79.5338 88.7982C80.433 89.0463 81.3811 89.1793 82.3589 89.1793C88.2076 89.1793 92.946 84.4408 92.946 78.5921V56.6558C92.946 50.8068 88.2074 46.0647 82.3589 46.0647C81.3808 46.0647 80.4327 46.1976 79.5334 46.4457C83.1651 48.402 85.6381 52.2396 85.6381 56.6558Z" fill="#DC437A" stroke="#1F201E"/>
<path d="M63.4638 60.3696V81.5882C63.4638 86.0017 60.989 89.8382 57.3567 91.7943C58.2556 92.0423 59.2032 92.1753 60.1807 92.1753C66.0295 92.1753 70.7717 87.4329 70.7717 81.5882V60.3696C70.7717 54.5209 66.0294 49.7786 60.1807 49.7786C59.2027 49.7786 58.2551 49.9114 57.3563 50.1595C60.9888 52.1159 63.4638 55.9531 63.4638 60.3696Z" fill="#DC437A" stroke="#1F201E"/>
<path d="M53.0801 1.81006L53.0801 1.80997C52.3553 0.68315 50.8538 0.357733 49.7276 1.08255C48.601 1.80779 48.2753 3.30859 49.0005 4.4355L63.5886 27.1045L63.5887 27.1047C64.0515 27.8247 64.8321 28.2182 65.6309 28.2182C66.0804 28.2182 66.5341 28.0938 66.9411 27.832C68.0677 27.1068 68.3934 25.606 67.6682 24.4791L53.0801 1.81006Z" fill="#FFE900" stroke="#1F201E"/>
<path d="M36.8576 47.4747L36.8578 47.4746C37.9119 46.6478 38.0963 45.1228 37.2693 44.0687L37.2692 44.0686L4.83482 2.72044C4.83481 2.72042 4.8348 2.72041 4.83479 2.72039C4.00768 1.66626 2.48258 1.48229 1.42887 2.30895L1.42881 2.309C0.37471 3.13572 0.190353 4.66078 1.01739 5.71488L1.01742 5.71492L33.4519 47.0632L33.4519 47.0632C33.9301 47.6731 34.6415 47.9922 35.3625 47.9922C35.8866 47.9922 36.4132 47.8236 36.8576 47.4747Z" fill="#FFE900" stroke="#1F201E"/>
<path d="M4.1058 77.5135L4.10572 77.5134C2.93492 76.862 1.45738 77.2838 0.806629 78.4546L0.806578 78.4547C0.155466 79.6256 0.576952 81.1029 1.7475 81.754L14.762 88.9913C14.7621 88.9913 14.7621 88.9914 14.7622 88.9914C15.1363 89.1991 15.5404 89.2975 15.9384 89.2975C16.7922 89.2975 17.618 88.8469 18.0615 88.05C18.7125 86.8791 18.291 85.402 17.1205 84.7509C17.1205 84.7509 17.1205 84.7509 17.1205 84.7509L4.1058 77.5135Z" fill="#FFE900" stroke="#1F201E"/>
<path d="M4.57537 135.667L4.57522 135.667C4.18266 135.904 3.75126 136.017 3.32473 136.017C2.50123 136.017 1.70016 135.598 1.24475 134.844L1.24474 134.844C0.552582 133.697 0.921289 132.206 2.06859 131.513L2.06863 131.513L14.6878 123.898L14.6879 123.898C15.834 123.206 17.3258 123.574 18.0184 124.722L4.57537 135.667ZM4.57537 135.667L17.1945 128.052L17.1946 128.052M4.57537 135.667L17.1946 128.052M17.1946 128.052C18.3418 127.36 18.7106 125.869 18.0184 124.722L17.1946 128.052Z" fill="#FFE900" stroke="#1F201E"/>
<path d="M36.1573 159.367L36.1573 159.367C35.6778 159.928 34.9978 160.217 34.3115 160.217C33.754 160.217 33.1946 160.026 32.7372 159.635C31.7187 158.765 31.5986 157.234 32.4687 156.215C32.4687 156.215 32.4687 156.215 32.4687 156.215L37.1591 150.726L37.1591 150.726C38.0286 149.708 39.5598 149.587 40.5792 150.457L36.1573 159.367ZM36.1573 159.367L40.8477 153.877M36.1573 159.367L40.8477 153.877M40.8477 153.877C40.8477 153.877 40.8477 153.877 40.8477 153.877M40.8477 153.877L40.8477 153.877M40.8477 153.877C41.7178 152.859 41.5978 151.328 40.5794 150.457L40.8477 153.877Z" fill="#FFE900" stroke="#1F201E"/>
<path d="M11.4762 188.253L11.4761 188.253C10.9966 188.814 10.3166 189.103 9.63029 189.103C9.07279 189.103 8.51342 188.912 8.05603 188.521C7.03749 187.651 6.91745 186.12 7.78757 185.101L24.121 165.985L24.1211 165.985C24.9906 164.967 26.5217 164.846 27.5412 165.717L11.4762 188.253ZM11.4762 188.253L27.8096 169.137M11.4762 188.253L27.8096 169.137M27.8096 169.137C28.6797 168.118 28.5597 166.587 27.5413 165.717L27.8096 169.137Z" fill="#FFE900" stroke="#1F201E"/>
<path d="M91.1173 16.89L91.1173 16.89L87.8876 7.17376C87.8876 7.17374 87.8876 7.17372 87.8875 7.17369C87.4648 5.90256 86.0921 5.21456 84.8201 5.63703C83.5487 6.05987 82.8608 7.43284 83.2835 8.70426L83.2835 8.70429L86.5133 18.4206L86.5134 18.4206C86.8511 19.437 87.7977 20.0819 88.815 20.0819C89.0679 20.0819 89.3259 20.042 89.5806 19.9573C90.8522 19.5345 91.5401 18.1615 91.1173 16.89Z" fill="#FFE900" stroke="#1F201E"/>
<path d="M136.411 27.1049L136.411 27.1049C135.948 27.8248 135.168 28.2183 134.369 28.2183C133.92 28.2183 133.466 28.0935 133.058 27.832L136.411 27.1049ZM136.411 27.1049L150.999 4.43552L150.999 4.43547M136.411 27.1049L150.999 4.43547M150.999 4.43547C151.724 3.30901 151.399 1.80788 150.272 1.08261L150.999 4.43547ZM146.919 1.81008L146.919 1.81005C147.644 0.683524 149.145 0.357792 150.272 1.08256L146.919 1.81008ZM146.919 1.81008L132.331 24.4791L132.331 24.4791M146.919 1.81008L132.331 24.4791M132.331 24.4791C131.606 25.6055 131.932 27.1065 133.058 27.8318L132.331 24.4791Z" fill="#FFE900" stroke="#1F201E"/>
<path d="M165.757 47.0767L165.757 47.0764L198.972 5.33808L198.972 5.33801C199.806 4.28981 199.632 2.76376 198.584 1.92915C197.536 1.09467 196.009 1.26839 195.176 2.31691L195.176 2.31705L161.961 44.0554L161.961 44.0555C161.126 45.1037 161.3 46.6296 162.348 47.4643C162.795 47.8198 163.327 47.9922 163.857 47.9922C164.572 47.9922 165.278 47.6786 165.757 47.0767Z" fill="#FFE900" stroke="#1F201E"/>
<path d="M184.405 89.0193L184.405 89.0193C184.045 89.2086 183.66 89.2975 183.281 89.2975C182.406 89.2975 181.564 88.8242 181.13 87.9981C180.508 86.8116 180.965 85.3451 182.151 84.7229L182.151 84.7229L195.946 77.4854L195.946 77.4854C197.132 76.8631 198.599 77.3201 199.222 78.5065L184.405 89.0193ZM184.405 89.0193L198.2 81.7818L198.2 81.7818M184.405 89.0193L198.2 81.7818M198.2 81.7818C199.387 81.1595 199.844 79.6931 199.222 78.5066L198.2 81.7818Z" fill="#FFE900" stroke="#1F201E"/>
<path d="M197.151 131.513L197.151 131.513C198.298 132.206 198.667 133.697 197.975 134.844L197.151 131.513ZM197.151 131.513L184.532 123.898C184.532 123.898 184.532 123.898 184.532 123.898C183.384 123.206 181.894 123.575 181.201 124.722C180.509 125.869 180.877 127.36 182.025 128.052L182.025 128.052M197.151 131.513L182.025 128.052M182.025 128.052L194.644 135.667L194.644 135.667M182.025 128.052L194.644 135.667M194.644 135.667C195.037 135.904 195.468 136.016 195.895 136.016C196.718 136.016 197.519 135.598 197.975 134.844L194.644 135.667Z" fill="#FFE900" stroke="#1F201E"/>
<path d="M166.751 156.215L166.751 156.215C167.621 157.233 167.501 158.765 166.482 159.635L166.751 156.215ZM166.751 156.215L162.06 150.726L162.06 150.726M166.751 156.215L162.06 150.726M162.06 150.726C161.19 149.707 159.659 149.587 158.64 150.457C157.621 151.328 157.501 152.859 158.372 153.877L158.372 153.877M162.06 150.726L158.372 153.877M158.372 153.877L163.062 159.367C163.062 159.367 163.062 159.367 163.062 159.367C163.542 159.928 164.222 160.217 164.908 160.217C165.466 160.217 166.025 160.026 166.482 159.635L158.372 153.877Z" fill="#FFE900" stroke="#1F201E"/>
<path d="M191.163 188.522L191.163 188.522C192.182 187.651 192.302 186.12 191.432 185.101L191.432 185.101L175.098 165.985L175.098 165.985C174.229 164.967 172.697 164.846 171.678 165.717L171.354 165.337L171.678 165.717C170.66 166.587 170.539 168.118 171.41 169.137L171.41 169.137L187.743 188.253L187.743 188.253C188.223 188.814 188.903 189.103 189.589 189.103C190.147 189.103 190.706 188.912 191.163 188.522Z" fill="#FFE900" stroke="#1F201E"/>
<path d="M116.716 8.7043L116.716 8.70433L113.486 18.4206C113.486 18.4206 113.486 18.4206 113.486 18.4206C113.148 19.4375 112.202 20.082 111.185 20.082C110.932 20.082 110.674 20.042 110.419 19.9573C109.147 19.5346 108.46 18.1615 108.882 16.89L108.882 16.89L112.112 7.17376C112.112 7.17375 112.112 7.17374 112.112 7.17373C112.535 5.90234 113.908 5.21462 115.179 5.63702L116.716 8.7043ZM116.716 8.7043C117.139 7.43287 116.451 6.05988 115.179 5.63706L116.716 8.7043Z" fill="#FFE900" stroke="#1F201E"/>
</svg>
