<svg width="24" height="25" viewBox="0 0 24 25" fill="none" xmlns="http://www.w3.org/2000/svg">
<path d="M6.77023 6.20801L8.59851 7.20862C8.83322 7.33627 8.9197 7.62863 8.79205 7.86335C8.74675 7.9457 8.68087 8.01158 8.59851 8.05688L6.77023 9.05338C6.68788 9.09867 6.62199 9.16455 6.5767 9.24691L5.57608 11.0752C5.44843 11.3099 5.15607 11.3964 4.92136 11.2687C4.83901 11.2234 4.77312 11.1575 4.72783 11.0752L3.73133 9.24691C3.68604 9.16455 3.62015 9.09867 3.5378 9.05338L1.70952 8.05688C1.47481 7.92923 1.38833 7.63687 1.51598 7.40216C1.56128 7.3198 1.62716 7.25392 1.70952 7.20862L3.5378 6.20801C3.62015 6.16272 3.68604 6.09683 3.73133 6.01448L4.73194 4.19031C4.8596 3.9556 5.15607 3.86913 5.39078 4.0009C5.46902 4.04619 5.53491 4.11208 5.5802 4.19031L6.58081 6.01448C6.62199 6.09683 6.68788 6.16272 6.77023 6.20801Z" fill="white"/>
<path d="M20.3796 15.9671L22.2079 16.9678C22.4426 17.0954 22.5291 17.3878 22.4014 17.6225C22.3561 17.7048 22.2902 17.7707 22.2079 17.816L20.3796 18.8166C20.2973 18.8619 20.2314 18.9278 20.1861 19.0102L19.1855 20.8384C19.0578 21.0731 18.7613 21.1596 18.5266 21.032C18.4443 20.9867 18.3784 20.9208 18.3331 20.8384L17.3407 19.006C17.2954 18.9237 17.2295 18.8578 17.1472 18.8125L15.3189 17.8119C15.0842 17.6842 14.9977 17.3878 15.1254 17.1531C15.1707 17.0707 15.2365 17.0048 15.3189 16.9595L17.1472 15.9589C17.2295 15.9136 17.2954 15.8477 17.3407 15.7654L18.3413 13.9412C18.469 13.7065 18.7654 13.62 19.0002 13.7477C19.0825 13.793 19.1484 13.8589 19.1937 13.9412L20.1943 15.7695C20.2314 15.856 20.2973 15.9218 20.3796 15.9671Z" fill="white"/>
<path d="M12.4648 4.1162L13.6631 4.77093C13.8154 4.8574 13.8731 5.05093 13.7907 5.20329C13.7619 5.25682 13.7166 5.298 13.6631 5.33094L12.4648 5.98566C12.4113 6.01449 12.366 6.05978 12.3372 6.11331L11.6824 7.31158C11.596 7.46393 11.4024 7.52158 11.2501 7.43923C11.1965 7.4104 11.1554 7.36511 11.1224 7.31158L10.4677 6.11331C10.4389 6.05978 10.3936 6.01449 10.3401 5.98566L9.14179 5.33094C8.98943 5.24858 8.93178 5.05505 9.01414 4.89858C9.04296 4.84504 9.08826 4.79975 9.14179 4.77093L10.3401 4.1162C10.3936 4.08738 10.4389 4.04208 10.4677 3.98855L11.1224 2.79029C11.2089 2.63793 11.4024 2.58028 11.5548 2.66264C11.6083 2.69146 11.6495 2.73676 11.6824 2.79029L12.3372 3.98855C12.366 4.04208 12.4113 4.08738 12.4648 4.1162Z" fill="white"/>
<path d="M22.0709 4.66388L20.3785 2.97149C19.7526 2.34559 18.7355 2.34147 18.1055 2.96737C18.1055 2.96737 18.1055 2.96737 18.1014 2.97149L3.01394 18.063C2.38804 18.6889 2.38392 19.706 3.01394 20.336L4.70633 22.0284C5.33223 22.6543 6.34931 22.6584 6.97933 22.0284L22.0709 6.93688C22.6968 6.31098 22.6968 5.2939 22.0709 4.66388ZM16.1866 10.3711L14.6713 8.85575L19.139 4.38388L20.6544 5.89921L16.1866 10.3711Z" fill="white"/>
</svg>
