<svg width="1440" height="620" viewBox="0 0 1440 620" fill="none" xmlns="http://www.w3.org/2000/svg">
<g clip-path="url(#clip0_127_1322)">
<rect width="1440" height="620" fill="#FFF586"/>
<path d="M-453.245 401.379C-642.021 410.623 -370.876 486.06 -154.016 459.799C-52.3498 447.487 87.2803 419.868 228.271 441.247C309.813 453.613 623.066 419.868 752.812 419.868C882.557 419.868 714.493 401.379 621.818 401.379C529.143 401.379 509.481 306.923 370.468 361.321C231.456 415.719 354.177 327.297 209.604 276.65C76.4272 229.996 44.7741 326.824 -5.27045 349.334C-55.315 371.843 -163.991 318.182 -215.753 361.321C-267.514 404.461 -264.469 392.135 -453.245 401.379Z" fill="#FFD400"/>
<path d="M458.075 347.652C458.87 363.05 447.085 376.164 431.755 376.945C416.424 377.725 403.352 365.877 402.557 350.479C401.763 335.082 413.548 321.968 428.878 321.187C444.208 320.406 457.281 332.255 458.075 347.652Z" fill="#423D9B" stroke="black"/>
<path d="M443.549 348.392C443.928 355.733 438.309 361.984 431.002 362.356C423.694 362.728 417.462 357.08 417.083 349.74C416.704 342.399 422.323 336.147 429.631 335.775C436.938 335.403 443.17 341.051 443.549 348.392Z" fill="#211A67" stroke="black"/>
<path d="M238.788 89.5099L238.79 89.5074C250.45 74.4613 276.333 76.371 283.961 96.648L283.961 96.648L314.155 176.878L217.971 157.667L234.138 98.9045C235.147 95.2612 236.731 92.1307 238.788 89.5099Z" fill="#EC72A5" stroke="black"/>
<path d="M243.166 126.362C250.374 143.824 266.165 163.102 299.966 174.049L217.97 157.672L234.136 98.9149C234.136 98.9147 234.136 98.9145 234.136 98.9144C234.953 95.9637 236.147 93.3494 237.665 91.0698C237.633 91.4011 237.601 91.772 237.57 92.1804C237.425 94.1248 237.317 96.9195 237.465 100.332C237.76 107.154 239.077 116.455 243.166 126.362Z" fill="#DC437A" stroke="black"/>
<path d="M70.2637 325.94L172.901 319.644C176.764 320.837 178.928 324.505 179.68 329.498C180.436 334.516 179.732 340.735 177.981 346.673C176.229 352.611 173.446 358.211 170.091 362.006C166.729 365.808 162.894 367.699 158.979 366.534L158.937 366.521L158.894 366.516C137.517 364.062 115.101 353.729 98.0008 343.983C89.4569 339.114 82.2524 334.398 77.1845 330.899C74.6507 329.15 72.6514 327.706 71.2862 326.7C70.8916 326.409 70.5499 326.154 70.2637 325.94Z" fill="#423D9B" stroke="black"/>
<path d="M160.881 360.044C159.891 359.749 159.131 359.034 158.582 357.936C158.028 356.83 157.702 355.357 157.591 353.622C157.368 350.153 158.013 345.762 159.24 341.483C160.502 337.08 162.365 332.848 164.48 329.905C165.538 328.432 166.641 327.309 167.738 326.64C168.826 325.976 169.883 325.773 170.901 326.076L171.042 325.596L170.901 326.076C171.898 326.373 172.662 327.097 173.212 328.209C173.767 329.329 174.091 330.82 174.196 332.576C174.407 336.086 173.739 340.523 172.486 344.829C171.216 349.195 169.359 353.377 167.256 356.279C166.204 357.732 165.109 358.837 164.02 359.495C162.94 360.147 161.892 360.345 160.881 360.044Z" fill="#211A67" stroke="black"/>
<path d="M170.49 309.026L273.127 302.73C276.99 303.923 279.155 307.592 279.906 312.584C280.662 317.602 279.959 323.822 278.207 329.759C276.456 335.697 273.673 341.297 270.318 345.092C266.956 348.894 263.12 350.785 259.205 349.62L259.163 349.607L259.12 349.602C237.744 347.148 215.327 336.815 198.227 327.069C189.683 322.2 182.479 317.484 177.411 313.986C174.877 312.237 172.878 310.792 171.513 309.786C171.118 309.495 170.776 309.24 170.49 309.026Z" fill="#423D9B" stroke="black"/>
<path d="M260.847 343.879C264.728 345.036 270.184 338.156 273.034 328.512C275.884 318.869 275.049 310.114 271.168 308.957C267.287 307.801 261.831 314.681 258.981 324.324C256.131 333.968 256.966 342.723 260.847 343.879Z" fill="#211A67"/>
<path d="M-55.3997 169.331C-56.5427 168.991 -57.7158 168.641 -58.9023 168.221C-70.7487 164.424 -83.9925 158.526 -86.1271 152.097C-90.5249 138.763 -30.076 133.588 -6.17414 134.44C11.6389 135.096 68.0725 150.821 68.2755 168.127C68.4542 183.237 -27.5149 177.634 -55.3997 169.331Z" fill="#EC72A5"/>
<mask id="path-11-inside-1_127_1322" fill="white">
<path fill-rule="evenodd" clip-rule="evenodd" d="M514.809 275.87C501.691 194.193 171.12 149.606 108.53 141.883C102.147 141.095 96.5848 137.168 93.6756 131.414L48.6111 42.281C45.0069 35.1522 38.6364 29.8261 30.9972 27.5546L-1.6848 17.837C-7.89669 15.99 -14.1242 20.6795 -14.0909 27.1791L-13.4562 150.809C-13.4063 160.531 -8.44857 169.611 -0.221926 174.75C217.005 310.445 461.697 368.813 529.126 343.495C547.589 336.562 554.258 313.299 543.596 296.662C537.294 286.829 527.107 279.954 514.809 275.87ZM166.736 204.88C174.609 207.042 182.724 202.371 184.879 194.474C187.024 186.61 182.402 178.477 174.53 176.314C166.657 174.152 158.551 178.79 156.405 186.654C154.251 194.551 158.864 202.717 166.736 204.88ZM239.293 207.157C237.139 215.054 229.023 219.724 221.151 217.562C213.278 215.399 208.665 207.233 210.82 199.336C212.965 191.472 221.072 186.834 228.944 188.996C236.817 191.159 241.439 199.292 239.293 207.157ZM275.565 230.243C283.437 232.406 291.553 227.735 293.707 219.838C295.853 211.974 291.231 203.84 283.359 201.678C275.486 199.516 267.38 204.153 265.234 212.018C263.079 219.915 267.692 228.081 275.565 230.243ZM348.122 232.52C345.968 240.417 337.852 245.087 329.98 242.925C322.107 240.763 317.494 232.596 319.649 224.699C321.794 216.835 329.901 212.198 337.773 214.36C345.646 216.522 350.268 224.656 348.122 232.52ZM384.394 255.607C392.266 257.77 400.382 253.099 402.537 245.202C404.682 237.338 400.06 229.204 392.188 227.042C384.315 224.88 376.209 229.517 374.063 237.381C371.908 245.278 376.522 253.445 384.394 255.607Z"/>
</mask>
<path fill-rule="evenodd" clip-rule="evenodd" d="M514.809 275.87C501.691 194.193 171.12 149.606 108.53 141.883C102.147 141.095 96.5848 137.168 93.6756 131.414L48.6111 42.281C45.0069 35.1522 38.6364 29.8261 30.9972 27.5546L-1.6848 17.837C-7.89669 15.99 -14.1242 20.6795 -14.0909 27.1791L-13.4562 150.809C-13.4063 160.531 -8.44857 169.611 -0.221926 174.75C217.005 310.445 461.697 368.813 529.126 343.495C547.589 336.562 554.258 313.299 543.596 296.662C537.294 286.829 527.107 279.954 514.809 275.87ZM166.736 204.88C174.609 207.042 182.724 202.371 184.879 194.474C187.024 186.61 182.402 178.477 174.53 176.314C166.657 174.152 158.551 178.79 156.405 186.654C154.251 194.551 158.864 202.717 166.736 204.88ZM239.293 207.157C237.139 215.054 229.023 219.724 221.151 217.562C213.278 215.399 208.665 207.233 210.82 199.336C212.965 191.472 221.072 186.834 228.944 188.996C236.817 191.159 241.439 199.292 239.293 207.157ZM275.565 230.243C283.437 232.406 291.553 227.735 293.707 219.838C295.853 211.974 291.231 203.84 283.359 201.678C275.486 199.516 267.38 204.153 265.234 212.018C263.079 219.915 267.692 228.081 275.565 230.243ZM348.122 232.52C345.968 240.417 337.852 245.087 329.98 242.925C322.107 240.763 317.494 232.596 319.649 224.699C321.794 216.835 329.901 212.198 337.773 214.36C345.646 216.522 350.268 224.656 348.122 232.52ZM384.394 255.607C392.266 257.77 400.382 253.099 402.537 245.202C404.682 237.338 400.06 229.204 392.188 227.042C384.315 224.88 376.209 229.517 374.063 237.381C371.908 245.278 376.522 253.445 384.394 255.607Z" fill="white"/>
<path d="M108.53 141.883L108.407 142.875L108.53 141.883ZM514.809 275.87L513.822 276.028L513.918 276.628L514.494 276.819L514.809 275.87ZM93.6756 131.414L92.7833 131.865L92.7833 131.865L93.6756 131.414ZM48.6111 42.281L49.5034 41.8298L48.6111 42.281ZM30.9972 27.5546L31.2821 26.596L30.9972 27.5546ZM-1.6848 17.837L-1.96969 18.7956L-1.96969 18.7956L-1.6848 17.837ZM-14.0909 27.1791L-13.091 27.174L-13.091 27.174L-14.0909 27.1791ZM-13.4562 150.809L-12.4563 150.804L-13.4562 150.809ZM-0.221926 174.75L-0.751585 175.598L-0.221926 174.75ZM529.126 343.495L529.477 344.431L529.126 343.495ZM543.596 296.662L542.754 297.202L543.596 296.662ZM184.879 194.474L185.843 194.738L185.843 194.738L184.879 194.474ZM166.736 204.88L167.001 203.915L167.001 203.915L166.736 204.88ZM174.53 176.314L174.795 175.35L174.53 176.314ZM156.405 186.654L157.37 186.917L156.405 186.654ZM221.151 217.562L220.886 218.526L221.151 217.562ZM239.293 207.157L238.328 206.893L239.293 207.157ZM210.82 199.336L211.784 199.599L210.82 199.336ZM228.944 188.996L228.679 189.961L228.944 188.996ZM293.707 219.838L292.743 219.575L293.707 219.838ZM275.565 230.243L275.83 229.279L275.565 230.243ZM283.359 201.678L283.623 200.714L283.359 201.678ZM265.234 212.018L264.269 211.754L265.234 212.018ZM329.98 242.925L329.715 243.89L329.98 242.925ZM348.122 232.52L349.087 232.783L348.122 232.52ZM319.649 224.699L318.684 224.436L319.649 224.699ZM337.773 214.36L337.509 215.324L337.773 214.36ZM402.537 245.202L403.501 245.465L402.537 245.202ZM384.394 255.607L384.659 254.643L384.394 255.607ZM392.188 227.042L391.923 228.006L392.188 227.042ZM374.063 237.381L375.028 237.645L374.063 237.381ZM108.407 142.875C139.692 146.736 237.937 159.808 329.986 182.116C376.017 193.271 420.449 206.725 454.173 222.469C471.036 230.342 485.178 238.768 495.497 247.734C505.823 256.706 512.234 266.142 513.822 276.028L515.796 275.711C514.105 265.178 507.316 255.354 496.808 246.224C486.294 237.088 471.969 228.57 455.018 220.657C421.115 204.829 376.532 191.338 330.457 180.172C238.293 157.836 139.957 144.753 108.652 140.89L108.407 142.875ZM92.7833 131.865C95.842 137.915 101.691 142.047 108.407 142.875L108.652 140.89C102.602 140.144 97.3277 136.421 94.5679 130.963L92.7833 131.865ZM47.7188 42.7323L92.7833 131.865L94.5679 130.963L49.5034 41.8298L47.7188 42.7323ZM30.7123 28.5132C38.0872 30.7061 44.2383 35.8483 47.7188 42.7323L49.5034 41.8298C45.7754 34.4561 39.1856 28.9461 31.2821 26.596L30.7123 28.5132ZM-1.96969 18.7956L30.7123 28.5132L31.2821 26.596L-1.3999 16.8784L-1.96969 18.7956ZM-13.091 27.174C-13.1209 21.3411 -7.53444 17.141 -1.96969 18.7956L-1.3999 16.8784C-8.25895 14.8389 -15.1276 20.0178 -15.0908 27.1842L-13.091 27.174ZM-12.4563 150.804L-13.091 27.174L-15.0908 27.1842L-14.4561 150.815L-12.4563 150.804ZM0.307741 173.901C-7.62126 168.948 -12.4081 160.191 -12.4563 150.804L-14.4561 150.815C-14.4044 160.872 -9.27589 170.273 -0.751585 175.598L0.307741 173.901ZM528.774 342.559C512.152 348.8 484.418 349.927 448.628 345.898C412.883 341.874 369.245 332.725 320.908 318.543C224.234 290.177 108.839 241.697 0.307741 173.901L-0.751585 175.598C107.945 243.497 223.509 292.049 320.345 320.462C368.763 334.668 412.517 343.845 448.405 347.885C484.247 351.92 512.385 350.849 529.477 344.431L528.774 342.559ZM542.754 297.202C553.105 313.353 546.587 335.87 528.774 342.559L529.477 344.431C548.591 337.254 555.411 313.245 544.437 296.122L542.754 297.202ZM514.494 276.819C526.636 280.852 536.607 287.61 542.754 297.202L544.437 296.122C537.981 286.048 527.577 279.057 515.124 274.921L514.494 276.819ZM183.914 194.211C181.904 201.58 174.335 205.93 167.001 203.915L166.472 205.844C174.882 208.154 183.545 203.163 185.843 194.738L183.914 194.211ZM174.265 177.279C181.605 179.295 185.915 186.878 183.914 194.211L185.843 194.738C188.134 186.342 183.2 177.659 174.795 175.35L174.265 177.279ZM157.37 186.917C159.37 179.585 166.927 175.263 174.265 177.279L174.795 175.35C166.388 173.041 157.732 177.994 155.441 186.39L157.37 186.917ZM167.001 203.915C159.666 201.9 155.359 194.287 157.37 186.917L155.441 186.39C153.142 194.814 158.062 203.534 166.472 205.844L167.001 203.915ZM220.886 218.526C229.297 220.836 237.959 215.845 240.258 207.42L238.328 206.893C236.318 214.262 228.749 218.612 221.415 216.597L220.886 218.526ZM209.855 199.072C207.557 207.496 212.476 216.216 220.886 218.526L221.415 216.597C214.08 214.583 209.773 206.969 211.784 199.599L209.855 199.072ZM229.209 188.032C220.802 185.723 212.146 190.676 209.855 199.072L211.784 199.599C213.785 192.267 221.341 187.945 228.679 189.961L229.209 188.032ZM240.258 207.42C242.548 199.024 237.614 190.341 229.209 188.032L228.679 189.961C236.019 191.977 240.329 199.56 238.328 206.893L240.258 207.42ZM292.743 219.575C290.732 226.944 283.164 231.293 275.83 229.279L275.3 231.208C283.711 233.518 292.373 228.527 294.672 220.102L292.743 219.575ZM283.094 202.642C290.433 204.658 294.743 212.242 292.743 219.575L294.672 220.102C296.963 211.706 292.029 203.022 283.623 200.714L283.094 202.642ZM266.199 212.281C268.199 204.949 275.755 200.627 283.094 202.642L283.623 200.714C275.217 198.405 266.56 203.358 264.269 211.754L266.199 212.281ZM275.83 229.279C268.494 227.264 264.188 219.651 266.199 212.281L264.269 211.754C261.971 220.178 266.89 228.898 275.3 231.208L275.83 229.279ZM329.715 243.89C338.126 246.2 346.788 241.208 349.087 232.783L347.158 232.257C345.147 239.626 337.578 243.975 330.244 241.961L329.715 243.89ZM318.684 224.436C316.386 232.86 321.305 241.58 329.715 243.89L330.244 241.961C322.909 239.946 318.603 232.333 320.613 224.963L318.684 224.436ZM338.038 213.396C329.632 211.086 320.975 216.039 318.684 224.436L320.613 224.963C322.614 217.631 330.17 213.309 337.509 215.324L338.038 213.396ZM349.087 232.783C351.377 224.388 346.443 215.704 338.038 213.396L337.509 215.324C344.848 217.34 349.158 224.924 347.158 232.257L349.087 232.783ZM401.572 244.939C399.561 252.308 391.993 256.657 384.659 254.643L384.129 256.572C392.54 258.882 401.203 253.89 403.501 245.465L401.572 244.939ZM391.923 228.006C399.262 230.022 403.573 237.606 401.572 244.939L403.501 245.465C405.792 237.07 400.858 228.386 392.452 226.078L391.923 228.006ZM375.028 237.645C377.028 230.313 384.585 225.991 391.923 228.006L392.452 226.078C384.046 223.769 375.389 228.721 373.098 237.118L375.028 237.645ZM384.659 254.643C377.324 252.628 373.017 245.015 375.028 237.645L373.098 237.118C370.8 245.542 375.72 254.262 384.129 256.572L384.659 254.643Z" fill="black" mask="url(#path-11-inside-1_127_1322)"/>
<path d="M528.952 343.113L528.95 343.114C512.213 349.385 484.379 350.48 448.577 346.432C412.797 342.385 369.13 333.211 320.772 319.004C224.055 290.591 108.613 242.061 0.0341602 174.226L0.0338176 174.226C-8.02165 169.202 -12.9573 160.268 -12.9551 150.672L-12.9551 150.67L-13.0079 135.86C185.184 259.933 325.193 302.334 415.712 313.689C461.03 319.375 493.942 317.278 515.537 313.753C526.333 311.991 534.3 309.872 539.573 308.192C542.21 307.351 544.173 306.62 545.479 306.098C546.111 305.846 546.589 305.642 546.916 305.498C551.289 320.466 544.208 337.49 528.952 343.113Z" fill="#FFFDE3" stroke="black"/>
<path d="M490.243 242.924C490.304 242.934 490.353 242.941 490.389 242.947C503.699 253.089 512.173 263.893 514.235 275.402C510.152 275.674 506.25 275.849 502.557 275.934L502.528 275.925L502.45 275.927C473.009 276.526 455.016 271.288 445.476 264.786C440.708 261.536 438.083 257.993 437.153 254.736C436.228 251.495 436.966 248.498 439.005 246.24L439.007 246.237C440.376 244.7 442.601 243.533 445.442 242.684C448.273 241.837 451.663 241.321 455.302 241.047L455.303 241.047C463.031 240.45 471.818 240.926 478.685 241.555C482.116 241.868 485.063 242.22 487.152 242.492C488.196 242.629 489.025 242.745 489.593 242.828C489.877 242.869 490.096 242.902 490.243 242.924Z" fill="#57B3FE" stroke="black"/>
<path d="M311.238 288.164L311.238 288.165C310.842 289.849 309.633 291.542 307.605 293.231C305.581 294.917 302.782 296.564 299.284 298.164C292.289 301.362 282.578 304.334 270.892 307.045C247.528 312.463 216.36 316.814 183.457 319.849C150.557 322.884 115.937 324.601 85.6749 324.757C55.4007 324.913 29.5246 323.505 14.0916 320.303L14.0899 320.303C11.9459 319.866 10.0187 319.392 8.30583 318.882C-3.33426 315.416 -15.1872 310.366 -24.8257 303.986C-34.4738 297.6 -41.8437 289.921 -44.6226 281.219C-44.9625 280.154 -44.7745 279.054 -44.0323 277.885C-43.2813 276.702 -41.9748 275.473 -40.1331 274.212C-36.4524 271.691 -30.7688 269.133 -23.579 266.592C-9.21076 261.515 11.0341 256.553 32.9295 252.092C76.7164 243.171 127.017 236.271 149.903 234.454L149.904 234.454C167.161 233.043 209.793 237.209 247.01 246.436C265.616 251.049 282.822 256.916 294.81 263.957C300.804 267.479 305.459 271.274 308.339 275.321C311.209 279.355 312.311 283.629 311.238 288.164ZM311.724 288.281C304.827 317.588 75.9436 333.649 13.991 320.793L311.724 288.281Z" fill="#EC72A5" stroke="black"/>
<path d="M149.928 234.488L149.929 234.488C153.111 234.228 157.21 234.172 162.009 234.309C160.857 234.589 159.448 234.936 157.807 235.348C152.885 236.582 145.887 238.396 137.585 240.713C120.983 245.347 99.1564 251.995 78.2756 260.053C57.4067 268.106 37.4352 277.584 24.5747 287.89C18.1464 293.041 13.447 298.437 11.3295 304.009C9.32431 309.286 9.64953 314.687 12.9343 320.103C11.2503 319.735 9.71038 319.343 8.31302 318.927C-3.32851 315.461 -15.1829 310.41 -24.8226 304.03C-34.4719 297.643 -41.8428 289.963 -44.622 281.26C-44.962 280.195 -44.7739 279.094 -44.0317 277.925C-43.2805 276.742 -41.9738 275.512 -40.1319 274.251C-36.4508 271.73 -30.7664 269.172 -23.5758 266.631C-9.20572 261.553 11.0416 256.59 32.9398 252.129C76.732 243.206 127.038 236.305 149.928 234.488Z" fill="#DC437A" stroke="black"/>
<path d="M501.003 275.957C472.417 276.359 454.858 271.187 445.475 264.792C440.707 261.542 438.083 258 437.153 254.744C436.227 251.503 436.966 248.506 439.004 246.249L439.007 246.246C440.375 244.709 442.6 243.542 445.44 242.693C448.223 241.861 451.544 241.348 455.111 241.071L501.003 275.957Z" fill="#5094FF" stroke="black"/>
<path d="M40.4036 57.7373C53.8853 74.3684 70.102 107.043 75.1451 127.868C64.349 114.581 52.9274 92.5723 46.6233 76.4972C44.1945 70.4206 41.9866 64.2347 40.4036 57.7373Z" fill="white"/>
<path fill-rule="evenodd" clip-rule="evenodd" d="M326.797 132.774C395.819 111.454 552.255 76.9103 625.828 109.289C710.106 146.379 719.994 189.764 730.177 234.445C731.106 238.52 732.037 242.606 733.027 246.699C738.591 269.692 724.583 373.2 711.264 471.627C701.89 540.896 692.856 607.649 691.225 642.049L653.484 639.093C661.778 629.175 666.787 616.798 667.682 601.584C668.172 593.251 668.997 583.104 669.94 571.496C681.743 426.292 712.131 52.4493 338.646 140.82L305.597 182.471C311.22 157.58 318.201 139.843 326.797 132.774ZM296.026 241.256C282.428 355.599 283.128 527.767 287.317 610.413L307.467 611.991L296.026 241.256Z" fill="#FFD400"/>
<path d="M625.828 109.289L626.029 108.832L625.828 109.289ZM326.797 132.774L326.65 132.296L326.556 132.325L326.48 132.388L326.797 132.774ZM730.177 234.445L730.664 234.334L730.177 234.445ZM733.027 246.699L733.513 246.582L733.027 246.699ZM711.264 471.627L711.759 471.694L711.264 471.627ZM691.225 642.049L691.186 642.547L691.699 642.587L691.724 642.072L691.225 642.049ZM653.484 639.093L653.1 638.772L652.479 639.515L653.445 639.591L653.484 639.093ZM667.682 601.584L667.183 601.555L667.682 601.584ZM669.94 571.496L669.442 571.456L669.94 571.496ZM338.646 140.82L338.531 140.333L338.363 140.373L338.255 140.509L338.646 140.82ZM305.597 182.471L305.11 182.361L305.989 182.782L305.597 182.471ZM296.026 241.256L296.525 241.241L295.53 241.197L296.026 241.256ZM287.317 610.413L286.818 610.438L286.841 610.877L287.278 610.911L287.317 610.413ZM307.467 611.991L307.428 612.489L307.984 612.533L307.967 611.976L307.467 611.991ZM626.029 108.832C607.554 100.701 583.911 96.7842 557.791 95.8014C531.664 94.8184 503.026 96.7699 474.543 100.399C417.576 107.657 361.183 121.63 326.65 132.296L326.945 133.251C361.433 122.598 417.769 108.64 474.669 101.39C503.118 97.7656 531.698 95.8197 557.753 96.8C583.814 97.7806 607.315 101.688 625.626 109.746L626.029 108.832ZM730.664 234.334C725.575 212.002 720.541 189.896 706.202 168.74C691.856 147.575 668.229 127.404 626.029 108.832L625.626 109.746C667.705 128.265 691.162 148.331 705.375 169.301C719.594 190.28 724.596 212.207 729.69 234.556L730.664 234.334ZM733.513 246.582C732.524 242.492 731.593 238.409 730.664 234.334L729.69 234.556C730.618 238.63 731.55 242.72 732.542 246.817L733.513 246.582ZM711.759 471.694C718.418 422.483 725.251 371.992 729.723 330.929C731.959 310.399 733.606 292.218 734.346 277.728C735.084 263.263 734.924 252.411 733.513 246.582L732.542 246.817C733.913 252.483 734.087 263.192 733.348 277.677C732.61 292.139 730.965 310.298 728.73 330.821C724.259 371.868 717.429 422.345 710.768 471.56L711.759 471.694ZM691.724 642.072C693.354 607.701 702.383 540.977 711.759 471.694L710.768 471.56C701.396 540.816 692.358 607.598 690.726 642.025L691.724 642.072ZM653.445 639.591L691.186 642.547L691.264 641.551L653.523 638.594L653.445 639.591ZM653.867 639.413C662.234 629.408 667.28 616.927 668.181 601.614L667.183 601.555C666.294 616.669 661.321 628.942 653.1 638.772L653.867 639.413ZM668.181 601.614C668.67 593.288 669.495 583.147 670.438 571.537L669.442 571.456C668.499 583.062 667.674 593.215 667.183 601.555L668.181 601.614ZM670.438 571.537C676.338 498.959 686.903 369.08 649.244 268.393C630.407 218.03 599.491 174.928 549.859 149.966C500.232 125.007 431.973 118.224 338.531 140.333L338.761 141.306C432.061 119.23 500.061 126.039 549.41 150.859C598.754 175.676 629.531 218.54 648.308 268.743C685.875 369.185 675.346 498.83 669.442 571.456L670.438 571.537ZM338.255 140.509L305.206 182.161L305.989 182.782L339.038 141.13L338.255 140.509ZM326.48 132.388C322.087 136 318.154 142.292 314.621 150.747C311.083 159.213 307.925 169.9 305.11 182.361L306.085 182.581C308.893 170.151 312.036 159.525 315.543 151.132C319.055 142.728 322.911 136.616 327.114 133.16L326.48 132.388ZM295.53 241.197C281.927 355.579 282.628 527.778 286.818 610.438L287.817 610.388C283.627 527.756 282.929 355.619 296.522 241.315L295.53 241.197ZM287.278 610.911L307.428 612.489L307.506 611.493L287.357 609.915L287.278 610.911ZM295.527 241.272L306.968 612.007L307.967 611.976L296.525 241.241L295.527 241.272Z" fill="black"/>
<mask id="path-21-inside-2_127_1322" fill="white">
<path fill-rule="evenodd" clip-rule="evenodd" d="M389.752 70.0649C314.349 70.0649 253.223 131.191 253.223 206.593V551.132C253.223 626.534 314.349 687.66 389.752 687.66H614.695C690.097 687.66 751.223 626.534 751.223 551.132V206.594C751.223 131.191 690.097 70.0649 614.695 70.0649H389.752ZM410.326 140.116C353.873 140.116 308.108 185.881 308.108 242.334V520.395C308.108 576.848 353.873 622.612 410.326 622.612H594.121C650.574 622.612 696.338 576.848 696.338 520.395V242.334C696.338 185.881 650.574 140.116 594.121 140.116H410.326Z"/>
</mask>
<path fill-rule="evenodd" clip-rule="evenodd" d="M389.752 70.0649C314.349 70.0649 253.223 131.191 253.223 206.593V551.132C253.223 626.534 314.349 687.66 389.752 687.66H614.695C690.097 687.66 751.223 626.534 751.223 551.132V206.594C751.223 131.191 690.097 70.0649 614.695 70.0649H389.752ZM410.326 140.116C353.873 140.116 308.108 185.881 308.108 242.334V520.395C308.108 576.848 353.873 622.612 410.326 622.612H594.121C650.574 622.612 696.338 576.848 696.338 520.395V242.334C696.338 185.881 650.574 140.116 594.121 140.116H410.326Z" fill="#FFE900"/>
<path d="M254.223 206.593C254.223 131.743 314.901 71.0643 389.752 71.0643V69.0656C313.797 69.0656 252.224 130.639 252.224 206.593H254.223ZM254.223 551.132V206.593H252.224V551.132H254.223ZM389.752 686.661C314.901 686.661 254.223 625.982 254.223 551.132H252.224C252.224 627.086 313.797 688.66 389.752 688.66V686.661ZM614.695 686.661H389.752V688.66H614.695V686.661ZM750.224 551.132C750.224 625.982 689.546 686.661 614.695 686.661V688.66C690.649 688.66 752.223 627.086 752.223 551.132H750.224ZM750.224 206.594V551.132H752.223V206.594H750.224ZM614.695 71.0643C689.546 71.0643 750.224 131.743 750.224 206.594H752.223C752.223 130.639 690.649 69.0656 614.695 69.0656V71.0643ZM389.752 71.0643H614.695V69.0656H389.752V71.0643ZM309.108 242.334C309.108 186.433 354.425 141.115 410.326 141.115V139.117C353.321 139.117 307.109 185.329 307.109 242.334H309.108ZM309.108 520.395V242.334H307.109V520.395H309.108ZM410.326 621.613C354.424 621.613 309.108 576.296 309.108 520.395H307.109C307.109 577.4 353.321 623.612 410.326 623.612V621.613ZM594.121 621.613H410.326V623.612H594.121V621.613ZM695.339 520.395C695.339 576.296 650.022 621.613 594.121 621.613V623.612C651.126 623.612 697.338 577.4 697.338 520.395H695.339ZM695.339 242.334V520.395H697.338V242.334H695.339ZM594.121 141.115C650.022 141.115 695.339 186.432 695.339 242.334H697.338C697.338 185.329 651.126 139.117 594.121 139.117V141.115ZM410.326 141.115H594.121V139.117H410.326V141.115Z" fill="black" mask="url(#path-21-inside-2_127_1322)"/>
<mask id="mask0_127_1322" style="mask-type:alpha" maskUnits="userSpaceOnUse" x="253" y="70" width="499" height="618">
<mask id="path-23-inside-3_127_1322" fill="white">
<path fill-rule="evenodd" clip-rule="evenodd" d="M389.752 70.0649C314.349 70.0649 253.223 131.191 253.223 206.593V551.132C253.223 626.534 314.349 687.66 389.752 687.66H614.695C690.097 687.66 751.223 626.534 751.223 551.132V206.594C751.223 131.191 690.097 70.0649 614.695 70.0649H389.752ZM410.734 139.02C354.28 139.02 308.516 184.784 308.516 241.237V519.298C308.516 575.752 354.28 621.516 410.734 621.516H594.528C650.982 621.516 696.746 575.751 696.746 519.298V241.237C696.746 184.784 650.982 139.02 594.528 139.02H410.734Z"/>
</mask>
<path fill-rule="evenodd" clip-rule="evenodd" d="M389.752 70.0649C314.349 70.0649 253.223 131.191 253.223 206.593V551.132C253.223 626.534 314.349 687.66 389.752 687.66H614.695C690.097 687.66 751.223 626.534 751.223 551.132V206.594C751.223 131.191 690.097 70.0649 614.695 70.0649H389.752ZM410.734 139.02C354.28 139.02 308.516 184.784 308.516 241.237V519.298C308.516 575.752 354.28 621.516 410.734 621.516H594.528C650.982 621.516 696.746 575.751 696.746 519.298V241.237C696.746 184.784 650.982 139.02 594.528 139.02H410.734Z" fill="#FFF08D"/>
<path d="M254.223 206.593C254.223 131.743 314.901 71.0643 389.752 71.0643V69.0656C313.797 69.0656 252.224 130.639 252.224 206.593H254.223ZM254.223 551.132V206.593H252.224V551.132H254.223ZM389.752 686.661C314.901 686.661 254.223 625.982 254.223 551.132H252.224C252.224 627.086 313.797 688.66 389.752 688.66V686.661ZM614.695 686.661H389.752V688.66H614.695V686.661ZM750.224 551.132C750.224 625.982 689.546 686.661 614.695 686.661V688.66C690.649 688.66 752.223 627.086 752.223 551.132H750.224ZM750.224 206.594V551.132H752.223V206.594H750.224ZM614.695 71.0643C689.546 71.0643 750.224 131.743 750.224 206.594H752.223C752.223 130.639 690.649 69.0656 614.695 69.0656V71.0643ZM389.752 71.0643H614.695V69.0656H389.752V71.0643ZM309.515 241.237C309.515 185.336 354.832 140.019 410.734 140.019V138.02C353.728 138.02 307.517 184.232 307.517 241.237H309.515ZM309.515 519.298V241.237H307.517V519.298H309.515ZM410.734 620.517C354.832 620.517 309.515 575.2 309.515 519.298H307.517C307.517 576.303 353.728 622.515 410.734 622.515V620.517ZM594.528 620.517H410.734V622.515H594.528V620.517ZM695.747 519.298C695.747 575.2 650.43 620.517 594.528 620.517V622.515C651.534 622.515 697.745 576.303 697.745 519.298H695.747ZM695.747 241.237V519.298H697.745V241.237H695.747ZM594.528 140.019C650.43 140.019 695.747 185.336 695.747 241.237H697.745C697.745 184.232 651.534 138.02 594.528 138.02V140.019ZM410.734 140.019H594.528V138.02H410.734V140.019Z" fill="black" mask="url(#path-23-inside-3_127_1322)"/>
</mask>
<g mask="url(#mask0_127_1322)">
<path d="M749.39 317.83C739.26 149.681 752.766 79.45 446.326 49.3513C431.871 47.9315 648.647 -1.6384 753.843 -26.4185C773.887 132.865 757.394 450.704 749.39 317.83Z" fill="#FFF08D" stroke="black" stroke-width="0.999345"/>
<path d="M251.268 97.62C290.996 455.177 186.525 696.492 541.139 683.249C555.831 682.7 576.716 805.46 504.354 877.477C-184.263 859.516 236.381 -36.3598 251.268 97.62Z" fill="#FFF08D" stroke="black" stroke-width="0.999345"/>
</g>
<rect x="255.222" y="72.0636" width="494.003" height="613.598" rx="134.53" stroke="#1F201E" stroke-width="3.99738"/>
<path d="M307.609 349.556V434.5" stroke="black" stroke-width="0.999345"/>
<path d="M1269 172.564C1275 169.301 1284.84 166.354 1281.09 150.604C1286.2 161.104 1289.32 165.304 1300 166.354C1289.32 170.554 1288.44 176.292 1287.6 185.604C1284.23 173.858 1275.7 171.549 1269 172.564Z" fill="white" stroke="black"/>
<path d="M780 264.673C787.165 260.758 798.911 257.222 794.434 238.322C800.525 250.922 804.256 255.962 817 257.222C804.256 262.262 803.204 269.147 802.2 280.322C798.184 266.226 788.001 263.456 780 264.673Z" fill="white" stroke="black"/>
<path d="M542.201 260.76C550.315 261.667 561.962 265.517 569.148 247.472C566.901 261.285 567.061 267.554 576.773 275.902C563.444 272.712 558.631 277.745 551.392 286.318C556.197 272.471 549.451 264.357 542.201 260.76Z" fill="white" stroke="black"/>
<path d="M1562.76 95.5156C1658.19 100.133 1521.11 137.816 1411.49 124.698C1360.09 118.548 1289.5 104.751 1218.23 115.431C1177 121.607 1018.65 104.751 953.055 104.751C887.465 104.751 972.426 95.5156 1019.28 95.5156C1066.13 95.5156 1076.07 48.3325 1146.34 75.5056C1216.62 102.679 1154.58 58.5097 1227.66 33.2105C1294.99 9.90552 1310.99 58.2737 1336.29 69.5177C1361.59 80.7617 1416.53 53.9563 1442.7 75.5056C1468.86 97.0548 1467.32 90.8979 1562.76 95.5156Z" fill="#FFFAC4"/>
</g>
<defs>
<clipPath id="clip0_127_1322">
<rect width="1440" height="620" fill="white"/>
</clipPath>
</defs>
</svg>
