<svg width="90" height="86" viewBox="0 0 90 86" fill="none" xmlns="http://www.w3.org/2000/svg">
<path d="M24.5452 48.8047C21.6758 46.4076 19.743 43.0759 19.0867 39.3951C18.4304 35.7142 19.0925 31.9198 20.9566 28.6787C22.8207 25.4377 25.7675 22.9574 29.2792 21.6737C32.7908 20.3901 36.6426 20.3853 40.1574 21.6602C43.6722 22.9351 46.6252 25.4081 48.4974 28.6445C50.3696 31.8809 51.0411 35.6737 50.3939 39.3561C49.7467 43.0386 47.8223 46.3751 44.9589 48.7793C42.0954 51.1835 38.4762 52.5014 34.7373 52.5015C31.0112 52.5045 27.4029 51.1957 24.5452 48.8047Z" fill="url(#paint0_linear_1076_14469)"/>
<path d="M34.7363 15.1978C34.353 15.1978 33.9854 15.0455 33.7143 14.7745C33.4433 14.5034 33.291 14.1358 33.291 13.7525V8.31348C33.291 7.93016 33.4433 7.56253 33.7143 7.29149C33.9854 7.02044 34.353 6.86816 34.7363 6.86816C35.1196 6.86816 35.4873 7.02044 35.7583 7.29149C36.0294 7.56253 36.1816 7.93016 36.1816 8.31348V13.7525C36.1816 14.1358 36.0294 14.5034 35.7583 14.7745C35.4873 15.0455 35.1196 15.1978 34.7363 15.1978Z" fill="#FFBF41"/>
<path d="M23.312 18.2597C23.0581 18.26 22.8085 18.1933 22.5885 18.0665C22.3686 17.9396 22.1859 17.757 22.0589 17.5371L19.3393 12.8267C19.1506 12.4949 19.1009 12.102 19.2009 11.7336C19.3009 11.3653 19.5425 11.0515 19.873 10.8606C20.2036 10.6698 20.5961 10.6175 20.9651 10.715C21.3341 10.8126 21.6495 11.0521 21.8426 11.3813L24.5622 16.0916C24.689 16.3112 24.7558 16.5604 24.7558 16.8139C24.7559 17.0675 24.6892 17.3167 24.5625 17.5364C24.4358 17.756 24.2536 17.9385 24.034 18.0655C23.8145 18.1924 23.5654 18.2594 23.3119 18.2596L23.312 18.2597Z" fill="#FFBF41"/>
<path d="M14.9437 26.6239C14.6904 26.6238 14.4415 26.557 14.2223 26.43L9.51221 23.7105C9.34651 23.6163 9.20108 23.4903 9.0843 23.3396C8.96752 23.189 8.88168 23.0167 8.83174 22.8328C8.7818 22.6488 8.76874 22.4568 8.79331 22.2678C8.81787 22.0788 8.87959 21.8965 8.97489 21.7314C9.0702 21.5664 9.19722 21.4218 9.34863 21.306C9.50004 21.1902 9.67286 21.1055 9.85714 21.0568C10.0414 21.0081 10.2335 20.9963 10.4224 21.0221C10.6112 21.0479 10.7931 21.1109 10.9575 21.2073L15.6677 23.9268C15.9433 24.0859 16.1588 24.3315 16.2806 24.6256C16.4023 24.9197 16.4236 25.2458 16.3411 25.5532C16.2586 25.8607 16.0769 26.1322 15.8242 26.3258C15.5715 26.5194 15.262 26.6242 14.9437 26.6239Z" fill="#FFBF41"/>
<path d="M11.8843 38.0503H6.44531C6.06199 38.0503 5.69437 37.898 5.42332 37.627C5.15227 37.3559 5 36.9883 5 36.605C5 36.2217 5.15227 35.854 5.42332 35.583C5.69437 35.3119 6.06199 35.1597 6.44531 35.1597H11.8843C12.2676 35.1597 12.6353 35.3119 12.9063 35.583C13.1774 35.854 13.3296 36.2217 13.3296 36.605C13.3296 36.9883 13.1774 37.3559 12.9063 37.627C12.6353 37.898 12.2676 38.0503 11.8843 38.0503Z" fill="#FFBF41"/>
<path d="M10.2361 52.1963C9.91776 52.1967 9.60819 52.092 9.35546 51.8984C9.10273 51.7048 8.921 51.4331 8.83847 51.1257C8.75594 50.8182 8.77724 50.4921 8.89906 50.198C9.02088 49.9038 9.2364 49.6581 9.51216 49.4991L14.2223 46.7796C14.3867 46.6847 14.5681 46.6231 14.7563 46.5983C14.9445 46.5735 15.1357 46.5861 15.319 46.6352C15.5024 46.6843 15.6742 46.7691 15.8248 46.8846C15.9754 47.0002 16.1018 47.1442 16.1967 47.3086C16.2916 47.473 16.3532 47.6545 16.3779 47.8426C16.4027 48.0308 16.3902 48.222 16.341 48.4054C16.2919 48.5887 16.2071 48.7606 16.0916 48.9112C15.9761 49.0617 15.832 49.1881 15.6676 49.283L10.9575 52.0023C10.7383 52.1294 10.4895 52.1963 10.2361 52.1963Z" fill="#FFBF41"/>
<path d="M54.529 26.6243C54.2107 26.6247 53.9011 26.52 53.6484 26.3264C53.3957 26.1328 53.214 25.8612 53.1315 25.5538C53.0489 25.2464 53.0702 24.9203 53.192 24.6262C53.3137 24.332 53.5292 24.0864 53.8049 23.9272L58.5152 21.2077C58.6796 21.1113 58.8615 21.0484 59.0503 21.0226C59.2392 20.9968 59.4313 21.0086 59.6155 21.0573C59.7998 21.106 59.9726 21.1907 60.124 21.3065C60.2755 21.4223 60.4025 21.5668 60.4978 21.7319C60.5931 21.897 60.6548 22.0793 60.6794 22.2683C60.7039 22.4573 60.6909 22.6493 60.6409 22.8333C60.591 23.0172 60.5052 23.1895 60.3884 23.3401C60.2716 23.4908 60.1262 23.6168 59.9605 23.711L55.2502 26.4312C55.031 26.558 54.7822 26.6246 54.529 26.6243Z" fill="#FFBF41"/>
<path d="M46.1626 18.2596C45.909 18.2593 45.66 18.1924 45.4404 18.0654C45.2209 17.9384 45.0387 17.756 44.912 17.5363C44.7853 17.3166 44.7187 17.0675 44.7188 16.8139C44.7188 16.5603 44.7856 16.3112 44.9124 16.0916L47.6317 11.3813C47.8248 11.0521 48.1402 10.8126 48.5092 10.715C48.8781 10.6175 49.2707 10.6698 49.6013 10.8606C49.9318 11.0515 50.1734 11.3653 50.2734 11.7336C50.3734 12.102 50.3237 12.4949 50.135 12.8267L47.4157 17.5369C47.2887 17.7569 47.106 17.9394 46.886 18.0663C46.6661 18.1932 46.4165 18.2598 46.1626 18.2596Z" fill="#FFBF41"/>
<g filter="url(#filter0_d_1076_14469)">
<path d="M68.4404 52.9363C69.4449 49.9546 69.2756 46.7022 67.9669 43.8409C66.6583 40.9796 64.3087 38.7244 61.3961 37.5341C58.4836 36.3439 55.2269 36.3081 52.2889 37.4339C49.3509 38.5598 46.9522 40.7627 45.5809 43.5946C44.33 42.8879 42.9349 42.4746 41.501 42.386C40.067 42.2974 38.6317 42.5356 37.3033 43.0829C35.9749 43.6301 34.7881 44.472 33.8327 45.5449C32.8772 46.6178 32.178 47.8938 31.7878 49.2765C30.0789 48.8065 28.2892 48.7074 26.5388 48.9859C24.7884 49.2645 23.1179 49.9143 21.6393 50.8916C20.1607 51.8689 18.9082 53.1512 17.966 54.6524C17.0238 56.1536 16.4136 57.839 16.1763 59.5955C15.939 61.3519 16.0802 63.1388 16.5904 64.8362C17.1006 66.5336 17.968 68.1022 19.1343 69.4368C20.3006 70.7714 21.7389 71.8411 23.3526 72.5741C24.9664 73.307 26.7182 73.6864 28.4907 73.6865H67.1383C69.7879 73.6867 72.338 72.677 74.2694 70.8631C76.2008 69.0492 77.3683 66.5674 77.5343 63.923C77.7003 61.2786 76.8522 58.6703 75.1627 56.6292C73.4732 54.588 71.0694 53.2675 68.4405 52.9363H68.4404Z" fill="url(#paint1_radial_1076_14469)"/>
</g>
<defs>
<filter id="filter0_d_1076_14469" x="4.31798" y="24.6147" width="85.4902" height="61.0718" filterUnits="userSpaceOnUse" color-interpolation-filters="sRGB">
<feFlood flood-opacity="0" result="BackgroundImageFix"/>
<feColorMatrix in="SourceAlpha" type="matrix" values="0 0 0 0 0 0 0 0 0 0 0 0 0 0 0 0 0 0 127 0" result="hardAlpha"/>
<feOffset dx="0.253526"/>
<feGaussianBlur stdDeviation="6"/>
<feComposite in2="hardAlpha" operator="out"/>
<feColorMatrix type="matrix" values="0 0 0 0 1 0 0 0 0 1 0 0 0 0 1 0 0 0 1 0"/>
<feBlend mode="normal" in2="BackgroundImageFix" result="effect1_dropShadow_1076_14469"/>
<feBlend mode="normal" in="SourceGraphic" in2="effect1_dropShadow_1076_14469" result="shape"/>
</filter>
<linearGradient id="paint0_linear_1076_14469" x1="19" y1="24.5" x2="34.7369" y2="52.5015" gradientUnits="userSpaceOnUse">
<stop stop-color="#FFDFA1"/>
<stop offset="1" stop-color="#E99A00"/>
</linearGradient>
<radialGradient id="paint1_radial_1076_14469" cx="0" cy="0" r="1" gradientUnits="userSpaceOnUse" gradientTransform="translate(29.502 37) rotate(41.5453) scale(55.3163 119.122)">
<stop stop-color="#FFC93F"/>
<stop offset="0.354779" stop-color="#36A7E4"/>
<stop offset="0.990808" stop-color="#2F5AFF"/>
</radialGradient>
</defs>
</svg>
