<svg width="48" height="48" viewBox="0 0 48 48" fill="none" xmlns="http://www.w3.org/2000/svg">
<g clip-path="url(#clip0_349_1440)">
<path d="M44.1519 29.4012C44.0499 29.7839 44.0331 30.2252 44.0642 30.7227C44.0885 31.1097 44.1393 31.5042 44.1924 31.9167C44.2081 32.0387 44.224 32.1622 44.2395 32.2876C44.3681 33.3286 44.4811 34.5368 43.9216 35.5041C43.355 36.4838 42.2479 36.9928 41.2786 37.4011C41.1561 37.4527 41.0352 37.5028 40.9162 37.5521C40.5383 37.7087 40.1781 37.858 39.8373 38.0258C39.3928 38.2447 39.0239 38.4757 38.7498 38.7498C38.4757 39.0239 38.2447 39.3928 38.0258 39.8373C37.858 40.1781 37.7087 40.5383 37.5521 40.9162C37.5028 41.0352 37.4527 41.1561 37.4011 41.2786C36.9928 42.2479 36.4838 43.355 35.5041 43.9216C34.5368 44.4811 33.3286 44.3681 32.2876 44.2395C32.1622 44.224 32.0387 44.2081 31.9167 44.1924C31.5042 44.1393 31.1097 44.0885 30.7227 44.0642C30.2252 44.0331 29.7839 44.0499 29.4012 44.1519C29.0366 44.2493 28.6593 44.4506 28.2511 44.7253C27.946 44.9306 27.6466 45.1605 27.3316 45.4024C27.2214 45.487 27.1093 45.5732 26.9943 45.6602C26.1527 46.2974 25.1503 47 24 47C22.8497 47 21.8473 46.2974 21.0057 45.6602C20.8907 45.5732 20.7786 45.487 20.6684 45.4024C20.3534 45.1605 20.054 44.9306 19.7489 44.7253C19.3407 44.4506 18.9634 44.2493 18.5988 44.1519C18.2161 44.0499 17.7748 44.0331 17.2773 44.0642C16.8903 44.0885 16.4958 44.1393 16.0833 44.1924C15.9613 44.2081 15.8378 44.224 15.7124 44.2395C14.6714 44.3681 13.4632 44.4811 12.4959 43.9216C11.5162 43.355 11.0072 42.2479 10.5989 41.2786C10.5473 41.1561 10.4972 41.0353 10.4479 40.9162C10.2913 40.5383 10.142 40.1781 9.9742 39.8373C9.75532 39.3928 9.52433 39.0239 9.2502 38.7498C8.97607 38.4757 8.6072 38.2447 8.16266 38.0258C7.82189 37.858 7.46165 37.7087 7.08382 37.5521C6.96473 37.5028 6.8439 37.4527 6.72138 37.4011C5.75211 36.9928 4.64506 36.4838 4.07844 35.5041C3.51891 34.5368 3.63191 33.3286 3.76049 32.2876C3.77598 32.1622 3.79189 32.0387 3.8076 31.9167C3.86073 31.5042 3.91154 31.1097 3.93576 30.7227C3.9669 30.2253 3.95005 29.7841 3.84817 29.4015L44.1519 29.4012ZM44.1519 29.4012C44.2493 29.0366 44.4506 28.6593 44.7253 28.2511M44.1519 29.4012L44.7253 28.2511M44.7253 28.2511C44.9306 27.946 45.1605 27.6466 45.4024 27.3316M44.7253 28.2511L45.4024 27.3316M45.4024 27.3316C45.487 27.2214 45.5732 27.1093 45.6602 26.9943M45.4024 27.3316L45.6602 26.9943M45.6602 26.9943C46.2974 26.1527 47 25.1503 47 24M45.6602 26.9943L47 24M47 24C47 22.8497 46.2974 21.8473 45.6602 21.0057C45.5732 20.8907 45.487 20.7786 45.4024 20.6684C45.1605 20.3534 44.9306 20.054 44.7253 19.7489C44.4506 19.3407 44.2493 18.9634 44.1519 18.5988C44.0499 18.2161 44.0331 17.7748 44.0642 17.2773C44.0885 16.8903 44.1393 16.4958 44.1924 16.0833C44.2081 15.9613 44.224 15.8378 44.2395 15.7124C44.3681 14.6714 44.4811 13.4632 43.9216 12.4959C43.355 11.5162 42.2479 11.0072 41.2786 10.5989C41.1561 10.5473 41.0353 10.4972 40.9162 10.4479C40.5383 10.2913 40.1781 10.142 39.8373 9.9742C39.3928 9.75532 39.0239 9.52433 38.7498 9.2502C38.4757 8.97607 38.2447 8.6072 38.0258 8.16266C37.858 7.82189 37.7087 7.46165 37.5521 7.08382C37.5028 6.96473 37.4527 6.8439 37.4011 6.72138C36.9928 5.75211 36.4838 4.64506 35.5041 4.07844C34.5368 3.51891 33.3286 3.63191 32.2876 3.76049C32.1622 3.77598 32.0387 3.79189 31.9167 3.8076C31.5042 3.86073 31.1097 3.91154 30.7227 3.93576C30.2253 3.9669 29.7841 3.95005 29.4015 3.84817C29.0367 3.7508 28.6594 3.54949 28.2511 3.27474C27.946 3.06936 27.6466 2.83946 27.3316 2.59757C27.2214 2.51293 27.1093 2.42683 26.9943 2.3398C26.1527 1.70258 25.1503 1 24 1C22.8497 1 21.8473 1.70258 21.0057 2.3398M47 24L21.0057 2.3398M2.3398 26.9943C1.70258 26.1527 1 25.1503 1 24C1 22.8497 1.70258 21.8473 2.3398 21.0057C2.42683 20.8907 2.51293 20.7786 2.59757 20.6684C2.83946 20.3534 3.06936 20.054 3.27474 19.7489C3.54949 19.3406 3.7508 18.9633 3.84817 18.5985C3.95005 18.2159 3.9669 17.7747 3.93576 17.2773C3.91154 16.8903 3.86073 16.4958 3.8076 16.0833C3.79189 15.9613 3.77598 15.8378 3.76049 15.7124C3.63191 14.6714 3.51891 13.4632 4.07844 12.4959C4.64506 11.5162 5.75211 11.0072 6.72138 10.5989C6.8439 10.5473 6.96473 10.4972 7.0838 10.4479C7.46165 10.2913 7.82189 10.142 8.16266 9.9742C8.6072 9.75532 8.97607 9.52433 9.2502 9.2502C9.52433 8.97607 9.75532 8.6072 9.9742 8.16266C10.142 7.82189 10.2913 7.46165 10.4479 7.0838C10.4972 6.96473 10.5473 6.8439 10.5989 6.72138C11.0072 5.75211 11.5162 4.64506 12.4959 4.07844C13.4632 3.51891 14.6714 3.63191 15.7124 3.76049C15.8378 3.77598 15.9613 3.79189 16.0833 3.8076C16.4958 3.86073 16.8903 3.91154 17.2773 3.93576C17.7747 3.9669 18.2159 3.95005 18.5985 3.84817L2.3398 26.9943ZM2.3398 26.9943C2.42683 27.1093 2.51293 27.2214 2.59757 27.3316M2.3398 26.9943L2.59757 27.3316M2.59757 27.3316C2.83946 27.6466 3.06936 27.946 3.27474 28.2511M2.59757 27.3316L3.27474 28.2511M3.27474 28.2511C3.54943 28.6593 3.75071 29.0366 3.8481 29.4012L3.27474 28.2511ZM21.0057 2.3398C20.8907 2.42683 20.7786 2.51293 20.6684 2.59757M21.0057 2.3398L20.6684 2.59757M20.6684 2.59757C20.3534 2.83946 20.054 3.06936 19.7489 3.27474M20.6684 2.59757L19.7489 3.27474M19.7489 3.27474C19.3407 3.54943 18.9634 3.75071 18.5988 3.8481L19.7489 3.27474Z" fill="#EC72A5" stroke="#1F201E"/>
<path d="M30.149 16.9415L21.9374 25.1531L17.8511 21.0703C17.851 21.0702 17.851 21.0702 17.8509 21.0701C16.6919 19.9113 14.8117 19.9113 13.6527 21.0703C12.4937 22.2293 12.4937 24.1096 13.6527 25.2686L19.8815 31.4974C21.0142 32.6301 22.8533 32.6301 23.9861 31.4974L34.3436 21.1399C35.5026 19.9809 35.5026 18.1005 34.3436 16.9415C33.1846 15.7825 31.308 15.7825 30.149 16.9415Z" fill="#FFFCEE" stroke="#1F201E"/>
</g>
<defs>
<clipPath id="clip0_349_1440">
<rect width="48" height="48" fill="white"/>
</clipPath>
</defs>
</svg>
<svg width="48" height="48" viewBox="0 0 48 48" fill="none" xmlns="http://www.w3.org/2000/svg">
<path d="M44.1519 29.4012C44.0499 29.7839 44.0331 30.2252 44.0642 30.7227C44.0885 31.1097 44.1393 31.5042 44.1924 31.9167C44.2081 32.0387 44.224 32.1622 44.2395 32.2876C44.3681 33.3286 44.4811 34.5368 43.9216 35.5041C43.355 36.4838 42.2479 36.9928 41.2786 37.4011C41.1561 37.4527 41.0352 37.5028 40.9162 37.5521C40.5383 37.7087 40.1781 37.858 39.8373 38.0258C39.3928 38.2447 39.0239 38.4757 38.7498 38.7498C38.4757 39.0239 38.2447 39.3928 38.0258 39.8373C37.858 40.1781 37.7087 40.5383 37.5521 40.9162C37.5028 41.0352 37.4527 41.1561 37.4011 41.2786C36.9928 42.2479 36.4838 43.355 35.5041 43.9216C34.5368 44.4811 33.3286 44.3681 32.2876 44.2395C32.1622 44.224 32.0387 44.2081 31.9167 44.1924C31.5042 44.1393 31.1097 44.0885 30.7227 44.0642C30.2252 44.0331 29.7839 44.0499 29.4012 44.1519C29.0366 44.2493 28.6593 44.4506 28.2511 44.7253C27.946 44.9306 27.6466 45.1605 27.3316 45.4024C27.2214 45.487 27.1093 45.5732 26.9943 45.6602C26.1527 46.2974 25.1503 47 24 47C22.8497 47 21.8473 46.2974 21.0057 45.6602C20.8907 45.5732 20.7786 45.487 20.6684 45.4024C20.3534 45.1605 20.054 44.9306 19.7489 44.7253C19.3407 44.4506 18.9634 44.2493 18.5988 44.1519C18.2161 44.0499 17.7748 44.0331 17.2773 44.0642C16.8903 44.0885 16.4958 44.1393 16.0833 44.1924C15.9613 44.2081 15.8378 44.224 15.7124 44.2395C14.6714 44.3681 13.4632 44.4811 12.4959 43.9216C11.5162 43.355 11.0072 42.2479 10.5989 41.2786C10.5473 41.1561 10.4972 41.0353 10.4479 40.9162C10.2913 40.5383 10.142 40.1781 9.9742 39.8373C9.75532 39.3928 9.52433 39.0239 9.2502 38.7498C8.97607 38.4757 8.6072 38.2447 8.16266 38.0258C7.82189 37.858 7.46165 37.7087 7.08382 37.5521C6.96473 37.5028 6.8439 37.4527 6.72138 37.4011C5.75211 36.9928 4.64506 36.4838 4.07844 35.5041C3.51891 34.5368 3.63191 33.3286 3.76049 32.2876C3.77598 32.1622 3.79189 32.0387 3.8076 31.9167C3.86073 31.5042 3.91154 31.1097 3.93576 30.7227C3.9669 30.2253 3.95005 29.7841 3.84817 29.4015L44.1519 29.4012ZM44.1519 29.4012C44.2493 29.0366 44.4506 28.6593 44.7253 28.2511M44.1519 29.4012L44.7253 28.2511M44.7253 28.2511C44.9306 27.946 45.1605 27.6466 45.4024 27.3316M44.7253 28.2511L45.4024 27.3316M45.4024 27.3316C45.487 27.2214 45.5732 27.1093 45.6602 26.9943M45.4024 27.3316L45.6602 26.9943M45.6602 26.9943C46.2974 26.1527 47 25.1503 47 24M45.6602 26.9943L47 24M47 24C47 22.8497 46.2974 21.8473 45.6602 21.0057C45.5732 20.8907 45.487 20.7786 45.4024 20.6684C45.1605 20.3534 44.9306 20.054 44.7253 19.7489C44.4506 19.3407 44.2493 18.9634 44.1519 18.5988C44.0499 18.2161 44.0331 17.7748 44.0642 17.2773C44.0885 16.8903 44.1393 16.4958 44.1924 16.0833C44.2081 15.9613 44.224 15.8378 44.2395 15.7124C44.3681 14.6714 44.4811 13.4632 43.9216 12.4959C43.355 11.5162 42.2479 11.0072 41.2786 10.5989C41.1561 10.5473 41.0353 10.4972 40.9162 10.4479C40.5383 10.2913 40.1781 10.142 39.8373 9.9742C39.3928 9.75532 39.0239 9.52433 38.7498 9.2502C38.4757 8.97607 38.2447 8.6072 38.0258 8.16266C37.858 7.82189 37.7087 7.46165 37.5521 7.08382C37.5028 6.96473 37.4527 6.8439 37.4011 6.72138C36.9928 5.75211 36.4838 4.64506 35.5041 4.07844C34.5368 3.51891 33.3286 3.63191 32.2876 3.76049C32.1622 3.77598 32.0387 3.79189 31.9167 3.8076C31.5042 3.86073 31.1097 3.91154 30.7227 3.93576C30.2253 3.9669 29.7841 3.95005 29.4015 3.84817C29.0367 3.7508 28.6594 3.54949 28.2511 3.27474C27.946 3.06936 27.6466 2.83946 27.3316 2.59757C27.2214 2.51293 27.1093 2.42683 26.9943 2.3398C26.1527 1.70258 25.1503 1 24 1C22.8497 1 21.8473 1.70258 21.0057 2.3398M47 24L21.0057 2.3398M2.3398 26.9943C1.70258 26.1527 1 25.1503 1 24C1 22.8497 1.70258 21.8473 2.3398 21.0057C2.42683 20.8907 2.51293 20.7786 2.59757 20.6684C2.83946 20.3534 3.06936 20.054 3.27474 19.7489C3.54949 19.3406 3.7508 18.9633 3.84817 18.5985C3.95005 18.2159 3.9669 17.7747 3.93576 17.2773C3.91154 16.8903 3.86073 16.4958 3.8076 16.0833C3.79189 15.9613 3.77598 15.8378 3.76049 15.7124C3.63191 14.6714 3.51891 13.4632 4.07844 12.4959C4.64506 11.5162 5.75211 11.0072 6.72138 10.5989C6.8439 10.5473 6.96473 10.4972 7.0838 10.4479C7.46165 10.2913 7.82189 10.142 8.16266 9.9742C8.6072 9.75532 8.97607 9.52433 9.2502 9.2502C9.52433 8.97607 9.75532 8.6072 9.9742 8.16266C10.142 7.82189 10.2913 7.46165 10.4479 7.0838C10.4972 6.96473 10.5473 6.8439 10.5989 6.72138C11.0072 5.75211 11.5162 4.64506 12.4959 4.07844C13.4632 3.51891 14.6714 3.63191 15.7124 3.76049C15.8378 3.77598 15.9613 3.79189 16.0833 3.8076C16.4958 3.86073 16.8903 3.91154 17.2773 3.93576C17.7747 3.9669 18.2159 3.95005 18.5985 3.84817L2.3398 26.9943ZM2.3398 26.9943C2.42683 27.1093 2.51293 27.2214 2.59757 27.3316M2.3398 26.9943L2.59757 27.3316M2.59757 27.3316C2.83946 27.6466 3.06936 27.946 3.27474 28.2511M2.59757 27.3316L3.27474 28.2511M3.27474 28.2511C3.54943 28.6593 3.75071 29.0366 3.8481 29.4012L3.27474 28.2511ZM21.0057 2.3398C20.8907 2.42683 20.7786 2.51293 20.6684 2.59757M21.0057 2.3398L20.6684 2.59757M20.6684 2.59757C20.3534 2.83946 20.054 3.06936 19.7489 3.27474M20.6684 2.59757L19.7489 3.27474M19.7489 3.27474C19.3407 3.54943 18.9634 3.75071 18.5988 3.8481L19.7489 3.27474Z" fill="#EC72A5" stroke="#1F201E"/>
<path d="M30.149 16.9415L21.9374 25.1531L17.8511 21.0703C17.851 21.0702 17.851 21.0702 17.8509 21.0701C16.6919 19.9113 14.8117 19.9113 13.6527 21.0703C12.4937 22.2293 12.4937 24.1096 13.6527 25.2686L19.8815 31.4974C21.0142 32.6301 22.8533 32.6301 23.9861 31.4974L34.3436 21.1399C35.5026 19.9809 35.5026 18.1005 34.3436 16.9415C33.1846 15.7825 31.308 15.7825 30.149 16.9415Z" fill="#FFFCEE" stroke="#1F201E"/>
</svg>
