<svg width="32" height="32" viewBox="0 0 32 32" fill="none" xmlns="http://www.w3.org/2000/svg">
<path d="M20.1381 30.3153C20.9754 28.2552 20.8431 26.0664 19.7588 23.7857L19.1571 22.5201L18.8218 23.8807C18.6482 24.5852 18.4117 25.1095 18.126 25.4859C18.4554 23.1192 17.5303 20.647 15.4818 18.105L14.6158 17.0303L14.5926 18.4103C14.5422 21.3987 13.8243 23.4667 12.5421 24.7299C11.4976 25.7579 10.9348 26.9023 10.9481 28.1544C10.9549 28.7977 11.1136 29.4447 11.4103 30.0939C8.4611 28.182 6.82082 26.0568 6.36396 23.7457C5.86028 21.1976 6.76481 18.2725 9.24414 14.9391C9.74767 16.3134 10.6566 17.2414 11.9985 17.6276L12.8194 17.8638L12.6235 17.0324C11.21 11.0343 12.5107 5.90142 16.5358 1.57675C16.6639 6.01155 17.4414 8.6224 18.6866 10.6369C19.3582 11.7235 20.1542 12.6173 21.0155 13.5138C21.2483 13.7562 21.485 13.9979 21.7257 14.2437C22.3799 14.9118 23.0636 15.6101 23.7799 16.434C25.8222 19.0533 26.22 21.829 25.306 24.3821C24.5239 26.567 22.762 28.6385 20.1381 30.3153Z" fill="#EC72A5" stroke="#1F201E"/>
</svg>
