<svg width="200" height="200" viewBox="0 0 200 200" fill="none" xmlns="http://www.w3.org/2000/svg">
<path d="M128.884 166.648V166.638L128.884 166.627L132.939 69.7459L51.54 70.1197V142.106C51.54 146.929 52.8271 151.667 55.2635 155.831C55.2635 155.831 55.2635 155.831 55.2635 155.831L59.6984 163.406C59.6985 163.406 59.6987 163.407 59.6988 163.407C60.1305 164.14 60.3567 164.976 60.3567 165.829V193.78C60.3567 195.726 61.934 197.303 63.8796 197.303H125.361C127.306 197.303 128.884 195.726 128.884 193.78V166.648Z" fill="#EC72A5" stroke="#1F201E"/>
<path d="M129.061 162.4L131.304 108.805H98.7313C89.0435 108.805 81.0821 116.582 81.0143 126.26V126.26C81.014 126.326 81.0136 126.391 81.0136 126.455H80.7077C81.0136 126.455 81.0136 126.455 81.0136 126.455V126.456V126.458V126.467V126.504L81.0136 126.646L81.0136 127.185L81.0136 129.112L81.0138 134.963L81.0141 140.828L81.0142 142.772L81.0143 143.322L81.0143 143.471L81.0143 143.51L81.0143 143.523C81.0143 143.523 81.0143 143.523 81.0143 143.523C81.0883 153.99 89.7 162.4 100.177 162.4H129.061Z" fill="#DC437A" stroke="#1F201E"/>
<path d="M117.683 90.3912L117.942 90.126L118.271 90.2969C120.802 91.611 123.671 92.3582 126.714 92.3582C128.561 92.3582 130.343 92.0817 132.025 91.5727L132.938 69.7459L51.5393 70.1197V99.8147C54.1171 101.193 57.0577 101.978 60.1798 101.978C65.1372 101.978 69.6391 100.004 72.9516 96.8028L73.2166 96.5467L73.5397 96.724C76.1595 98.1621 79.1641 98.9816 82.3584 98.9816C87.3291 98.9816 91.8423 96.9961 95.1567 93.7786L95.4213 93.5218L95.7448 93.6986C98.3582 95.1272 101.353 95.9406 104.536 95.9406C109.683 95.9406 114.34 93.8128 117.683 90.3912Z" fill="#DC437A" stroke="#1F201E"/>
<path d="M119.227 44.5442L119.227 44.5445C117.312 46.4597 116.127 49.1077 116.127 52.0324V73.9687C116.127 79.8174 120.866 84.5559 126.714 84.5559C132.563 84.5559 137.302 79.8174 137.302 73.9687V52.0324C137.302 46.1834 132.563 41.4413 126.714 41.4413C123.79 41.4413 121.142 42.6254 119.227 44.5442Z" fill="#EC72A5" stroke="#1F201E"/>
<path d="M97.0491 48.1266L97.0488 48.1269C95.1337 50.0421 93.9495 52.6901 93.9495 55.6147V77.5511C93.9495 83.3998 98.6879 88.1383 104.537 88.1383C110.385 88.1383 115.124 83.3998 115.124 77.5511V55.6147C115.124 49.7658 110.385 45.0237 104.537 45.0237C101.612 45.0237 98.9641 46.2078 97.0491 48.1266Z" fill="#EC72A5" stroke="#1F201E"/>
<path d="M129.994 52.0324V73.9687C129.994 78.3844 127.525 82.2189 123.894 84.1741C124.791 84.4224 125.737 84.5559 126.714 84.5559C132.563 84.5559 137.301 79.8174 137.301 73.9687V52.0324C137.301 46.1834 132.563 41.4413 126.714 41.4413C125.736 41.4413 124.788 41.5742 123.889 41.8223C127.52 43.7786 129.994 47.6161 129.994 52.0324Z" fill="#DC437A" stroke="#1F201E"/>
<path d="M107.816 55.6147V77.5511C107.816 81.9668 105.347 85.8012 101.716 87.7564C102.614 88.0048 103.559 88.1383 104.537 88.1383C110.385 88.1383 115.124 83.3998 115.124 77.5511V55.6147C115.124 49.7658 110.385 45.0237 104.537 45.0237C103.559 45.0237 102.611 45.1564 101.712 45.4044C105.343 47.361 107.816 51.1986 107.816 55.6147Z" fill="#DC437A" stroke="#1F201E"/>
<path d="M128.883 166.648V166.638L128.884 166.627L129.836 143.873L112.343 163.69L112.314 197.303H125.36C127.306 197.303 128.883 195.726 128.883 193.78V166.648Z" fill="#DC437A" stroke="#1F201E"/>
<path d="M100.728 103.828L101.267 104.118L100.876 104.588L93.5107 113.455L93.5106 113.455C90.476 117.107 88.8159 121.706 88.8159 126.454V143.304C88.8159 155.92 99.0437 166.148 111.661 166.148H128.884V165.95V165.761L129.009 165.619L159.844 130.688C159.844 130.688 159.844 130.688 159.844 130.688C168.629 120.735 170.592 106.489 164.828 94.5336L165.278 94.3165L164.828 94.5336L156.409 77.0719L156.409 77.0718C152.324 68.5937 141.99 65.2347 133.697 69.6841L98.5864 88.5345C97.308 89.2214 96.2653 90.2239 95.5346 91.4209C94.8039 92.618 94.3888 94.0025 94.3594 95.454C94.3008 98.4612 95.9311 101.248 98.5825 102.673L98.5828 102.673L100.728 103.828Z" fill="#EC72A5" stroke="#1F201E"/>
<path d="M92.6103 89.6359L93.0371 89.8964C94.0479 88.2406 95.4868 86.8788 97.1996 85.9579C98.8174 85.1091 100.442 84.2473 102.071 83.3831C114.169 76.965 126.516 70.4147 138.262 68.0477C145.464 66.5965 153.049 70.1 156.409 77.0719L156.409 77.072L164.828 94.5337L165.278 94.3165L164.828 94.5337C170.592 106.489 168.628 120.735 159.843 130.688C159.843 130.688 159.843 130.688 159.843 130.688L129.008 165.619L128.883 165.761V165.95V166.148H112.341L112.341 165.897C112.343 164.474 112.863 163.101 113.804 162.035L143.023 128.935L143.023 128.935C152.074 118.68 154.097 104.002 148.158 91.6842L139.739 74.2226C139.739 74.2225 139.739 74.2225 139.739 74.2225C139.672 74.0832 139.621 73.9743 139.58 73.8856C139.523 73.7646 139.484 73.6814 139.446 73.6109C139.383 73.4932 139.307 73.3811 139.159 73.1601C139.134 73.122 139.106 73.0807 139.076 73.0356L139.076 73.0355C138.361 71.9673 136.96 71.5822 135.809 72.193L135.809 72.1931C132.331 74.039 123.262 78.5442 115.053 82.5923C110.95 84.6154 107.066 86.5228 104.207 87.9245C102.777 88.6254 101.604 89.1998 100.788 89.5989L99.8454 90.0602L99.5987 90.1808L99.5356 90.2116L99.5197 90.2194L99.5157 90.2214L99.5147 90.2219C99.5145 90.222 99.5144 90.222 99.7339 90.6713L99.5144 90.222L99.5057 90.2263L99.4972 90.2308C98.5431 90.7436 97.7408 91.5019 97.1778 92.4246C96.615 93.3463 96.306 94.4077 96.2843 95.4909V95.4911C96.2393 97.786 97.4701 99.8891 99.495 100.977L92.6103 89.6359ZM92.6103 89.6359L93.0371 89.8964C92.0277 91.5496 91.4734 93.4508 91.4335 95.3949C91.3527 99.5218 93.5601 103.296 97.1965 105.25L97.1967 105.251L101.799 107.727C101.799 107.727 101.799 107.727 101.799 107.727C105.967 109.967 110.573 111.091 115.183 111.091C119.5 111.091 123.819 110.105 127.785 108.128C127.785 108.128 127.785 108.128 127.785 108.128L138.322 102.873C139.539 102.267 140.1 100.817 139.553 99.6325C138.976 98.3846 137.488 97.868 136.267 98.4771L125.62 103.787L125.62 103.787C118.829 107.172 110.783 107.047 104.097 103.454L104.097 103.454L99.4953 100.977L92.6103 89.6359Z" fill="#DC437A" stroke="#1F201E"/>
<path d="M74.8714 51.1676L74.871 51.1679C72.9559 53.0831 71.7717 55.7311 71.7717 58.6558V80.5921C71.7717 86.4408 76.5102 91.1793 82.3589 91.1793C88.2076 91.1793 92.946 86.4408 92.946 80.5921V58.6558C92.946 52.8068 88.2074 48.0647 82.3589 48.0647C79.4342 48.0647 76.7864 49.2489 74.8714 51.1676Z" fill="#EC72A5" stroke="#1F201E"/>
<path d="M49.5935 62.3696V83.5882C49.5935 89.4331 54.3321 94.1753 60.1807 94.1753C66.0295 94.1753 70.7717 89.4329 70.7717 83.5882V62.3696C70.7717 56.5209 66.0294 51.7786 60.1807 51.7786C57.2563 51.7786 54.6121 52.9625 52.6928 54.8818C50.7777 56.7969 49.5935 59.4449 49.5935 62.3696Z" fill="#EC72A5" stroke="#1F201E"/>
<path d="M85.6381 58.6558V80.5921C85.6381 85.0079 83.1649 88.8429 79.5338 90.7982C80.433 91.0463 81.3811 91.1793 82.3589 91.1793C88.2076 91.1793 92.946 86.4408 92.946 80.5921V58.6558C92.946 52.8068 88.2074 48.0647 82.3589 48.0647C81.3808 48.0647 80.4327 48.1976 79.5334 48.4457C83.1651 50.402 85.6381 54.2396 85.6381 58.6558Z" fill="#DC437A" stroke="#1F201E"/>
<path d="M63.4638 62.3696V83.5882C63.4638 88.0017 60.989 91.8382 57.3567 93.7943C58.2556 94.0423 59.2032 94.1753 60.1807 94.1753C66.0295 94.1753 70.7717 89.4329 70.7717 83.5882V62.3696C70.7717 56.5209 66.0294 51.7786 60.1807 51.7786C59.2027 51.7786 58.2551 51.9114 57.3563 52.1595C60.9888 54.1159 63.4638 57.9531 63.4638 62.3696Z" fill="#DC437A" stroke="#1F201E"/>
<path d="M53.0801 3.81006L53.0801 3.80997C52.3553 2.68315 50.8538 2.35773 49.7276 3.08255C48.601 3.80779 48.2753 5.30859 49.0005 6.4355L63.5886 29.1045L63.5887 29.1047C64.0515 29.8247 64.8321 30.2182 65.6309 30.2182C66.0804 30.2182 66.5341 30.0938 66.9411 29.832C68.0677 29.1068 68.3934 27.606 67.6682 26.4791L53.0801 3.81006Z" fill="#FFE900" stroke="#1F201E"/>
<path d="M36.8576 49.4747L36.8578 49.4746C37.9119 48.6478 38.0963 47.1228 37.2693 46.0687L37.2692 46.0686L4.83482 4.72044C4.83481 4.72042 4.8348 4.72041 4.83479 4.72039C4.00768 3.66626 2.48258 3.48229 1.42887 4.30895L1.42881 4.309C0.37471 5.13572 0.190353 6.66078 1.01739 7.71488L1.01742 7.71492L33.4519 49.0632L33.4519 49.0632C33.9301 49.6731 34.6415 49.9922 35.3625 49.9922C35.8866 49.9922 36.4132 49.8236 36.8576 49.4747Z" fill="#FFE900" stroke="#1F201E"/>
<path d="M4.1058 79.5135L4.10572 79.5134C2.93492 78.862 1.45738 79.2838 0.806629 80.4546L0.806578 80.4547C0.155466 81.6256 0.576952 83.1029 1.7475 83.754L14.762 90.9913C14.7621 90.9913 14.7621 90.9914 14.7622 90.9914C15.1363 91.1991 15.5404 91.2975 15.9384 91.2975C16.7922 91.2975 17.618 90.8469 18.0615 90.05C18.7125 88.8791 18.291 87.402 17.1205 86.7509C17.1205 86.7509 17.1205 86.7509 17.1205 86.7509L4.1058 79.5135Z" fill="#FFE900" stroke="#1F201E"/>
<path d="M4.57537 137.667L4.57522 137.667C4.18266 137.904 3.75126 138.017 3.32473 138.017C2.50123 138.017 1.70016 137.598 1.24475 136.844L1.24474 136.844C0.552582 135.697 0.921289 134.206 2.06859 133.513L2.06863 133.513L14.6878 125.898L14.6879 125.898C15.834 125.206 17.3258 125.574 18.0184 126.722L4.57537 137.667ZM4.57537 137.667L17.1945 130.052L17.1946 130.052M4.57537 137.667L17.1946 130.052M17.1946 130.052C18.3418 129.36 18.7106 127.869 18.0184 126.722L17.1946 130.052Z" fill="#FFE900" stroke="#1F201E"/>
<path d="M36.1573 161.367L36.1573 161.367C35.6778 161.928 34.9978 162.217 34.3115 162.217C33.754 162.217 33.1946 162.026 32.7372 161.635C31.7187 160.765 31.5986 159.234 32.4687 158.215C32.4687 158.215 32.4687 158.215 32.4687 158.215L37.1591 152.726L37.1591 152.726C38.0286 151.708 39.5598 151.587 40.5792 152.457L36.1573 161.367ZM36.1573 161.367L40.8477 155.877M36.1573 161.367L40.8477 155.877M40.8477 155.877C40.8477 155.877 40.8477 155.877 40.8477 155.877M40.8477 155.877L40.8477 155.877M40.8477 155.877C41.7178 154.859 41.5978 153.328 40.5794 152.457L40.8477 155.877Z" fill="#FFE900" stroke="#1F201E"/>
<path d="M11.4762 190.253L11.4761 190.253C10.9966 190.814 10.3166 191.103 9.63029 191.103C9.07279 191.103 8.51342 190.912 8.05603 190.521C7.03749 189.651 6.91745 188.12 7.78757 187.101L24.121 167.985L24.1211 167.985C24.9906 166.967 26.5217 166.846 27.5412 167.717L11.4762 190.253ZM11.4762 190.253L27.8096 171.137M11.4762 190.253L27.8096 171.137M27.8096 171.137C28.6797 170.118 28.5597 168.587 27.5413 167.717L27.8096 171.137Z" fill="#FFE900" stroke="#1F201E"/>
<path d="M91.1173 18.89L91.1173 18.89L87.8876 9.17376C87.8876 9.17374 87.8876 9.17372 87.8875 9.17369C87.4648 7.90256 86.0921 7.21456 84.8201 7.63703C83.5487 8.05987 82.8608 9.43284 83.2835 10.7043L83.2835 10.7043L86.5133 20.4206L86.5134 20.4206C86.8511 21.437 87.7977 22.0819 88.815 22.0819C89.0679 22.0819 89.3259 22.042 89.5806 21.9573C90.8522 21.5345 91.5401 20.1615 91.1173 18.89Z" fill="#FFE900" stroke="#1F201E"/>
<path d="M136.411 29.1049L136.411 29.1049C135.948 29.8248 135.168 30.2183 134.369 30.2183C133.92 30.2183 133.466 30.0935 133.058 29.832L136.411 29.1049ZM136.411 29.1049L150.999 6.43552L150.999 6.43547M136.411 29.1049L150.999 6.43547M150.999 6.43547C151.724 5.30901 151.399 3.80788 150.272 3.08261L150.999 6.43547ZM146.919 3.81008L146.919 3.81005C147.644 2.68352 149.145 2.35779 150.272 3.08256L146.919 3.81008ZM146.919 3.81008L132.331 26.4791L132.331 26.4791M146.919 3.81008L132.331 26.4791M132.331 26.4791C131.606 27.6055 131.932 29.1065 133.058 29.8318L132.331 26.4791Z" fill="#FFE900" stroke="#1F201E"/>
<path d="M165.757 49.0767L165.757 49.0764L198.972 7.33808L198.972 7.33801C199.806 6.28981 199.632 4.76376 198.584 3.92915C197.536 3.09467 196.009 3.26839 195.176 4.31691L195.176 4.31705L161.961 46.0554L161.961 46.0555C161.126 47.1037 161.3 48.6296 162.348 49.4643C162.795 49.8198 163.327 49.9922 163.857 49.9922C164.572 49.9922 165.278 49.6786 165.757 49.0767Z" fill="#FFE900" stroke="#1F201E"/>
<path d="M184.405 91.0193L184.405 91.0193C184.045 91.2086 183.66 91.2975 183.281 91.2975C182.406 91.2975 181.564 90.8242 181.13 89.9981C180.508 88.8116 180.965 87.3451 182.151 86.7229L182.151 86.7229L195.946 79.4854L195.946 79.4854C197.132 78.8631 198.599 79.3201 199.222 80.5065L184.405 91.0193ZM184.405 91.0193L198.2 83.7818L198.2 83.7818M184.405 91.0193L198.2 83.7818M198.2 83.7818C199.387 83.1595 199.844 81.6931 199.222 80.5066L198.2 83.7818Z" fill="#FFE900" stroke="#1F201E"/>
<path d="M197.151 133.513L197.151 133.513C198.298 134.206 198.667 135.697 197.975 136.844L197.151 133.513ZM197.151 133.513L184.532 125.898C184.532 125.898 184.532 125.898 184.532 125.898C183.384 125.206 181.894 125.575 181.201 126.722C180.509 127.869 180.877 129.36 182.025 130.052L182.025 130.052M197.151 133.513L182.025 130.052M182.025 130.052L194.644 137.667L194.644 137.667M182.025 130.052L194.644 137.667M194.644 137.667C195.037 137.904 195.468 138.016 195.895 138.016C196.718 138.016 197.519 137.598 197.975 136.844L194.644 137.667Z" fill="#FFE900" stroke="#1F201E"/>
<path d="M166.751 158.215L166.751 158.215C167.621 159.233 167.501 160.765 166.482 161.635L166.751 158.215ZM166.751 158.215L162.06 152.726L162.06 152.726M166.751 158.215L162.06 152.726M162.06 152.726C161.19 151.707 159.659 151.587 158.64 152.457C157.621 153.328 157.501 154.859 158.372 155.877L158.372 155.877M162.06 152.726L158.372 155.877M158.372 155.877L163.062 161.367C163.062 161.367 163.062 161.367 163.062 161.367C163.542 161.928 164.222 162.217 164.908 162.217C165.466 162.217 166.025 162.026 166.482 161.635L158.372 155.877Z" fill="#FFE900" stroke="#1F201E"/>
<path d="M191.163 190.522L191.163 190.522C192.182 189.651 192.302 188.12 191.432 187.101L191.432 187.101L175.098 167.985L175.098 167.985C174.229 166.967 172.697 166.846 171.678 167.717L171.354 167.337L171.678 167.717C170.66 168.587 170.539 170.118 171.41 171.137L171.41 171.137L187.743 190.253L187.743 190.253C188.223 190.814 188.903 191.103 189.589 191.103C190.147 191.103 190.706 190.912 191.163 190.522Z" fill="#FFE900" stroke="#1F201E"/>
<path d="M116.716 10.7043L116.716 10.7043L113.486 20.4206C113.486 20.4206 113.486 20.4206 113.486 20.4206C113.148 21.4375 112.202 22.082 111.185 22.082C110.932 22.082 110.674 22.042 110.419 21.9573C109.147 21.5346 108.46 20.1615 108.882 18.89L108.882 18.89L112.112 9.17376C112.112 9.17375 112.112 9.17374 112.112 9.17373C112.535 7.90234 113.908 7.21462 115.179 7.63702L116.716 10.7043ZM116.716 10.7043C117.139 9.43287 116.451 8.05988 115.179 7.63706L116.716 10.7043Z" fill="#FFE900" stroke="#1F201E"/>
</svg>
