<svg width="96" height="96" viewBox="0 0 96 96" fill="none" xmlns="http://www.w3.org/2000/svg">
<path d="M48 4.5C72.0244 4.5 91.5 23.9756 91.5 48C91.5 72.0244 72.0246 91.5 48 91.5C39.7082 91.5 31.9598 89.1804 25.3662 85.1551C12.8518 77.5153 4.5 63.7328 4.5 48C4.5 23.9756 23.9756 4.5 48 4.5Z" fill="#62BDF2" stroke="#1F201E"/>
<path d="M42.8083 84.4917H42.5128L42.3703 84.7505L39.2311 90.4508L39.0534 90.5772C34.1349 89.5491 29.5211 87.6915 25.3662 85.155C17.8147 80.5449 11.7794 73.6969 8.17977 65.5341L36.4123 53.3689L44.0074 64.3146L50.7844 74.4364C50.2137 75.3313 49.9086 76.3725 49.9086 77.4387V79.9076C49.9086 82.4394 47.8563 84.4917 45.3245 84.4917H42.8083Z" fill="#71D4D9" stroke="#1F201E"/>
<path d="M60.074 29.2854C59.8522 31.1904 58.5005 32.7099 56.6854 33.1384C55.5042 33.4173 54.1592 33.738 53.0066 34.0134M60.074 29.2854L60.5706 29.3434L60.5706 29.3432M60.074 29.2854L60.5706 29.3432M60.074 29.2854L60.096 29.0969L37.8913 18.1013M60.5706 29.3432C60.3249 31.4537 58.8238 33.1473 56.8003 33.625L56.8003 33.625C55.6198 33.9037 54.2754 34.2243 53.1229 34.4997M60.5706 29.3432L60.5926 29.1548L60.5926 29.1547C61.5412 21.0071 52.9647 15.1344 45.712 18.9662L45.9456 19.4083L45.712 18.9662L43.3406 20.2192C41.2512 21.2877 38.7048 20.289 37.8913 18.1013M53.1229 34.4997L53.0066 34.0134M53.1229 34.4997C53.1229 34.4997 53.1229 34.4997 53.1229 34.4997L53.0066 34.0134M53.1229 34.4997C51.6419 34.8538 50.5014 36.0354 50.2 37.5281L48.665 45.1277C48.1868 47.4953 49.9464 49.7264 52.3602 49.8133L54.3299 49.8842C54.9611 49.9069 55.5822 50.051 56.1589 50.3089L56.2609 50.3545L56.3337 50.4391L66.9581 62.78L67.095 62.9391L67.0774 63.1483L65.9477 76.5269L65.4487 76.4952M53.0066 34.0134C51.3363 34.4128 50.0499 35.7455 49.7099 37.4291L48.1749 45.0288C47.6356 47.6988 49.6201 50.215 52.3422 50.313L54.312 50.3839C54.879 50.4042 55.4368 50.5337 55.9548 50.7654L66.5791 63.1062L65.4487 76.4952M65.4487 76.4952L65.947 76.5373L65.9474 76.5319M65.4487 76.4952C65.1883 80.604 67.7013 83.8078 70.9856 85.0548L71.6168 85.1296C83.8716 77.3187 92.0001 63.609 92.0001 48C92.0001 23.6996 72.3009 4.00017 48.0003 4.00017C39.5262 4.00017 31.6132 6.39798 24.8984 10.549V11.6704L35.8272 15.8282C36.7988 16.198 37.4271 17.1452 37.3897 18.184L65.9474 76.5319M65.9474 76.5319C65.7061 80.3733 68.0345 83.3736 71.1064 84.5656L71.4979 84.612C83.5311 76.8731 91.5001 63.3674 91.5001 48C91.5001 23.9757 72.0248 4.50017 48.0003 4.50017C39.7214 4.50017 31.9855 6.81466 25.3984 10.8288V11.3257L36.005 15.3609L36.005 15.3609C37.1452 15.7948 37.8935 16.8883 37.8913 18.1013M65.9474 76.5319L37.8913 18.1013" fill="#71D4D9" stroke="#1F201E"/>
<path d="M35.1221 79.0027C38.4608 78.5257 44.665 74.466 45.1383 73.7561C45.1383 73.7561 53.3342 59.259 58.4933 57.5393C65.6478 55.1545 77.095 62.3089 79.0028 48.9539" stroke="#1F201E" stroke-linecap="round" stroke-dasharray="7 7"/>
<path d="M8.74701 66.5968H8.77747L8.08672 65.7751C5.84347 63.1065 4.5 59.7039 4.5 55.9976C4.5 47.453 11.6487 40.5 20.5 40.5C29.3513 40.5 36.5 47.453 36.5 55.9976C36.5 59.7413 35.13 63.1753 32.8458 65.8558L32.1434 66.6801H32.1916L20.5001 81.2026L8.74701 66.5968Z" fill="#FFE900" stroke="#1F201E"/>
<path d="M28.5 56.5C28.5 60.9183 24.9183 64.5 20.5 64.5C16.0817 64.5 12.5 60.9183 12.5 56.5C12.5 52.0817 16.0817 48.5 20.5 48.5C24.9183 48.5 28.5 52.0817 28.5 56.5Z" fill="white" stroke="#1F201E"/>
<path d="M69.9262 26.2473H69.9545L69.3098 25.4362C67.5542 23.2272 66.5 20.4071 66.5 17.3312C66.5 10.2328 72.1082 4.5 79 4.5C85.8918 4.5 91.5 10.2328 91.5 17.3312C91.5 20.4379 90.4251 23.2843 88.6378 25.5032L87.9824 26.3168H88.0258L79.0003 38.1743L69.9262 26.2473Z" fill="#DC437A" stroke="#1F201E"/>
<path d="M84.5 17.5C84.5 20.2214 82.0794 22.5 79 22.5C75.9206 22.5 73.5 20.2214 73.5 17.5C73.5 14.7786 75.9206 12.5 79 12.5C82.0794 12.5 84.5 14.7786 84.5 17.5Z" fill="white" stroke="#1F201E"/>
</svg>
