<svg width="96" height="96" viewBox="0 0 96 96" fill="none" xmlns="http://www.w3.org/2000/svg">
<mask id="path-1-inside-1_1474_11764" fill="white">
<path fill-rule="evenodd" clip-rule="evenodd" d="M56.7061 90.3224C53.8939 90.8979 50.9822 91.2001 47.9998 91.2001C45.7646 91.2001 43.5689 91.0303 41.4251 90.703C37.5802 90.1159 33.9021 89.0219 30.461 87.4914C30.0719 87.3183 29.6857 87.1396 29.3027 86.9554C14.8062 79.985 4.7998 65.1611 4.7998 48.0001C4.7998 24.1414 24.1411 4.80005 47.9998 4.80005C71.8586 4.80005 91.1999 24.1414 91.1999 48.0001C91.1999 65.1611 81.1935 79.985 66.697 86.9554H66.6972C66.3928 87.1018 66.0865 87.2446 65.7782 87.384C64.9877 87.7414 64.1844 88.0757 63.3693 88.3861C61.2249 89.2027 58.9986 89.8533 56.7061 90.3224Z"/>
</mask>
<path fill-rule="evenodd" clip-rule="evenodd" d="M56.7061 90.3224C53.8939 90.8979 50.9822 91.2001 47.9998 91.2001C45.7646 91.2001 43.5689 91.0303 41.4251 90.703C37.5802 90.1159 33.9021 89.0219 30.461 87.4914C30.0719 87.3183 29.6857 87.1396 29.3027 86.9554C14.8062 79.985 4.7998 65.1611 4.7998 48.0001C4.7998 24.1414 24.1411 4.80005 47.9998 4.80005C71.8586 4.80005 91.1999 24.1414 91.1999 48.0001C91.1999 65.1611 81.1935 79.985 66.697 86.9554H66.6972C66.3928 87.1018 66.0865 87.2446 65.7782 87.384C64.9877 87.7414 64.1844 88.0757 63.3693 88.3861C61.2249 89.2027 58.9986 89.8533 56.7061 90.3224Z" fill="#FFFBCC"/>
<path d="M56.7061 90.3224L56.9066 91.3021L56.7061 90.3224ZM41.4251 90.703L41.5761 89.7145H41.5761L41.4251 90.703ZM30.461 87.4914L30.8674 86.5777H30.8674L30.461 87.4914ZM29.3027 86.9554L29.7361 86.0542H29.7361L29.3027 86.9554ZM66.697 86.9554L66.2636 86.0542L66.697 87.9554V86.9554ZM66.6972 86.9554L67.1305 87.8567L66.6972 85.9554V86.9554ZM65.7782 87.384L65.3663 86.4727L65.3663 86.4728L65.7782 87.384ZM63.3693 88.3861L63.7252 89.3206L63.3693 88.3861ZM47.9998 92.2001C51.0499 92.2001 54.0288 91.891 56.9066 91.3021L56.5057 89.3427C53.759 89.9048 50.9144 90.2001 47.9998 90.2001V92.2001ZM41.2742 91.6915C43.4678 92.0265 45.7139 92.2001 47.9998 92.2001V90.2001C45.8153 90.2001 43.6701 90.0342 41.5761 89.7145L41.2742 91.6915ZM30.0546 88.4051C33.5759 89.9713 37.3399 91.0908 41.2742 91.6915L41.5761 89.7145C37.8206 89.141 34.2283 88.0725 30.8674 86.5777L30.0546 88.4051ZM28.8694 87.8567C29.2612 88.0451 29.6564 88.228 30.0546 88.4051L30.8674 86.5777C30.4874 86.4087 30.1102 86.2341 29.7361 86.0542L28.8694 87.8567ZM3.7998 48.0001C3.7998 65.5599 14.0397 80.726 28.8694 87.8567L29.7361 86.0542C15.5728 79.244 5.7998 64.7624 5.7998 48.0001H3.7998ZM47.9998 3.80005C23.5888 3.80005 3.7998 23.5891 3.7998 48.0001H5.7998C5.7998 24.6936 24.6934 5.80005 47.9998 5.80005V3.80005ZM92.1999 48.0001C92.1999 23.5891 72.4108 3.80005 47.9998 3.80005V5.80005C71.3063 5.80005 90.1999 24.6936 90.1999 48.0001H92.1999ZM67.1303 87.8567C81.96 80.726 92.1999 65.5598 92.1999 48.0001H90.1999C90.1999 64.7624 80.4269 79.244 66.2636 86.0542L67.1303 87.8567ZM66.6972 85.9554H66.697V87.9554H66.6972V85.9554ZM66.1902 88.2952C66.5055 88.1526 66.819 88.0064 67.1305 87.8567L66.2639 86.0542C65.9667 86.1971 65.6674 86.3366 65.3663 86.4727L66.1902 88.2952ZM63.7252 89.3206C64.5593 89.003 65.3812 88.6609 66.1902 88.2952L65.3663 86.4728C64.5941 86.8219 63.8095 87.1484 63.0135 87.4515L63.7252 89.3206ZM56.9066 91.3021C59.2525 90.8221 61.5307 90.1562 63.7252 89.3206L63.0135 87.4515C60.9191 88.2491 58.7447 88.8846 56.5057 89.3427L56.9066 91.3021Z" fill="#1F201E" mask="url(#path-1-inside-1_1474_11764)"/>
<path d="M87.5939 43.8933C87.5939 35.5886 85.2768 27.8242 81.2542 21.2123C87.1631 28.5381 90.7002 37.8557 90.7005 48C90.7005 71.5823 71.5832 90.7 48.0005 90.7C37.8557 90.7 28.5377 87.1626 21.2117 81.2531C27.8239 85.2761 35.5886 87.5934 43.8938 87.5934C68.0284 87.5934 87.5939 68.0284 87.5939 43.8933Z" fill="#FFE900" stroke="#1F201E"/>
<mask id="path-4-inside-2_1474_11764" fill="white">
<path d="M30.144 59.228C27.0879 59.228 24.4629 61.0731 23.3216 63.7104C22.3327 63.2234 21.2203 62.9499 20.0437 62.9499C16.9518 62.9499 14.3009 64.8385 13.1819 67.5251C12.1486 66.9802 10.9713 66.6718 9.7216 66.6718C9.49409 66.6718 9.26905 66.682 9.04688 66.7022C12.2735 73.4096 17.1814 79.156 23.2243 83.3937C25.7363 82.2019 27.4735 79.6426 27.4735 76.6772C27.4735 75.5516 28 75 28 75C28 75 28.8048 74.088 30.144 74.088C34.2474 74.088 37.5738 70.7616 37.5738 66.6582C37.5738 62.5548 34.2474 59.228 30.144 59.228Z"/>
</mask>
<path d="M30.144 59.228C27.0879 59.228 24.4629 61.0731 23.3216 63.7104C22.3327 63.2234 21.2203 62.9499 20.0437 62.9499C16.9518 62.9499 14.3009 64.8385 13.1819 67.5251C12.1486 66.9802 10.9713 66.6718 9.7216 66.6718C9.49409 66.6718 9.26905 66.682 9.04688 66.7022C12.2735 73.4096 17.1814 79.156 23.2243 83.3937C25.7363 82.2019 27.4735 79.6426 27.4735 76.6772C27.4735 75.5516 28 75 28 75C28 75 28.8048 74.088 30.144 74.088C34.2474 74.088 37.5738 70.7616 37.5738 66.6582C37.5738 62.5548 34.2474 59.228 30.144 59.228Z" fill="#E4E9F2"/>
<path d="M23.3216 63.7104L22.8798 64.6075L23.8222 65.0717L24.2394 64.1076L23.3216 63.7104ZM13.1819 67.5251L12.7154 68.4096L13.6839 68.9205L14.105 67.9096L13.1819 67.5251ZM9.04688 66.7022L8.95667 65.7062L7.52066 65.8363L8.14572 67.1357L9.04688 66.7022ZM23.2243 83.3937L22.6502 84.2124L23.1269 84.5467L23.6529 84.2972L23.2243 83.3937ZM28 75L28.7233 75.6905C28.7324 75.681 28.7412 75.6714 28.7498 75.6617L28 75ZM30.144 58.228C26.6749 58.228 23.6978 60.3232 22.4039 63.3133L24.2394 64.1076C25.228 61.8231 27.5008 60.228 30.144 60.228V58.228ZM23.7635 62.8134C22.6402 62.2601 21.3769 61.9499 20.0437 61.9499V63.9499C21.0637 63.9499 22.0253 64.1867 22.8798 64.6075L23.7635 62.8134ZM20.0437 61.9499C16.5341 61.9499 13.5276 64.0944 12.2588 67.1406L14.105 67.9096C15.0743 65.5827 17.3695 63.9499 20.0437 63.9499V61.9499ZM13.6484 66.6406C12.4747 66.0216 11.1376 65.6718 9.7216 65.6718V67.6718C10.8049 67.6718 11.8225 67.9387 12.7154 68.4096L13.6484 66.6406ZM9.7216 65.6718C9.46398 65.6718 9.20884 65.6834 8.95667 65.7062L9.13708 67.6981C9.32925 67.6807 9.5242 67.6718 9.7216 67.6718V65.6718ZM8.14572 67.1357C11.4472 73.9986 16.4682 79.8773 22.6502 84.2124L23.7985 82.5749C17.8945 78.4348 13.0998 72.8205 9.94803 66.2687L8.14572 67.1357ZM23.6529 84.2972C26.5007 82.9461 28.4735 80.0433 28.4735 76.6772H26.4735C26.4735 79.242 24.972 81.4577 22.7957 82.4902L23.6529 84.2972ZM28.4735 76.6772C28.4735 76.2757 28.5663 76.0016 28.6409 75.8437C28.6789 75.7632 28.7137 75.7099 28.7322 75.6839C28.7415 75.671 28.7465 75.665 28.7457 75.666C28.7452 75.6665 28.7433 75.6688 28.7397 75.6729C28.7379 75.6749 28.7356 75.6774 28.7329 75.6803C28.7315 75.6818 28.7301 75.6834 28.7285 75.6851C28.7277 75.6859 28.7269 75.6868 28.726 75.6877C28.7256 75.6881 28.7251 75.6886 28.7247 75.6891C28.7245 75.6893 28.7241 75.6897 28.724 75.6898C28.7237 75.6901 28.7233 75.6905 28 75C27.2767 74.3095 27.2763 74.3099 27.276 74.3102C27.2758 74.3104 27.2755 74.3107 27.2753 74.311C27.2748 74.3115 27.2743 74.312 27.2738 74.3125C27.2728 74.3136 27.2718 74.3146 27.2708 74.3157C27.2687 74.318 27.2664 74.3204 27.2641 74.3229C27.2594 74.328 27.2542 74.3337 27.2485 74.3401C27.2371 74.3528 27.2239 74.368 27.2091 74.3858C27.1794 74.4214 27.1434 74.4673 27.1032 74.5236C27.023 74.6362 26.9262 74.7912 26.8326 74.9893C26.6439 75.3886 26.4735 75.9531 26.4735 76.6772H28.4735ZM30.144 75.088C34.7997 75.088 38.5738 71.3139 38.5738 66.6582H36.5738C36.5738 70.2093 33.6951 73.088 30.144 73.088V75.088ZM38.5738 66.6582C38.5738 62.0026 34.7998 58.228 30.144 58.228V60.228C33.695 60.228 36.5738 63.107 36.5738 66.6582H38.5738ZM28 75C28.7498 75.6617 28.7495 75.6619 28.7493 75.6622C28.7492 75.6623 28.7489 75.6626 28.7488 75.6628C28.7484 75.6632 28.7481 75.6636 28.7478 75.6639C28.7472 75.6646 28.7466 75.6653 28.7461 75.6659C28.745 75.6671 28.7441 75.668 28.7434 75.6688C28.7419 75.6704 28.7412 75.6712 28.7411 75.6713C28.741 75.6714 28.7436 75.6687 28.7488 75.6634C28.7593 75.6528 28.78 75.6325 28.8103 75.6055C28.8716 75.5512 28.9684 75.4733 29.0959 75.3944C29.3522 75.2359 29.7076 75.088 30.144 75.088V73.088C29.2413 73.088 28.5246 73.3961 28.0437 73.6935C27.8026 73.8427 27.6145 73.9928 27.483 74.1095C27.417 74.168 27.3644 74.219 27.3256 74.2582C27.3062 74.2779 27.2902 74.2947 27.2776 74.3082C27.2713 74.315 27.2659 74.3209 27.2613 74.3259C27.259 74.3284 27.257 74.3307 27.2551 74.3328C27.2542 74.3339 27.2533 74.3348 27.2525 74.3358C27.2521 74.3362 27.2517 74.3367 27.2513 74.3371C27.2511 74.3373 27.2508 74.3376 27.2507 74.3377C27.2505 74.338 27.2502 74.3383 28 75Z" fill="#1F201E" mask="url(#path-4-inside-2_1474_11764)"/>
<mask id="path-6-inside-3_1474_11764" fill="white">
<path d="M85.9996 67.4741C85.7774 67.454 85.5524 67.4437 85.3249 67.4437C84.0756 67.4437 82.8982 67.7521 81.8646 68.2971C80.7455 65.6105 78.0951 63.7219 75.0028 63.7219C73.8262 63.7219 72.7137 63.9954 71.7248 64.4824C70.584 61.8451 67.9586 60 64.9024 60C60.7991 60 57.4727 63.3264 57.4727 67.4298C57.4727 71.5332 60.7991 74.8595 64.9024 74.8595C66.079 74.8595 67.1915 74.586 68.1804 74.099C67.5 75 67.573 76.4842 67.573 77.4488C67.573 80.4142 69.3101 82.9735 71.8222 84.1652C77.8651 79.928 82.773 74.1815 85.9996 67.4741Z"/>
</mask>
<path d="M85.9996 67.4741C85.7774 67.454 85.5524 67.4437 85.3249 67.4437C84.0756 67.4437 82.8982 67.7521 81.8646 68.2971C80.7455 65.6105 78.0951 63.7219 75.0028 63.7219C73.8262 63.7219 72.7137 63.9954 71.7248 64.4824C70.584 61.8451 67.9586 60 64.9024 60C60.7991 60 57.4727 63.3264 57.4727 67.4298C57.4727 71.5332 60.7991 74.8595 64.9024 74.8595C66.079 74.8595 67.1915 74.586 68.1804 74.099C67.5 75 67.573 76.4842 67.573 77.4488C67.573 80.4142 69.3101 82.9735 71.8222 84.1652C77.8651 79.928 82.773 74.1815 85.9996 67.4741Z" fill="#E4E9F2"/>
<path d="M85.9996 67.4741L86.9007 67.9076L87.5258 66.6083L86.0898 66.4782L85.9996 67.4741ZM81.8646 68.2971L80.9415 68.6816L81.3625 69.6923L82.331 69.1817L81.8646 68.2971ZM71.7248 64.4824L70.807 64.8794L71.2241 65.8437L72.1667 65.3795L71.7248 64.4824ZM68.1804 74.099L68.9784 74.7016C69.2576 74.3319 69.2463 73.8189 68.9511 73.4618C68.6559 73.1048 68.1541 72.9972 67.7385 73.2019L68.1804 74.099ZM71.8222 84.1652L71.3935 85.0687L71.9196 85.3183L72.3963 84.984L71.8222 84.1652ZM86.0898 66.4782C85.8376 66.4554 85.5825 66.4437 85.3249 66.4437V68.4437C85.5223 68.4437 85.7172 68.4526 85.9094 68.4701L86.0898 66.4782ZM85.3249 66.4437C83.9092 66.4437 82.5721 66.7936 81.3982 67.4125L82.331 69.1817C83.2243 68.7107 84.2421 68.4437 85.3249 68.4437V66.4437ZM82.7877 67.9126C81.5189 64.8664 78.5128 62.7219 75.0028 62.7219V64.7219C77.6773 64.7219 79.9722 66.3546 80.9415 68.6816L82.7877 67.9126ZM75.0028 62.7219C73.6696 62.7219 72.4063 63.0321 71.283 63.5853L72.1667 65.3795C73.0212 64.9587 73.9828 64.7219 75.0028 64.7219V62.7219ZM72.6426 64.0854C71.3491 61.0951 68.3715 59 64.9024 59V61C67.5458 61 69.8189 62.5951 70.807 64.8794L72.6426 64.0854ZM64.9024 59C60.2468 59 56.4727 62.7741 56.4727 67.4298H58.4727C58.4727 63.8787 61.3513 61 64.9024 61V59ZM56.4727 67.4298C56.4727 72.0854 60.2468 75.8595 64.9024 75.8595V73.8595C61.3513 73.8595 58.4727 70.9809 58.4727 67.4298H56.4727ZM64.9024 75.8595C66.2356 75.8595 67.4989 75.5493 68.6222 74.9961L67.7385 73.2019C66.884 73.6228 65.9224 73.8595 64.9024 73.8595V75.8595ZM66.573 77.4488C66.573 80.8149 68.5457 83.7177 71.3935 85.0687L72.2508 83.2618C70.0745 82.2293 68.573 80.0136 68.573 77.4488H66.573ZM72.3963 84.984C78.5783 80.6493 83.5993 74.7706 86.9007 67.9076L85.0984 67.0406C81.9467 73.5925 77.1519 79.2067 71.248 83.3465L72.3963 84.984ZM67.3823 73.4964C66.8815 74.1596 66.7018 74.9691 66.6276 75.6402C66.553 76.3154 66.573 77.0071 66.573 77.4488H68.573C68.573 76.9259 68.5565 76.3932 68.6155 75.8599C68.6749 75.3225 68.7989 74.9394 68.9784 74.7016L67.3823 73.4964Z" fill="#1F201E" mask="url(#path-6-inside-3_1474_11764)"/>
<path d="M20.8642 28.8947C20.863 28.8322 20.8618 28.7694 20.8618 28.707C20.8618 23.4077 25.1578 19.1122 30.4566 19.1122C35.7554 19.1122 40.0514 23.4077 40.0514 28.707C40.0514 28.8195 40.0489 28.9308 40.0448 29.0425C43.2147 29.7706 45.579 32.6091 45.579 36.0004C45.579 39.9432 42.3827 43.139 38.4403 43.139H21.5517C17.6093 43.139 14.4131 39.9432 14.4131 36.0004C14.4131 32.2896 17.2442 29.2409 20.8642 28.8947Z" fill="white"/>
<path d="M60.2357 38.9276C60.2345 38.8652 60.2333 38.8024 60.2333 38.7399C60.2333 33.4407 64.5293 29.1451 69.8281 29.1451C75.1269 29.1451 79.4229 33.4407 79.4229 38.7399C79.4229 38.8525 79.4204 38.9638 79.4163 39.0755C82.5863 39.8036 84.9505 42.6421 84.9505 46.0334C84.9505 49.9762 81.7542 53.172 77.8118 53.172H60.9228C56.9804 53.172 53.7842 49.9762 53.7842 46.0334C53.7846 42.3226 56.6157 39.2738 60.2357 38.9276Z" fill="white"/>
<path d="M47.9998 23.1845C47.007 23.1845 46.2021 22.3797 46.2021 21.3869V13.5772C46.2021 12.5844 47.007 11.7795 47.9998 11.7795C48.9926 11.7795 49.7975 12.5844 49.7975 13.5772V21.3873C49.7975 22.3796 48.9927 23.1845 47.9998 23.1845Z" fill="white" stroke="#1F201E"/>
<path d="M73.3574 48.5429C73.3574 47.5501 74.1623 46.7452 75.1551 46.7452H82.9652C83.958 46.7452 84.7628 47.5501 84.7628 48.5429C84.7628 49.5357 83.958 50.3406 82.9652 50.3406H75.1551C74.1623 50.3406 73.3574 49.5357 73.3574 48.5429Z" fill="white" stroke="#1F201E"/>
<path d="M11.2363 48.5429C11.2363 47.5501 12.0412 46.7452 13.034 46.7452H20.8436C21.8365 46.7452 22.6413 47.5501 22.6413 48.5429C22.6413 49.5357 21.8365 50.3406 20.8436 50.3406H13.034C12.0412 50.3406 11.2363 49.5357 11.2363 48.5429Z" fill="white" stroke="#1F201E"/>
<path d="M65.9299 30.6116C65.2278 29.9096 65.2278 28.7712 65.9299 28.0691L71.4521 22.5469C72.1541 21.8449 73.2925 21.8449 73.9946 22.5469C74.6966 23.249 74.6966 24.3874 73.9946 25.0894L68.4723 30.6116C67.7703 31.3137 66.6319 31.3137 65.9299 30.6116Z" fill="white" stroke="#1F201E"/>
<path d="M22.0031 22.5469C22.7051 21.8449 23.8435 21.8449 24.5456 22.5469L30.0678 28.0691C30.7699 28.7712 30.7699 29.9096 30.0678 30.6116C29.3658 31.3137 28.2274 31.3137 27.5253 30.6116L22.0031 25.0894C21.3011 24.3874 21.3011 23.249 22.0031 22.5469Z" fill="white" stroke="#1F201E"/>
<path d="M68.8674 75.352H27.1318V70.6427C27.1318 70.0116 27.6435 69.5 28.2745 69.5H67.7247C68.3558 69.5 68.8674 70.0116 68.8674 70.6427V75.352Z" fill="#FFA91A" stroke="#1F201E"/>
<path d="M72.9743 80.9515H23.0254V76.2426C23.0254 75.6116 23.537 75.1 24.1681 75.1H71.8316C72.4626 75.1 72.9743 75.6116 72.9743 76.2426V80.9515Z" fill="#F79219" stroke="#1F201E"/>
<path d="M20.4514 80.6035H75.5444C72.449 83.052 67.2243 85.8882 63.8858 87.5H31.6142C28.2661 85.8829 23.9446 83.4469 20.4514 80.6035Z" fill="#E97E00" stroke="#1F201E"/>
<path d="M58.4222 41.4343V41.9175L58.9052 41.934C61.1521 42.0107 62.9502 43.8562 62.9502 46.122V69.5H33.0488V46.122C33.0488 43.8563 34.8473 42.0107 37.0943 41.934L37.5772 41.9175V41.4343V41.0971C37.5772 37.9255 39.4397 35.05 42.3341 33.7532L42.3341 33.7532L47.712 31.3435C47.895 31.2616 48.1045 31.2616 48.2875 31.3435L53.6653 33.7532L53.6654 33.7532C56.5598 35.05 58.4222 37.9259 58.4222 41.0971V41.4343Z" fill="#FFE900" stroke="#1F201E"/>
<path d="M55.1291 43.592V44.0752L55.6121 44.0917C57.1005 44.1425 58.2921 45.3655 58.2921 46.8662V69.5H37.707V46.8662C37.707 45.3652 38.8985 44.1425 40.387 44.0917L40.87 44.0752V43.592V43.3562C40.87 41.2006 42.1361 39.2459 44.1037 38.3642L47.8605 36.6809L47.8609 36.6807C47.9491 36.6411 48.05 36.6411 48.1382 36.6807L48.1386 36.6809L51.8954 38.3642L51.8955 38.3643C53.8629 39.2455 55.1291 41.2006 55.1291 43.3562V43.592Z" fill="#FFD400" stroke="#1F201E"/>
<path d="M54.9858 22.6389C56.4882 22.807 58.6449 23.5198 59.9753 20.1785C59.5593 22.7363 59.589 23.8969 61.3872 25.4428C58.9193 24.852 58.028 25.784 56.6877 27.3715C57.5774 24.8074 56.3282 23.305 54.9858 22.6389Z" fill="white" stroke="black" stroke-width="0.872204"/>
<path d="M27 51.9003C29.2085 51.3637 32.6215 51.2594 32.7793 45.8552C33.5093 49.6818 34.1492 51.3057 37.4851 52.5626C33.6953 52.9996 32.9166 54.7749 31.8415 57.7073C31.7772 53.6279 29.239 52.1496 27 51.9003Z" fill="white" stroke="black" stroke-width="0.872204"/>
<path d="M53.127 59.085C55.3354 58.5484 58.7484 58.4441 58.9063 53.0399C59.6363 56.8665 60.2762 58.4904 63.612 59.7473C59.8223 60.1843 59.0436 61.9596 57.9685 64.892C57.9041 60.8126 55.366 59.3342 53.127 59.085Z" fill="white" stroke="black" stroke-width="0.872204"/>
<path d="M48 37V69" stroke="#1F201E" stroke-linecap="round"/>
</svg>
