<svg width="96" height="96" viewBox="0 0 96 96" fill="none" xmlns="http://www.w3.org/2000/svg">
<path d="M90.0173 47.983C90.0173 71.1883 71.2057 90 48.0003 90C24.795 90 5.9834 71.1883 5.9834 47.983C5.9834 24.7777 24.795 5.96606 48.0003 5.96606C71.2057 5.96606 90.0173 24.7777 90.0173 47.983Z" fill="#FFFBCC" stroke="#1F201E"/>
<path d="M47.9998 5.96612H48.0006C66.9463 5.96612 82.9636 18.5063 88.2049 35.7398C81.1328 35.5252 74.398 32.6218 69.3827 27.6072C69.3827 27.6072 69.3827 27.6071 69.3827 27.6071L66.6804 24.9049C66.3452 24.5697 65.9472 24.3038 65.5092 24.1224C65.0712 23.9409 64.6018 23.8476 64.1277 23.8476C63.6536 23.8476 63.1842 23.9409 62.7462 24.1224C62.3082 24.3038 61.9102 24.5697 61.575 24.9049C61.3326 25.1473 61.0449 25.3396 60.7282 25.4707C60.4116 25.6019 60.0722 25.6694 59.7294 25.6694C59.3867 25.6694 59.0473 25.6019 58.7306 25.4707C58.4139 25.3396 58.1262 25.1473 57.8838 24.9049L57.5173 24.5384C56.6526 23.6737 55.6261 22.9878 54.4963 22.5198C53.3665 22.0519 52.1557 21.811 50.9328 21.811C49.71 21.811 48.4991 22.0519 47.3693 22.5198C46.2395 22.9878 45.213 23.6737 44.3483 24.5384C43.8653 25.0214 43.2918 25.4046 42.6607 25.666C42.0296 25.9274 41.3532 26.062 40.6701 26.062C39.987 26.062 39.3106 25.9274 38.6795 25.666C38.0484 25.4046 37.475 25.0215 36.992 24.5385C36.992 24.5385 36.9919 24.5385 36.9919 24.5384L25.1687 12.7068C31.9615 8.29774 39.8928 5.95356 47.9998 5.96612Z" fill="#FFE900" stroke="#1F201E"/>
<path d="M37.2376 43.0847H35.3054V9.86441C35.3054 8.95413 34.9438 8.08114 34.3001 7.43747C33.6565 6.79381 32.7835 6.4322 31.8732 6.4322C30.9629 6.4322 30.0899 6.79381 29.4463 7.43747C28.8026 8.08114 28.441 8.95413 28.441 9.86441V43.0847H26.5088V9.86441C26.5088 8.44168 27.074 7.07722 28.08 6.0712C29.086 5.06518 30.4505 4.5 31.8732 4.5C33.2959 4.5 34.6604 5.06518 35.6664 6.0712C36.6724 7.07722 37.2376 8.44168 37.2376 9.86441V43.0847Z" fill="#EC72A5" stroke="#1F201E"/>
<path d="M20.1447 35.2881H43.6023C46.565 35.2881 48.9667 37.6898 48.9667 40.6525V78.7711C48.9667 81.7338 46.565 84.1355 43.6023 84.1355H20.1447C17.182 84.1355 14.7803 81.7338 14.7803 78.7711V40.6525C14.7803 37.6898 17.182 35.2881 20.1447 35.2881Z" fill="#EC72A5" stroke="#1F201E"/>
<path d="M21.6104 46.5168H24.5426V80.2372H21.6104V46.5168Z" fill="#7FDDBB"/>
<path d="M30.4072 46.5168H33.3394V80.2372H30.4072V46.5168Z" fill="#7FDDBB"/>
<path d="M39.2041 46.5168H42.1363V80.2372H39.2041V46.5168Z" fill="#7FDDBB"/>
<path d="M44.7424 72.6269L60.4099 40.0548L88.3868 54.0739L71.8537 88.3668L45.8799 75.8731C45.592 75.7346 45.3343 75.5408 45.1213 75.3028C44.9084 75.0647 44.7444 74.787 44.6388 74.4856C44.5332 74.1842 44.488 73.8649 44.5057 73.546C44.5235 73.227 44.6039 72.9148 44.7424 72.6269L44.292 72.4103L44.7424 72.6269Z" fill="white" stroke="#1F201E"/>
<path d="M87.742 55.3366L61.7685 42.843C61.1872 42.5634 60.7408 42.0643 60.5275 41.4555C60.3142 40.8468 60.3514 40.1782 60.631 39.5969C60.9106 39.0156 61.4097 38.5692 62.0185 38.3558C62.6272 38.1425 63.2958 38.1798 63.8771 38.4594L89.8506 50.9529L87.742 55.3366Z" fill="#E4E9F2" stroke="#1F201E"/>
<path d="M75.3833 62.2251C75.3833 66.8072 71.6687 70.5217 67.0866 70.5217C62.5046 70.5217 58.79 66.8072 58.79 62.2251C58.79 57.643 62.5046 53.9285 67.0866 53.9285C71.6687 53.9285 75.3833 57.643 75.3833 62.2251Z" fill="#62BDF2" stroke="#1F201E"/>
<path d="M53.4824 74.6442L54.319 72.9034L66.6276 78.8186L65.791 80.5594L53.4824 74.6442Z" fill="#62BDF2" stroke="#1F201E" stroke-width="0.999645"/>
<path d="M88.3443 18.661L82.9998 24.0055C82.6138 24.3914 82.1093 24.6363 81.5673 24.7008C81.0253 24.7653 80.4774 24.6456 80.0117 24.361L56.1337 9.76888L56.8452 9.05732L56.8452 9.05732C57.6912 8.21138 58.7956 7.67248 59.983 7.52631C61.1704 7.38014 62.3725 7.63507 63.3984 8.25058L66.8026 10.2931L67.038 10.4343L67.2835 10.3116L75.7578 6.07444L76.6624 6.97908L72.5243 12.4966L72.2071 12.9194L72.6469 13.2126L81.4435 19.077L81.7209 19.2619L81.9982 19.077L86.0555 16.3722L88.3443 18.661Z" fill="#62BDF2" stroke="#1F201E"/>
<path d="M21.6104 46.5168H24.5426V80.2372H21.6104V46.5168Z" fill="#DC437A"/>
<path d="M30.4072 46.5168H33.3394V80.2372H30.4072V46.5168Z" fill="#DC437A"/>
<path d="M39.2031 46.5168H42.1353V80.2372H39.2031V46.5168Z" fill="#DC437A"/>
<path d="M60.2178 57.2683C61.6839 62.644 69.5031 65.5762 74.8788 64.5988" stroke="black" stroke-linejoin="round"/>
<path d="M71 55C62.5 57 62.0001 68 64.4998 70C67.9996 70 74 61.5 71 55Z" stroke="black" stroke-linejoin="round"/>
</svg>
