<svg width="38" height="50" viewBox="0 0 38 50" fill="none" xmlns="http://www.w3.org/2000/svg">
<path d="M20.2717 47.9001L20.2717 47.9002C20.1239 48.1205 19.9342 48.2871 19.7222 48.4V1.43624C28.9451 1.81485 36.306 9.41153 36.306 18.7274C36.306 22.2923 35.2283 25.6032 33.3825 28.3557L20.2717 47.9001Z" fill="#DC437A" stroke="black" stroke-width="1.44444"/>
<path d="M19.7583 47.9779L19.7583 47.9779C19.5201 48.4514 19.2078 48.5784 18.9998 48.5784C18.5122 48.5784 18.0318 48.3528 17.7282 47.9001L17.1284 48.3025C17.7281 47.9001 17.7281 47.9001 17.728 47.8999L17.7276 47.8993L17.7258 47.8966L17.7186 47.886L17.6905 47.8441L17.5809 47.6806L17.1648 47.0603L15.6796 44.8463L11.1728 38.1279L6.66621 31.4095L5.37217 29.4802H5.37247L4.62787 28.3703L4.62111 28.3602L4.62093 28.36L4.6203 28.359L4.62001 28.3586L4.61806 28.3556C2.77158 25.6032 1.6939 22.2924 1.6939 18.7274C1.6939 9.16963 9.44206 1.42147 18.9998 1.42147C22.4553 1.42147 25.6387 3.28727 27.983 6.41292C30.3274 9.53879 31.7988 13.8902 31.7988 18.7274C31.7988 22.3326 30.9808 25.671 29.5914 28.4335L19.7583 47.9779Z" fill="#EC72A5" stroke="black" stroke-width="1.44444"/>
<path d="M27.2918 18.7274C27.2918 23.3068 23.5794 27.0192 18.9999 27.0192C14.4205 27.0192 10.7081 23.3068 10.7081 18.7274C10.7081 14.1479 14.4205 10.4355 18.9999 10.4355C23.5794 10.4355 27.2918 14.1479 27.2918 18.7274Z" fill="white" stroke="black" stroke-width="1.44444"/>
<path d="M22.785 18.7274C22.785 20.8177 21.0905 22.5122 19.0002 22.5122C16.9099 22.5122 15.2154 20.8177 15.2154 18.7274C15.2154 16.6371 16.9099 14.9426 19.0002 14.9426C21.0905 14.9426 22.785 16.6371 22.785 18.7274Z" fill="#57B3FE" stroke="black" stroke-width="1.44444"/>
</svg>
