<svg width="675" height="328" viewBox="0 0 675 328" fill="none" xmlns="http://www.w3.org/2000/svg">
<path d="M34.6144 211.474C-68.1836 216.508 79.4687 257.587 197.56 243.287C252.922 236.583 328.958 221.542 405.734 233.185C450.138 239.918 620.72 221.542 691.373 221.542C762.025 221.542 670.506 211.474 620.04 211.474C569.574 211.474 558.867 160.038 483.167 189.661C407.468 219.283 474.296 171.133 395.569 143.553C323.047 118.148 305.811 170.876 278.559 183.133C251.307 195.391 192.128 166.169 163.941 189.661C135.754 213.152 137.412 206.441 34.6144 211.474Z" fill="#FFD400"/>
<path d="M266.531 169.38C265.995 179.849 274.047 188.771 284.516 189.307C294.985 189.844 303.906 181.792 304.443 171.323C304.98 160.854 296.928 151.933 286.459 151.396C275.99 150.859 267.068 158.911 266.531 169.38Z" fill="#423D9B" stroke="#1F201E"/>
<path d="M276.533 169.893C276.28 174.838 280.084 179.053 285.029 179.307C289.975 179.56 294.189 175.756 294.443 170.811C294.696 165.865 290.893 161.651 285.947 161.397C281.001 161.144 276.787 164.947 276.533 169.893Z" fill="#211A67" stroke="#1F201E"/>
<path d="M417.141 -7.57548L417.139 -7.57789C409.178 -17.8161 391.524 -16.5206 386.33 -2.73737L386.33 -2.7373L365.683 52.0269L431.417 38.972L420.316 -1.18368C420.316 -1.18377 420.316 -1.18385 420.316 -1.18393C419.625 -3.66484 418.543 -5.79407 417.141 -7.57548Z" fill="#EC72A5" stroke="#1F201E"/>
<path d="M414.406 17.6619C409.602 29.2811 399.264 42.0469 377.546 49.671L431.417 38.9722L420.315 -1.18349C420.315 -1.1836 420.315 -1.1837 420.315 -1.18381C419.819 -2.96707 419.12 -4.56863 418.246 -5.98993C418.249 -5.94688 418.253 -5.90318 418.256 -5.85884C418.357 -4.51947 418.432 -2.59579 418.332 -0.247955C418.131 4.44644 417.225 10.8455 414.406 17.6619Z" fill="#DC437A" stroke="#1F201E"/>
<path d="M532.813 154.641L462.637 150.311C460.08 151.111 458.621 153.547 458.112 156.934C457.598 160.347 458.079 164.591 459.283 168.651C460.486 172.711 462.394 176.531 464.685 179.114C466.982 181.704 469.563 182.951 472.172 182.178L472.214 182.166L472.257 182.161C486.935 180.489 502.335 173.421 514.092 166.744C519.965 163.409 524.917 160.179 528.401 157.783C530.142 156.585 531.516 155.595 532.454 154.906C532.582 154.812 532.702 154.724 532.813 154.641Z" fill="#423D9B" stroke="#1F201E"/>
<path d="M464.037 154.732L463.895 154.252L464.037 154.732C463.403 154.92 462.908 155.38 462.544 156.113C462.175 156.856 461.956 157.855 461.885 159.048C461.742 161.431 462.199 164.456 463.06 167.399C463.932 170.384 465.205 173.234 466.638 175.206C467.356 176.194 468.095 176.934 468.82 177.371C469.535 177.802 470.211 177.923 470.854 177.733C471.484 177.546 471.976 177.092 472.339 176.368C472.707 175.635 472.928 174.648 473.003 173.469C473.154 171.114 472.712 168.121 471.87 165.196C471.003 162.187 469.727 159.302 468.284 157.302C467.562 156.3 466.818 155.548 466.088 155.104C465.366 154.664 464.685 154.54 464.037 154.732Z" fill="#211A67" stroke="#1F201E"/>
<path d="M463.844 143.04L393.669 138.71C391.111 139.51 389.653 141.946 389.143 145.333C388.629 148.746 389.111 152.99 390.314 157.05C391.517 161.11 393.425 164.93 395.716 167.512C398.013 170.103 400.595 171.35 403.203 170.577L403.245 170.565L403.289 170.56C417.966 168.888 433.366 161.82 445.124 155.143C450.996 151.808 455.949 148.578 459.432 146.181C461.173 144.983 462.547 143.994 463.485 143.305C463.613 143.211 463.733 143.123 463.844 143.04Z" fill="#423D9B" stroke="#1F201E"/>
<path d="M402.108 166.797C399.439 167.589 395.685 162.867 393.721 156.251C391.758 149.635 392.329 143.63 394.997 142.838C397.665 142.046 401.42 146.768 403.383 153.384C405.347 160 404.776 166.005 402.108 166.797Z" fill="#211A67"/>
<path d="M619.727 47.0901C620.514 46.857 621.321 46.6178 622.137 46.3296C630.288 43.729 639.399 39.688 640.866 35.278C643.887 26.131 602.287 22.5577 585.839 23.1334C573.581 23.5762 534.752 34.3437 534.619 46.2174C534.502 56.5838 600.541 52.776 619.727 47.0901Z" fill="#EC72A5"/>
<mask id="path-11-inside-1_1402_5275" fill="white">
<path fill-rule="evenodd" clip-rule="evenodd" d="M227.346 120.141C236.371 64.1178 463.847 33.5412 506.917 28.2449C511.31 27.7048 515.137 25.0111 517.139 21.0643L548.147 -40.073C550.627 -44.9627 555.011 -48.6159 560.268 -50.1738L582.757 -56.8387C587.032 -58.1055 591.317 -54.8887 591.294 -50.4305L590.86 34.3705C590.826 41.039 587.415 47.2666 581.754 50.7913C432.275 143.863 263.895 183.894 217.495 166.527C204.79 161.771 200.2 145.814 207.537 134.403C211.873 127.658 218.884 122.943 227.346 120.141ZM466.865 71.4534C461.447 72.9364 455.863 69.7327 454.38 64.3161C452.903 58.9219 456.084 53.343 461.501 51.86C466.918 50.377 472.497 53.5581 473.973 58.9523C475.456 64.369 472.282 69.9704 466.865 71.4534ZM416.936 73.0145C418.419 78.4312 424.003 81.6349 429.421 80.1519C434.838 78.6689 438.012 73.0675 436.529 67.6508C435.053 62.2566 429.474 59.0755 424.057 60.5585C418.64 62.0414 415.459 67.6204 416.936 73.0145ZM391.977 88.8507C386.56 90.3337 380.975 87.13 379.492 81.7133C378.016 76.3192 381.196 70.7402 386.613 69.2572C392.03 67.7743 397.609 70.9554 399.085 76.3496C400.568 81.7662 397.394 87.3677 391.977 88.8507ZM342.048 90.4118C343.531 95.8284 349.115 99.0321 354.533 97.5491C359.95 96.0661 363.124 90.4646 361.641 85.048C360.165 79.6538 354.586 76.4727 349.169 77.9556C343.752 79.4386 340.571 85.0176 342.048 90.4118ZM317.088 106.248C311.671 107.731 306.086 104.527 304.604 99.1103C303.127 93.7161 306.307 88.1372 311.725 86.6542C317.142 85.1712 322.72 88.3524 324.197 93.7465C325.68 99.1632 322.505 104.765 317.088 106.248Z"/>
</mask>
<path fill-rule="evenodd" clip-rule="evenodd" d="M227.346 120.141C236.371 64.1178 463.847 33.5412 506.917 28.2449C511.31 27.7048 515.137 25.0111 517.139 21.0643L548.147 -40.073C550.627 -44.9627 555.011 -48.6159 560.268 -50.1738L582.757 -56.8387C587.032 -58.1055 591.317 -54.8887 591.294 -50.4305L590.86 34.3705C590.826 41.039 587.415 47.2666 581.754 50.7913C432.275 143.863 263.895 183.894 217.495 166.527C204.79 161.771 200.2 145.814 207.537 134.403C211.873 127.658 218.884 122.943 227.346 120.141ZM466.865 71.4534C461.447 72.9364 455.863 69.7327 454.38 64.3161C452.903 58.9219 456.084 53.343 461.501 51.86C466.918 50.377 472.497 53.5581 473.973 58.9523C475.456 64.369 472.282 69.9704 466.865 71.4534ZM416.936 73.0145C418.419 78.4312 424.003 81.6349 429.421 80.1519C434.838 78.6689 438.012 73.0675 436.529 67.6508C435.053 62.2566 429.474 59.0755 424.057 60.5585C418.64 62.0414 415.459 67.6204 416.936 73.0145ZM391.977 88.8507C386.56 90.3337 380.975 87.13 379.492 81.7133C378.016 76.3192 381.196 70.7402 386.613 69.2572C392.03 67.7743 397.609 70.9554 399.085 76.3496C400.568 81.7662 397.394 87.3677 391.977 88.8507ZM342.048 90.4118C343.531 95.8284 349.115 99.0321 354.533 97.5491C359.95 96.0661 363.124 90.4646 361.641 85.048C360.165 79.6538 354.586 76.4727 349.169 77.9556C343.752 79.4386 340.571 85.0176 342.048 90.4118ZM317.088 106.248C311.671 107.731 306.086 104.527 304.604 99.1103C303.127 93.7161 306.307 88.1372 311.725 86.6542C317.142 85.1712 322.72 88.3524 324.197 93.7465C325.68 99.1632 322.505 104.765 317.088 106.248Z" fill="white"/>
<path d="M506.917 28.2449L507.039 29.2375L506.917 28.2449ZM227.346 120.141L228.333 120.3L228.236 120.9L227.66 121.091L227.346 120.141ZM517.139 21.0643L518.031 21.5166L517.139 21.0643ZM548.147 -40.073L547.255 -40.5253L548.147 -40.073ZM560.268 -50.1738L560.552 -49.215L560.552 -49.215L560.268 -50.1738ZM582.757 -56.8387L583.041 -55.8799L583.041 -55.8799L582.757 -56.8387ZM591.294 -50.4305L590.294 -50.4356L590.294 -50.4356L591.294 -50.4305ZM590.86 34.3705L591.86 34.3756L590.86 34.3705ZM581.754 50.7913L581.225 49.9424L581.754 50.7913ZM217.495 166.527L217.145 167.463L217.495 166.527ZM207.537 134.403L206.696 133.862L207.537 134.403ZM454.38 64.3161L453.416 64.5801L454.38 64.3161ZM466.865 71.4534L466.601 70.4889L466.865 71.4534ZM473.973 58.9523L473.009 59.2163L473.973 58.9523ZM429.421 80.1519L429.685 81.1164L429.685 81.1164L429.421 80.1519ZM416.936 73.0145L417.901 72.7505L416.936 73.0145ZM436.529 67.6508L435.565 67.9148L435.565 67.9148L436.529 67.6508ZM424.057 60.5585L424.321 61.523L424.321 61.523L424.057 60.5585ZM379.492 81.7133L380.457 81.4493L380.457 81.4493L379.492 81.7133ZM386.613 69.2572L386.877 70.2218L386.613 69.2572ZM399.085 76.3496L400.05 76.0855L399.085 76.3496ZM354.533 97.5491L354.797 98.5136L354.533 97.5491ZM342.048 90.4118L341.084 90.6758L341.084 90.6758L342.048 90.4118ZM361.641 85.048L362.606 84.7839L362.606 84.7839L361.641 85.048ZM304.604 99.1103L303.639 99.3743L304.604 99.1103ZM317.088 106.248L316.824 105.283L317.088 106.248ZM311.725 86.6542L311.989 87.6187L311.989 87.6187L311.725 86.6542ZM324.197 93.7465L323.232 94.0106L323.232 94.0105L324.197 93.7465ZM507.039 29.2375C485.514 31.8844 417.924 40.8471 354.599 56.1424C322.931 63.7916 292.38 73.0131 269.201 83.799C257.611 89.1926 247.908 94.9574 240.838 101.081C233.761 107.21 229.409 113.622 228.333 120.3L226.358 119.982C227.539 112.655 232.27 105.856 239.529 99.569C246.794 93.2764 256.68 87.4197 268.358 81.9857C291.715 71.1164 322.417 61.8583 354.13 54.1984C417.568 38.8755 485.25 29.9018 506.795 27.2524L507.039 29.2375ZM518.031 21.5166C515.879 25.7594 511.763 28.6566 507.039 29.2375L506.795 27.2524C510.856 26.7531 514.395 24.2628 516.247 20.6119L518.031 21.5166ZM549.039 -39.6207L518.031 21.5166L516.247 20.6119L547.255 -40.5253L549.039 -39.6207ZM560.552 -49.215C555.559 -47.7352 551.395 -44.2652 549.039 -39.6207L547.255 -40.5253C549.86 -45.6603 554.463 -49.4966 559.984 -51.1326L560.552 -49.215ZM583.041 -55.8799L560.552 -49.215L559.984 -51.1326L582.473 -57.7974L583.041 -55.8799ZM590.294 -50.4356C590.314 -54.2232 586.673 -56.9561 583.041 -55.8799L582.473 -57.7974C587.39 -59.2548 592.321 -55.5542 592.294 -50.4253L590.294 -50.4356ZM589.86 34.3654L590.294 -50.4356L592.294 -50.4253L591.86 34.3756L589.86 34.3654ZM581.225 49.9424C586.588 46.603 589.828 40.6973 589.86 34.3654L591.86 34.3756C591.824 41.3806 588.241 47.9302 582.282 51.6402L581.225 49.9424ZM217.846 165.59C229.212 169.844 248.233 170.626 272.854 167.864C297.429 165.108 327.44 158.838 360.689 149.114C427.188 129.667 506.568 96.427 581.225 49.9424L582.282 51.6402C507.46 98.2278 427.911 131.539 361.251 151.034C327.921 160.781 297.794 167.079 273.077 169.852C248.405 172.62 228.979 171.893 217.145 167.463L217.846 165.59ZM208.378 134.943C201.355 145.867 205.79 161.078 217.846 165.59L217.145 167.463C203.79 162.464 199.046 145.761 206.696 133.862L208.378 134.943ZM227.66 121.091C219.353 123.841 212.559 128.44 208.378 134.943L206.696 133.862C211.187 126.876 218.414 122.045 227.031 119.192L227.66 121.091ZM455.345 64.052C456.682 68.9389 461.719 71.8252 466.601 70.4889L467.129 72.4179C461.176 74.0475 455.043 70.5265 453.416 64.5801L455.345 64.052ZM461.765 52.8245C456.879 54.162 454.014 59.1919 455.345 64.052L453.416 64.5801C451.793 58.6518 455.289 52.5239 461.237 50.8955L461.765 52.8245ZM473.009 59.2163C471.678 54.3563 466.651 51.4869 461.765 52.8245L461.237 50.8955C467.185 49.267 473.315 52.76 474.938 58.6883L473.009 59.2163ZM466.601 70.4889C471.482 69.1525 474.346 64.1032 473.009 59.2163L474.938 58.6883C476.565 64.6347 473.081 70.7883 467.129 72.4179L466.601 70.4889ZM429.685 81.1164C423.732 82.746 417.599 79.225 415.972 73.2786L417.901 72.7505C419.238 77.6374 424.275 80.5237 429.157 79.1874L429.685 81.1164ZM437.494 67.3868C439.121 73.3332 435.637 79.4868 429.685 81.1164L429.156 79.1874C434.038 77.851 436.902 72.8017 435.565 67.9148L437.494 67.3868ZM423.793 59.594C429.741 57.9655 435.871 61.4585 437.494 67.3868L435.565 67.9148C434.234 63.0547 429.207 60.1854 424.321 61.523L423.793 59.594ZM415.972 73.2786C414.349 67.3503 417.845 61.2224 423.793 59.5939L424.321 61.523C419.435 62.8605 416.57 67.8904 417.901 72.7505L415.972 73.2786ZM380.457 81.4493C381.794 86.3362 386.831 89.2225 391.713 87.8862L392.241 89.8152C386.288 91.4448 380.155 87.9238 378.528 81.9773L380.457 81.4493ZM386.877 70.2218C381.991 71.5593 379.126 76.5892 380.457 81.4493L378.528 81.9774C376.905 76.0491 380.401 69.9212 386.349 68.2927L386.877 70.2218ZM398.121 76.6136C396.79 71.7535 391.763 68.8842 386.877 70.2218L386.349 68.2927C392.297 66.6643 398.427 70.1573 400.05 76.0855L398.121 76.6136ZM391.713 87.8862C396.594 86.5498 399.459 81.5005 398.121 76.6136L400.05 76.0855C401.678 82.032 398.193 88.1856 392.241 89.8152L391.713 87.8862ZM354.797 98.5136C348.844 100.143 342.711 96.6222 341.084 90.6758L343.013 90.1477C344.35 95.0346 349.387 97.9209 354.269 96.5846L354.797 98.5136ZM362.606 84.7839C364.233 90.7304 360.749 96.884 354.797 98.5136L354.269 96.5846C359.15 95.2482 362.014 90.1989 360.677 85.312L362.606 84.7839ZM348.905 76.9911C354.853 75.3627 360.983 78.8557 362.606 84.7839L360.677 85.312C359.346 80.4519 354.319 77.5826 349.433 78.9202L348.905 76.9911ZM341.084 90.6758C339.461 84.7475 342.957 78.6196 348.905 76.9911L349.433 78.9202C344.547 80.2577 341.682 85.2876 343.013 90.1477L341.084 90.6758ZM305.568 98.8462C306.906 103.733 311.943 106.619 316.824 105.283L317.352 107.212C311.399 108.842 305.267 105.321 303.639 99.3743L305.568 98.8462ZM311.989 87.6187C307.103 88.9562 304.238 93.9862 305.568 98.8462L303.639 99.3743C302.016 93.4461 305.512 87.3181 311.461 85.6897L311.989 87.6187ZM323.232 94.0105C321.902 89.1505 316.874 86.2812 311.989 87.6187L311.461 85.6897C317.409 84.0612 323.538 87.5542 325.161 93.4825L323.232 94.0105ZM316.824 105.283C321.706 103.947 324.57 98.8974 323.232 94.0106L325.161 93.4825C326.789 99.4289 323.305 105.583 317.352 107.212L316.824 105.283Z" fill="#1F201E" mask="url(#path-11-inside-1_1402_5275)"/>
<path d="M217.681 166.052L217.684 166.053C229.169 170.348 248.293 171.115 272.928 168.351C297.54 165.589 327.581 159.313 360.85 149.584C427.39 130.128 506.809 96.8771 581.497 50.3787L581.498 50.3785C586.993 46.9631 590.359 40.8849 590.354 34.3542L590.354 34.3523L590.384 24.4728C454.143 109.428 357.856 138.45 295.571 146.207C264.37 150.092 241.703 148.641 226.824 146.212C219.385 144.997 213.894 143.539 210.257 142.381C208.439 141.802 207.084 141.299 206.181 140.938C205.84 140.802 205.564 140.687 205.351 140.595C202.471 150.754 207.325 162.241 217.681 166.052Z" fill="#FFFDE3" stroke="#1F201E"/>
<path d="M244.266 97.6948L244.206 97.704C235.148 104.59 229.387 111.903 227.93 119.669C230.666 119.85 233.282 119.968 235.761 120.026L235.781 120.02L235.858 120.022C256.105 120.444 268.446 116.858 274.97 112.427C278.231 110.212 280.006 107.81 280.632 105.621C281.253 103.448 280.755 101.448 279.389 99.9394L279.386 99.9367C278.472 98.9126 276.972 98.1222 275.029 97.5419C273.095 96.9642 270.774 96.61 268.276 96.4215L268.275 96.4214C262.97 96.0098 256.933 96.3323 252.21 96.7604C249.852 96.9742 247.826 97.2138 246.391 97.4C245.673 97.493 245.103 97.5727 244.713 97.629C244.518 97.6572 244.368 97.6795 244.266 97.6948Z" fill="#57B3FE" stroke="#1F201E"/>
<path d="M367.584 128.476L367.584 128.476C367.847 129.586 368.652 130.721 370.034 131.869C371.413 133.014 373.326 134.138 375.727 135.234C380.528 137.425 387.2 139.465 395.237 141.327C411.307 145.052 432.748 148.048 455.387 150.142C478.024 152.236 501.842 153.427 522.661 153.546C543.493 153.664 561.284 152.708 571.885 150.52L571.887 150.52C573.358 150.221 574.68 149.898 575.853 149.551C583.851 147.18 591.99 143.726 598.604 139.364C605.228 134.995 610.262 129.754 612.155 123.835C612.372 123.158 612.257 122.451 611.765 121.679C611.264 120.892 610.384 120.062 609.124 119.202C606.608 117.484 602.711 115.732 597.766 113.987C587.888 110.502 573.964 107.092 558.897 104.024C528.768 97.8877 494.159 93.1356 478.417 91.881L478.416 91.8809C466.564 90.9085 437.248 93.7465 411.651 100.06C398.854 103.217 387.034 107.231 378.807 112.046C374.693 114.454 371.512 117.042 369.55 119.793C367.597 122.53 366.857 125.415 367.584 128.476Z" fill="#EC72A5" stroke="#1F201E"/>
<path d="M573.963 139.411C575.323 142.976 575.146 146.624 573.037 150.275C574.055 150.047 574.994 149.805 575.853 149.551C583.851 147.18 591.99 143.726 598.604 139.364C605.228 134.995 610.262 129.755 612.155 123.835C612.371 123.158 612.257 122.451 611.765 121.679C611.264 120.892 610.384 120.063 609.124 119.202C606.608 117.484 602.711 115.732 597.766 113.987C587.888 110.502 573.963 107.092 558.897 104.024C528.768 97.8877 494.159 93.1356 478.417 91.8811L478.416 91.881C476.499 91.7237 474.094 91.6739 471.302 91.7266C471.832 91.857 472.414 92.0015 473.046 92.1599C476.435 93.0089 481.252 94.2561 486.966 95.8491C498.394 99.0346 513.418 103.605 527.795 109.143C542.159 114.676 555.923 121.192 564.795 128.282C569.229 131.825 572.489 135.549 573.963 139.411Z" fill="#DC437A" stroke="#1F201E"/>
<path d="M622.137 46.3291C630.288 43.7285 639.4 39.6875 640.866 35.2775C643.887 26.1305 602.287 22.5573 585.839 23.1329C585.839 23.1329 635.758 27.4767 622.137 46.3291Z" fill="#E11226"/>
<path d="M237.305 120.045C256.694 120.271 268.603 116.751 274.97 112.427C278.231 110.212 280.006 107.81 280.631 105.621C281.253 103.448 280.755 101.448 279.389 99.9394L279.386 99.9367C278.472 98.9126 276.972 98.1221 275.029 97.5418C273.143 96.9787 270.89 96.6279 268.464 96.436L237.305 120.045Z" fill="#5094FF" stroke="#1F201E"/>
<path d="M553.784 -29.4729C544.513 -18.0675 533.366 4.34452 529.903 18.6306C537.327 9.51851 545.179 -5.57749 549.511 -16.6042C551.18 -20.7724 552.697 -25.0157 553.784 -29.4729Z" fill="white"/>
</svg>
