<svg width="80" height="80" viewBox="0 0 80 80" fill="none" xmlns="http://www.w3.org/2000/svg">
<g clip-path="url(#clip0_1081_14533)">
<path d="M43.6074 60.625C43.6074 62.3338 42.2225 63.7188 40.5137 63.7188C38.8049 63.7188 37.4199 62.3338 37.4199 60.625C37.4199 58.5625 39.4824 55.4688 40.5137 55.4688C41.5449 55.4688 43.6074 58.5625 43.6074 60.625Z" fill="url(#paint0_linear_1081_14533)"/>
<path d="M35.875 69.9062C35.875 71.615 34.49 73 32.7812 73C31.0725 73 29.6875 71.615 29.6875 69.9062C29.6875 67.8438 31.75 64.75 32.7812 64.75C33.8125 64.75 35.875 67.8438 35.875 69.9062Z" fill="url(#paint1_linear_1081_14533)"/>
<path d="M60.625 66.8125C60.625 68.5213 59.24 69.9062 57.5312 69.9062C55.8225 69.9062 54.4375 68.5213 54.4375 66.8125C54.4375 64.75 56.5 61.6562 57.5312 61.6562C58.5625 61.6562 60.625 64.75 60.625 66.8125Z" fill="url(#paint2_linear_1081_14533)"/>
<path d="M20.9219 53.4062C20.9219 55.115 19.5369 56.5 17.8281 56.5C16.1193 56.5 14.7344 55.115 14.7344 53.4062C14.7344 51.3438 16.7969 48.25 17.8281 48.25C18.8594 48.25 20.9219 51.3438 20.9219 53.4062Z" fill="url(#paint3_linear_1081_14533)"/>
<path d="M29.6875 58.5625C29.6875 59.701 28.7635 60.625 27.625 60.625C26.4855 60.625 25.5625 59.701 25.5625 58.5625C25.5625 57.1878 26.9372 55.4688 27.625 55.4688C28.3118 55.4688 29.6875 57.1878 29.6875 58.5625Z" fill="url(#paint4_linear_1081_14533)"/>
<path d="M23.5 64.75C23.5 65.8885 22.576 66.8125 21.4375 66.8125C20.298 66.8125 19.375 65.8885 19.375 64.75C19.375 63.3753 20.7497 61.6562 21.4375 61.6562C22.1243 61.6562 23.5 63.3753 23.5 64.75Z" fill="url(#paint5_linear_1081_14533)"/>
<path d="M53.4062 58.5625C53.4062 59.701 52.4822 60.625 51.3438 60.625C50.2042 60.625 49.2812 59.701 49.2812 58.5625C49.2812 57.1878 50.6559 55.4688 51.3438 55.4688C52.0306 55.4688 53.4062 57.1878 53.4062 58.5625Z" fill="url(#paint6_linear_1081_14533)"/>
<path d="M50.3125 70.9375C50.3125 72.076 49.3885 73 48.25 73C47.1105 73 46.1875 72.076 46.1875 70.9375C46.1875 69.5628 47.5622 67.8438 48.25 67.8438C48.9368 67.8438 50.3125 69.5628 50.3125 70.9375Z" fill="url(#paint7_linear_1081_14533)"/>
<path d="M65.7812 58.5625C65.7812 59.701 64.8572 60.625 63.7188 60.625C62.5792 60.625 61.6562 59.701 61.6562 58.5625C61.6562 57.1878 63.0309 55.4688 63.7188 55.4688C64.4056 55.4688 65.7812 57.1878 65.7812 58.5625Z" fill="url(#paint8_linear_1081_14533)"/>
<g filter="url(#filter0_d_1081_14533)">
<path d="M63.7188 31.8078C63.7188 31.7882 63.7188 31.7696 63.7188 31.75C63.7188 23.7887 57.2425 17.3125 49.2812 17.3125C49.0853 17.3125 48.8842 17.3177 48.6759 17.328C46.8712 11.2034 41.3045 7 34.8438 7C28.4263 7 22.7472 11.3261 20.9807 17.4187C20.4444 17.3486 19.9071 17.3125 19.375 17.3125C12.5512 17.3125 7 22.8637 7 29.6875C7 36.5113 12.5512 42.0625 19.375 42.0625H21.6128C22.5987 48.0046 27.6869 52.375 33.8125 52.375H62.6875C68.3738 52.375 73 47.7488 73 42.0625C73 36.7382 68.9451 32.344 63.7188 31.8078Z" fill="url(#paint9_radial_1081_14533)"/>
</g>
<path d="M63.7188 31.8077C63.7188 31.7882 63.7188 31.7696 63.7188 31.75C63.7188 23.7888 57.2425 17.3125 49.2812 17.3125C42.8638 17.3125 37.1847 21.6386 35.4182 27.7312C34.8819 27.6611 34.3446 27.625 33.8125 27.625C26.9887 27.625 21.4375 33.1762 21.4375 40C21.4375 46.8238 26.9887 52.375 33.8125 52.375H62.6875C68.3738 52.375 73 47.7488 73 42.0625C73 36.7382 68.9451 32.344 63.7188 31.8077Z" fill="url(#paint10_linear_1081_14533)"/>
</g>
<defs>
<filter id="filter0_d_1081_14533" x="-4.74647" y="-5" width="90" height="69.375" filterUnits="userSpaceOnUse" color-interpolation-filters="sRGB">
<feFlood flood-opacity="0" result="BackgroundImageFix"/>
<feColorMatrix in="SourceAlpha" type="matrix" values="0 0 0 0 0 0 0 0 0 0 0 0 0 0 0 0 0 0 127 0" result="hardAlpha"/>
<feOffset dx="0.253526"/>
<feGaussianBlur stdDeviation="6"/>
<feComposite in2="hardAlpha" operator="out"/>
<feColorMatrix type="matrix" values="0 0 0 0 1 0 0 0 0 1 0 0 0 0 1 0 0 0 1 0"/>
<feBlend mode="normal" in2="BackgroundImageFix" result="effect1_dropShadow_1081_14533"/>
<feBlend mode="normal" in="SourceGraphic" in2="effect1_dropShadow_1081_14533" result="shape"/>
</filter>
<linearGradient id="paint0_linear_1081_14533" x1="38.0304" y1="62.5163" x2="42.998" y2="57.5477" gradientUnits="userSpaceOnUse">
<stop stop-color="#78B9EB"/>
<stop offset="1" stop-color="#C2DFF6"/>
</linearGradient>
<linearGradient id="paint1_linear_1081_14533" x1="30.297" y1="71.7976" x2="35.2655" y2="66.829" gradientUnits="userSpaceOnUse">
<stop stop-color="#78B9EB"/>
<stop offset="1" stop-color="#C2DFF6"/>
</linearGradient>
<linearGradient id="paint2_linear_1081_14533" x1="55.047" y1="68.7038" x2="60.0155" y2="63.7353" gradientUnits="userSpaceOnUse">
<stop stop-color="#78B9EB"/>
<stop offset="1" stop-color="#C2DFF6"/>
</linearGradient>
<linearGradient id="paint3_linear_1081_14533" x1="15.3438" y1="55.2976" x2="20.3124" y2="50.329" gradientUnits="userSpaceOnUse">
<stop stop-color="#78B9EB"/>
<stop offset="1" stop-color="#C2DFF6"/>
</linearGradient>
<linearGradient id="paint4_linear_1081_14533" x1="26.0369" y1="59.8908" x2="29.2131" y2="56.7135" gradientUnits="userSpaceOnUse">
<stop stop-color="#78B9EB"/>
<stop offset="1" stop-color="#C2DFF6"/>
</linearGradient>
<linearGradient id="paint5_linear_1081_14533" x1="19.8494" y1="66.0783" x2="23.0256" y2="62.901" gradientUnits="userSpaceOnUse">
<stop stop-color="#78B9EB"/>
<stop offset="1" stop-color="#C2DFF6"/>
</linearGradient>
<linearGradient id="paint6_linear_1081_14533" x1="49.7556" y1="59.8908" x2="52.9319" y2="56.7135" gradientUnits="userSpaceOnUse">
<stop stop-color="#78B9EB"/>
<stop offset="1" stop-color="#C2DFF6"/>
</linearGradient>
<linearGradient id="paint7_linear_1081_14533" x1="46.6619" y1="72.2658" x2="49.8381" y2="69.0885" gradientUnits="userSpaceOnUse">
<stop stop-color="#78B9EB"/>
<stop offset="1" stop-color="#C2DFF6"/>
</linearGradient>
<linearGradient id="paint8_linear_1081_14533" x1="62.1306" y1="59.8908" x2="65.3069" y2="56.7135" gradientUnits="userSpaceOnUse">
<stop stop-color="#78B9EB"/>
<stop offset="1" stop-color="#C2DFF6"/>
</linearGradient>
<radialGradient id="paint9_radial_1081_14533" cx="0" cy="0" r="1" gradientUnits="userSpaceOnUse" gradientTransform="translate(21.423 7.47154) rotate(45.2992) scale(63.1738 137.031)">
<stop stop-color="#36A7E4"/>
<stop offset="0.990808" stop-color="#2F5AFF"/>
</radialGradient>
<linearGradient id="paint10_linear_1081_14533" x1="32.0717" y1="55.7523" x2="62.8814" y2="24.9417" gradientUnits="userSpaceOnUse">
<stop stop-color="#78B9EB"/>
<stop offset="1" stop-color="#C2DFF6"/>
</linearGradient>
<clipPath id="clip0_1081_14533">
<rect width="80" height="80" fill="white"/>
</clipPath>
</defs>
</svg>
