<svg width="254" height="270" viewBox="0 0 254 270" fill="none" xmlns="http://www.w3.org/2000/svg">
<mask id="path-1-inside-1_473_527" fill="white">
<path fill-rule="evenodd" clip-rule="evenodd" d="M214.099 14.7766C214.099 14.7766 214.1 14.7765 214.1 14.7765C208.319 13.6128 202.337 13 196.213 13C187.447 13 178.973 14.2516 170.96 16.5846C167.772 17.5127 165.134 19.7696 163.708 22.7685C152.105 47.1556 152.09 75.7539 163.708 100.172C165.134 103.17 167.772 105.428 170.96 106.356C184.943 110.427 199.83 111.022 214.101 108.151C214.099 108.151 214.098 108.151 214.096 108.15H214.1C216.576 107.652 219.035 107.063 221.466 106.355C224.654 105.427 227.292 103.17 228.719 100.171C240.321 75.7852 240.336 47.1874 228.719 22.7682C227.292 19.7697 224.654 17.5129 221.466 16.5843C219.051 15.8815 216.594 15.2785 214.1 14.7766H214.099Z"/>
</mask>
<path fill-rule="evenodd" clip-rule="evenodd" d="M214.099 14.7766C214.099 14.7766 214.1 14.7765 214.1 14.7765C208.319 13.6128 202.337 13 196.213 13C187.447 13 178.973 14.2516 170.96 16.5846C167.772 17.5127 165.134 19.7696 163.708 22.7685C152.105 47.1556 152.09 75.7539 163.708 100.172C165.134 103.17 167.772 105.428 170.96 106.356C184.943 110.427 199.83 111.022 214.101 108.151C214.099 108.151 214.098 108.151 214.096 108.15H214.1C216.576 107.652 219.035 107.063 221.466 106.355C224.654 105.427 227.292 103.17 228.719 100.171C240.321 75.7852 240.336 47.1874 228.719 22.7682C227.292 19.7697 224.654 17.5129 221.466 16.5843C219.051 15.8815 216.594 15.2785 214.1 14.7766H214.099Z" fill="#EC72A5"/>
<path d="M214.099 14.7766L213.903 13.796L214.099 15.7766V14.7766ZM214.1 14.7765L214.296 15.7571L214.297 13.7961L214.1 14.7765ZM170.96 16.5846L171.239 17.5448L171.239 17.5448L170.96 16.5846ZM163.708 22.7685L164.611 23.1982L164.611 23.198L163.708 22.7685ZM163.708 100.172L164.611 99.7425L164.611 99.7425L163.708 100.172ZM170.96 106.356L170.68 107.316L170.68 107.316L170.96 106.356ZM214.101 108.151L214.298 109.132L214.296 107.171L214.101 108.151ZM214.096 108.15V107.15L213.901 109.131L214.096 108.15ZM214.1 108.15V109.15H214.2L214.297 109.131L214.1 108.15ZM221.466 106.355L221.186 105.395L221.186 105.395L221.466 106.355ZM228.719 100.171L227.816 99.7416V99.7416L228.719 100.171ZM228.719 22.7682L229.622 22.3385L229.622 22.3385L228.719 22.7682ZM221.466 16.5843L221.745 15.6241L221.745 15.6241L221.466 16.5843ZM214.1 14.7766L214.297 13.7963L214.2 13.7766H214.1V14.7766ZM214.295 15.7572L214.296 15.7571L213.904 13.7959L213.903 13.796L214.295 15.7572ZM214.297 13.7961C208.452 12.6195 202.404 12 196.213 12V14C202.271 14 208.186 14.6061 213.902 15.7568L214.297 13.7961ZM196.213 12C187.351 12 178.784 13.2653 170.68 15.6245L171.239 17.5448C179.163 15.2379 187.542 14 196.213 14V12ZM170.68 15.6245C167.217 16.6329 164.352 19.0842 162.804 22.339L164.611 23.198C165.915 20.455 168.328 18.3925 171.239 17.5448L170.68 15.6245ZM162.805 22.3389C151.073 46.9976 151.058 75.9115 162.805 100.602L164.611 99.7425C153.122 75.5963 153.137 47.3136 164.611 23.1982L162.805 22.3389ZM162.805 100.602C164.352 103.856 167.216 106.307 170.68 107.316L171.24 105.396C168.328 104.548 165.915 102.485 164.611 99.7425L162.805 100.602ZM170.68 107.316C184.82 111.433 199.871 112.034 214.298 109.132L213.904 107.171C199.789 110.01 185.066 109.421 171.239 105.396L170.68 107.316ZM214.296 107.171C214.297 107.171 214.298 107.171 214.297 107.171C214.296 107.171 214.294 107.17 214.292 107.17L213.901 109.131C213.9 109.131 213.899 109.131 213.9 109.131C213.901 109.131 213.903 109.132 213.905 109.132L214.296 107.171ZM214.096 109.15H214.1V107.15H214.096V109.15ZM214.297 109.131C216.797 108.628 219.284 108.032 221.745 107.315L221.186 105.395C218.786 106.094 216.355 106.677 213.903 107.17L214.297 109.131ZM221.745 107.315C225.21 106.307 228.073 103.855 229.622 100.601L227.816 99.7416C226.51 102.485 224.098 104.547 221.186 105.395L221.745 107.315ZM229.622 100.601C241.353 75.9432 241.369 47.0298 229.622 22.3385L227.816 23.1978C239.304 47.345 239.288 75.6272 227.816 99.7416L229.622 100.601ZM229.622 22.3385C228.073 19.0843 225.21 16.6331 221.745 15.6241L221.186 17.5444C224.099 18.3926 226.511 20.4551 227.816 23.1978L229.622 22.3385ZM221.745 15.6241C219.303 14.9134 216.819 14.3036 214.297 13.7963L213.903 15.757C216.369 16.2533 218.799 16.8497 221.186 17.5444L221.745 15.6241ZM214.1 13.7766H214.099V15.7766H214.1V13.7766Z" fill="#1F201E" mask="url(#path-1-inside-1_473_527)"/>
<path d="M136.719 220.16H181.144L197.464 246.953L197.891 246.693L197.464 246.953C203.485 256.836 196.37 269.5 184.798 269.5H123.236L111.197 266.491V225.753L136.719 220.16Z" fill="#57B3FE" stroke="#1F201E"/>
<path d="M118.685 248.215L119.112 248.476L118.685 248.215C114.175 255.619 116.162 264.386 121.795 269.5H86.0604C74.4878 269.5 67.3735 256.836 73.3941 246.953L72.967 246.693L73.3941 246.953L89.7143 220.16H135.774L118.685 248.215Z" fill="#5094FF" stroke="#1F201E"/>
<path d="M207.981 223.882L224.296 209.05H238.668C246.86 209.05 253.5 215.69 253.5 223.882C253.5 232.073 246.859 238.714 238.668 238.714H224.296L207.981 223.882Z" fill="#FCE3A0" stroke="#1F201E"/>
<path d="M199.316 209.05H222.939C215.356 217.469 215.356 230.295 222.939 238.714H199.316C191.124 238.714 184.484 232.073 184.484 223.882C184.484 215.69 191.124 209.05 199.316 209.05Z" fill="#FFD400" stroke="#1F201E"/>
<path d="M112.63 164.724L112.776 164.96H113.054H175.09C187.87 164.96 199.003 172.797 203.539 183.973L197.62 204.846H69.6627L16.8448 43.8142L41.5755 36.2901C57.2628 40.4469 66.9156 56.3409 63.218 72.2594L61.0402 81.6356L60.9933 81.8373L61.1028 82.0131L112.63 164.724Z" fill="#57B3FE" stroke="#1F201E"/>
<path d="M205.708 194.699L205.711 194.871C205.848 211.646 192.29 225.288 175.548 225.288H109.133C89.349 225.288 73.0993 215.362 63.4988 199.952L42.3258 165.965L9.89805 113.912C1.36796 100.219 -1.37336 83.6983 2.27734 67.9837L1.79031 67.8706L2.27734 67.9837L4.45499 58.6087L3.97128 58.4963L4.455 58.6087C6.96099 47.8196 15.0231 39.6282 25.0831 36.5677C30.1605 35.023 35.3592 34.8384 40.6175 36.0531C26.448 51.4868 22.8037 74.8303 35.935 95.9083L35.9361 95.9101L89.4502 180.995C94.5288 189.069 103.989 195.624 114.741 195.624H177.078C187.078 195.624 196.677 191.751 203.873 184.835C205.013 187.915 205.66 191.232 205.708 194.699Z" fill="#5094FF" stroke="#1F201E"/>
<path d="M120.519 137.629L136.406 126.63H163.592C169.666 126.63 174.591 131.554 174.591 137.629C174.591 143.704 169.666 148.628 163.592 148.628H136.406L120.519 137.629Z" fill="#FCE3A0" stroke="#1F201E"/>
<path d="M116.417 175.456L116.271 174.978C110.282 176.804 104.034 173.293 102.429 167.307C101.568 164.089 100.31 159.396 98.9482 154.314C95.2059 140.348 105.729 126.63 120.188 126.63H135.099C129.616 132.924 129.616 142.335 135.099 148.628H120.851H120.199L120.368 149.258L123.607 161.348C125.157 167.132 121.969 173.242 116.271 174.978L116.417 175.456Z" fill="#FFD400" stroke="#1F201E"/>
<mask id="path-11-inside-2_473_527" fill="white">
<path fill-rule="evenodd" clip-rule="evenodd" d="M176.86 30.8551C183.419 29.1058 190.177 28.2615 197.067 28.3458C197.067 28.346 197.067 28.3462 197.067 28.3464C203.347 28.4169 209.558 29.2536 215.566 30.8558C224.208 50.148 224.208 72.7927 215.566 92.0853C209.556 93.6881 203.344 94.5255 197.067 94.596L197.067 94.5954C189.997 94.6822 183.242 93.7867 176.86 92.0847C168.216 72.7911 168.215 50.1474 176.86 30.8551Z"/>
</mask>
<path fill-rule="evenodd" clip-rule="evenodd" d="M176.86 30.8551C183.419 29.1058 190.177 28.2615 197.067 28.3458C197.067 28.346 197.067 28.3462 197.067 28.3464C203.347 28.4169 209.558 29.2536 215.566 30.8558C224.208 50.148 224.208 72.7927 215.566 92.0853C209.556 93.6881 203.344 94.5255 197.067 94.596L197.067 94.5954C189.997 94.6822 183.242 93.7867 176.86 92.0847C168.216 72.7911 168.215 50.1474 176.86 30.8551Z" fill="#FFFBCC"/>
<path d="M197.067 28.3458L197.996 28.7162L198.536 27.3637L197.08 27.3459L197.067 28.3458ZM176.86 30.8551L176.602 29.8889L176.142 30.0116L175.947 30.4462L176.86 30.8551ZM197.067 28.3464L196.138 27.976L195.598 29.33L197.056 29.3464L197.067 28.3464ZM215.566 30.8558L216.478 30.4469L216.284 30.0123L215.823 29.8895L215.566 30.8558ZM215.566 92.0853L215.824 93.0515L216.284 92.9287L216.479 92.494L215.566 92.0853ZM197.067 94.596L196.279 95.2116L196.584 95.6015L197.079 95.5959L197.067 94.596ZM197.067 94.5954L197.855 93.9798L197.55 93.5894L197.055 93.5955L197.067 94.5954ZM176.86 92.0847L175.947 92.4935L176.142 92.9282L176.602 93.0509L176.86 92.0847ZM197.08 27.3459C190.099 27.2605 183.25 28.1159 176.602 29.8889L177.118 31.8213C183.588 30.0956 190.255 29.2625 197.055 29.3458L197.08 27.3459ZM197.996 28.7168L197.996 28.7162L196.138 27.9754L196.138 27.976L197.996 28.7168ZM215.823 29.8895C209.734 28.2654 203.439 27.4179 197.078 27.3465L197.056 29.3464C203.254 29.416 209.383 30.2417 215.308 31.822L215.823 29.8895ZM216.479 92.494C225.237 72.9414 225.237 49.9993 216.478 30.4469L214.653 31.2646C223.179 50.2967 223.179 72.6439 214.654 91.6764L216.479 92.494ZM197.079 95.5959C203.437 95.5246 209.731 94.6762 215.824 93.0515L215.309 91.119C209.38 92.7 203.251 93.5265 197.056 93.596L197.079 95.5959ZM196.279 95.2111L196.279 95.2116L197.855 93.9803L197.855 93.9798L196.279 95.2111ZM176.602 93.0509C183.07 94.7759 189.917 95.6832 197.079 95.5954L197.055 93.5955C190.078 93.6811 183.414 92.7975 177.118 91.1185L176.602 93.0509ZM175.947 30.4462C167.186 49.9987 167.187 72.9399 175.947 92.4935L177.773 91.6758C169.246 72.6423 169.245 50.2961 177.772 31.264L175.947 30.4462Z" fill="#1F201E" mask="url(#path-11-inside-2_473_527)"/>
<path d="M215 22.9591C221.003 19.6961 230.844 16.75 227.093 1C232.197 11.5 235.322 15.7 246 16.75C235.322 20.95 234.441 26.6872 233.6 36C230.235 24.2532 221.704 21.9449 215 22.9591Z" fill="white" stroke="#1F201E"/>
<path d="M41 210.069C48.1647 206.153 59.9111 202.618 55.4339 183.718C61.5252 196.318 65.2556 201.358 78 202.618C65.2556 207.658 64.2041 214.542 63.2 225.718C59.1836 211.622 49.0014 208.852 41 210.069Z" fill="white" stroke="#1F201E"/>
</svg>
