<svg width="24" height="24" viewBox="0 0 24 24" fill="none" xmlns="http://www.w3.org/2000/svg">
<path d="M10.6082 4.00751C11.0751 2.66416 12.9749 2.66417 13.4419 4.0075L14.3874 6.72766C14.7307 7.71534 15.6525 8.38502 16.6979 8.40632L19.5771 8.46499C20.999 8.49397 21.5861 10.3008 20.4528 11.16L18.1579 12.8998C17.3247 13.5315 16.9726 14.6151 17.2754 15.6159L18.1093 18.3724C18.5211 19.7336 16.9842 20.8503 15.8168 20.038L13.453 18.3931C12.5947 17.7958 11.4554 17.7958 10.5971 18.3931L8.23328 20.038C7.06592 20.8503 5.52895 19.7336 5.94078 18.3724L6.7747 15.6159C7.07749 14.6151 6.72542 13.5315 5.89218 12.8998L3.59734 11.16C2.46404 10.3008 3.05111 8.49397 4.47299 8.46499L7.3522 8.40632C8.39763 8.38502 9.31936 7.71534 9.66267 6.72766L10.6082 4.00751Z" fill="#FFE900" stroke="#1F201E" stroke-linecap="round" stroke-linejoin="round"/>
</svg>
