<svg width="80" height="80" viewBox="0 0 80 80" fill="none" xmlns="http://www.w3.org/2000/svg">
<path d="M37.9316 15.1998C37.9316 16.3411 38.8569 17.2665 39.9983 17.2665C41.1396 17.2665 42.065 16.3413 42.065 15.1998V11.0667C42.065 9.92524 41.1396 9 39.9983 9C38.8569 9 37.9316 9.92524 37.9316 11.0667V15.1998Z" fill="url(#paint0_linear_1076_14482)"/>
<path d="M37.9316 68.9318C37.9316 70.0732 38.8569 70.9984 39.9983 70.9984C41.1396 70.9984 42.065 70.0732 42.065 68.9318V64.7986C42.065 63.6573 41.1397 62.7319 39.9983 62.7319C38.8569 62.7319 37.9316 63.6572 37.9316 64.7986V68.9318Z" fill="url(#paint1_linear_1076_14482)"/>
<path d="M64.801 37.9326C63.6597 37.9326 62.7344 38.8579 62.7344 39.9993C62.7344 41.1407 63.6596 42.0659 64.801 42.0659H68.9342C70.0756 42.0659 71.0009 41.1407 71.0009 39.9993C71.0009 38.8579 70.0756 37.9326 68.9342 37.9326H64.801Z" fill="url(#paint2_linear_1076_14482)"/>
<path d="M11.0667 37.9326C9.92524 37.9326 9 38.8579 9 39.9993C9 41.1407 9.92524 42.0659 11.0667 42.0659H15.1998C16.3411 42.0659 17.2665 41.1407 17.2665 39.9993C17.2665 38.8579 16.3413 37.9326 15.1998 37.9326H11.0667Z" fill="url(#paint3_linear_1076_14482)"/>
<path d="M39.998 58.599C50.2702 58.599 58.5975 50.2717 58.5975 39.9995C58.5975 29.7272 50.2702 21.3999 39.998 21.3999C29.7257 21.3999 21.3984 29.7272 21.3984 39.9995C21.3984 50.2717 29.7257 58.599 39.998 58.599Z" fill="url(#paint4_linear_1076_14482)"/>
<path d="M56.0741 21.0016C55.267 21.8087 55.267 23.1172 56.0741 23.9243C56.8812 24.7314 58.1896 24.7314 58.9967 23.9243L61.9194 21.0016C62.7265 20.1945 62.7265 18.8861 61.9194 18.079C61.1123 17.2719 59.8038 17.2719 58.9967 18.079L56.0741 21.0016Z" fill="#FFD900"/>
<path d="M18.078 58.9962C17.2709 59.8034 17.2709 61.1118 18.078 61.9189C18.8851 62.726 20.1935 62.726 21.0006 61.9189L23.9233 58.9962C24.7304 58.1891 24.7304 56.8807 23.9233 56.0736C23.1162 55.2665 21.8077 55.2665 21.0006 56.0736L18.078 58.9962Z" fill="#FFD900"/>
<path d="M58.9967 56.0736C58.1896 55.2665 56.8812 55.2665 56.0741 56.0736C55.267 56.8807 55.267 58.1891 56.0741 58.9962L58.9967 61.9189C59.8038 62.726 61.1123 62.726 61.9194 61.9189C62.7265 61.1118 62.7265 59.8034 61.9194 58.9962L58.9967 56.0736Z" fill="#FFD900"/>
<path d="M21.0006 18.079C20.1935 17.2719 18.8851 17.2719 18.078 18.079C17.2709 18.8861 17.2709 20.1945 18.078 21.0016L21.0006 23.9243C21.8077 24.7314 23.1162 24.7314 23.9233 23.9243C24.7304 23.1172 24.7304 21.8087 23.9233 21.0016L21.0006 18.079Z" fill="#FFD900"/>
<path d="M30.5103 18.0246C30.1432 18.0246 29.7947 17.8071 29.6455 17.4468L28.8547 15.5374C28.6569 15.06 28.8836 14.5127 29.361 14.315C29.8384 14.1176 30.3857 14.3438 30.5834 14.8214L31.3743 16.7307C31.572 17.2081 31.3453 17.7554 30.8679 17.9531C30.7509 18.0015 30.6297 18.0246 30.5103 18.0246Z" fill="#FFA400"/>
<path d="M50.2799 65.7572C49.9128 65.7572 49.5645 65.5397 49.4151 65.1793L48.6243 63.27C48.4264 62.7926 48.6531 62.2453 49.1306 62.0476C49.608 61.8498 50.1553 62.0764 50.353 62.5539L51.1439 64.4633C51.3417 64.9407 51.1151 65.488 50.6375 65.6857C50.5205 65.7342 50.3991 65.7572 50.2799 65.7572Z" fill="#FFA400"/>
<path d="M17.087 31.4474C16.9676 31.4474 16.8464 31.4244 16.7293 31.3759L14.82 30.585C14.3426 30.3873 14.1159 29.84 14.3136 29.3626C14.5114 28.8852 15.0589 28.6582 15.536 28.8563L17.4454 29.6472C17.9228 29.8449 18.1494 30.3921 17.9517 30.8695C17.8025 31.2298 17.4541 31.4474 17.087 31.4474Z" fill="#FFA400"/>
<path d="M64.8194 51.2193C64.7 51.2193 64.5788 51.1963 64.4618 51.1478L62.5524 50.3569C62.075 50.1592 61.8482 49.6119 62.0462 49.1345C62.244 48.6573 62.7915 48.4302 63.2686 48.6282L65.1779 49.4191C65.6553 49.6168 65.8821 50.1641 65.6843 50.6415C65.5349 51.0016 65.1867 51.2193 64.8194 51.2193Z" fill="#FFA400"/>
<path d="M15.1823 51.2187C14.8151 51.2187 14.4667 51.0012 14.3175 50.6408C14.1198 50.1634 14.3466 49.6162 14.8239 49.4185L16.7332 48.6276C17.2105 48.43 17.7579 48.6564 17.9556 49.1339C18.1533 49.6113 17.9267 50.1586 17.4493 50.3563L15.5399 51.1472C15.4229 51.1956 15.3017 51.2187 15.1823 51.2187Z" fill="#FFA400"/>
<path d="M62.9148 31.4472C62.5477 31.4472 62.1994 31.2298 62.05 30.8694C61.8522 30.392 62.0789 29.8447 62.5564 29.647L64.4657 28.8561C64.943 28.6584 65.4904 28.8851 65.6881 29.3625C65.886 29.8399 65.6593 30.3871 65.1818 30.5848L63.2724 31.3757C63.1554 31.4243 63.034 31.4472 62.9148 31.4472Z" fill="#FFA400"/>
<path d="M29.7226 65.7572C29.6033 65.7572 29.4819 65.7343 29.3649 65.6857C28.8875 65.488 28.6608 64.9408 28.8586 64.4634L29.6495 62.554C29.8471 62.0767 30.3946 61.8496 30.8718 62.0477C31.3492 62.2454 31.5759 62.7927 31.3782 63.2701L30.5873 65.1794C30.4381 65.5397 30.0897 65.7572 29.7226 65.7572Z" fill="#FFA400"/>
<path d="M49.4902 18.0248C49.3708 18.0248 49.2495 18.0018 49.1325 17.9533C48.6551 17.7556 48.4284 17.2083 48.6262 16.7309L49.4171 14.8215C49.6149 14.3443 50.1626 14.1172 50.6395 14.3152C51.1169 14.5129 51.3437 15.0602 51.1458 15.5376L50.3549 17.4469C50.2057 17.8072 49.8574 18.0248 49.4902 18.0248Z" fill="#FFA400"/>
<defs>
<linearGradient id="paint0_linear_1076_14482" x1="37.9525" y1="9.98605" x2="42.7099" y2="14.2187" gradientUnits="userSpaceOnUse">
<stop stop-color="#FFDFA1"/>
<stop offset="1" stop-color="#E99A00"/>
</linearGradient>
<linearGradient id="paint1_linear_1076_14482" x1="37.9525" y1="63.718" x2="42.7099" y2="67.9506" gradientUnits="userSpaceOnUse">
<stop stop-color="#FFDFA1"/>
<stop offset="1" stop-color="#E99A00"/>
</linearGradient>
<linearGradient id="paint2_linear_1076_14482" x1="62.776" y1="38.4257" x2="64.0235" y2="42.8651" gradientUnits="userSpaceOnUse">
<stop stop-color="#FFDFA1"/>
<stop offset="1" stop-color="#E99A00"/>
</linearGradient>
<linearGradient id="paint3_linear_1076_14482" x1="9.04164" y1="38.4257" x2="10.2892" y2="42.8651" gradientUnits="userSpaceOnUse">
<stop stop-color="#FFDFA1"/>
<stop offset="1" stop-color="#E99A00"/>
</linearGradient>
<linearGradient id="paint4_linear_1076_14482" x1="21.5858" y1="25.8371" x2="39.998" y2="58.599" gradientUnits="userSpaceOnUse">
<stop stop-color="#FFDFA1"/>
<stop offset="1" stop-color="#E99A00"/>
</linearGradient>
</defs>
</svg>
