<svg width="81" height="80" viewBox="0 0 81 80" fill="none" xmlns="http://www.w3.org/2000/svg">
<path d="M25.3656 48.4212L25.3653 48.421C22.5861 46.0993 20.7141 42.8724 20.0785 39.3073C19.4428 35.7422 20.084 32.0672 21.8895 28.928C23.695 25.7889 26.5491 23.3866 29.9503 22.1433C33.3516 20.9001 37.0821 20.8955 40.4864 22.1302C43.8907 23.365 46.7508 25.7602 48.5641 28.8949C50.3774 32.0295 51.0278 35.7029 50.401 39.2696C49.7742 42.8362 47.9102 46.0678 45.1369 48.3964C42.3635 50.7249 38.8581 52.0014 35.2368 52.0015H35.2364C31.6277 52.0044 28.1332 50.7369 25.3656 48.4212Z" fill="#FFD400" stroke="#1F201E"/>
<path d="M33.8613 15.128L34.2148 14.7745L33.8613 15.128C34.2261 15.4928 34.7209 15.6978 35.2368 15.6978C35.7527 15.6978 36.2475 15.4928 36.6124 15.128C36.9772 14.7632 37.1821 14.2684 37.1821 13.7525V8.31348C37.1821 7.79755 36.9772 7.30275 36.6124 6.93793C36.2475 6.57312 35.7527 6.36816 35.2368 6.36816C34.7209 6.36816 34.2261 6.57312 33.8613 6.93793C33.4965 7.30275 33.2915 7.79755 33.2915 8.31348V13.7525C33.2915 14.2684 33.4965 14.7632 33.8613 15.128Z" fill="#FFE900" stroke="#1F201E"/>
<path d="M23.8125 18.7595L25.0208 18.7583L24.7686 18.507C24.7739 18.5041 24.7791 18.5011 24.7843 18.4981C25.0798 18.3272 25.3251 18.0816 25.4957 17.7859C25.6662 17.4902 25.7559 17.1549 25.7558 16.8136C25.7558 16.4723 25.6659 16.137 25.4952 15.8414L25.4952 15.8414L22.7756 11.1311L22.7756 11.1311L22.7739 11.1282C22.5141 10.6851 22.0896 10.3627 21.5929 10.2314C21.0963 10.1001 20.5679 10.1705 20.123 10.4274C19.6782 10.6842 19.3529 11.1066 19.2184 11.6024C19.0838 12.0981 19.1507 12.627 19.4046 13.0735L19.4046 13.0736L19.4063 13.0764L22.1259 17.7868C22.1259 17.7868 22.1259 17.7868 22.1259 17.7868C22.2968 18.0828 22.5427 18.3286 22.8388 18.4993C23.1348 18.6701 23.4707 18.7598 23.8125 18.7595Z" fill="#FFE900" stroke="#1F201E"/>
<path d="M14.4727 26.863C14.4728 26.863 14.473 26.8631 14.4731 26.8632L15.4447 26.6241L15.4442 27.1241C15.4443 27.1241 15.4445 27.1241 15.4447 27.1241C15.8729 27.1244 16.2893 26.9834 16.6293 26.723C16.9693 26.4624 17.2139 26.0969 17.325 25.6831C17.436 25.2693 17.4074 24.8304 17.2435 24.4346C17.0796 24.0388 16.7897 23.7081 16.4186 23.494C16.4186 23.494 16.4186 23.494 16.4186 23.4939L11.7098 20.7753C11.4889 20.646 11.2447 20.5616 10.9911 20.527C10.7369 20.4922 10.4783 20.5081 10.2303 20.5737C9.98229 20.6392 9.74968 20.7532 9.54589 20.909C9.3421 21.0649 9.17114 21.2595 9.04286 21.4817L9.47587 21.7317L9.04286 21.4817C8.91458 21.7038 8.83152 21.9492 8.79845 22.2036C8.76539 22.458 8.78297 22.7164 8.85019 22.964C8.9174 23.2116 9.03293 23.4435 9.19011 23.6462C9.34694 23.8485 9.54214 24.0179 9.76452 24.1446L14.4727 26.863Z" fill="#FFE900" stroke="#1F201E"/>
<path d="M13.7599 35.2294L13.4063 35.583L13.7599 35.2294C13.395 34.8646 12.9002 34.6597 12.3843 34.6597H6.94531C6.42938 34.6597 5.93459 34.8646 5.56977 35.2294C5.20495 35.5943 5 36.0891 5 36.605C5 37.1209 5.20495 37.6157 5.56977 37.9805C5.93459 38.3453 6.42938 38.5503 6.94531 38.5503H12.3843C12.9002 38.5503 13.395 38.3453 13.7599 37.9805C14.1247 37.6157 14.3296 37.1209 14.3296 36.605C14.3296 36.0891 14.1247 35.5943 13.7599 35.2294Z" fill="#FFE900" stroke="#1F201E"/>
<path d="M10.7372 52.6963C11.0784 52.6963 11.4136 52.6062 11.7088 52.4352C11.7089 52.4351 11.7091 52.435 11.7093 52.4349L16.4186 49.716C16.6398 49.5883 16.8337 49.4182 16.9892 49.2155C17.1448 49.0129 17.2588 48.7816 17.325 48.5348C17.3911 48.288 17.408 48.0307 17.3746 47.7774C17.3413 47.5241 17.2584 47.2799 17.1306 47.0586C17.0029 46.8374 16.8329 46.6435 16.6302 46.488C16.4275 46.3324 16.1962 46.2184 15.9494 46.1522C15.7027 46.0861 15.4453 46.0692 15.192 46.1026C14.9387 46.1359 14.6945 46.2188 14.4733 46.3466L14.4733 46.3466L9.76329 49.066C9.76323 49.066 9.76318 49.066 9.76313 49.0661C9.39204 49.2802 9.10203 49.6108 8.93809 50.0066C8.77413 50.4025 8.74546 50.8414 8.85654 51.2553C8.96762 51.6691 9.21223 52.0347 9.55238 52.2953C9.89241 52.5558 10.3089 52.6967 10.7372 52.6963ZM10.7372 52.6963C10.7372 52.6963 10.7371 52.6963 10.737 52.6963L10.7371 52.1963L10.7377 52.6963C10.7375 52.6963 10.7374 52.6963 10.7372 52.6963Z" fill="#FFE900" stroke="#1F201E"/>
<path d="M55.029 27.1241C54.6008 27.1245 54.1843 26.9835 53.8444 26.7231C53.5042 26.4625 53.2597 26.097 53.1486 25.6832C53.0375 25.2694 53.0661 24.8305 53.23 24.4347L53.6866 24.6237L53.23 24.4347C53.3939 24.0388 53.6838 23.7082 54.0549 23.494C54.0549 23.494 54.0549 23.494 54.0549 23.4939L58.7638 20.7753C58.9847 20.646 59.229 20.5616 59.4826 20.527C59.7368 20.4922 59.9953 20.5081 60.2433 20.5737L60.1175 21.0494L60.2433 20.5737C60.4914 20.6392 60.724 20.7532 60.9278 20.909C61.1315 21.0649 61.3025 21.2595 61.4308 21.4817C61.5591 21.7038 61.6421 21.9492 61.6752 22.2036C61.7083 22.458 61.6907 22.7165 61.6235 22.964C61.5562 23.2116 61.4407 23.4435 61.2835 23.6462C61.1267 23.8485 60.9316 24.0178 60.7092 24.1445L56.0004 26.8639C56.0004 26.8639 56.0003 26.864 56.0002 26.864C55.705 27.0346 55.37 27.1243 55.029 27.1241ZM55.029 27.1241C55.0289 27.1241 55.0287 27.1241 55.0285 27.1241L55.029 26.6241L55.0295 27.1241C55.0294 27.1241 55.0292 27.1241 55.029 27.1241Z" fill="#FFE900" stroke="#1F201E"/>
<path d="M46.6611 18.7596H46.6611C47.0029 18.7599 47.3388 18.6702 47.6348 18.4994C47.9309 18.3287 48.1768 18.0829 48.3477 17.7869L48.3477 17.7869L51.0671 13.0767L51.0671 13.0767L51.0687 13.0738C51.3226 12.6272 51.3896 12.0984 51.255 11.6026L50.7724 11.7336L51.255 11.6026C51.1204 11.1069 50.7952 10.6845 50.3503 10.4276L50.1003 10.8606L50.3503 10.4276C49.9054 10.1708 49.377 10.1003 48.8804 10.2316C48.3838 10.3629 47.9592 10.6853 47.6994 11.1285L47.6994 11.1285L47.6977 11.1314L44.9784 15.8416C44.8077 16.1372 44.7179 16.4725 44.7178 16.8138C44.7177 17.1551 44.8074 17.4904 44.9779 17.7861L45.411 17.5363L44.9779 17.7861C45.1484 18.0817 45.3937 18.3273 45.6891 18.4982C45.9846 18.6691 46.3198 18.7592 46.6611 18.7596Z" fill="#FFE900" stroke="#1F201E"/>
<path d="M68.4661 52.7767L68.2439 53.4363H68.9083C71.399 53.758 73.6753 55.0128 75.277 56.948C76.8854 58.8911 77.6928 61.3742 77.5348 63.8917C77.3768 66.4092 76.2653 68.7718 74.4266 70.4986C72.588 72.2255 70.1603 73.1867 67.6378 73.1865H28.9902C27.2891 73.1864 25.6077 72.8223 24.0589 72.1188C22.5101 71.4154 21.1297 70.3887 20.0103 69.1078C18.8909 67.8269 18.0584 66.3214 17.5688 64.6923C17.0791 63.0632 16.9436 61.3482 17.1713 59.6624C17.399 57.9766 17.9847 56.359 18.889 54.9182C19.7933 53.4774 20.9954 52.2467 22.4145 51.3087C23.8336 50.3707 25.4369 49.7471 27.1169 49.4797C28.7969 49.2124 30.5146 49.3075 32.1548 49.7586L32.6337 49.8903L32.7686 49.4123C33.1382 48.1025 33.8005 46.8938 34.7056 45.8774C35.6107 44.861 36.7348 44.0636 37.9932 43.5452C39.2516 43.0268 40.6113 42.8011 41.9696 42.885C43.328 42.969 44.6495 43.3605 45.8345 44.0299L46.2983 44.2919L46.5304 43.8125C47.8463 41.0951 50.148 38.9812 52.9673 37.9008C55.7866 36.8205 58.9116 36.8548 61.7065 37.997C64.5013 39.1391 66.756 41.3032 68.0117 44.0489C69.2675 46.7945 69.4299 49.9155 68.4661 52.7767Z" fill="#57B3FE" stroke="#1F201E"/>
</svg>
