<svg width="499" height="550" viewBox="0 0 499 550" fill="none" xmlns="http://www.w3.org/2000/svg">
<path fill-rule="evenodd" clip-rule="evenodd" d="M73.7971 62.7737C142.819 41.4543 299.255 6.91029 372.828 39.2891C457.106 76.3795 466.994 119.764 477.177 164.445C478.106 168.52 479.037 172.606 480.027 176.699C485.591 199.692 471.583 303.2 458.264 401.627C448.89 470.896 439.856 537.649 438.225 572.049L400.484 569.093C408.778 559.175 413.787 546.798 414.682 531.584C415.172 523.251 415.997 513.104 416.94 501.496C428.743 356.292 459.131 -17.5507 85.6463 70.8195L52.5975 112.471C58.2201 87.5804 65.2007 69.843 73.7971 62.7737ZM43.026 171.256C29.4281 285.599 30.1276 457.767 34.3175 540.413L54.4671 541.991L43.026 171.256Z" fill="#FFD400"/>
<path d="M372.828 39.2891L373.029 38.8317L372.828 39.2891ZM73.7971 62.7737L73.6496 62.2963L73.5557 62.3253L73.4797 62.3878L73.7971 62.7737ZM477.177 164.445L477.664 164.334L477.177 164.445ZM480.027 176.699L480.513 176.582L480.027 176.699ZM458.264 401.627L458.759 401.694L458.264 401.627ZM438.225 572.049L438.186 572.547L438.699 572.587L438.724 572.072L438.225 572.049ZM400.484 569.093L400.1 568.772L399.479 569.515L400.445 569.591L400.484 569.093ZM414.682 531.584L414.183 531.555L414.682 531.584ZM416.94 501.496L416.442 501.456L416.94 501.496ZM85.6463 70.8195L85.5313 70.3333L85.3626 70.3732L85.2549 70.509L85.6463 70.8195ZM52.5975 112.471L52.1101 112.361L52.9889 112.782L52.5975 112.471ZM43.026 171.256L43.5254 171.241L42.5298 171.197L43.026 171.256ZM34.3175 540.413L33.8185 540.438L33.8407 540.877L34.2785 540.911L34.3175 540.413ZM54.4671 541.991L54.4281 542.489L54.9837 542.533L54.9666 541.976L54.4671 541.991ZM373.029 38.8317C354.554 30.7011 330.911 26.7842 304.791 25.8014C278.664 24.8184 250.026 26.7699 221.543 30.3989C164.576 37.6568 108.183 51.6297 73.6496 62.2963L73.9446 63.2511C108.433 52.5983 164.769 38.6396 221.669 31.3902C250.118 27.7656 278.698 25.8197 304.753 26.8C330.814 27.7806 354.315 31.6877 372.626 39.7464L373.029 38.8317ZM477.664 164.334C472.575 142.002 467.541 119.896 453.202 98.7403C438.856 77.5747 415.229 57.4036 373.029 38.8317L372.626 39.7464C414.705 58.265 438.162 78.3315 452.375 99.301C466.594 120.28 471.596 142.207 476.69 164.556L477.664 164.334ZM480.513 176.582C479.524 172.492 478.593 168.409 477.664 164.334L476.69 164.556C477.618 168.63 478.55 172.72 479.542 176.817L480.513 176.582ZM458.759 401.694C465.418 352.483 472.251 301.992 476.723 260.929C478.959 240.399 480.606 222.218 481.346 207.728C482.084 193.263 481.924 182.411 480.513 176.582L479.542 176.817C480.913 182.483 481.087 193.192 480.348 207.677C479.61 222.139 477.965 240.298 475.73 260.821C471.259 301.868 464.429 352.345 457.768 401.56L458.759 401.694ZM438.724 572.072C440.354 537.701 449.383 470.977 458.759 401.694L457.768 401.56C448.396 470.816 439.358 537.598 437.726 572.025L438.724 572.072ZM400.445 569.591L438.186 572.547L438.264 571.551L400.523 568.594L400.445 569.591ZM400.867 569.413C409.234 559.408 414.28 546.927 415.181 531.614L414.183 531.555C413.294 546.669 408.321 558.942 400.1 568.772L400.867 569.413ZM415.181 531.614C415.67 523.288 416.495 513.147 417.438 501.537L416.442 501.456C415.499 513.062 414.674 523.215 414.183 531.555L415.181 531.614ZM417.438 501.537C423.338 428.959 433.903 299.08 396.244 198.393C377.407 148.03 346.491 104.928 296.859 79.9659C247.232 55.0065 178.973 48.2239 85.5313 70.3333L85.7614 71.3058C179.061 49.23 247.061 56.039 296.41 80.8587C345.754 105.676 376.531 148.54 395.308 198.743C432.875 299.185 422.346 428.83 416.442 501.456L417.438 501.537ZM85.2549 70.509L52.206 112.161L52.9889 112.782L86.0377 71.1301L85.2549 70.509ZM73.4797 62.3878C69.087 66.0002 65.1541 72.2923 61.6211 80.7467C58.0832 89.2127 54.9248 99.9004 52.1101 112.361L53.0849 112.581C55.8927 100.151 59.036 89.5247 62.5432 81.132C66.0552 72.7277 69.9109 66.6165 74.1145 63.1596L73.4797 62.3878ZM42.5298 171.197C28.9272 285.579 29.6279 457.778 33.8185 540.438L34.8165 540.388C30.6274 457.756 29.9289 285.619 43.5221 171.315L42.5298 171.197ZM34.2785 540.911L54.4281 542.489L54.5061 541.493L34.3565 539.915L34.2785 540.911ZM42.5265 171.272L53.9677 542.007L54.9666 541.976L43.5254 171.241L42.5265 171.272Z" fill="black"/>
<mask id="path-3-inside-1_391_705" fill="white">
<path fill-rule="evenodd" clip-rule="evenodd" d="M136.752 0.0649414C61.3493 0.0649414 0.223389 61.1908 0.223389 136.593V481.132C0.223389 556.534 61.3493 617.66 136.752 617.66H361.695C437.097 617.66 498.223 556.534 498.223 481.132V136.594C498.223 61.1909 437.097 0.0649414 361.695 0.0649414H136.752ZM157.326 70.1161C100.873 70.1161 55.1082 115.881 55.1082 172.334V450.395C55.1082 506.848 100.873 552.612 157.326 552.612H341.121C397.574 552.612 443.338 506.848 443.338 450.395V172.334C443.338 115.881 397.574 70.1161 341.121 70.1161H157.326Z"/>
</mask>
<path fill-rule="evenodd" clip-rule="evenodd" d="M136.752 0.0649414C61.3493 0.0649414 0.223389 61.1908 0.223389 136.593V481.132C0.223389 556.534 61.3493 617.66 136.752 617.66H361.695C437.097 617.66 498.223 556.534 498.223 481.132V136.594C498.223 61.1909 437.097 0.0649414 361.695 0.0649414H136.752ZM157.326 70.1161C100.873 70.1161 55.1082 115.881 55.1082 172.334V450.395C55.1082 506.848 100.873 552.612 157.326 552.612H341.121C397.574 552.612 443.338 506.848 443.338 450.395V172.334C443.338 115.881 397.574 70.1161 341.121 70.1161H157.326Z" fill="#FFE900"/>
<path d="M1.22273 136.593C1.22273 61.7427 61.9012 1.06429 136.752 1.06429V-0.934404C60.7974 -0.934404 -0.775956 60.6388 -0.775956 136.593H1.22273ZM1.22273 481.132V136.593H-0.775956V481.132H1.22273ZM136.752 616.661C61.9012 616.661 1.22273 555.982 1.22273 481.132H-0.775956C-0.775956 557.086 60.7974 618.66 136.752 618.66V616.661ZM361.695 616.661H136.752V618.66H361.695V616.661ZM497.224 481.132C497.224 555.982 436.546 616.661 361.695 616.661V618.66C437.649 618.66 499.223 557.086 499.223 481.132H497.224ZM497.224 136.594V481.132H499.223V136.594H497.224ZM361.695 1.06429C436.546 1.06429 497.224 61.7428 497.224 136.594H499.223C499.223 60.639 437.649 -0.934404 361.695 -0.934404V1.06429ZM136.752 1.06429H361.695V-0.934404H136.752V1.06429ZM56.1075 172.334C56.1075 116.433 101.425 71.1154 157.326 71.1154V69.1168C100.321 69.1168 54.1088 115.329 54.1088 172.334H56.1075ZM56.1075 450.395V172.334H54.1088V450.395H56.1075ZM157.326 551.613C101.424 551.613 56.1075 506.296 56.1075 450.395H54.1088C54.1088 507.4 100.321 553.612 157.326 553.612V551.613ZM341.121 551.613H157.326V553.612H341.121V551.613ZM442.339 450.395C442.339 506.296 397.022 551.613 341.121 551.613V553.612C398.126 553.612 444.338 507.4 444.338 450.395H442.339ZM442.339 172.334V450.395H444.338V172.334H442.339ZM341.121 71.1154C397.022 71.1154 442.339 116.432 442.339 172.334H444.338C444.338 115.329 398.126 69.1168 341.121 69.1168V71.1154ZM157.326 71.1154H341.121V69.1168H157.326V71.1154Z" fill="black" mask="url(#path-3-inside-1_391_705)"/>
<mask id="mask0_391_705" style="mask-type:alpha" maskUnits="userSpaceOnUse" x="0" y="0" width="499" height="618">
<mask id="path-5-inside-2_391_705" fill="white">
<path fill-rule="evenodd" clip-rule="evenodd" d="M136.752 0.0649414C61.3493 0.0649414 0.223389 61.1908 0.223389 136.593V481.132C0.223389 556.534 61.3493 617.66 136.752 617.66H361.695C437.097 617.66 498.223 556.534 498.223 481.132V136.594C498.223 61.1909 437.097 0.0649414 361.695 0.0649414H136.752ZM157.734 69.0197C101.28 69.0197 55.5159 114.784 55.5159 171.237V449.298C55.5159 505.752 101.28 551.516 157.734 551.516H341.528C397.982 551.516 443.746 505.751 443.746 449.298V171.237C443.746 114.784 397.982 69.0197 341.528 69.0197H157.734Z"/>
</mask>
<path fill-rule="evenodd" clip-rule="evenodd" d="M136.752 0.0649414C61.3493 0.0649414 0.223389 61.1908 0.223389 136.593V481.132C0.223389 556.534 61.3493 617.66 136.752 617.66H361.695C437.097 617.66 498.223 556.534 498.223 481.132V136.594C498.223 61.1909 437.097 0.0649414 361.695 0.0649414H136.752ZM157.734 69.0197C101.28 69.0197 55.5159 114.784 55.5159 171.237V449.298C55.5159 505.752 101.28 551.516 157.734 551.516H341.528C397.982 551.516 443.746 505.751 443.746 449.298V171.237C443.746 114.784 397.982 69.0197 341.528 69.0197H157.734Z" fill="#FFF08D"/>
<path d="M1.22273 136.593C1.22273 61.7427 61.9012 1.06429 136.752 1.06429V-0.934404C60.7974 -0.934404 -0.775956 60.6388 -0.775956 136.593H1.22273ZM1.22273 481.132V136.593H-0.775956V481.132H1.22273ZM136.752 616.661C61.9012 616.661 1.22273 555.982 1.22273 481.132H-0.775956C-0.775956 557.086 60.7974 618.66 136.752 618.66V616.661ZM361.695 616.661H136.752V618.66H361.695V616.661ZM497.224 481.132C497.224 555.982 436.546 616.661 361.695 616.661V618.66C437.649 618.66 499.223 557.086 499.223 481.132H497.224ZM497.224 136.594V481.132H499.223V136.594H497.224ZM361.695 1.06429C436.546 1.06429 497.224 61.7428 497.224 136.594H499.223C499.223 60.639 437.649 -0.934404 361.695 -0.934404V1.06429ZM136.752 1.06429H361.695V-0.934404H136.752V1.06429ZM56.5152 171.237C56.5152 115.336 101.832 70.019 157.734 70.019V68.0203C100.728 68.0203 54.5165 114.232 54.5165 171.237H56.5152ZM56.5152 449.298V171.237H54.5165V449.298H56.5152ZM157.734 550.517C101.832 550.517 56.5152 505.2 56.5152 449.298H54.5165C54.5165 506.303 100.728 552.515 157.734 552.515V550.517ZM341.528 550.517H157.734V552.515H341.528V550.517ZM442.747 449.298C442.747 505.2 397.43 550.517 341.528 550.517V552.515C398.534 552.515 444.745 506.303 444.745 449.298H442.747ZM442.747 171.237V449.298H444.745V171.237H442.747ZM341.528 70.019C397.43 70.019 442.747 115.336 442.747 171.237H444.745C444.745 114.232 398.534 68.0203 341.528 68.0203V70.019ZM157.734 70.019H341.528V68.0203H157.734V70.019Z" fill="black" mask="url(#path-5-inside-2_391_705)"/>
</mask>
<g mask="url(#mask0_391_705)">
<path d="M496.39 247.83C486.26 79.681 499.766 9.44997 193.326 -20.6487C178.871 -22.0685 395.647 -71.6384 500.843 -96.4185C520.887 62.8649 504.394 380.704 496.39 247.83Z" fill="#FFF08D" stroke="black" stroke-width="0.999345"/>
<path d="M-1.73213 27.62C37.9964 385.177 -66.4751 626.492 288.139 613.249C302.831 612.7 323.716 735.46 251.354 807.477C-437.263 789.516 -16.6188 -106.36 -1.73213 27.62Z" fill="#FFF08D" stroke="black" stroke-width="0.999345"/>
</g>
<rect x="2.22208" y="2.06363" width="494.003" height="613.598" rx="134.53" stroke="#1F201E" stroke-width="3.99738"/>
<path d="M54.6089 279.556V364.5" stroke="black" stroke-width="0.999345"/>
</svg>
