<svg width="48" height="48" viewBox="0 0 48 48" fill="none" xmlns="http://www.w3.org/2000/svg">
<g clip-path="url(#clip0_208_1862)">
<path d="M24 1.25C29.9217 1.25 34.75 6.21528 34.75 12.375C34.75 18.5347 29.9217 23.5 24 23.5C17.4953 23.5 12.25 28.9442 12.25 35.625C12.25 42.3058 17.4953 47.75 24 47.75C37.1168 47.75 47.75 37.1168 47.75 24C47.75 10.8832 37.1168 0.25 24 0.25V0.75V1.25Z" fill="#DC437A" stroke="#1F201E"/>
<path d="M12.25 35.625C12.25 39.9273 14.4253 43.7167 17.7113 45.8697C8.20553 43.1413 1.25 34.3829 1.25 24C1.25 11.4355 11.4355 1.25 24 1.25C29.9217 1.25 34.75 6.21528 34.75 12.375C34.75 18.5347 29.9217 23.5 24 23.5C17.4953 23.5 12.25 28.9442 12.25 35.625Z" fill="#EDF5FF" stroke="#1F201E"/>
<path d="M27.25 12C27.25 13.7949 25.7949 15.25 24 15.25C22.2051 15.25 20.75 13.7949 20.75 12C20.75 10.2051 22.2051 8.75 24 8.75C25.7949 8.75 27.25 10.2051 27.25 12Z" fill="#2E425B" stroke="#1F201E"/>
<path d="M27.25 36C27.25 37.7949 25.7949 39.25 24 39.25C22.2051 39.25 20.75 37.7949 20.75 36C20.75 34.2051 22.2051 32.75 24 32.75C25.7949 32.75 27.25 34.2051 27.25 36Z" fill="#EDF5FF" stroke="#1F201E"/>
</g>
<defs>
<clipPath id="clip0_208_1862">
<rect width="48" height="48" fill="white"/>
</clipPath>
</defs>
</svg>
