<svg width="48" height="48" viewBox="0 0 48 48" fill="none" xmlns="http://www.w3.org/2000/svg">
<path d="M15.4801 3.54988L15.4803 3.54975C15.5024 3.52761 15.5325 3.51508 15.5641 3.51508H32.4359C32.4674 3.51508 32.4977 3.52759 32.5199 3.54988L44.4501 15.4801L44.4502 15.4803C44.4724 15.5024 44.4849 15.5325 44.4849 15.5641V32.4359C44.4849 32.4674 44.4725 32.4975 44.4501 32.5199L32.5199 44.4501L32.5197 44.4503C32.4976 44.4724 32.4675 44.4849 32.4359 44.4849H15.5641C15.5326 44.4849 15.5025 44.4725 15.4801 44.4501L15.1159 44.8143L15.4801 44.4501L3.54988 32.5199L3.54975 32.5197C3.52761 32.4976 3.51508 32.4675 3.51508 32.4359V15.5641C3.51508 15.5325 3.52761 15.5024 3.54975 15.4803L3.54988 15.4801L15.4801 3.54988ZM39.5752 30.6648L39.7261 30.5139V30.3006V17.6994V17.4861L39.5752 17.3352L30.6648 8.42476L30.5139 8.27389H30.3006H17.6995H17.4862L17.3353 8.42476L8.42476 17.3353L8.27389 17.4862V17.6995V30.3006V30.5139L8.42476 30.6648L17.3353 39.5752L17.4862 39.7261H17.6995H30.3006H30.5139L30.6648 39.5752L39.5752 30.6648Z" fill="#FFFBCC" stroke="#1F201E" stroke-width="1.03016"/>
<path d="M6.05024 16.5651L16.565 6.05024H31.435L41.9497 16.5649L41.9497 31.435L31.4351 41.9497H16.5651L6.05032 31.4351L6.05024 16.5651Z" fill="#FFD400" stroke="#1F201E" stroke-width="1.03016"/>
<path d="M36.5383 24.0001C36.5383 30.9252 30.9245 36.5391 23.9994 36.5391C17.0743 36.5391 11.4604 30.9252 11.4604 24.0001C11.4604 17.075 17.0743 11.4611 23.9994 11.4611C30.9245 11.4611 36.5383 17.075 36.5383 24.0001Z" fill="white" stroke="#1F201E" stroke-width="1.03016"/>
<path d="M18.5835 30.5708C18.4479 30.4352 18.3429 30.322 18.2709 30.2414V19.4315L24.2838 14.8681C29.181 14.9605 33.1327 19.008 33.1327 24.0001C33.1327 29.0502 29.0886 33.1337 24.1126 33.1337C22.3763 33.1337 20.8915 32.3913 19.8221 31.6224C19.2902 31.2399 18.8699 30.8571 18.5835 30.5708Z" fill="#FFFBCC" stroke="#1F201E" stroke-width="1.03016"/>
<path d="M18.7554 28.8244C18.7554 30.0693 19.1879 31.2119 19.9118 32.118C16.9122 30.5977 14.8666 27.5289 14.8666 24.0001C14.8666 18.9651 19.0311 14.8665 24.1894 14.8665C26.6311 14.8665 28.5932 16.8052 28.5932 19.1758C28.5932 21.5463 26.6311 23.485 24.1894 23.485C21.1977 23.485 18.7554 25.8661 18.7554 28.8244Z" fill="#FFE900" stroke="#1F201E" stroke-width="1.03016"/>
<path d="M25.1872 19.4597C25.1872 20.1156 24.6555 20.6473 23.9996 20.6473C23.3437 20.6473 22.812 20.1156 22.812 19.4597C22.812 18.8038 23.3437 18.272 23.9996 18.272C24.6555 18.272 25.1872 18.8038 25.1872 19.4597Z" fill="#FFFBCC" stroke="#1F201E" stroke-width="1.03016"/>
<path d="M25.1872 28.5406C25.1872 29.1965 24.6555 29.7282 23.9996 29.7282C23.3437 29.7282 22.812 29.1965 22.812 28.5406C22.812 27.8847 23.3437 27.353 23.9996 27.353C24.6555 27.353 25.1872 27.8847 25.1872 28.5406Z" fill="#FFE900" stroke="#1F201E" stroke-width="1.03016"/>
</svg>
