<svg width="48" height="48" viewBox="0 0 48 48" fill="none" xmlns="http://www.w3.org/2000/svg">
<path d="M44.9988 39.239H3V45.0369H44.9988V39.239Z" fill="#71D4D9"/>
<path d="M44.999 39.239H43.3047V45.0369H44.999V39.239Z" fill="#62BDF2"/>
<path d="M25.9138 20.8957H24.4062L25.9193 26.6123H29.7689L31.671 20.5925L26.5675 4.44019L23.6085 13.805L24.9677 16.1027H23.1465L25.9138 20.8957Z" fill="#62BDF2"/>
<path d="M14.5612 32.5022L9.37955 16.1027L3.30859 35.3165H12.9009L14.5612 32.5022Z" fill="#71D4D9"/>
<path d="M13.4587 34.3727L14.562 32.5023L9.38038 16.1028L8.5332 18.784L13.4587 34.3727Z" fill="#62BDF2"/>
<path d="M32.2191 26.6124L36.7625 34.3137H41.9159L34.6261 11.2419L29.7695 26.6124H32.2191Z" fill="#71D4D9"/>
<path d="M34.6265 11.2419L33.7793 13.9232L40.222 34.3137H41.9163L34.6265 11.2419Z" fill="#62BDF2"/>
<path d="M14.0368 20.8956L12.6045 26.3072L14.5619 32.5022L18.0366 26.6123H25.9199L24.4069 20.8956H25.9144L23.1471 16.1027H24.9683L19.2219 6.38867L13.4754 16.1027H15.2966L12.5293 20.8956H14.0368Z" fill="#71D4D9"/>
<path d="M21.998 14.4083H20.2131L22.9804 19.2013H22.2065L24.1679 26.6123H25.9206L24.4076 20.8956H25.9151L23.1478 16.1027H24.969L19.2226 6.38867L18.2383 8.05261L21.998 14.4083Z" fill="#62BDF2"/>
<path d="M6.74747 10.4404C8.80203 10.4404 10.4676 8.77481 10.4676 6.72024C10.4676 4.66568 8.80203 3.00012 6.74747 3.00012C4.6929 3.00012 3.02734 4.66568 3.02734 6.72024C3.02734 8.77481 4.6929 10.4404 6.74747 10.4404Z" fill="#FFD400"/>
<path d="M6.74561 3C6.45402 3 6.17072 3.03465 5.89844 3.09802C7.54467 3.48162 8.77138 4.95706 8.77138 6.72012C8.77138 8.4831 7.54459 9.95862 5.89844 10.3421C6.17072 10.4056 6.45402 10.4402 6.74561 10.4402C8.80019 10.4402 10.4657 8.77469 10.4657 6.72012C10.4657 4.66563 8.80019 3 6.74561 3Z" fill="#FFE900"/>
<path d="M13.6545 34.0405C12.9423 33.3119 11.9492 32.8591 10.8496 32.8591C9.19761 32.8591 7.78494 33.8802 7.20598 35.3254C7.11304 35.3188 7.01943 35.3143 6.9248 35.3143C4.75721 35.3143 3 37.0715 3 39.2391H10.5877L13.6545 34.0405Z" fill="#62BDF2"/>
<path d="M32.2192 26.6123H18.0366L9.33789 41.3575H40.9179L32.2192 26.6123Z" fill="#FFE900"/>
<path d="M23.5195 41.3575L32.2182 26.6123L40.9169 41.3575H23.5195Z" fill="#FFD400"/>
<path d="M32.2202 26.6123L31.373 28.0484L39.2246 41.3575H40.9189L32.2202 26.6123Z" fill="#FFE900"/>
<path d="M17.7085 34.1189H23.6901L21.9347 37.0944H15.9531L17.7085 34.1189Z" fill="#8CA3B7"/>
<path d="M39.6683 39.239H44.9988V45.0369H3V39.239H10.5877" stroke="black" stroke-miterlimit="10"/>
<path d="M28.7402 11.3141L26.5683 4.44019L23.6094 13.805" stroke="black" stroke-miterlimit="10"/>
<path d="M31.6714 20.5925L29.1328 12.5583" stroke="black" stroke-miterlimit="10"/>
<path d="M6.69688 24.5929L3.30859 35.3165H7.20518" stroke="black" stroke-miterlimit="10"/>
<path d="M14.5617 32.5022L9.38001 16.1027L7.08789 23.3571" stroke="black" stroke-miterlimit="10"/>
<path d="M36.7625 34.3137H41.9159L34.6261 11.2419L29.7695 26.6124" stroke="black" stroke-miterlimit="10"/>
<path d="M25.9199 26.6123L24.4069 20.8956H25.9144L23.1471 16.1027H24.9683L19.2219 6.38867L13.4754 16.1027H15.2966L12.5293 20.8956H14.0368L12.6045 26.3072" stroke="black" stroke-miterlimit="10"/>
<path d="M6.74747 10.4404C8.80203 10.4404 10.4676 8.77481 10.4676 6.72024C10.4676 4.66568 8.80203 3.00012 6.74747 3.00012C4.6929 3.00012 3.02734 4.66568 3.02734 6.72024C3.02734 8.77481 4.6929 10.4404 6.74747 10.4404Z" stroke="black" stroke-miterlimit="10"/>
<path d="M13.6545 34.0405C12.9423 33.3119 11.9491 32.8591 10.8496 32.8591C9.19761 32.8591 7.78494 33.8802 7.20598 35.3254C7.11304 35.3188 7.01943 35.3143 6.9248 35.3143C4.75721 35.3143 3 37.0715 3 39.2391H10.5877L13.6545 34.0405Z" stroke="black" stroke-miterlimit="10"/>
<path d="M32.2192 26.6123H18.0366L9.33789 41.3575H40.9179L32.2192 26.6123Z" stroke="black" stroke-miterlimit="10"/>
<path d="M27.7358 34.2105L32.2182 26.6123L39.6671 39.239L40.9169 41.3575H23.5195L27.0932 35.2998" stroke="black" stroke-miterlimit="10"/>
<path d="M32.2188 24.4187V41.3622" stroke="black" stroke-miterlimit="10"/>
<path d="M18.0371 24.4187V26.6123" stroke="black" stroke-miterlimit="10"/>
<path d="M25.6034 30.8755H19.6218L15.9531 37.0944H21.9347L25.6034 30.8755Z" stroke="black" stroke-miterlimit="10"/>
<path d="M23.6906 34.1189L25.6039 30.8755H19.6223L17.709 34.1189H23.6906Z" stroke="black" stroke-miterlimit="10"/>
<path d="M17.6016 13.8342H18.8723" stroke="black" stroke-miterlimit="10"/>
<path d="M19.5254 18.9174H20.7962" stroke="black" stroke-miterlimit="10"/>
<path d="M7.54688 27.8074H8.81764" stroke="black" stroke-miterlimit="10"/>
<path d="M34.8379 22.7778H36.1087" stroke="black" stroke-miterlimit="10"/>
</svg>
