<svg width="48" height="48" viewBox="0 0 48 48" fill="none" xmlns="http://www.w3.org/2000/svg">
<path d="M16.2531 31.7264C18.7593 31.7264 20.8021 29.6836 20.8021 27.1774V24.7189H27.1989V27.1774C27.1989 29.6836 29.2417 31.7264 31.7479 31.7264C33.5281 31.7264 34.9147 32.0523 35.9973 32.6167C37.0761 33.1791 37.8795 33.9919 38.4763 35.0102C39.6226 36.9661 40.0072 39.6795 40.0431 42.7947H7.95791C7.9938 39.6795 8.37833 36.966 9.52462 35.0102C10.1214 33.9919 10.9249 33.1791 12.0036 32.6167C13.0862 32.0523 14.4729 31.7264 16.2531 31.7264Z" fill="white" stroke="#1F201E"/>
<path d="M27.4181 28.5727C25.2397 29.7044 22.7603 29.7044 20.582 28.5727C20.7245 28.1326 20.8016 27.6636 20.8016 27.1775V24.719H27.1984V27.1775C27.1984 27.6636 27.2756 28.1326 27.4181 28.5727Z" fill="#FFFBCC" stroke="#1F201E"/>
<path d="M41.9566 40.9078C41.7112 42.6458 40.2065 43.9955 38.4039 43.9955H9.59549C7.79298 43.9955 6.28828 42.6458 6.04285 40.9078H41.9566Z" fill="white" stroke="#1F201E"/>
<path d="M3.95147 44.6462C3.86829 44.6462 3.80078 44.5787 3.80078 44.4955C3.80078 44.4124 3.86828 44.3448 3.95147 44.3448H44.0496C44.1328 44.3448 44.2003 44.4124 44.2003 44.4955C44.2003 44.5787 44.1328 44.6462 44.0496 44.6462H3.95147Z" fill="#FFD400" stroke="#1F201E"/>
<path d="M30.6181 42.1252C29.2232 43.5201 27.1111 44.2507 24.5801 43.9166C24.246 41.3857 24.9767 39.2736 26.3716 37.8788C27.7665 36.4839 29.8785 35.7532 32.4095 36.0873C32.7436 38.6182 32.013 40.7303 30.6181 42.1252Z" fill="#FFD400" stroke="#1F201E"/>
<path d="M17.3833 42.1252C15.9884 40.7303 15.2577 38.6182 15.5918 36.0873C18.1228 35.7532 20.2349 36.4839 21.6298 37.8788C23.0247 39.2736 23.7553 41.3857 23.4213 43.9166C20.8903 44.2507 18.7782 43.5201 17.3833 42.1252Z" fill="#FFD400" stroke="#1F201E"/>
<path d="M24.0007 43.8741C21.9748 42.3207 20.998 40.3106 20.998 38.3379C20.998 36.3652 21.9748 34.3552 24.0007 32.8017C26.0266 34.3552 27.0034 36.3652 27.0034 38.3379C27.0034 40.3106 26.0266 42.3207 24.0007 43.8741Z" fill="#EC72A5" stroke="#1F201E"/>
<path d="M26.1564 3.46389C28.1889 3.94434 29.4472 5.98153 28.9667 8.01407C28.4862 10.0466 26.4491 11.3048 24.4165 10.8244C22.384 10.3439 21.1258 8.30673 21.6062 6.27419C22.0867 4.24164 24.1239 2.98343 26.1564 3.46389Z" fill="#FFD400" stroke="#1F201E" stroke-width="0.999815"/>
<path d="M31.5024 17.2574C31.5024 22.395 28.0691 26.3927 24.0217 26.3927C19.9743 26.3927 16.541 22.395 16.541 17.2574C16.541 12.1199 19.9743 8.12219 24.0217 8.12219C28.0691 8.12219 31.5024 12.1199 31.5024 17.2574Z" fill="white" stroke="#1F201E"/>
<path d="M24.8434 13.0607C22.7805 13.4057 21.0494 14.2079 19.6495 15.4542C18.3712 16.5923 17.3898 18.0823 16.679 19.8862C15.5124 17.1261 15.4599 14.9364 16.3384 13.2345C17.3024 11.3668 19.466 9.92826 22.9644 8.98967L24.8434 13.0607Z" fill="#FFD400" stroke="#1F201E"/>
<path d="M20.0547 12.3404L20.0547 12.3404C23.0116 12.7599 26.2852 13.8213 28.599 15.8989L28.2649 16.2709L28.599 15.8989C29.7258 16.9107 30.6671 18.1327 31.45 19.5289C32.0274 18.0504 32.1874 16.6401 31.9992 15.2839C31.6543 12.7994 30.2377 10.4425 28.1501 9.08129L28.1501 9.08129C26.3421 7.90228 23.969 7.02502 21.8478 7.00109M20.0547 12.3404L16.5297 9.74082C16.837 8.86922 17.637 8.17533 18.6751 7.69536C19.7062 7.21861 20.8961 6.99039 21.8478 7.00109M20.0547 12.3404C18.879 12.1737 17.6902 12.1068 16.4907 12.1278M20.0547 12.3404L16.4907 12.1278M21.8478 7.00109L21.8535 6.50112L21.8478 7.00109ZM16.4907 12.1278C16.2872 11.1997 16.2958 10.4041 16.5297 9.74083L16.4907 12.1278Z" fill="#FFE900" stroke="#1F201E"/>
<path fill-rule="evenodd" clip-rule="evenodd" d="M27.1812 19.0481C27.2514 18.6972 27.5928 18.4696 27.9438 18.5398C28.2946 18.61 28.5223 18.9514 28.4521 19.3023C28.1671 20.7167 26.4681 21.3484 25.3304 20.4195C24.9907 20.1422 24.7467 19.7507 24.6557 19.3023C24.5855 18.9515 24.8131 18.6101 25.164 18.5398C25.5149 18.4696 25.8562 18.6972 25.9265 19.0481C26.0617 19.7197 27.0449 19.7198 27.1812 19.0481ZM22.1203 19.0481C22.1905 18.6972 22.5319 18.4696 22.8828 18.5398C23.2337 18.61 23.4613 18.9514 23.3912 19.3023C23.1061 20.7167 21.4072 21.3484 20.2694 20.4195C19.9298 20.1422 19.6857 19.7507 19.5947 19.3023C19.5246 18.9515 19.7522 18.6101 20.1031 18.5398C20.4539 18.4696 20.7953 18.6972 20.8656 19.0481C21.0008 19.7197 21.984 19.7198 22.1203 19.0481Z" fill="#1F201E"/>
</svg>
