<svg width="441" height="357" viewBox="0 0 441 357" fill="none" xmlns="http://www.w3.org/2000/svg">
<path d="M401.074 188.94C401.073 280.764 325.999 355.53 233.86 355.53C141.411 355.53 66.6469 280.764 66.6469 188.628C66.6469 96.8025 141.411 22.0364 233.86 22.0364C325.997 22.0364 400.764 96.8013 401.074 188.94Z" fill="#FFE900" stroke="#222222"/>
<path d="M405.619 130.441C412.665 130.441 418.377 124.73 418.377 117.684C418.377 110.638 412.665 104.927 405.619 104.927C398.574 104.927 392.862 110.638 392.862 117.684C392.862 124.73 398.574 130.441 405.619 130.441Z" fill="#FFF586"/>
<path d="M424.288 80.6562C429.099 80.6562 433 76.7556 433 71.9438C433 67.1321 429.099 63.2314 424.288 63.2314C419.476 63.2314 415.575 67.1321 415.575 71.9438C415.575 76.7556 419.476 80.6562 424.288 80.6562Z" fill="#FFF586"/>
<path d="M51.8335 300.955C60.7696 300.955 68.0137 293.711 68.0137 284.775C68.0137 275.839 60.7696 268.595 51.8335 268.595C42.8975 268.595 35.6534 275.839 35.6534 284.775C35.6534 293.711 42.8975 300.955 51.8335 300.955Z" fill="#FFF586"/>
<g filter="url(#filter0_d_127_1422)">
<path d="M181.209 231.597C181.209 246.064 169.509 257.764 154.916 257.764C154.664 257.764 152.526 257.764 136.8 257.764C125.855 257.764 108.368 257.764 80.4398 257.764H67.1045C49.6176 258.141 35.6533 244.177 35.6533 227.319C35.6533 210.336 49.7434 196.245 67.4819 197.126C82.7042 149.572 152.4 156.24 158.313 205.429C171.396 207.065 181.209 218.135 181.209 231.597Z" fill="url(#paint0_linear_127_1422)"/>
<path d="M67.1045 257.264L67.0937 257.264C49.8867 257.635 36.1533 243.896 36.1533 227.319C36.1533 210.615 50.0106 196.759 67.4571 197.625L67.8409 197.645L67.9581 197.279C83.0187 150.23 151.968 156.839 157.816 205.489L157.863 205.877L158.251 205.925C171.082 207.529 180.709 218.385 180.709 231.597C180.709 245.786 169.235 257.264 154.916 257.264H154.915H154.913H154.911H154.91H154.908H154.906H154.905H154.903H154.901H154.899H154.897H154.895H154.893H154.891H154.889H154.887H154.884H154.882H154.88H154.877H154.875H154.872H154.87H154.867H154.864H154.862H154.859H154.856H154.853H154.85H154.847H154.844H154.841H154.838H154.834H154.831H154.828H154.824H154.821H154.817H154.813H154.81H154.806H154.802H154.798H154.794H154.79H154.786H154.782H154.777H154.773H154.769H154.764H154.76H154.755H154.75H154.746H154.741H154.736H154.731H154.726H154.721H154.716H154.71H154.705H154.7H154.694H154.689H154.683H154.677H154.671H154.665H154.659H154.653H154.647H154.641H154.635H154.628H154.622H154.615H154.609H154.602H154.595H154.588H154.581H154.574H154.567H154.56H154.552H154.545H154.537H154.53H154.522H154.514H154.506H154.498H154.49H154.482H154.474H154.466H154.457H154.449H154.44H154.431H154.422H154.413H154.404H154.395H154.386H154.377H154.367H154.358H154.348H154.338H154.328H154.318H154.308H154.298H154.288H154.278H154.267H154.257H154.246H154.235H154.224H154.213H154.202H154.191H154.179H154.168H154.156H154.145H154.133H154.121H154.109H154.097H154.085H154.072H154.06H154.047H154.035H154.022H154.009H153.996H153.983H153.969H153.956H153.942H153.929H153.915H153.901H153.887H153.873H153.859H153.844H153.83H153.815H153.8H153.785H153.77H153.755H153.74H153.724H153.709H153.693H153.678H153.662H153.646H153.629H153.613H153.597H153.58H153.563H153.547H153.53H153.512H153.495H153.478H153.46H153.443H153.425H153.407H153.389H153.371H153.352H153.334H153.315H153.296H153.278H153.258H153.239H153.22H153.2H153.181H153.161H153.141H153.121H153.101H153.081H153.06H153.039H153.019H152.998H152.977H152.955H152.934H152.912H152.891H152.869H152.847H152.825H152.802H152.78H152.757H152.735H152.712H152.689H152.665H152.642H152.618H152.595H152.571H152.547H152.523H152.498H152.474H152.449H152.424H152.399H152.374H152.349H152.323H152.298H152.272H152.246H152.22H152.193H152.167H152.14H152.113H152.086H152.059H152.032H152.004H151.977H151.949H151.921H151.893H151.864H151.836H151.807H151.778H151.749H151.72H151.69H151.661H151.631H151.601H151.571H151.541H151.51H151.48H151.449H151.418H151.387H151.355H151.324H151.292H151.26H151.228H151.196H151.163H151.13H151.098H151.065H151.031H150.998H150.964H150.931H150.897H150.862H150.828H150.794H150.759H150.724H150.689H150.653H150.618H150.582H150.546H150.51H150.474H150.437H150.401H150.364H150.327H150.29H150.252H150.214H150.177H150.139H150.1H150.062H150.023H149.984H149.945H149.906H149.866H149.827H149.787H149.747H149.706H149.666H149.625H149.584H149.543H149.502H149.46H149.418H149.377H149.334H149.292H149.249H149.207H149.163H149.12H149.077H149.033H148.989H148.945H148.901H148.856H148.812H148.767H148.721H148.676H148.63H148.585H148.538H148.492H148.446H148.399H148.352H148.305H148.257H148.21H148.162H148.114H148.066H148.017H147.968H147.919H147.87H147.821H147.771H147.721H147.671H147.621H147.57H147.52H147.468H147.417H147.366H147.314H147.262H147.21H147.157H147.105H147.052H146.999H146.945H146.892H146.838H146.784H146.729H146.675H146.62H146.565H146.51H146.454H146.398H146.342H146.286H146.23H146.173H146.116H146.059H146.001H145.944H145.886H145.827H145.769H145.71H145.651H145.592H145.532H145.473H145.413H145.353H145.292H145.231H145.17H145.109H145.048H144.986H144.924H144.862H144.799H144.737H144.674H144.61H144.547H144.483H144.419H144.355H144.29H144.225H144.16H144.095H144.029H143.963H143.897H143.831H143.764H143.697H143.63H143.562H143.495H143.427H143.358H143.29H143.221H143.152H143.083H143.013H142.943H142.873H142.803H142.732H142.661H142.59H142.518H142.446H142.374H142.302H142.229H142.156H142.083H142.01H141.936H141.862H141.788H141.713H141.638H141.563H141.488H141.412H141.336H141.26H141.183H141.107H141.029H140.952H140.874H140.796H140.718H140.64H140.561H140.482H140.402H140.323H140.243H140.162H140.082H140.001H139.92H139.838H139.757H139.675H139.592H139.51H139.427H139.344H139.26H139.176H139.092H139.008H138.923H138.838H138.753H138.667H138.582H138.495H138.409H138.322H138.235H138.148H138.06H137.972H137.884H137.795H137.706H137.617H137.527H137.438H137.347H137.257H137.166H137.075H136.984H136.892H136.8H136.736H136.672H136.607H136.543H136.478H136.413H136.348H136.282H136.217H136.151H136.086H136.02H135.954H135.888H135.821H135.755H135.688H135.621H135.555H135.487H135.42H135.353H135.285H135.218H135.15H135.082H135.014H134.945H134.877H134.808H134.739H134.67H134.601H134.532H134.463H134.393H134.323H134.254H134.184H134.113H134.043H133.973H133.902H133.831H133.76H133.689H133.618H133.546H133.475H133.403H133.331H133.259H133.187H133.114H133.042H132.969H132.896H132.823H132.75H132.677H132.603H132.529H132.456H132.382H132.307H132.233H132.159H132.084H132.009H131.934H131.859H131.784H131.708H131.633H131.557H131.481H131.405H131.329H131.252H131.176H131.099H131.022H130.945H130.868H130.79H130.713H130.635H130.557H130.479H130.401H130.322H130.244H130.165H130.086H130.007H129.928H129.849H129.769H129.689H129.609H129.529H129.449H129.369H129.288H129.207H129.127H129.045H128.964H128.883H128.801H128.72H128.638H128.556H128.473H128.391H128.308H128.226H128.143H128.06H127.976H127.893H127.809H127.725H127.641H127.557H127.473H127.389H127.304H127.219H127.134H127.049H126.964H126.878H126.792H126.707H126.621H126.534H126.448H126.362H126.275H126.188H126.101H126.014H125.926H125.839H125.751H125.663H125.575H125.487H125.398H125.309H125.221H125.132H125.042H124.953H124.864H124.774H124.684H124.594H124.504H124.413H124.323H124.232H124.141H124.05H123.959H123.867H123.775H123.684H123.592H123.499H123.407H123.314H123.222H123.129H123.036H122.942H122.849H122.755H122.662H122.568H122.473H122.379H122.284H122.19H122.095H122H121.905H121.809H121.713H121.618H121.522H121.425H121.329H121.232H121.136H121.039H120.942H120.844H120.747H120.649H120.551H120.453H120.355H120.257H120.158H120.06H119.961H119.861H119.762H119.663H119.563H119.463H119.363H119.263H119.162H119.062H118.961H118.86H118.759H118.657H118.556H118.454H118.352H118.25H118.147H118.045H117.942H117.839H117.736H117.633H117.529H117.426H117.322H117.218H117.114H117.009H116.905H116.8H116.695H116.59H116.484H116.379H116.273H116.167H116.061H115.955H115.848H115.741H115.634H115.527H115.42H115.312H115.205H115.097H114.989H114.881H114.772H114.663H114.555H114.446H114.336H114.227H114.117H114.007H113.897H113.787H113.677H113.566H113.455H113.344H113.233H113.122H113.01H112.898H112.786H112.674H112.562H112.449H112.336H112.223H112.11H111.997H111.883H111.769H111.655H111.541H111.427H111.312H111.197H111.082H110.967H110.852H110.736H110.62H110.505H110.388H110.272H110.155H110.039H109.922H109.804H109.687H109.569H109.452H109.334H109.215H109.097H108.978H108.859H108.74H108.621H108.502H108.382H108.262H108.142H108.022H107.902H107.781H107.66H107.539H107.418H107.296H107.174H107.053H106.93H106.808H106.686H106.563H106.44H106.317H106.193H106.07H105.946H105.822H105.698H105.574H105.449H105.324H105.199H105.074H104.949H104.823H104.697H104.571H104.445H104.318H104.192H104.065H103.938H103.81H103.683H103.555H103.427H103.299H103.171H103.042H102.913H102.784H102.655H102.525H102.396H102.266H102.136H102.006H101.875H101.744H101.613H101.482H101.351H101.219H101.088H100.956H100.823H100.691H100.558H100.425H100.292H100.159H100.026H99.8918H99.7579H99.6237H99.4893H99.3547H99.2199H99.0849H98.9497H98.8142H98.6785H98.5426H98.4065H98.2702H98.1337H97.9969H97.8599H97.7227H97.5853H97.4476H97.3098H97.1717H97.0334H96.8949H96.7561H96.6172H96.478H96.3386H96.199H96.0591H95.9191H95.7788H95.6383H95.4975H95.3566H95.2154H95.074H94.9324H94.7906H94.6485H94.5062H94.3637H94.221H94.078H93.9349H93.7915H93.6479H93.504H93.3599H93.2156H93.0711H92.9264H92.7814H92.6362H92.4908H92.3451H92.1993H92.0532H91.9068H91.7603H91.6135H91.4665H91.3193H91.1718H91.0242H90.8762H90.7281H90.5797H90.4311H90.2823H90.1333H89.984H89.8345H89.6848H89.5348H89.3846H89.2342H89.0835H88.9327H88.7816H88.6302H88.4787H88.3269H88.1748H88.0226H87.8701H87.7174H87.5644H87.4112H87.2578H87.1042H86.9503H86.7962H86.6419H86.4873H86.3325H86.1774H86.0222H85.8667H85.7109H85.555H85.3988H85.2423H85.0857H84.9287H84.7716H84.6142H84.4566H84.2988H84.1407H83.9824H83.8239H83.6651H83.5061H83.3468H83.1873H83.0276H82.8676H82.7074H82.547H82.3863H82.2254H82.0643H81.9029H81.7413H81.5794H81.4173H81.255H81.0924H80.9296H80.7666H80.6033H80.4398L67.1045 257.264Z" stroke="black"/>
</g>
<path d="M180.709 231.597C180.709 245.785 169.111 257.264 154.916 257.264C140.722 257.264 129.123 245.785 129.123 231.597C129.123 217.408 140.722 205.929 154.916 205.929C169.111 205.929 180.709 217.408 180.709 231.597Z" fill="url(#paint1_linear_127_1422)" stroke="black"/>
<path d="M158.316 211.342C158.316 236.854 137.533 257.515 112.017 257.515C86.3765 257.515 65.7177 236.855 65.7177 211.342C65.7177 185.83 86.5014 165.168 112.017 165.168C137.533 165.168 158.316 185.83 158.316 211.342Z" fill="url(#paint2_linear_127_1422)" stroke="black"/>
<g filter="url(#filter1_d_127_1422)">
<path d="M222.8 103.33C222.8 123.288 206.66 139.429 186.528 139.429C186.181 139.429 183.23 139.429 161.536 139.429C146.437 139.429 122.313 139.429 83.7846 139.429H65.3881C41.2643 139.95 22 120.685 22 97.4292C22 73.9996 41.4379 54.5617 65.9088 55.7766C86.9086 -9.82619 183.057 -0.627915 191.214 67.2311C209.263 69.4872 222.8 84.7599 222.8 103.33Z" fill="url(#paint3_linear_127_1422)"/>
<path d="M65.3881 138.929L65.3773 138.929C41.5334 139.444 22.5 120.404 22.5 97.4292C22.5 74.279 41.705 55.0756 65.884 56.276L66.2678 56.2951L66.3849 55.9291C87.2231 -9.1686 182.625 -0.0286293 190.717 67.2907L190.764 67.6787L191.152 67.7272C208.949 69.9518 222.3 85.0098 222.3 103.33C222.3 123.011 206.385 138.929 186.528 138.929H186.526H186.523H186.521H186.519H186.517H186.514H186.512H186.509H186.507H186.504H186.502H186.499H186.496H186.493H186.49H186.487H186.484H186.481H186.477H186.474H186.471H186.467H186.464H186.46H186.456H186.453H186.449H186.445H186.441H186.437H186.432H186.428H186.424H186.419H186.415H186.41H186.406H186.401H186.396H186.391H186.386H186.381H186.376H186.37H186.365H186.359H186.354H186.348H186.342H186.336H186.331H186.324H186.318H186.312H186.306H186.299H186.293H186.286H186.279H186.272H186.265H186.258H186.251H186.244H186.237H186.229H186.222H186.214H186.206H186.198H186.19H186.182H186.174H186.165H186.157H186.148H186.14H186.131H186.122H186.113H186.104H186.094H186.085H186.075H186.066H186.056H186.046H186.036H186.026H186.016H186.005H185.995H185.984H185.973H185.962H185.951H185.94H185.929H185.918H185.906H185.894H185.883H185.871H185.859H185.846H185.834H185.822H185.809H185.796H185.783H185.77H185.757H185.744H185.73H185.717H185.703H185.689H185.675H185.661H185.647H185.632H185.618H185.603H185.588H185.573H185.558H185.543H185.527H185.511H185.496H185.48H185.464H185.447H185.431H185.414H185.398H185.381H185.364H185.346H185.329H185.312H185.294H185.276H185.258H185.24H185.221H185.203H185.184H185.165H185.146H185.127H185.108H185.088H185.069H185.049H185.029H185.009H184.988H184.968H184.947H184.926H184.905H184.884H184.862H184.841H184.819H184.797H184.775H184.753H184.73H184.707H184.685H184.662H184.638H184.615H184.591H184.567H184.544H184.519H184.495H184.47H184.446H184.421H184.396H184.37H184.345H184.319H184.293H184.267H184.241H184.214H184.188H184.161H184.134H184.107H184.079H184.051H184.024H183.995H183.967H183.939H183.91H183.881H183.852H183.823H183.793H183.763H183.734H183.703H183.673H183.642H183.612H183.581H183.55H183.518H183.486H183.455H183.423H183.39H183.358H183.325H183.292H183.259H183.226H183.192H183.158H183.124H183.09H183.055H183.021H182.986H182.951H182.915H182.88H182.844H182.808H182.771H182.735H182.698H182.661H182.624H182.586H182.549H182.511H182.473H182.434H182.396H182.357H182.318H182.278H182.239H182.199H182.159H182.118H182.078H182.037H181.996H181.955H181.913H181.871H181.829H181.787H181.744H181.702H181.659H181.615H181.572H181.528H181.484H181.44H181.395H181.35H181.305H181.26H181.214H181.169H181.122H181.076H181.03H180.983H180.936H180.888H180.84H180.793H180.744H180.696H180.647H180.598H180.549H180.499H180.45H180.4H180.349H180.299H180.248H180.197H180.145H180.094H180.042H179.989H179.937H179.884H179.831H179.778H179.724H179.67H179.616H179.561H179.507H179.452H179.396H179.341H179.285H179.229H179.172H179.115H179.058H179.001H178.944H178.886H178.827H178.769H178.71H178.651H178.592H178.532H178.472H178.412H178.351H178.291H178.229H178.168H178.106H178.044H177.982H177.919H177.856H177.793H177.73H177.666H177.602H177.537H177.472H177.407H177.342H177.276H177.21H177.144H177.077H177.01H176.943H176.876H176.808H176.74H176.671H176.602H176.533H176.464H176.394H176.324H176.253H176.183H176.112H176.04H175.969H175.897H175.824H175.752H175.679H175.605H175.532H175.458H175.383H175.309H175.234H175.159H175.083H175.007H174.931H174.854H174.777H174.7H174.622H174.544H174.466H174.388H174.309H174.229H174.15H174.07H173.989H173.909H173.828H173.746H173.665H173.583H173.5H173.418H173.334H173.251H173.167H173.083H172.999H172.914H172.829H172.743H172.657H172.571H172.485H172.398H172.31H172.223H172.135H172.046H171.958H171.869H171.779H171.689H171.599H171.509H171.418H171.327H171.235H171.143H171.051H170.958H170.865H170.771H170.678H170.583H170.489H170.394H170.299H170.203H170.107H170.011H169.914H169.817H169.719H169.621H169.523H169.424H169.325H169.226H169.126H169.026H168.925H168.824H168.723H168.621H168.519H168.417H168.314H168.211H168.107H168.003H167.899H167.794H167.689H167.583H167.477H167.371H167.264H167.157H167.049H166.941H166.833H166.724H166.615H166.505H166.395H166.285H166.174H166.063H165.952H165.84H165.727H165.615H165.502H165.388H165.274H165.16H165.045H164.93H164.814H164.698H164.582H164.465H164.348H164.23H164.112H163.994H163.875H163.755H163.636H163.516H163.395H163.274H163.153H163.031H162.909H162.786H162.663H162.539H162.415H162.291H162.166H162.041H161.916H161.79H161.663H161.536H161.448H161.359H161.27H161.181H161.091H161.002H160.912H160.822H160.731H160.641H160.55H160.46H160.368H160.277H160.186H160.094H160.002H159.91H159.818H159.725H159.632H159.539H159.446H159.353H159.259H159.165H159.071H158.977H158.883H158.788H158.693H158.598H158.503H158.407H158.311H158.215H158.119H158.023H157.926H157.829H157.732H157.635H157.538H157.44H157.342H157.244H157.146H157.047H156.948H156.849H156.75H156.651H156.551H156.451H156.351H156.251H156.15H156.05H155.949H155.847H155.746H155.644H155.543H155.44H155.338H155.236H155.133H155.03H154.927H154.823H154.72H154.616H154.512H154.407H154.303H154.198H154.093H153.988H153.883H153.777H153.671H153.565H153.459H153.352H153.245H153.138H153.031H152.924H152.816H152.708H152.6H152.491H152.383H152.274H152.165H152.056H151.946H151.836H151.726H151.616H151.506H151.395H151.284H151.173H151.062H150.95H150.838H150.726H150.614H150.501H150.389H150.276H150.162H150.049H149.935H149.821H149.707H149.593H149.478H149.363H149.248H149.133H149.017H148.901H148.785H148.669H148.552H148.436H148.319H148.201H148.084H147.966H147.848H147.73H147.612H147.493H147.374H147.255H147.136H147.016H146.896H146.776H146.656H146.535H146.414H146.293H146.172H146.05H145.928H145.806H145.684H145.562H145.439H145.316H145.193H145.069H144.945H144.821H144.697H144.573H144.448H144.323H144.198H144.072H143.947H143.821H143.694H143.568H143.441H143.314H143.187H143.06H142.932H142.804H142.676H142.548H142.419H142.29H142.161H142.031H141.902H141.772H141.642H141.511H141.38H141.25H141.118H140.987H140.855H140.723H140.591H140.459H140.326H140.193H140.06H139.926H139.793H139.659H139.525H139.39H139.255H139.12H138.985H138.85H138.714H138.578H138.442H138.305H138.168H138.031H137.894H137.757H137.619H137.481H137.342H137.204H137.065H136.926H136.787H136.647H136.507H136.367H136.227H136.086H135.945H135.804H135.662H135.521H135.379H135.237H135.094H134.951H134.808H134.665H134.522H134.378H134.234H134.089H133.945H133.8H133.655H133.51H133.364H133.218H133.072H132.925H132.779H132.632H132.485H132.337H132.189H132.041H131.893H131.744H131.596H131.446H131.297H131.147H130.998H130.847H130.697H130.546H130.395H130.244H130.093H129.941H129.789H129.636H129.484H129.331H129.178H129.024H128.871H128.717H128.562H128.408H128.253H128.098H127.943H127.787H127.631H127.475H127.319H127.162H127.005H126.848H126.69H126.532H126.374H126.216H126.057H125.899H125.739H125.58H125.42H125.26H125.1H124.939H124.778H124.617H124.456H124.294H124.132H123.97H123.808H123.645H123.482H123.318H123.155H122.991H122.827H122.662H122.497H122.332H122.167H122.001H121.835H121.669H121.503H121.336H121.169H121.002H120.834H120.666H120.498H120.33H120.161H119.992H119.823H119.653H119.483H119.313H119.142H118.972H118.801H118.629H118.458H118.286H118.114H117.941H117.769H117.596H117.422H117.249H117.075H116.901H116.726H116.551H116.376H116.201H116.025H115.849H115.673H115.497H115.32H115.143H114.965H114.788H114.61H114.431H114.253H114.074H113.895H113.715H113.536H113.355H113.175H112.995H112.814H112.632H112.451H112.269H112.087H111.905H111.722H111.539H111.356H111.172H110.988H110.804H110.62H110.435H110.25H110.064H109.879H109.693H109.506H109.32H109.133H108.946H108.758H108.571H108.382H108.194H108.005H107.816H107.627H107.438H107.248H107.058H106.867H106.676H106.485H106.294H106.102H105.91H105.718H105.525H105.332H105.139H104.945H104.752H104.557H104.363H104.168H103.973H103.778H103.582H103.386H103.19H102.993H102.796H102.599H102.402H102.204H102.006H101.807H101.609H101.409H101.21H101.01H100.81H100.61H100.41H100.209H100.007H99.8058H99.604H99.4018H99.1993H98.9965H98.7934H98.59H98.3862H98.1822H97.9778H97.7732H97.5682H97.3629H97.1572H96.9513H96.7451H96.5385H96.3316H96.1244H95.9169H95.7091H95.501H95.2925H95.0837H94.8746H94.6652H94.4555H94.2454H94.0351H93.8244H93.6134H93.4021H93.1904H92.9785H92.7662H92.5536H92.3407H92.1274H91.9139H91.7H91.4858H91.2713H91.0564H90.8413H90.6258H90.41H90.1938H89.9774H89.7606H89.5435H89.3261H89.1083H88.8903H88.6719H88.4531H88.2341H88.0147H87.795H87.575H87.3547H87.134H86.913H86.6917H86.47H86.248H86.0257H85.8031H85.5802H85.3569H85.1332H84.9093H84.685H84.4604H84.2355H84.0102H83.7846L65.3881 138.929Z" stroke="black"/>
</g>
<path d="M222.3 103.33C222.3 123.009 206.213 138.929 186.528 138.929C166.842 138.929 150.755 123.009 150.755 103.33C150.755 83.6506 166.842 67.731 186.528 67.731C206.213 67.731 222.3 83.6506 222.3 103.33Z" fill="url(#paint4_linear_127_1422)" stroke="black"/>
<path d="M191.408 75.3879C191.408 110.688 162.65 139.276 127.346 139.276C91.8697 139.276 63.2847 110.689 63.2847 75.3879C63.2847 40.0876 92.0424 11.5 127.346 11.5C162.65 11.5 191.408 40.0876 191.408 75.3879Z" fill="url(#paint5_linear_127_1422)" stroke="black"/>
<path d="M234.021 318.73H233.973L233.926 318.739C225.541 320.367 216.683 317.811 210.15 311.525C195.11 296.868 173.825 269.83 156.299 241.242C147.538 226.949 139.724 212.281 134.101 198.591C128.475 184.892 125.06 172.211 125.06 161.88C125.06 104.809 171.612 58.3484 228.798 58.3484C286.221 58.3484 332.535 104.809 332.535 161.643C332.535 163.542 332.535 165.171 332.302 167.031L332.3 167.04L332.3 167.05C331.83 172.446 330.418 178.091 328.525 183.757C321.896 203.132 307.972 228.923 292.546 252.963C277.122 277.001 260.23 299.237 247.686 311.522C244.413 314.553 240.445 316.879 236.493 318.04L236.37 318.076L236.28 318.165C236.227 318.219 236.189 318.233 236.156 318.242C236.107 318.254 236.049 318.256 235.921 318.256H235.84L235.763 318.282C235.589 318.34 235.435 318.395 235.295 318.444C234.812 318.616 234.492 318.73 234.021 318.73ZM228.798 104.506C199.317 104.506 175.348 128.426 175.348 157.851C175.348 187.515 199.319 211.196 228.798 211.196C258.278 211.196 282.248 187.276 282.248 157.851C282.248 128.426 258.278 104.506 228.798 104.506Z" fill="#DC437A" stroke="black"/>
<path d="M228.798 343.613C206.87 343.613 184.787 340.713 168.203 335.079C159.91 332.261 153.023 328.769 148.219 324.639C143.421 320.513 140.732 315.783 140.732 310.462C140.732 307.601 141.532 304.093 144.284 300.393C147.04 296.687 151.773 292.764 159.674 289.115C162.491 287.818 165.533 289.1 166.85 291.722C168.144 294.528 166.86 297.56 164.235 298.874C159.574 301.022 156.436 303.182 154.455 305.129C152.488 307.062 151.604 308.843 151.604 310.225C151.604 311.493 152.13 312.781 153.081 314.048C154.033 315.315 155.429 316.589 157.224 317.841C160.814 320.345 166.066 322.808 172.756 324.979C186.141 329.323 205.368 332.527 228.798 332.527C252.229 332.527 271.457 329.263 284.842 324.89C291.532 322.704 296.783 320.234 300.372 317.742C302.167 316.496 303.562 315.233 304.514 313.982C305.464 312.733 305.992 311.466 305.992 310.225C305.992 308.457 304.718 306.315 302.013 304.065C299.286 301.797 295.017 299.344 288.813 296.962C285.991 295.879 284.686 292.855 285.776 290.026C286.861 287.21 289.891 285.906 292.728 286.995C302.771 290.886 308.805 295.171 312.326 299.266C315.838 303.35 316.865 307.263 316.865 310.462C316.865 315.783 314.176 320.513 309.377 324.639C304.573 328.769 297.687 332.261 289.393 335.079C272.81 340.713 250.726 343.613 228.798 343.613Z" fill="#EC72A5" stroke="black"/>
<g filter="url(#filter2_d_127_1422)">
<path d="M418.375 242.176C418.375 256.643 406.676 268.343 392.082 268.343C391.831 268.343 389.692 268.343 373.966 268.343C363.021 268.343 345.535 268.343 317.606 268.343H304.271C286.784 268.72 272.819 254.756 272.819 237.898C272.819 220.915 286.91 206.825 304.648 207.705C319.87 160.151 389.566 166.819 395.479 216.008C408.563 217.644 418.375 228.715 418.375 242.176Z" fill="url(#paint6_linear_127_1422)"/>
<path d="M304.271 267.843L304.26 267.843C287.053 268.215 273.319 254.475 273.319 237.898C273.319 221.194 287.177 207.338 304.623 208.205L305.007 208.224L305.124 207.858C320.185 160.809 389.135 167.418 394.983 216.068L395.029 216.456L395.417 216.504C408.248 218.108 417.875 228.965 417.875 242.176C417.875 256.365 406.401 267.843 392.082 267.843H392.081H392.079H392.078H392.076H392.074H392.073H392.071H392.069H392.067H392.065H392.063H392.061H392.059H392.057H392.055H392.053H392.05H392.048H392.046H392.043H392.041H392.038H392.036H392.033H392.031H392.028H392.025H392.022H392.019H392.016H392.013H392.01H392.007H392.004H392H391.997H391.994H391.99H391.987H391.983H391.979H391.976H391.972H391.968H391.964H391.96H391.956H391.952H391.948H391.944H391.939H391.935H391.93H391.926H391.921H391.917H391.912H391.907H391.902H391.897H391.892H391.887H391.882H391.877H391.871H391.866H391.86H391.855H391.849H391.843H391.837H391.832H391.826H391.82H391.813H391.807H391.801H391.794H391.788H391.781H391.775H391.768H391.761H391.754H391.747H391.74H391.733H391.726H391.718H391.711H391.704H391.696H391.688H391.68H391.673H391.665H391.656H391.648H391.64H391.632H391.623H391.615H391.606H391.597H391.588H391.579H391.57H391.561H391.552H391.543H391.533H391.524H391.514H391.504H391.495H391.485H391.474H391.464H391.454H391.444H391.433H391.423H391.412H391.401H391.39H391.379H391.368H391.357H391.346H391.334H391.323H391.311H391.299H391.287H391.275H391.263H391.251H391.238H391.226H391.213H391.201H391.188H391.175H391.162H391.149H391.135H391.122H391.108H391.095H391.081H391.067H391.053H391.039H391.025H391.01H390.996H390.981H390.966H390.951H390.936H390.921H390.906H390.891H390.875H390.859H390.844H390.828H390.812H390.796H390.779H390.763H390.746H390.729H390.713H390.696H390.679H390.661H390.644H390.626H390.609H390.591H390.573H390.555H390.537H390.518H390.5H390.481H390.463H390.444H390.425H390.405H390.386H390.367H390.347H390.327H390.307H390.287H390.267H390.247H390.226H390.206H390.185H390.164H390.143H390.121H390.1H390.079H390.057H390.035H390.013H389.991H389.969H389.946H389.923H389.901H389.878H389.855H389.831H389.808H389.784H389.761H389.737H389.713H389.689H389.664H389.64H389.615H389.59H389.565H389.54H389.515H389.489H389.464H389.438H389.412H389.386H389.359H389.333H389.306H389.279H389.252H389.225H389.198H389.17H389.143H389.115H389.087H389.059H389.03H389.002H388.973H388.944H388.915H388.886H388.857H388.827H388.797H388.767H388.737H388.707H388.676H388.646H388.615H388.584H388.553H388.521H388.49H388.458H388.426H388.394H388.362H388.329H388.297H388.264H388.231H388.198H388.164H388.131H388.097H388.063H388.029H387.994H387.96H387.925H387.89H387.855H387.82H387.784H387.748H387.712H387.676H387.64H387.604H387.567H387.53H387.493H387.456H387.418H387.381H387.343H387.305H387.266H387.228H387.189H387.15H387.111H387.072H387.033H386.993H386.953H386.913H386.873H386.832H386.791H386.75H386.709H386.668H386.626H386.585H386.543H386.5H386.458H386.415H386.373H386.33H386.286H386.243H386.199H386.155H386.111H386.067H386.022H385.978H385.933H385.888H385.842H385.797H385.751H385.705H385.658H385.612H385.565H385.518H385.471H385.424H385.376H385.328H385.28H385.232H385.183H385.135H385.086H385.036H384.987H384.937H384.887H384.837H384.787H384.736H384.686H384.635H384.583H384.532H384.48H384.428H384.376H384.324H384.271H384.218H384.165H384.111H384.058H384.004H383.95H383.896H383.841H383.786H383.731H383.676H383.62H383.565H383.509H383.452H383.396H383.339H383.282H383.225H383.167H383.11H383.052H382.993H382.935H382.876H382.817H382.758H382.699H382.639H382.579H382.519H382.458H382.398H382.337H382.275H382.214H382.152H382.09H382.028H381.965H381.903H381.84H381.776H381.713H381.649H381.585H381.521H381.456H381.391H381.326H381.261H381.195H381.129H381.063H380.997H380.93H380.863H380.796H380.729H380.661H380.593H380.525H380.456H380.387H380.318H380.249H380.179H380.109H380.039H379.969H379.898H379.827H379.756H379.684H379.613H379.54H379.468H379.395H379.323H379.249H379.176H379.102H379.028H378.954H378.879H378.805H378.729H378.654H378.578H378.502H378.426H378.35H378.273H378.196H378.118H378.041H377.963H377.884H377.806H377.727H377.648H377.569H377.489H377.409H377.329H377.248H377.167H377.086H377.005H376.923H376.841H376.759H376.676H376.593H376.51H376.426H376.343H376.258H376.174H376.089H376.004H375.919H375.834H375.748H375.662H375.575H375.488H375.401H375.314H375.226H375.138H375.05H374.961H374.872H374.783H374.694H374.604H374.514H374.423H374.332H374.241H374.15H374.058H373.966H373.902H373.838H373.773H373.709H373.644H373.579H373.514H373.449H373.383H373.318H373.252H373.186H373.12H373.054H372.987H372.921H372.854H372.788H372.721H372.654H372.586H372.519H372.451H372.384H372.316H372.248H372.18H372.111H372.043H371.974H371.905H371.837H371.767H371.698H371.629H371.559H371.49H371.42H371.35H371.279H371.209H371.139H371.068H370.997H370.926H370.855H370.784H370.712H370.641H370.569H370.497H370.425H370.353H370.28H370.208H370.135H370.062H369.989H369.916H369.843H369.769H369.696H369.622H369.548H369.474H369.399H369.325H369.25H369.175H369.1H369.025H368.95H368.875H368.799H368.723H368.647H368.571H368.495H368.418H368.342H368.265H368.188H368.111H368.034H367.956H367.879H367.801H367.723H367.645H367.567H367.489H367.41H367.331H367.252H367.173H367.094H367.015H366.935H366.855H366.776H366.696H366.615H366.535H366.454H366.374H366.293H366.212H366.13H366.049H365.967H365.886H365.804H365.722H365.639H365.557H365.474H365.392H365.309H365.226H365.142H365.059H364.975H364.892H364.808H364.723H364.639H364.555H364.47H364.385H364.3H364.215H364.13H364.044H363.959H363.873H363.787H363.701H363.614H363.528H363.441H363.354H363.267H363.18H363.092H363.005H362.917H362.829H362.741H362.653H362.564H362.476H362.387H362.298H362.209H362.119H362.03H361.94H361.85H361.76H361.67H361.579H361.489H361.398H361.307H361.216H361.125H361.033H360.942H360.85H360.758H360.666H360.573H360.481H360.388H360.295H360.202H360.109H360.015H359.922H359.828H359.734H359.64H359.545H359.451H359.356H359.261H359.166H359.071H358.975H358.88H358.784H358.688H358.592H358.495H358.399H358.302H358.205H358.108H358.011H357.913H357.815H357.718H357.62H357.521H357.423H357.324H357.226H357.127H357.028H356.928H356.829H356.729H356.629H356.529H356.429H356.328H356.228H356.127H356.026H355.925H355.823H355.722H355.62H355.518H355.416H355.314H355.211H355.108H355.005H354.902H354.799H354.696H354.592H354.488H354.384H354.28H354.175H354.071H353.966H353.861H353.756H353.65H353.545H353.439H353.333H353.227H353.121H353.014H352.907H352.801H352.693H352.586H352.479H352.371H352.263H352.155H352.047H351.938H351.83H351.721H351.612H351.502H351.393H351.283H351.174H351.063H350.953H350.843H350.732H350.621H350.51H350.399H350.288H350.176H350.064H349.952H349.84H349.728H349.615H349.502H349.389H349.276H349.163H349.049H348.935H348.821H348.707H348.593H348.478H348.364H348.249H348.133H348.018H347.902H347.787H347.671H347.554H347.438H347.321H347.205H347.088H346.97H346.853H346.735H346.618H346.5H346.381H346.263H346.144H346.026H345.907H345.787H345.668H345.548H345.428H345.308H345.188H345.068H344.947H344.826H344.705H344.584H344.462H344.341H344.219H344.097H343.974H343.852H343.729H343.606H343.483H343.36H343.236H343.112H342.988H342.864H342.74H342.615H342.49H342.365H342.24H342.115H341.989H341.863H341.737H341.611H341.484H341.358H341.231H341.104H340.976H340.849H340.721H340.593H340.465H340.337H340.208H340.079H339.95H339.821H339.692H339.562H339.432H339.302H339.172H339.041H338.91H338.78H338.648H338.517H338.385H338.254H338.122H337.989H337.857H337.724H337.592H337.458H337.325H337.192H337.058H336.924H336.79H336.655H336.521H336.386H336.251H336.116H335.98H335.845H335.709H335.573H335.436H335.3H335.163H335.026H334.889H334.751H334.614H334.476H334.338H334.2H334.061H333.922H333.783H333.644H333.505H333.365H333.225H333.085H332.945H332.804H332.664H332.523H332.382H332.24H332.099H331.957H331.815H331.672H331.53H331.387H331.244H331.101H330.958H330.814H330.67H330.526H330.382H330.237H330.093H329.948H329.802H329.657H329.511H329.365H329.219H329.073H328.926H328.78H328.633H328.485H328.338H328.19H328.042H327.894H327.746H327.597H327.448H327.299H327.15H327.001H326.851H326.701H326.551H326.4H326.25H326.099H325.948H325.796H325.645H325.493H325.341H325.189H325.036H324.884H324.731H324.577H324.424H324.27H324.116H323.962H323.808H323.653H323.499H323.344H323.188H323.033H322.877H322.721H322.565H322.408H322.252H322.095H321.938H321.78H321.623H321.465H321.307H321.149H320.99H320.831H320.672H320.513H320.353H320.194H320.034H319.874H319.713H319.552H319.392H319.23H319.069H318.907H318.746H318.583H318.421H318.259H318.096H317.933H317.769H317.606L304.271 267.843Z" stroke="black"/>
</g>
<path d="M417.875 242.176C417.875 256.364 406.277 267.843 392.082 267.843C377.888 267.843 366.289 256.364 366.289 242.176C366.289 227.987 377.888 216.508 392.082 216.508C406.277 216.508 417.875 227.987 417.875 242.176Z" fill="url(#paint7_linear_127_1422)" stroke="black"/>
<path d="M395.482 221.921C395.482 247.433 374.698 268.095 349.183 268.095C323.542 268.095 302.884 247.434 302.884 221.921C302.884 196.409 323.667 175.748 349.183 175.748C374.698 175.748 395.482 196.409 395.482 221.921Z" fill="url(#paint8_linear_127_1422)" stroke="black"/>
<defs>
<filter id="filter0_d_127_1422" x="13.6533" y="153.782" width="189.556" height="136.989" filterUnits="userSpaceOnUse" color-interpolation-filters="sRGB">
<feFlood flood-opacity="0" result="BackgroundImageFix"/>
<feColorMatrix in="SourceAlpha" type="matrix" values="0 0 0 0 0 0 0 0 0 0 0 0 0 0 0 0 0 0 127 0" result="hardAlpha"/>
<feOffset dy="11"/>
<feGaussianBlur stdDeviation="11"/>
<feColorMatrix type="matrix" values="0 0 0 0 0.397708 0 0 0 0 0.47749 0 0 0 0 0.575 0 0 0 0.27 0"/>
<feBlend mode="normal" in2="BackgroundImageFix" result="effect1_dropShadow_127_1422"/>
<feBlend mode="normal" in="SourceGraphic" in2="effect1_dropShadow_127_1422" result="shape"/>
</filter>
<filter id="filter1_d_127_1422" x="0" y="0.156982" width="244.8" height="172.282" filterUnits="userSpaceOnUse" color-interpolation-filters="sRGB">
<feFlood flood-opacity="0" result="BackgroundImageFix"/>
<feColorMatrix in="SourceAlpha" type="matrix" values="0 0 0 0 0 0 0 0 0 0 0 0 0 0 0 0 0 0 127 0" result="hardAlpha"/>
<feOffset dy="11"/>
<feGaussianBlur stdDeviation="11"/>
<feColorMatrix type="matrix" values="0 0 0 0 0.397708 0 0 0 0 0.47749 0 0 0 0 0.575 0 0 0 0.27 0"/>
<feBlend mode="normal" in2="BackgroundImageFix" result="effect1_dropShadow_127_1422"/>
<feBlend mode="normal" in="SourceGraphic" in2="effect1_dropShadow_127_1422" result="shape"/>
</filter>
<filter id="filter2_d_127_1422" x="250.819" y="164.361" width="189.556" height="136.989" filterUnits="userSpaceOnUse" color-interpolation-filters="sRGB">
<feFlood flood-opacity="0" result="BackgroundImageFix"/>
<feColorMatrix in="SourceAlpha" type="matrix" values="0 0 0 0 0 0 0 0 0 0 0 0 0 0 0 0 0 0 127 0" result="hardAlpha"/>
<feOffset dy="11"/>
<feGaussianBlur stdDeviation="11"/>
<feColorMatrix type="matrix" values="0 0 0 0 0.397708 0 0 0 0 0.47749 0 0 0 0 0.575 0 0 0 0.27 0"/>
<feBlend mode="normal" in2="BackgroundImageFix" result="effect1_dropShadow_127_1422"/>
<feBlend mode="normal" in="SourceGraphic" in2="effect1_dropShadow_127_1422" result="shape"/>
</filter>
<linearGradient id="paint0_linear_127_1422" x1="108.431" y1="203.209" x2="108.384" y2="258.774" gradientUnits="userSpaceOnUse">
<stop stop-color="white"/>
<stop offset="0.9964" stop-color="#ECF0F5"/>
</linearGradient>
<linearGradient id="paint1_linear_127_1422" x1="125.825" y1="199.795" x2="149.134" y2="225.288" gradientUnits="userSpaceOnUse">
<stop stop-color="#BCCBE1"/>
<stop offset="0.9942" stop-color="white" stop-opacity="0"/>
</linearGradient>
<linearGradient id="paint2_linear_127_1422" x1="60.8354" y1="189.925" x2="97.5719" y2="204.301" gradientUnits="userSpaceOnUse">
<stop stop-color="#E2E8F0"/>
<stop offset="0.9942" stop-color="white" stop-opacity="0"/>
</linearGradient>
<linearGradient id="paint3_linear_127_1422" x1="122.4" y1="64.1682" x2="122.335" y2="140.822" gradientUnits="userSpaceOnUse">
<stop stop-color="white"/>
<stop offset="0.9964" stop-color="#ECF0F5"/>
</linearGradient>
<linearGradient id="paint4_linear_127_1422" x1="146.395" y1="59.4589" x2="178.55" y2="94.6271" gradientUnits="userSpaceOnUse">
<stop stop-color="#BCCBE1"/>
<stop offset="0.9942" stop-color="white" stop-opacity="0"/>
</linearGradient>
<linearGradient id="paint5_linear_127_1422" x1="56.7392" y1="45.842" x2="107.419" y2="65.6745" gradientUnits="userSpaceOnUse">
<stop stop-color="#E2E8F0"/>
<stop offset="0.9942" stop-color="white" stop-opacity="0"/>
</linearGradient>
<linearGradient id="paint6_linear_127_1422" x1="345.597" y1="213.788" x2="345.55" y2="269.353" gradientUnits="userSpaceOnUse">
<stop stop-color="white"/>
<stop offset="0.9964" stop-color="#ECF0F5"/>
</linearGradient>
<linearGradient id="paint7_linear_127_1422" x1="362.991" y1="210.375" x2="386.3" y2="235.867" gradientUnits="userSpaceOnUse">
<stop stop-color="#BCCBE1"/>
<stop offset="0.9942" stop-color="white" stop-opacity="0"/>
</linearGradient>
<linearGradient id="paint8_linear_127_1422" x1="298.001" y1="200.504" x2="334.738" y2="214.88" gradientUnits="userSpaceOnUse">
<stop stop-color="#E2E8F0"/>
<stop offset="0.9942" stop-color="white" stop-opacity="0"/>
</linearGradient>
</defs>
</svg>
