<svg width="319" height="387" viewBox="0 0 319 387" fill="none" xmlns="http://www.w3.org/2000/svg">
<path d="M219.836 386.5C208.069 386.5 194.01 383.487 180.111 373.286C166.209 363.082 152.432 345.661 141.283 316.782C128.357 283.296 121.229 239.513 121.229 193.5C121.229 147.487 128.356 103.704 141.283 70.2178C152.432 41.3394 166.209 23.9177 180.111 13.7141C194.01 3.51304 208.069 0.5 219.836 0.5C231.603 0.5 245.663 3.51304 259.561 13.7141C273.463 23.9177 287.24 41.3394 298.389 70.2178C311.317 103.704 318.444 147.487 318.444 193.5C318.444 239.513 311.317 283.296 298.389 316.782C287.241 345.661 273.464 363.082 259.562 373.286C245.664 383.487 231.604 386.5 219.836 386.5Z" fill="#FCC9DF" stroke="#1F201E"/>
<path d="M99.1642 386.5C87.3974 386.5 73.3376 383.487 59.4391 373.286C45.5371 363.082 31.7605 345.661 20.6115 316.782C7.6837 283.296 0.556641 239.513 0.556641 193.5C0.556641 147.487 7.6837 103.704 20.6115 70.2178C31.7597 41.3394 45.5359 23.9177 59.4379 13.7141C73.3365 3.51304 87.3966 0.5 99.1642 0.5C110.932 0.5 124.992 3.51304 138.89 13.7141C152.792 23.9177 166.568 41.3394 177.717 70.2178C190.643 103.704 197.772 147.487 197.772 193.5C197.772 239.513 190.645 283.296 177.717 316.782C166.568 345.661 152.791 363.082 138.889 373.286C124.991 383.487 110.931 386.5 99.1642 386.5Z" fill="#FCC9DF" stroke="#1F201E"/>
<path d="M219.837 367.958C211.158 367.958 200.676 365.478 190.064 357.057C179.444 348.631 168.664 334.235 159.445 310.354C147.293 278.875 140.592 237.376 140.592 193.5C140.592 149.624 147.293 108.126 159.445 76.6467C168.665 52.7649 179.445 38.3677 190.064 29.9416C200.677 21.521 211.158 19.0405 219.837 19.0405C228.516 19.0405 238.998 21.521 249.61 29.9416C260.23 38.3677 271.01 52.7649 280.229 76.6467C292.381 108.125 299.082 149.623 299.082 193.5C299.082 237.376 292.381 278.874 280.229 310.354C271.01 334.235 260.23 348.631 249.61 357.057C238.998 365.478 228.516 367.958 219.837 367.958Z" fill="#90D5FD" stroke="#1F201E"/>
<path d="M279.722 193.5C279.722 236.648 272.969 275.688 262.069 303.923C256.619 318.042 250.14 329.434 242.973 337.287C235.805 345.14 227.986 349.416 219.838 349.416C211.689 349.416 203.87 345.14 196.702 337.287C189.535 329.434 183.056 318.042 177.606 303.923C166.706 275.688 159.953 236.648 159.953 193.5C159.953 150.353 166.706 111.312 177.606 83.0773C183.056 68.9581 189.535 57.5664 196.702 49.713C203.87 41.8599 211.689 37.584 219.838 37.584C227.986 37.584 235.805 41.8599 242.973 49.713C250.14 57.5664 256.619 68.9581 262.069 83.0773C272.969 111.312 279.722 150.353 279.722 193.5Z" fill="#6CEBF2" stroke="#1F201E"/>
<path d="M199.65 289.381L199.177 289.543L199.65 289.381C190.703 263.252 185.77 229.2 185.77 193.5C185.77 157.8 190.703 123.748 199.65 97.6196C203.705 85.7761 207.911 77.5937 211.519 72.0955L211.519 72.0954C215.365 66.2339 224.308 66.2337 228.155 72.0955C231.763 77.5937 235.971 85.7761 240.024 97.6195L240.024 97.6196C248.971 123.748 253.905 157.8 253.905 193.5C253.905 229.2 248.971 263.25 240.024 289.381C235.969 301.224 231.763 309.407 228.155 314.905L228.573 315.179L228.155 314.905C224.309 320.766 215.366 320.767 211.519 314.905C207.911 309.407 203.704 301.224 199.65 289.381Z" fill="#FFFBCC" stroke="#1F201E"/>
<path d="M99.1652 367.958C90.4866 367.958 80.0045 365.478 69.3917 357.057C58.7719 348.631 47.9925 334.235 38.7735 310.354C26.6216 278.874 19.9199 237.376 19.9199 193.5C19.9199 149.624 26.6216 108.126 38.7735 76.6467C47.9933 52.7649 58.7727 38.3677 69.3923 29.9416C80.0049 21.521 90.4866 19.0405 99.1652 19.0405C107.844 19.0405 118.326 21.521 128.939 29.9416C139.558 38.3677 150.338 52.7649 159.557 76.6467C171.709 108.125 178.41 149.623 178.41 193.5C178.41 237.376 171.709 278.874 159.557 310.354C150.337 334.235 139.557 348.631 128.937 357.057C118.325 365.478 107.843 367.958 99.1652 367.958Z" fill="#90D5FD" stroke="#1F201E"/>
<path d="M159.048 193.5C159.048 236.648 152.296 275.688 141.395 303.923C135.945 318.042 129.467 329.434 122.299 337.287C115.131 345.14 107.312 349.416 99.1637 349.416C91.015 349.416 83.1964 345.14 76.0287 337.287C68.8607 329.434 62.3826 318.042 56.9319 303.923C46.0318 275.688 39.2793 236.648 39.2793 193.5C39.2793 150.353 46.0318 111.312 56.9319 83.0773C62.3826 68.9581 68.8607 57.5664 76.0287 49.713C83.1964 41.8599 91.015 37.584 99.1637 37.584C107.312 37.584 115.131 41.8599 122.299 49.713C129.467 57.5664 135.945 68.9581 141.395 83.0773C152.296 111.312 159.048 150.353 159.048 193.5Z" fill="#6CEBF2" stroke="#1F201E"/>
<path d="M78.976 289.381L78.5029 289.543L78.976 289.381C70.0291 263.252 65.0957 229.2 65.0957 193.5C65.0957 157.8 70.0291 123.748 78.976 97.6196C83.0313 85.7761 87.2371 77.5937 90.8452 72.0955L90.8452 72.0954C94.6911 66.2339 103.634 66.2337 107.481 72.0955C111.09 77.5937 115.297 85.7761 119.351 97.6195L119.351 97.6196C128.298 123.748 133.231 157.8 133.231 193.5C133.231 229.2 128.298 263.25 119.351 289.381L119.824 289.543L119.351 289.381C115.297 301.224 111.09 309.407 107.481 314.905L107.899 315.179L107.481 314.905C103.636 320.766 94.6927 320.767 90.8452 314.905C87.2371 309.407 83.0298 301.224 78.976 289.381Z" fill="#FFFBCC" stroke="#1F201E"/>
<path d="M153.759 143.187H130.288C121.68 143.187 114.701 136.208 114.701 127.6C114.701 118.992 121.68 112.013 130.288 112.013H153.759C162.367 112.013 169.346 118.992 169.346 127.6C169.346 136.208 162.367 143.187 153.759 143.187Z" fill="#1F201E"/>
<path d="M153.759 146.283H130.288C119.986 146.283 111.605 137.902 111.605 127.6C111.605 117.298 119.986 108.917 130.288 108.917H153.759C164.061 108.917 172.442 117.298 172.442 127.6C172.442 137.902 164.061 146.283 153.759 146.283ZM130.288 115.109C123.401 115.109 117.797 120.713 117.797 127.6C117.797 134.487 123.401 140.091 130.288 140.091H153.759C160.646 140.091 166.25 134.487 166.25 127.6C166.25 120.713 160.646 115.109 153.759 115.109H130.288Z" fill="#1F201E"/>
<path d="M95.3715 216.008L95.6957 215.969L95.7909 215.657L111.099 165.493C113.307 158.257 119.983 153.314 127.548 153.314H130.417H159.042V182.397L138.029 181.853L137.724 181.845L137.578 182.112L108.186 235.526L53.8166 237.438L28.9323 235.527L6.98347 221.859C5.1102 220.692 4.84224 217.877 7.01393 216.388C7.97522 215.73 9.21626 215.559 10.3893 215.839L31.6201 220.912L31.783 220.951L31.9365 220.884L35.9118 219.147L35.9119 219.147C41.6806 216.625 48.3412 217.265 53.524 220.838L53.6792 220.945L53.8665 220.922L95.3715 216.008Z" fill="#F9CFCF" stroke="#1F201E"/>
<path d="M223.21 215.657L223.306 215.969L223.63 216.008L265.135 220.922L265.322 220.945L265.477 220.838C270.66 217.265 277.321 216.625 283.089 219.147L283.09 219.147L287.065 220.884L287.218 220.951L287.381 220.912L308.612 215.839C309.785 215.559 311.026 215.73 311.987 216.388C314.159 217.877 313.891 220.692 312.018 221.859L290.069 235.527L265.185 237.438L210.815 235.526L181.424 182.112L181.277 181.845L180.973 181.853L159.959 182.397V153.314H188.585H191.453C199.018 153.314 205.694 158.257 207.902 165.493L223.21 215.657Z" fill="#F9CFCF" stroke="#1F201E"/>
<path d="M198.111 205.396L198.11 205.398L191.823 216.169C189.17 220.716 189.033 226.303 191.457 230.972L202.749 259.683H116.341L127.608 231.017C130.047 226.322 129.892 220.7 127.201 216.144L120.851 205.396L120.851 205.396C115.768 196.795 114.713 186.399 117.962 176.954L130.716 153.314H188.246L201 176.954C204.249 186.399 203.194 196.795 198.111 205.396Z" fill="#FFE900" stroke="#1F201E"/>
<path d="M159.483 169.712C151.639 169.712 145.281 163.354 145.281 155.511V134.08H173.682V155.511C173.682 163.354 167.324 169.712 159.483 169.712Z" fill="#F9CFCF" stroke="#1F201E"/>
<path d="M125.952 99.2454V111.922C125.952 114.647 126.259 117.298 126.828 119.85H126.489C120.796 119.85 116.18 115.234 116.18 109.54C116.18 104.026 120.507 99.5247 125.952 99.2454Z" fill="#F9CFCF" stroke="#1F201E"/>
<path d="M193.395 111.922V99.2455C198.84 99.5263 203.168 104.027 203.168 109.541C203.168 115.234 198.553 119.851 192.858 119.851H192.52C193.088 117.299 193.395 114.647 193.395 111.922Z" fill="#F9CFCF" stroke="#1F201E"/>
<path d="M159.457 147.303C139.917 147.303 124.076 131.463 124.076 111.922V93.6865C124.076 74.1467 139.916 58.3054 159.457 58.3054C178.997 58.3054 194.838 74.1452 194.838 93.6865V111.922C194.837 131.462 178.997 147.303 159.457 147.303Z" fill="#F9CFCF" stroke="#1F201E"/>
<path d="M159.459 48.6489C137.098 48.6489 118.971 66.776 118.971 89.1369V98.7329H139.384C150.471 98.7329 159.457 89.7452 159.457 78.66C159.457 89.7468 168.445 98.7329 179.53 98.7329H199.943V89.1369C199.945 66.776 181.818 48.6489 159.459 48.6489Z" fill="#1F201E"/>
<path d="M199.945 101.827H179.53C170.962 101.827 163.465 97.1523 159.457 90.2188C155.448 97.1523 147.951 101.827 139.383 101.827H118.969C117.26 101.827 115.873 100.44 115.873 98.7313V89.1352C115.873 65.1041 135.424 45.5513 159.457 45.5513C183.49 45.5513 203.041 65.1025 203.041 89.1352V98.7313C203.041 100.442 201.655 101.827 199.945 101.827ZM159.459 75.5623C161.168 75.5623 162.555 76.9494 162.555 78.6583C162.555 88.0191 170.171 95.6353 179.531 95.6353H196.85V89.1352C196.85 68.5174 180.076 51.7433 159.459 51.7433C138.841 51.7433 122.067 68.5174 122.067 89.1352V95.6353H139.384C148.746 95.6353 156.363 88.0191 156.363 78.6583C156.363 76.9478 157.748 75.5623 159.459 75.5623Z" fill="#1F201E"/>
<path d="M245.898 229.342L245.947 228.844L245.898 229.342C254.395 230.181 261.408 236.048 263.563 244.091C265.718 252.135 262.577 260.721 255.639 265.698C251.823 268.433 247.47 270.357 242.864 271.343L123.241 296.93L115.622 268.493L232.013 230.84C236.494 229.39 241.227 228.879 245.898 229.342Z" fill="#FFE900" stroke="#1F201E"/>
<path d="M88.0503 292.362L88.0502 292.362C86.468 291.979 85.2212 290.763 84.7995 289.19C84.7995 289.19 84.7995 289.19 84.7995 289.19L82.9606 282.325C82.4605 280.454 83.5339 278.525 85.387 277.964C85.387 277.964 85.3871 277.964 85.3872 277.964L116.413 268.581C116.683 268.5 116.968 268.658 117.041 268.931L124.308 296.053C124.392 296.368 124.158 296.673 123.838 296.676C112.36 296.78 100.912 295.469 89.7516 292.773C89.7515 292.773 89.7514 292.773 89.7513 292.773L88.0503 292.362Z" fill="#F9CFCF" stroke="#1F201E" stroke-linejoin="round"/>
<path d="M73.1899 229.342L73.19 229.342C77.8612 228.879 82.594 229.39 87.0752 230.84L203.466 268.493L195.847 296.93L76.2237 271.343C71.6174 270.357 67.2645 268.433 63.449 265.698C56.5107 260.721 53.3695 252.135 55.5245 244.091C57.6811 236.047 64.6941 230.181 73.1899 229.342Z" fill="#FFE900" stroke="#1F201E"/>
<path d="M230.892 291.984L230.892 291.984L229.191 292.396C229.191 292.396 229.191 292.396 229.191 292.396C217.825 295.141 206.16 296.45 194.469 296.292L202.035 268.055L233.555 277.586C233.555 277.587 233.555 277.587 233.555 277.587C235.408 278.148 236.482 280.077 235.982 281.948L234.143 288.813C233.721 290.385 232.474 291.602 230.892 291.984Z" fill="#F9CFCF" stroke="#1F201E"/>
<path d="M151.402 126.341C155.213 130.627 164.739 130.627 168.073 126.341" stroke="#1F201E" stroke-linecap="round"/>
<path d="M135.686 110.623C135.686 113.479 137.958 116.23 141.648 116.335C145.454 116.444 148.07 113.479 148.07 110.623" stroke="#1F201E" stroke-linecap="round"/>
<path d="M170.932 110.623C170.932 113.479 173.379 116.23 177.353 116.335C181.451 116.444 184.268 113.479 184.268 110.623" stroke="#1F201E" stroke-linecap="round"/>
</svg>
