<svg width="64" height="64" viewBox="0 0 64 64" fill="none" xmlns="http://www.w3.org/2000/svg">
<g clip-path="url(#clip0_362_944)">
<path d="M56.6444 40.7156L56.6447 40.7129C56.9114 38.1717 58.9708 36.1682 61.5323 35.9834V31.531C61.5323 29.2878 59.7139 27.4694 57.4707 27.4694H6.19381C3.94991 27.4694 2.13086 29.2884 2.13086 31.5323V35.8779C2.13086 35.9459 2.18136 36.01 2.26111 36.0212C3.56451 36.2043 4.71536 36.8608 5.53282 37.8098C5.54894 37.8266 5.56197 37.8422 5.57194 37.855C6.35058 38.7763 6.81998 39.9688 6.81998 41.2708C6.81998 43.6743 5.22164 45.7008 3.03024 46.3527C3.03017 46.3528 3.03011 46.3528 3.03004 46.3528L2.88748 45.8736C2.66126 45.941 2.42838 45.9918 2.18988 46.0251C1.87027 46.0697 1.63099 46.3402 1.63099 46.6631V51.7643C1.63099 54.2844 3.6739 56.3273 6.19394 56.3273H57.4695C59.9896 56.3273 62.0325 54.2844 62.0325 51.7643V46.2303C62.0325 46.1428 61.9621 46.0716 61.8746 46.0709L56.6444 40.7156ZM56.6444 40.7156C56.6266 40.8954 56.6158 41.0806 56.6158 41.2706C56.6158 44.0685 58.7848 46.3613 61.5325 46.5596L56.6444 40.7156Z" fill="#EC72A5" stroke="#1F201E"/>
<path d="M9.92803 53.8352L9.92801 53.8352C7.77101 54.4562 5.52102 53.2107 4.8999 51.0545L3.49866 46.1889C5.44571 45.4039 6.81998 43.4993 6.81998 41.2707C6.81998 39.9687 6.35057 38.7762 5.57193 37.8549C5.56197 37.842 5.54894 37.8265 5.53283 37.8097C4.71537 36.8607 3.56451 36.2042 2.26111 36.0211C2.18136 36.0099 2.13086 35.9458 2.13086 35.8778V31.5322C2.13086 29.2883 3.94991 27.4692 6.19381 27.4692H57.4707C59.714 27.4692 61.5325 29.2877 61.5325 31.5307V35.9817C59.085 36.1582 57.097 37.9956 56.6914 40.3745L9.92803 53.8352Z" fill="#DC437A" stroke="#1F201E"/>
<path d="M11.2838 49.7676L11.2839 49.7676L44.0246 40.3439L45.908 39.8018L60.56 35.5844C60.5601 35.5844 60.5601 35.5843 60.5601 35.5843C62.7163 34.9633 63.9607 32.713 63.3407 30.5566C63.3407 30.5566 63.3407 30.5565 63.3407 30.5565L61.9008 25.5537L11.2838 49.7676ZM11.2838 49.7676C9.12798 50.3885 6.87751 49.1433 6.25635 46.9868C6.25634 46.9868 6.25633 46.9867 6.25632 46.9867L4.87133 42.175L4.39217 42.313L4.87133 42.175C4.83613 42.0527 4.89569 41.9271 5.00384 41.8768L5.00396 41.8768M11.2838 49.7676L5.00396 41.8768M5.00396 41.8768C7.33274 40.7947 8.59195 38.1502 7.859 35.6055L5.00396 41.8768ZM55.7131 21.8319C56.4852 24.5124 59.1877 26.1141 61.8761 25.559L1.83952 31.6435L0.659646 27.544C0.659632 27.5439 0.659618 27.5439 0.659604 27.5438C0.0397429 25.3874 1.2844 23.136 3.4402 22.5163L3.44035 22.5162L36.181 13.0925L38.0644 12.5505L37.9261 12.07L38.0644 12.5505L52.7165 8.33302L52.7166 8.333C54.8727 7.71199 57.123 8.95624 57.7441 11.1125C57.7441 11.1125 57.7441 11.1125 57.7441 11.1126L58.9768 15.395C58.8706 15.4321 58.7592 15.4731 58.6776 15.5088C56.2786 16.5588 54.9687 19.2477 55.7131 21.8319ZM59.0528 15.3688C59.0525 15.369 59.0521 15.3691 59.0518 15.3692C59.0522 15.3691 59.0525 15.3689 59.0528 15.3688L59.0528 15.3688ZM7.85893 35.6052C7.12765 33.0627 4.65872 31.4918 2.1126 31.8107C1.97724 31.8277 1.86988 31.7486 1.83956 31.6436L7.85893 35.6052Z" fill="#FFFBCC" stroke="#1F201E"/>
<path d="M4.87127 42.1755L4.87126 42.1755L2.17467 32.3063L2.11272 31.8101C2.11271 31.8101 2.11269 31.8101 2.11267 31.8101C1.97708 31.827 1.86979 31.7478 1.83963 31.6429L1.83962 31.6429L0.659669 27.5434C0.0390984 25.3873 1.28385 23.1364 3.4399 22.5158L3.3016 22.0353L3.4399 22.5158L36.6419 12.9591L44.4857 40.2108L11.2837 49.7674C9.12768 50.3879 6.87672 49.1432 6.25615 46.9871L4.87127 42.1755Z" fill="#FFD400" stroke="#1F201E"/>
<path d="M13.8999 26.7007C13.8999 28.4658 15.3355 29.9014 17.1006 29.9014C18.8657 29.9014 20.3013 28.4658 20.3013 26.7007C20.3013 24.9356 18.8657 23.5 17.1006 23.5C15.3355 23.5 13.8999 24.9356 13.8999 26.7007ZM16.7004 26.7007C16.7004 26.4799 16.8798 26.3005 17.1006 26.3005C17.3214 26.3005 17.5008 26.4799 17.5008 26.7007C17.5008 26.9215 17.3214 27.1009 17.1006 27.1009C16.8798 27.1009 16.7004 26.9215 16.7004 26.7007Z" fill="#FAFAFA" stroke="#1F201E"/>
<path d="M25.0999 36.3007C25.0999 38.0658 26.5354 39.5014 28.3006 39.5014C30.0657 39.5014 31.5013 38.0658 31.5013 36.3007C31.5013 34.5355 30.0657 33.1 28.3006 33.1C26.5354 33.1 25.0999 34.5355 25.0999 36.3007ZM27.9003 36.3007C27.9003 36.0817 28.0816 35.9004 28.3006 35.9004C28.5195 35.9004 28.7008 36.0817 28.7008 36.3007C28.7008 36.5197 28.5195 36.7009 28.3006 36.7009C28.0816 36.7009 27.9003 36.5197 27.9003 36.3007Z" fill="#FAFAFA" stroke="#1F201E"/>
<path d="M25.5649 24.0863L25.5647 24.0867L16.5626 36.6896C16.1118 37.3197 16.2578 38.1936 16.887 38.6439C17.1337 38.8204 17.4181 38.9048 17.7002 38.9048C18.1376 38.9048 18.5655 38.6995 18.8401 38.3195L18.8401 38.3195L18.8417 38.3173L27.844 25.714C28.2914 25.0877 28.1505 24.2113 27.5188 23.7615C26.8888 23.311 26.0151 23.4572 25.5649 24.0863Z" fill="#FAFAFA" stroke="#1F201E"/>
<path d="M45.427 39.94L44.505 40.2053L44.2644 39.3682L44.2642 39.3675C44.1907 39.1131 44.3378 38.8475 44.5915 38.7749L44.5915 38.7749L44.593 38.7744C44.8459 38.7012 45.1126 38.8483 45.1853 39.1019L45.1855 39.1028L45.427 39.94Z" fill="#DC437A" stroke="#1F201E"/>
<path d="M43.8846 34.5819L43.8848 34.5825C43.9583 34.8369 43.8111 35.1025 43.5574 35.1752L43.5559 35.1756C43.5098 35.189 43.4652 35.195 43.4234 35.195C43.2143 35.195 43.0235 35.0573 42.9638 34.8484L42.9635 34.8474L42.244 32.3495C42.244 32.3494 42.244 32.3494 42.244 32.3493C42.171 32.0942 42.3188 31.8284 42.5724 31.7558L42.5738 31.7553C42.8257 31.6824 43.0923 31.8282 43.1663 32.0835C43.1663 32.0836 43.1664 32.0838 43.1664 32.0839L43.8846 34.5819ZM40.4625 27.9667C40.5865 28.3964 40.9784 28.6759 41.4029 28.6759C41.493 28.6759 41.5844 28.6628 41.6745 28.6367C42.1944 28.4878 42.4948 27.9445 42.3459 27.4246L40.4625 27.9667ZM41.1459 25.0648L41.8652 27.5623C41.8652 27.5624 41.8653 27.5625 41.8653 27.5626C41.9382 27.8176 41.7904 28.0834 41.5369 28.156L41.5353 28.1565C41.4893 28.1698 41.4447 28.1759 41.4029 28.1759C41.1958 28.1759 41.0038 28.0387 40.9429 27.8283C40.9429 27.8282 40.9429 27.8281 40.9428 27.828L40.2246 25.3299L40.2244 25.3293C40.1513 25.076 40.2971 24.8106 40.5523 24.7365C40.8074 24.6637 41.0723 24.8104 41.1458 25.0647C41.1458 25.0647 41.1458 25.0648 41.1459 25.0648ZM39.125 18.0459L39.1252 18.0467L39.8446 20.5432C39.8447 20.5433 39.8447 20.5434 39.8447 20.5436C39.9175 20.7983 39.77 21.0649 39.5152 21.1386L39.5148 21.1387C39.4729 21.1508 39.4285 21.1568 39.3836 21.1568C39.1749 21.1568 38.9831 21.0192 38.9223 20.8091C38.9223 20.809 38.9223 20.8089 38.9223 20.8088L38.204 18.312L38.2039 18.3115C38.1305 18.0576 38.2771 17.7912 38.532 17.7173C38.7856 17.6447 39.0524 17.7925 39.125 18.0459Z" fill="#DC437A" stroke="#1F201E"/>
<path d="M37.4959 14.1194L37.4954 14.1196C37.4539 14.1316 37.4096 14.1377 37.363 14.1377C37.1535 14.1377 36.9627 13.9996 36.9032 13.792L36.903 13.7912L36.6615 12.954L37.5835 12.6887L37.8241 13.5258L37.8243 13.5265C37.8976 13.78 37.7515 14.0456 37.4959 14.1194Z" fill="#DC437A" stroke="#1F201E"/>
</g>
<defs>
<clipPath id="clip0_362_944">
<rect width="64" height="64" fill="white"/>
</clipPath>
</defs>
</svg>
